M48
; DRILL file {KiCad 9.0.8-1.fc43} date 2026-03-28T20:24:26+0100
; FORMAT={-:-/ absolute / inch / decimal}
; #@! TF.CreationDate,2026-03-28T20:24:26+01:00
; #@! TF.GenerationSoftware,Kicad,Pcbnew,9.0.8-1.fc43
; #@! TF.FileFunction,Plated,1,4,PTH
FMAT,2
INCH
; #@! TA.AperFunction,Plated,PTH,ViaDrill
T1C0.0118
; #@! TA.AperFunction,Plated,PTH,ComponentDrill
T2C0.0118
; #@! TA.AperFunction,Plated,PTH,ViaDrill
T3C0.0197
; #@! TA.AperFunction,Plated,PTH,ComponentDrill
T4C0.0236
; #@! TA.AperFunction,Plated,PTH,ComponentDrill
T5C0.0315
; #@! TA.AperFunction,Plated,PTH,ComponentDrill
T6C0.0354
; #@! TA.AperFunction,Plated,PTH,ComponentDrill
T7C0.0374
; #@! TA.AperFunction,Plated,PTH,ComponentDrill
T8C0.0394
; #@! TA.AperFunction,Plated,PTH,ComponentDrill
T9C0.0472
; #@! TA.AperFunction,Plated,PTH,ComponentDrill
T10C0.1063
%
G90
G05
T1
X3.646Y-1.992
X4.0852Y-3.8823
X4.14Y-2.978
X4.189Y-4.0393
X4.193Y-2.692
X4.2285Y-2.8402
X4.2822Y-4.0703
X4.4015Y-2.7862
X4.425Y-4.871
X4.434Y-4.738
X4.4444Y-2.7275
X4.4505Y-2.7942
X4.465Y-2.4673
X4.4692Y-3.6698
X4.4768Y-3.8096
X4.4768Y-3.9377
X4.4772Y-3.887
X4.4772Y-3.8451
X4.4772Y-3.9731
X4.506Y-3.7303
X4.528Y-2.3823
X4.532Y-2.6413
X4.536Y-3.5623
X4.5391Y-2.9172
X4.563Y-4.647
X4.5746Y-2.9174
X4.579Y-3.3293
X4.594Y-3.066
X4.61Y-2.9163
X4.617Y-4.897
X4.6202Y-3.9128
X4.627Y-2.448
X4.6535Y-2.9152
X4.7057Y-2.9885
X4.7172Y-2.863
X4.7203Y-2.923
X4.721Y-3.0733
X4.731Y-2.6813
X4.738Y-3.8043
X4.743Y-2.8343
X4.76Y-2.105
X4.796Y-2.593
X4.833Y-3.7133
X4.844Y-2.6823
X4.844Y-3.4933
X4.844Y-3.5443
X4.844Y-3.5943
X4.844Y-3.6443
X4.902Y-2.405
X4.945Y-2.6373
X4.95Y-2.8203
X4.95Y-2.9283
X4.978Y-4.429
X4.99Y-3.5153
X5.008Y-2.8243
X5.025Y-4.2047
X5.047Y-2.105
X5.06Y-2.5383
X5.066Y-2.675
X5.08Y-2.8943
X5.091Y-4.431
X5.123Y-2.404
X5.1717Y-2.7993
X5.1734Y-2.2108
X5.1734Y-2.2598
X5.1734Y-2.3108
X5.174Y-2.3603
X5.1743Y-2.4118
X5.1743Y-2.4628
X5.187Y-3.4923
X5.2Y-3.784
X5.201Y-2.9063
X5.201Y-3.302
X5.209Y-4.484
X5.211Y-4.345
X5.212Y-3.3943
X5.212Y-3.4443
X5.2135Y-3.694
X5.214Y-2.7993
X5.299Y-2.5108
X5.299Y-2.5593
X5.302Y-2.059
X5.312Y-3.9663
X5.349Y-4.1917
X5.366Y-3.5673
X5.379Y-3.842
X5.4Y-2.8123
X5.429Y-4.4367
X5.442Y-3.4973
X5.451Y-2.8123
X5.463Y-4.1597
X5.5008Y-2.8123
X5.545Y-4.912
X5.55Y-2.8123
X5.6008Y-2.8123
X5.6498Y-2.8123
X5.687Y-4.3507
X5.694Y-4.0677
X5.7008Y-2.8123
X5.755Y-4.2297
X5.79Y-2.8263
X5.793Y-4.742
X5.842Y-2.059
X5.8737Y-2.7096
X5.904Y-4.2217
X5.935Y-4.3447
X5.962Y-4.4187
X5.976Y-2.1103
X5.976Y-2.1613
X5.976Y-2.2123
X5.976Y-2.2613
X5.976Y-2.5105
X5.977Y-4.6958
X5.985Y-4.7708
X5.991Y-2.3523
X5.991Y-2.6793
X6.008Y-4.4197
X6.032Y-2.106
X6.064Y-3.6173
X6.085Y-4.7538
X6.109Y-4.2424
X6.155Y-3.6283
X6.184Y-4.517
X6.187Y-5.074
X6.188Y-4.029
X6.189Y-4.9338
X6.2Y-3.7963
X6.209Y-2.1133
X6.228Y-4.516
X6.243Y-4.984
X6.246Y-3.2723
X6.362Y-3.7403
X6.3886Y-3.6788
X6.435Y-3.7783
X6.451Y-2.2223
X6.451Y-2.281
X6.454Y-2.1123
X6.484Y-2.5383
X6.503Y-2.6673
X6.5141Y-3.7204
X6.5411Y-3.5193
X6.5416Y-3.6939
X6.543Y-4.5158
X6.543Y-4.613
X6.554Y-3.2573
X6.579Y-3.4993
X6.5906Y-3.5378
X6.5906Y-3.5818
X6.5906Y-3.6188
X6.5908Y-3.655
X6.5947Y-4.5511
X6.5947Y-4.5885
X6.614Y-2.787
X6.642Y-4.5148
X6.6646Y-3.2738
X6.674Y-2.8813
X6.705Y-2.977
X6.727Y-3.821
X6.8036Y-3.6748
X6.822Y-3.7933
X6.826Y-4.7568
X6.862Y-4.947
X6.871Y-3.142
X6.907Y-4.997
X6.955Y-4.307
X7.012Y-3.5943
X7.0735Y-4.1043
X7.081Y-4.19
X7.082Y-4.264
X7.105Y-4.0193
X7.121Y-4.1033
X7.146Y-2.8843
X7.178Y-2.8333
X7.178Y-2.9323
X7.179Y-3.6153
X7.182Y-4.164
X7.231Y-3.7433
X7.261Y-4.545
X7.286Y-4.628
X7.3Y-4.141
X7.304Y-3.4043
X7.31Y-3.5013
X7.313Y-2.6943
X7.313Y-3.19
X7.32Y-3.0083
X7.321Y-2.6243
X7.323Y-2.3403
X7.33Y-3.892
X7.357Y-3.136
X7.453Y-2.5193
X7.463Y-2.2293
X7.469Y-5.082
X7.482Y-3.898
T2
X5.461Y-2.4204
X5.464Y-2.3102
X5.4886Y-2.3647
X5.5437Y-2.3647
X5.5703Y-2.4185
X5.5722Y-2.3096
T3
X4.091Y-2.8603
X4.093Y-3.0583
X4.113Y-2.7353
X4.6627Y-2.1123
X6.537Y-4.7829
X6.7751Y-4.7829
T4
X7.19Y-2.4063
X7.19Y-2.4563
X7.19Y-2.5063
X7.1915Y-2.1153
X7.1915Y-2.1653
X7.1915Y-2.2153
T5
X4.0357Y-4.6931
X4.0357Y-4.7916
X4.5028Y-4.4348
X4.5563Y-3.2622
X4.5816Y-4.4348
X4.6351Y-3.2622
T6
X5.7051Y-4.8991
X5.8626Y-4.8991
X6.0201Y-4.8991
T7
X3.7786Y-3.7676
X3.7786Y-3.8661
X3.7786Y-3.9645
X3.7786Y-4.0629
X3.8064Y-2.7501
X3.8064Y-2.8485
X3.8064Y-2.9469
X3.8064Y-3.0453
T8
X7.405Y-3.788
X7.405Y-3.888
X7.405Y-3.988
X7.405Y-4.088
X7.405Y-4.188
X7.405Y-4.454
X7.405Y-4.554
X7.405Y-4.654
X7.405Y-4.754
X7.407Y-2.7333
X7.407Y-2.8333
X7.407Y-2.9333
X7.407Y-3.0333
X7.407Y-3.2523
X7.407Y-3.3523
X7.407Y-3.4523
X7.407Y-3.5523
T9
X5.6264Y-4.8302
X5.6264Y-5.0664
X6.0988Y-4.8302
X6.0988Y-5.0664
T10
X3.7597Y-4.6501
X3.7597Y-4.847
T4
G00X6.4771Y-4.8401
M15
G01X6.4771Y-4.8834
M16
G05
G00X6.4771Y-5.0106
M15
G01X6.4771Y-5.0421
M16
G05
G00X6.8173Y-4.8401
M15
G01X6.8173Y-4.8834
M16
G05
G00X6.8173Y-5.0106
M15
G01X6.8173Y-5.0421
M16
G05
M30
