%TF.GenerationSoftware,KiCad,Pcbnew,9.0.8-1.fc43*%
%TF.CreationDate,2026-03-28T20:24:26+01:00*%
%TF.ProjectId,Startracker,53746172-7472-4616-936b-65722e6b6963,rev?*%
%TF.SameCoordinates,Original*%
%TF.FileFunction,Other,Comment*%
%FSLAX46Y46*%
G04 Gerber Fmt 4.6, Leading zero omitted, Abs format (unit mm)*
G04 Created by KiCad (PCBNEW 9.0.8-1.fc43) date 2026-03-28 20:24:26*
%MOMM*%
%LPD*%
G01*
G04 APERTURE LIST*
%ADD10C,0.150000*%
G04 APERTURE END LIST*
D10*
X129466542Y-39601296D02*
X129466542Y-37601296D01*
X130609399Y-39601296D02*
X129752256Y-38458438D01*
X130609399Y-37601296D02*
X129466542Y-38744153D01*
X131466542Y-38553677D02*
X132133209Y-38553677D01*
X132418923Y-39601296D02*
X131466542Y-39601296D01*
X131466542Y-39601296D02*
X131466542Y-37601296D01*
X131466542Y-37601296D02*
X132418923Y-37601296D01*
X133276066Y-38553677D02*
X133942733Y-38553677D01*
X134228447Y-39601296D02*
X133276066Y-39601296D01*
X133276066Y-39601296D02*
X133276066Y-37601296D01*
X133276066Y-37601296D02*
X134228447Y-37601296D01*
X135085590Y-39601296D02*
X135085590Y-37601296D01*
X135085590Y-37601296D02*
X135847495Y-37601296D01*
X135847495Y-37601296D02*
X136037971Y-37696534D01*
X136037971Y-37696534D02*
X136133209Y-37791772D01*
X136133209Y-37791772D02*
X136228447Y-37982248D01*
X136228447Y-37982248D02*
X136228447Y-38267962D01*
X136228447Y-38267962D02*
X136133209Y-38458438D01*
X136133209Y-38458438D02*
X136037971Y-38553677D01*
X136037971Y-38553677D02*
X135847495Y-38648915D01*
X135847495Y-38648915D02*
X135085590Y-38648915D01*
X137085590Y-38839391D02*
X138609400Y-38839391D01*
X139942732Y-37601296D02*
X140323685Y-37601296D01*
X140323685Y-37601296D02*
X140514161Y-37696534D01*
X140514161Y-37696534D02*
X140704637Y-37887010D01*
X140704637Y-37887010D02*
X140799875Y-38267962D01*
X140799875Y-38267962D02*
X140799875Y-38934629D01*
X140799875Y-38934629D02*
X140704637Y-39315581D01*
X140704637Y-39315581D02*
X140514161Y-39506058D01*
X140514161Y-39506058D02*
X140323685Y-39601296D01*
X140323685Y-39601296D02*
X139942732Y-39601296D01*
X139942732Y-39601296D02*
X139752256Y-39506058D01*
X139752256Y-39506058D02*
X139561780Y-39315581D01*
X139561780Y-39315581D02*
X139466542Y-38934629D01*
X139466542Y-38934629D02*
X139466542Y-38267962D01*
X139466542Y-38267962D02*
X139561780Y-37887010D01*
X139561780Y-37887010D02*
X139752256Y-37696534D01*
X139752256Y-37696534D02*
X139942732Y-37601296D01*
X141657018Y-37601296D02*
X141657018Y-39220343D01*
X141657018Y-39220343D02*
X141752256Y-39410819D01*
X141752256Y-39410819D02*
X141847494Y-39506058D01*
X141847494Y-39506058D02*
X142037970Y-39601296D01*
X142037970Y-39601296D02*
X142418923Y-39601296D01*
X142418923Y-39601296D02*
X142609399Y-39506058D01*
X142609399Y-39506058D02*
X142704637Y-39410819D01*
X142704637Y-39410819D02*
X142799875Y-39220343D01*
X142799875Y-39220343D02*
X142799875Y-37601296D01*
X143466542Y-37601296D02*
X144609399Y-37601296D01*
X144037970Y-39601296D02*
X144037970Y-37601296D01*
X146609400Y-37601296D02*
X147942733Y-37601296D01*
X147942733Y-37601296D02*
X146609400Y-39601296D01*
X146609400Y-39601296D02*
X147942733Y-39601296D01*
X149085590Y-37601296D02*
X149466543Y-37601296D01*
X149466543Y-37601296D02*
X149657019Y-37696534D01*
X149657019Y-37696534D02*
X149847495Y-37887010D01*
X149847495Y-37887010D02*
X149942733Y-38267962D01*
X149942733Y-38267962D02*
X149942733Y-38934629D01*
X149942733Y-38934629D02*
X149847495Y-39315581D01*
X149847495Y-39315581D02*
X149657019Y-39506058D01*
X149657019Y-39506058D02*
X149466543Y-39601296D01*
X149466543Y-39601296D02*
X149085590Y-39601296D01*
X149085590Y-39601296D02*
X148895114Y-39506058D01*
X148895114Y-39506058D02*
X148704638Y-39315581D01*
X148704638Y-39315581D02*
X148609400Y-38934629D01*
X148609400Y-38934629D02*
X148609400Y-38267962D01*
X148609400Y-38267962D02*
X148704638Y-37887010D01*
X148704638Y-37887010D02*
X148895114Y-37696534D01*
X148895114Y-37696534D02*
X149085590Y-37601296D01*
X150799876Y-39601296D02*
X150799876Y-37601296D01*
X150799876Y-37601296D02*
X151942733Y-39601296D01*
X151942733Y-39601296D02*
X151942733Y-37601296D01*
X152895114Y-38553677D02*
X153561781Y-38553677D01*
X153847495Y-39601296D02*
X152895114Y-39601296D01*
X152895114Y-39601296D02*
X152895114Y-37601296D01*
X152895114Y-37601296D02*
X153847495Y-37601296D01*
X138797495Y-48332962D02*
X139273685Y-48332962D01*
X138702257Y-48618677D02*
X139035590Y-47618677D01*
X139035590Y-47618677D02*
X139368923Y-48618677D01*
X139702257Y-47952010D02*
X139702257Y-48618677D01*
X139702257Y-48047248D02*
X139749876Y-47999629D01*
X139749876Y-47999629D02*
X139845114Y-47952010D01*
X139845114Y-47952010D02*
X139987971Y-47952010D01*
X139987971Y-47952010D02*
X140083209Y-47999629D01*
X140083209Y-47999629D02*
X140130828Y-48094867D01*
X140130828Y-48094867D02*
X140130828Y-48618677D01*
X140464162Y-47952010D02*
X140845114Y-47952010D01*
X140607019Y-47618677D02*
X140607019Y-48475819D01*
X140607019Y-48475819D02*
X140654638Y-48571058D01*
X140654638Y-48571058D02*
X140749876Y-48618677D01*
X140749876Y-48618677D02*
X140845114Y-48618677D01*
X141559400Y-48571058D02*
X141464162Y-48618677D01*
X141464162Y-48618677D02*
X141273686Y-48618677D01*
X141273686Y-48618677D02*
X141178448Y-48571058D01*
X141178448Y-48571058D02*
X141130829Y-48475819D01*
X141130829Y-48475819D02*
X141130829Y-48094867D01*
X141130829Y-48094867D02*
X141178448Y-47999629D01*
X141178448Y-47999629D02*
X141273686Y-47952010D01*
X141273686Y-47952010D02*
X141464162Y-47952010D01*
X141464162Y-47952010D02*
X141559400Y-47999629D01*
X141559400Y-47999629D02*
X141607019Y-48094867D01*
X141607019Y-48094867D02*
X141607019Y-48190105D01*
X141607019Y-48190105D02*
X141130829Y-48285343D01*
X142035591Y-47952010D02*
X142035591Y-48618677D01*
X142035591Y-48047248D02*
X142083210Y-47999629D01*
X142083210Y-47999629D02*
X142178448Y-47952010D01*
X142178448Y-47952010D02*
X142321305Y-47952010D01*
X142321305Y-47952010D02*
X142416543Y-47999629D01*
X142416543Y-47999629D02*
X142464162Y-48094867D01*
X142464162Y-48094867D02*
X142464162Y-48618677D01*
X142940353Y-47952010D02*
X142940353Y-48618677D01*
X142940353Y-48047248D02*
X142987972Y-47999629D01*
X142987972Y-47999629D02*
X143083210Y-47952010D01*
X143083210Y-47952010D02*
X143226067Y-47952010D01*
X143226067Y-47952010D02*
X143321305Y-47999629D01*
X143321305Y-47999629D02*
X143368924Y-48094867D01*
X143368924Y-48094867D02*
X143368924Y-48618677D01*
X144273686Y-48618677D02*
X144273686Y-48094867D01*
X144273686Y-48094867D02*
X144226067Y-47999629D01*
X144226067Y-47999629D02*
X144130829Y-47952010D01*
X144130829Y-47952010D02*
X143940353Y-47952010D01*
X143940353Y-47952010D02*
X143845115Y-47999629D01*
X144273686Y-48571058D02*
X144178448Y-48618677D01*
X144178448Y-48618677D02*
X143940353Y-48618677D01*
X143940353Y-48618677D02*
X143845115Y-48571058D01*
X143845115Y-48571058D02*
X143797496Y-48475819D01*
X143797496Y-48475819D02*
X143797496Y-48380581D01*
X143797496Y-48380581D02*
X143845115Y-48285343D01*
X143845115Y-48285343D02*
X143940353Y-48237724D01*
X143940353Y-48237724D02*
X144178448Y-48237724D01*
X144178448Y-48237724D02*
X144273686Y-48190105D01*
M02*
