%TF.GenerationSoftware,KiCad,Pcbnew,9.0.8-1.fc43*%
%TF.CreationDate,2026-03-28T20:24:26+01:00*%
%TF.ProjectId,Startracker,53746172-7472-4616-936b-65722e6b6963,rev?*%
%TF.SameCoordinates,Original*%
%TF.FileFunction,Paste,Top*%
%TF.FilePolarity,Positive*%
%FSLAX46Y46*%
G04 Gerber Fmt 4.6, Leading zero omitted, Abs format (unit mm)*
G04 Created by KiCad (PCBNEW 9.0.8-1.fc43) date 2026-03-28 20:24:26*
%MOMM*%
%LPD*%
G01*
G04 APERTURE LIST*
G04 Aperture macros list*
%AMRoundRect*
0 Rectangle with rounded corners*
0 $1 Rounding radius*
0 $2 $3 $4 $5 $6 $7 $8 $9 X,Y pos of 4 corners*
0 Add a 4 corners polygon primitive as box body*
4,1,4,$2,$3,$4,$5,$6,$7,$8,$9,$2,$3,0*
0 Add four circle primitives for the rounded corners*
1,1,$1+$1,$2,$3*
1,1,$1+$1,$4,$5*
1,1,$1+$1,$6,$7*
1,1,$1+$1,$8,$9*
0 Add four rect primitives between the rounded corners*
20,1,$1+$1,$2,$3,$4,$5,0*
20,1,$1+$1,$4,$5,$6,$7,0*
20,1,$1+$1,$6,$7,$8,$9,0*
20,1,$1+$1,$8,$9,$2,$3,0*%
G04 Aperture macros list end*
%ADD10RoundRect,0.125000X-0.537500X-0.125000X0.537500X-0.125000X0.537500X0.125000X-0.537500X0.125000X0*%
%ADD11RoundRect,0.250000X-0.650000X0.412500X-0.650000X-0.412500X0.650000X-0.412500X0.650000X0.412500X0*%
%ADD12RoundRect,0.250000X-0.400000X-0.625000X0.400000X-0.625000X0.400000X0.625000X-0.400000X0.625000X0*%
%ADD13RoundRect,0.150000X-0.875000X-0.150000X0.875000X-0.150000X0.875000X0.150000X-0.875000X0.150000X0*%
%ADD14RoundRect,0.250000X-0.412500X-0.650000X0.412500X-0.650000X0.412500X0.650000X-0.412500X0.650000X0*%
%ADD15RoundRect,0.250000X0.400000X0.625000X-0.400000X0.625000X-0.400000X-0.625000X0.400000X-0.625000X0*%
%ADD16RoundRect,0.250000X0.350000X0.450000X-0.350000X0.450000X-0.350000X-0.450000X0.350000X-0.450000X0*%
%ADD17RoundRect,0.250001X-0.849999X0.462499X-0.849999X-0.462499X0.849999X-0.462499X0.849999X0.462499X0*%
%ADD18RoundRect,0.250000X0.700000X-0.362500X0.700000X0.362500X-0.700000X0.362500X-0.700000X-0.362500X0*%
%ADD19C,0.250000*%
%ADD20RoundRect,0.250000X0.625000X-0.400000X0.625000X0.400000X-0.625000X0.400000X-0.625000X-0.400000X0*%
%ADD21RoundRect,0.250000X0.495000X0.495000X-0.495000X0.495000X-0.495000X-0.495000X0.495000X-0.495000X0*%
%ADD22RoundRect,0.062500X0.337500X0.062500X-0.337500X0.062500X-0.337500X-0.062500X0.337500X-0.062500X0*%
%ADD23RoundRect,0.062500X0.062500X0.337500X-0.062500X0.337500X-0.062500X-0.337500X0.062500X-0.337500X0*%
%ADD24RoundRect,0.250000X0.650000X-0.412500X0.650000X0.412500X-0.650000X0.412500X-0.650000X-0.412500X0*%
%ADD25RoundRect,0.250000X-0.625000X0.400000X-0.625000X-0.400000X0.625000X-0.400000X0.625000X0.400000X0*%
%ADD26RoundRect,0.075000X-0.225000X-0.075000X0.225000X-0.075000X0.225000X0.075000X-0.225000X0.075000X0*%
%ADD27RoundRect,0.075000X-0.075000X-0.237500X0.075000X-0.237500X0.075000X0.237500X-0.075000X0.237500X0*%
%ADD28RoundRect,0.250000X-0.250000X0.275000X-0.250000X-0.275000X0.250000X-0.275000X0.250000X0.275000X0*%
%ADD29RoundRect,0.250000X-0.275000X0.850000X-0.275000X-0.850000X0.275000X-0.850000X0.275000X0.850000X0*%
%ADD30RoundRect,0.150000X0.512500X0.150000X-0.512500X0.150000X-0.512500X-0.150000X0.512500X-0.150000X0*%
%ADD31R,2.550000X2.400000*%
%ADD32R,2.550000X2.900000*%
%ADD33RoundRect,0.250000X-0.900000X1.500000X-0.900000X-1.500000X0.900000X-1.500000X0.900000X1.500000X0*%
%ADD34RoundRect,0.250000X-2.350000X0.412500X-2.350000X-0.412500X2.350000X-0.412500X2.350000X0.412500X0*%
%ADD35R,3.600000X1.150000*%
%ADD36R,0.900000X0.900000*%
%ADD37R,1.500000X0.900000*%
%ADD38R,0.900000X1.500000*%
%ADD39RoundRect,0.250000X0.412500X1.100000X-0.412500X1.100000X-0.412500X-1.100000X0.412500X-1.100000X0*%
%ADD40RoundRect,0.150000X-0.150000X-0.425000X0.150000X-0.425000X0.150000X0.425000X-0.150000X0.425000X0*%
%ADD41RoundRect,0.075000X-0.075000X-0.500000X0.075000X-0.500000X0.075000X0.500000X-0.075000X0.500000X0*%
%ADD42O,1.000000X2.100000*%
%ADD43O,1.000000X1.800000*%
%ADD44RoundRect,0.250000X0.412500X0.650000X-0.412500X0.650000X-0.412500X-0.650000X0.412500X-0.650000X0*%
%ADD45RoundRect,0.250000X-1.100000X0.412500X-1.100000X-0.412500X1.100000X-0.412500X1.100000X0.412500X0*%
%ADD46R,0.800000X0.900000*%
%ADD47RoundRect,0.250000X0.412500X2.350000X-0.412500X2.350000X-0.412500X-2.350000X0.412500X-2.350000X0*%
%ADD48RoundRect,0.217500X-0.217500X-0.217500X0.217500X-0.217500X0.217500X0.217500X-0.217500X0.217500X0*%
%ADD49RoundRect,0.062500X-0.375000X-0.062500X0.375000X-0.062500X0.375000X0.062500X-0.375000X0.062500X0*%
%ADD50RoundRect,0.062500X-0.062500X-0.375000X0.062500X-0.375000X0.062500X0.375000X-0.062500X0.375000X0*%
%ADD51RoundRect,0.250000X0.475000X-0.337500X0.475000X0.337500X-0.475000X0.337500X-0.475000X-0.337500X0*%
%ADD52RoundRect,0.125000X-0.125000X0.537500X-0.125000X-0.537500X0.125000X-0.537500X0.125000X0.537500X0*%
%ADD53RoundRect,0.250000X1.100000X-0.412500X1.100000X0.412500X-1.100000X0.412500X-1.100000X-0.412500X0*%
%ADD54RoundRect,0.250001X0.462499X0.624999X-0.462499X0.624999X-0.462499X-0.624999X0.462499X-0.624999X0*%
%ADD55RoundRect,0.100000X0.100000X-0.425000X0.100000X0.425000X-0.100000X0.425000X-0.100000X-0.425000X0*%
%ADD56RoundRect,0.050000X0.250000X-0.050000X0.250000X0.050000X-0.250000X0.050000X-0.250000X-0.050000X0*%
%ADD57R,0.350000X0.500000*%
%ADD58R,1.550000X1.000000*%
%ADD59RoundRect,0.100000X-0.850000X-0.100000X0.850000X-0.100000X0.850000X0.100000X-0.850000X0.100000X0*%
%ADD60RoundRect,0.250000X-0.350000X-0.450000X0.350000X-0.450000X0.350000X0.450000X-0.350000X0.450000X0*%
%ADD61RoundRect,0.250000X0.400000X1.450000X-0.400000X1.450000X-0.400000X-1.450000X0.400000X-1.450000X0*%
%ADD62RoundRect,0.162500X0.617500X0.162500X-0.617500X0.162500X-0.617500X-0.162500X0.617500X-0.162500X0*%
G04 APERTURE END LIST*
D10*
%TO.C,U8*%
X153401600Y-115272100D03*
X153401600Y-115922100D03*
X153401600Y-116572100D03*
X153401600Y-117222100D03*
X155676600Y-117222100D03*
X155676600Y-116572100D03*
X155676600Y-115922100D03*
X155676600Y-115272100D03*
%TD*%
D11*
%TO.C,C50*%
X101271285Y-95381773D03*
X101271285Y-98506773D03*
%TD*%
D12*
%TO.C,R31*%
X137210200Y-105107000D03*
X140310200Y-105107000D03*
%TD*%
D13*
%TO.C,U5*%
X124763000Y-84919258D03*
X124763000Y-86189258D03*
X124763000Y-87459258D03*
X124763000Y-88729258D03*
X124763000Y-89999258D03*
X124763000Y-91269258D03*
X124763000Y-92539258D03*
X124763000Y-93809258D03*
X134063000Y-93809258D03*
X134063000Y-92539258D03*
X134063000Y-91269258D03*
X134063000Y-89999258D03*
X134063000Y-88729258D03*
X134063000Y-87459258D03*
X134063000Y-86189258D03*
X134063000Y-84919258D03*
%TD*%
D14*
%TO.C,C56*%
X136331100Y-112469400D03*
X139456100Y-112469400D03*
%TD*%
D15*
%TO.C,R34*%
X124930900Y-104503200D03*
X121830900Y-104503200D03*
%TD*%
D16*
%TO.C,R13*%
X124245100Y-75265046D03*
X122245100Y-75265046D03*
%TD*%
D17*
%TO.C,L2*%
X163006100Y-85236558D03*
X163006100Y-87561558D03*
%TD*%
D18*
%TO.C,FB1*%
X164215582Y-120635631D03*
X164215582Y-117310631D03*
%TD*%
D19*
%TO.C,U11*%
X168873500Y-86792358D03*
X168873500Y-87192358D03*
X168873500Y-87592358D03*
X169273500Y-86792358D03*
X169273500Y-87192358D03*
X169273500Y-87592358D03*
%TD*%
D14*
%TO.C,C8*%
X111497600Y-57883858D03*
X114622600Y-57883858D03*
%TD*%
D15*
%TO.C,R21*%
X174373400Y-93339158D03*
X171273400Y-93339158D03*
%TD*%
D20*
%TO.C,R27*%
X161573982Y-124992931D03*
X161573982Y-121892931D03*
%TD*%
D21*
%TO.C,U2*%
X117524700Y-71377846D03*
X117524700Y-69527846D03*
X115674700Y-71377846D03*
X115674700Y-69527846D03*
D22*
X119049700Y-71952846D03*
X119049700Y-71452846D03*
X119049700Y-70952846D03*
X119049700Y-70452846D03*
X119049700Y-69952846D03*
X119049700Y-69452846D03*
X119049700Y-68952846D03*
D23*
X118099700Y-68002846D03*
X117599700Y-68002846D03*
X117099700Y-68002846D03*
X116599700Y-68002846D03*
X116099700Y-68002846D03*
X115599700Y-68002846D03*
X115099700Y-68002846D03*
D22*
X114149700Y-68952846D03*
X114149700Y-69452846D03*
X114149700Y-69952846D03*
X114149700Y-70452846D03*
X114149700Y-70952846D03*
X114149700Y-71452846D03*
X114149700Y-71952846D03*
D23*
X115099700Y-72902846D03*
X115599700Y-72902846D03*
X116099700Y-72902846D03*
X116599700Y-72902846D03*
X117099700Y-72902846D03*
X117599700Y-72902846D03*
X118099700Y-72902846D03*
%TD*%
D24*
%TO.C,C20*%
X118850971Y-101214143D03*
X118850971Y-98089143D03*
%TD*%
D17*
%TO.C,L3*%
X179439900Y-87243158D03*
X179439900Y-89568158D03*
%TD*%
D25*
%TO.C,R25*%
X186006400Y-55022858D03*
X186006400Y-58122858D03*
%TD*%
D26*
%TO.C,FL1*%
X166152700Y-86200358D03*
X166152700Y-86700358D03*
X166152700Y-87200358D03*
X166152700Y-87700358D03*
D27*
X166852700Y-88012858D03*
D26*
X167552700Y-87700358D03*
X167552700Y-87200358D03*
X167552700Y-86700358D03*
X167552700Y-86200358D03*
D27*
X166852700Y-85887858D03*
%TD*%
D11*
%TO.C,C23*%
X121857500Y-69981846D03*
X121857500Y-73106846D03*
%TD*%
D28*
%TO.C,AE1*%
X179439900Y-91738958D03*
D29*
X180914900Y-93263958D03*
X177964900Y-93263958D03*
%TD*%
D24*
%TO.C,C45*%
X176696700Y-90329658D03*
X176696700Y-87204658D03*
%TD*%
D14*
%TO.C,C24*%
X136664300Y-84893858D03*
X139789300Y-84893858D03*
%TD*%
D15*
%TO.C,R3*%
X130073400Y-65645258D03*
X126973400Y-65645258D03*
%TD*%
D12*
%TO.C,R15*%
X136652000Y-88729258D03*
X139752000Y-88729258D03*
%TD*%
D30*
%TO.C,U13*%
X139496800Y-109856800D03*
X139496800Y-108906800D03*
X139496800Y-107956800D03*
X137221800Y-107956800D03*
X137221800Y-108906800D03*
X137221800Y-109856800D03*
%TD*%
D31*
%TO.C,J7*%
X170503600Y-51795058D03*
D32*
X170503600Y-61095058D03*
D31*
X177853600Y-53695058D03*
%TD*%
D33*
%TO.C,D2*%
X108882811Y-117746800D03*
X108882811Y-123146800D03*
%TD*%
D34*
%TO.C,R19*%
X148666200Y-114384000D03*
X148666200Y-116809000D03*
%TD*%
D35*
%TO.C,L4*%
X146177000Y-108917000D03*
X146177000Y-105967000D03*
%TD*%
D36*
%TO.C,U1*%
X138709400Y-58663858D03*
X138709400Y-60063858D03*
X138709400Y-61463858D03*
X140109400Y-58663858D03*
X140109400Y-60063858D03*
X140109400Y-61463858D03*
X141509400Y-58663858D03*
X141509400Y-60063858D03*
X141509400Y-61463858D03*
D37*
X132859400Y-52343858D03*
X132859400Y-53613858D03*
X132859400Y-54883858D03*
X132859400Y-56153858D03*
X132859400Y-57423858D03*
X132859400Y-58693858D03*
X132859400Y-59963858D03*
X132859400Y-61233858D03*
X132859400Y-62503858D03*
X132859400Y-63773858D03*
X132859400Y-65043858D03*
X132859400Y-66313858D03*
X132859400Y-67583858D03*
X132859400Y-68853858D03*
D38*
X134624400Y-70103858D03*
X135894400Y-70103858D03*
X137164400Y-70103858D03*
X138434400Y-70103858D03*
X139704400Y-70103858D03*
X140974400Y-70103858D03*
X142244400Y-70103858D03*
X143514400Y-70103858D03*
X144784400Y-70103858D03*
X146054400Y-70103858D03*
X147324400Y-70103858D03*
X148594400Y-70103858D03*
D37*
X150359400Y-68853858D03*
X150359400Y-67583858D03*
X150359400Y-66313858D03*
X150359400Y-65043858D03*
X150359400Y-63773858D03*
X150359400Y-62503858D03*
X150359400Y-61233858D03*
X150359400Y-59963858D03*
X150359400Y-58693858D03*
X150359400Y-57423858D03*
X150359400Y-56153858D03*
X150359400Y-54883858D03*
X150359400Y-53613858D03*
X150359400Y-52343858D03*
%TD*%
D39*
%TO.C,C14*%
X115773200Y-107873800D03*
X112648200Y-107873800D03*
%TD*%
D20*
%TO.C,R28*%
X159110182Y-124992931D03*
X159110182Y-121892931D03*
%TD*%
D14*
%TO.C,C29*%
X175082200Y-107068058D03*
X178207200Y-107068058D03*
%TD*%
%TO.C,C9*%
X162292900Y-57911058D03*
X165417900Y-57911058D03*
%TD*%
D11*
%TO.C,C5*%
X123360200Y-51939458D03*
X123360200Y-55064458D03*
%TD*%
D20*
%TO.C,R11*%
X127191500Y-73132046D03*
X127191500Y-70032046D03*
%TD*%
D24*
%TO.C,C38*%
X152885400Y-90190158D03*
X152885400Y-87065158D03*
%TD*%
D25*
%TO.C,R23*%
X169279900Y-81577758D03*
X169279900Y-84677758D03*
%TD*%
D15*
%TO.C,R32*%
X124906100Y-109735600D03*
X121806100Y-109735600D03*
%TD*%
D40*
%TO.C,J8*%
X165638382Y-122913131D03*
X166438382Y-122913131D03*
D41*
X167588382Y-122913131D03*
X168588382Y-122913131D03*
X169088382Y-122913131D03*
X170088382Y-122913131D03*
D40*
X171238382Y-122913131D03*
X172038382Y-122913131D03*
X172038382Y-122913131D03*
X171238382Y-122913131D03*
D41*
X170588382Y-122913131D03*
X169588382Y-122913131D03*
X168088382Y-122913131D03*
X167088382Y-122913131D03*
D40*
X166438382Y-122913131D03*
X165638382Y-122913131D03*
D42*
X164518382Y-123488131D03*
D43*
X164518382Y-127668131D03*
D42*
X173158382Y-123488131D03*
D43*
X173158382Y-127668131D03*
%TD*%
D14*
%TO.C,C41*%
X171273400Y-91027758D03*
X174398400Y-91027758D03*
%TD*%
D44*
%TO.C,C42*%
X160573600Y-85211158D03*
X157448600Y-85211158D03*
%TD*%
D24*
%TO.C,C51*%
X101271285Y-103523673D03*
X101271285Y-100398673D03*
%TD*%
D11*
%TO.C,C3*%
X120921800Y-51952558D03*
X120921800Y-55077558D03*
%TD*%
D39*
%TO.C,C59*%
X146208200Y-103252000D03*
X143083200Y-103252000D03*
%TD*%
D12*
%TO.C,R30*%
X130809400Y-112473000D03*
X133909400Y-112473000D03*
%TD*%
D45*
%TO.C,C58*%
X142113000Y-107392200D03*
X142113000Y-110517200D03*
%TD*%
D46*
%TO.C,Y2*%
X160619600Y-93846858D03*
X160619600Y-92096858D03*
X159169600Y-92096858D03*
X159169600Y-93846858D03*
%TD*%
D12*
%TO.C,R29*%
X130810000Y-110161600D03*
X133910000Y-110161600D03*
%TD*%
D11*
%TO.C,C46*%
X182194200Y-87154458D03*
X182194200Y-90279458D03*
%TD*%
D47*
%TO.C,R20*%
X154756400Y-103376800D03*
X152331400Y-103376800D03*
%TD*%
D48*
%TO.C,U10*%
X163667000Y-90888758D03*
X163667000Y-91968758D03*
X164747000Y-90888758D03*
X164747000Y-91968758D03*
D49*
X162269500Y-90178758D03*
X162269500Y-90678758D03*
X162269500Y-91178758D03*
X162269500Y-91678758D03*
X162269500Y-92178758D03*
X162269500Y-92678758D03*
D50*
X162957000Y-93366258D03*
X163457000Y-93366258D03*
X163957000Y-93366258D03*
X164457000Y-93366258D03*
X164957000Y-93366258D03*
X165457000Y-93366258D03*
D49*
X166144500Y-92678758D03*
X166144500Y-92178758D03*
X166144500Y-91678758D03*
X166144500Y-91178758D03*
X166144500Y-90678758D03*
X166144500Y-90178758D03*
D50*
X165457000Y-89491258D03*
X164957000Y-89491258D03*
X164457000Y-89491258D03*
X163957000Y-89491258D03*
X163457000Y-89491258D03*
X162957000Y-89491258D03*
%TD*%
D15*
%TO.C,R12*%
X117717900Y-64419246D03*
X114617900Y-64419246D03*
%TD*%
D25*
%TO.C,R2*%
X121861600Y-57120058D03*
X121861600Y-60220058D03*
%TD*%
D44*
%TO.C,C12*%
X118262400Y-78592446D03*
X115137400Y-78592446D03*
%TD*%
D12*
%TO.C,R1*%
X152696000Y-70101258D03*
X155796000Y-70101258D03*
%TD*%
D51*
%TO.C,C2*%
X130573800Y-53921458D03*
X130573800Y-51846458D03*
%TD*%
D11*
%TO.C,C47*%
X171642100Y-81540458D03*
X171642100Y-84665458D03*
%TD*%
D52*
%TO.C,U9*%
X153898900Y-108806600D03*
X153248900Y-108806600D03*
X152598900Y-108806600D03*
X151948900Y-108806600D03*
X151948900Y-111081600D03*
X152598900Y-111081600D03*
X153248900Y-111081600D03*
X153898900Y-111081600D03*
%TD*%
D11*
%TO.C,C48*%
X102024150Y-69536858D03*
X102024150Y-72661858D03*
%TD*%
D24*
%TO.C,C39*%
X155270200Y-90190158D03*
X155270200Y-87065158D03*
%TD*%
%TO.C,C4*%
X125773200Y-55065258D03*
X125773200Y-51940258D03*
%TD*%
D53*
%TO.C,C7*%
X118915200Y-60233758D03*
X118915200Y-57108758D03*
%TD*%
D14*
%TO.C,C36*%
X150278700Y-119254100D03*
X153403700Y-119254100D03*
%TD*%
D54*
%TO.C,D3*%
X124869000Y-107094000D03*
X121894000Y-107094000D03*
%TD*%
D55*
%TO.C,U14*%
X127534300Y-111591000D03*
X128234300Y-111591000D03*
D56*
X129034300Y-111666000D03*
X129034300Y-111166000D03*
X129034300Y-110666000D03*
X129034300Y-110166000D03*
D55*
X128234300Y-110241000D03*
X127534300Y-110241000D03*
D56*
X126734300Y-110166000D03*
X126734300Y-110666000D03*
X126734300Y-111166000D03*
X126734300Y-111666000D03*
%TD*%
D11*
%TO.C,C55*%
X112642011Y-118731900D03*
X112642011Y-121856900D03*
%TD*%
D24*
%TO.C,C49*%
X102024150Y-77678758D03*
X102024150Y-74553758D03*
%TD*%
D14*
%TO.C,C44*%
X171361900Y-87192358D03*
X174486900Y-87192358D03*
%TD*%
%TO.C,C26*%
X175082200Y-109404858D03*
X178207200Y-109404858D03*
%TD*%
D11*
%TO.C,C17*%
X112383300Y-64215246D03*
X112383300Y-67340246D03*
%TD*%
D25*
%TO.C,R9*%
X106502200Y-66832658D03*
X106502200Y-69932658D03*
%TD*%
D57*
%TO.C,U7*%
X177716800Y-103249958D03*
X178366800Y-103249958D03*
X179016800Y-103249958D03*
X179666800Y-103249958D03*
X179666800Y-105299958D03*
X179016800Y-105299958D03*
X178366800Y-105299958D03*
X177716800Y-105299958D03*
%TD*%
D58*
%TO.C,SW1*%
X110473600Y-53503258D03*
X115723600Y-53503258D03*
X110473600Y-55203258D03*
X115723600Y-55203258D03*
%TD*%
D11*
%TO.C,C1*%
X118432600Y-51952558D03*
X118432600Y-55077558D03*
%TD*%
D59*
%TO.C,U3*%
X108777571Y-95489143D03*
X108777571Y-96139143D03*
X108777571Y-96789143D03*
X108777571Y-97439143D03*
X108777571Y-98089143D03*
X108777571Y-98739143D03*
X108777571Y-99389143D03*
X108777571Y-100039143D03*
X108777571Y-100689143D03*
X108777571Y-101339143D03*
X108777571Y-101989143D03*
X108777571Y-102639143D03*
X115777571Y-102639143D03*
X115777571Y-101989143D03*
X115777571Y-101339143D03*
X115777571Y-100689143D03*
X115777571Y-100039143D03*
X115777571Y-99389143D03*
X115777571Y-98739143D03*
X115777571Y-98089143D03*
X115777571Y-97439143D03*
X115777571Y-96789143D03*
X115777571Y-96139143D03*
X115777571Y-95489143D03*
%TD*%
D15*
%TO.C,R33*%
X140310200Y-102668600D03*
X137210200Y-102668600D03*
%TD*%
D60*
%TO.C,R14*%
X122238500Y-77297046D03*
X124238500Y-77297046D03*
%TD*%
D44*
%TO.C,C15*%
X118262400Y-76255646D03*
X115137400Y-76255646D03*
%TD*%
D11*
%TO.C,C18*%
X124295900Y-69968746D03*
X124295900Y-73093746D03*
%TD*%
%TO.C,C40*%
X159069100Y-97873258D03*
X159069100Y-100998258D03*
%TD*%
D61*
%TO.C,L1*%
X165662900Y-97898658D03*
X161212900Y-97898658D03*
%TD*%
D58*
%TO.C,SW2*%
X161255800Y-53479658D03*
X166505800Y-53479658D03*
X161255800Y-55179658D03*
X166505800Y-55179658D03*
%TD*%
D20*
%TO.C,R6*%
X108940600Y-69933258D03*
X108940600Y-66833258D03*
%TD*%
D39*
%TO.C,C43*%
X160586700Y-88081358D03*
X157461700Y-88081358D03*
%TD*%
D44*
%TO.C,C19*%
X115773200Y-104851200D03*
X112648200Y-104851200D03*
%TD*%
D25*
%TO.C,R26*%
X185963600Y-62338058D03*
X185963600Y-65438058D03*
%TD*%
D44*
%TO.C,C57*%
X124905700Y-112148600D03*
X121780700Y-112148600D03*
%TD*%
D24*
%TO.C,C6*%
X128211600Y-55065258D03*
X128211600Y-51940258D03*
%TD*%
D15*
%TO.C,R5*%
X111799100Y-72166246D03*
X108699100Y-72166246D03*
%TD*%
D12*
%TO.C,R7*%
X114837771Y-93161543D03*
X117937771Y-93161543D03*
%TD*%
D54*
%TO.C,D1*%
X160788700Y-70101258D03*
X157813700Y-70101258D03*
%TD*%
D62*
%TO.C,U12*%
X170358382Y-120090731D03*
X170358382Y-119140731D03*
X170358382Y-118190731D03*
X167658382Y-118190731D03*
X167658382Y-119140731D03*
X167658382Y-120090731D03*
%TD*%
D15*
%TO.C,R4*%
X130074000Y-63278458D03*
X126974000Y-63278458D03*
%TD*%
D11*
%TO.C,C37*%
X149860900Y-105675100D03*
X149860900Y-108800100D03*
%TD*%
M02*
