%TF.GenerationSoftware,KiCad,Pcbnew,9.0.8-1.fc43*%
%TF.CreationDate,2026-03-28T20:24:26+01:00*%
%TF.ProjectId,Startracker,53746172-7472-4616-936b-65722e6b6963,rev?*%
%TF.SameCoordinates,Original*%
%TF.FileFunction,Copper,L4,Bot*%
%TF.FilePolarity,Positive*%
%FSLAX46Y46*%
G04 Gerber Fmt 4.6, Leading zero omitted, Abs format (unit mm)*
G04 Created by KiCad (PCBNEW 9.0.8-1.fc43) date 2026-03-28 20:24:26*
%MOMM*%
%LPD*%
G01*
G04 APERTURE LIST*
G04 Aperture macros list*
%AMRoundRect*
0 Rectangle with rounded corners*
0 $1 Rounding radius*
0 $2 $3 $4 $5 $6 $7 $8 $9 X,Y pos of 4 corners*
0 Add a 4 corners polygon primitive as box body*
4,1,4,$2,$3,$4,$5,$6,$7,$8,$9,$2,$3,0*
0 Add four circle primitives for the rounded corners*
1,1,$1+$1,$2,$3*
1,1,$1+$1,$4,$5*
1,1,$1+$1,$6,$7*
1,1,$1+$1,$8,$9*
0 Add four rect primitives between the rounded corners*
20,1,$1+$1,$2,$3,$4,$5,0*
20,1,$1+$1,$4,$5,$6,$7,0*
20,1,$1+$1,$6,$7,$8,$9,0*
20,1,$1+$1,$8,$9,$2,$3,0*%
G04 Aperture macros list end*
%TA.AperFunction,ComponentPad*%
%ADD10RoundRect,0.250000X-0.725000X0.600000X-0.725000X-0.600000X0.725000X-0.600000X0.725000X0.600000X0*%
%TD*%
%TA.AperFunction,ComponentPad*%
%ADD11O,1.950000X1.700000*%
%TD*%
%TA.AperFunction,ComponentPad*%
%ADD12R,1.500000X1.050000*%
%TD*%
%TA.AperFunction,ComponentPad*%
%ADD13O,1.500000X1.050000*%
%TD*%
%TA.AperFunction,ComponentPad*%
%ADD14RoundRect,0.760000X-1.140000X1.140000X-1.140000X-1.140000X1.140000X-1.140000X1.140000X1.140000X0*%
%TD*%
%TA.AperFunction,ComponentPad*%
%ADD15C,4.000000*%
%TD*%
%TA.AperFunction,ComponentPad*%
%ADD16R,1.700000X1.700000*%
%TD*%
%TA.AperFunction,ComponentPad*%
%ADD17C,1.700000*%
%TD*%
%TA.AperFunction,HeatsinkPad*%
%ADD18C,0.600000*%
%TD*%
%TA.AperFunction,HeatsinkPad*%
%ADD19O,1.000000X2.100000*%
%TD*%
%TA.AperFunction,HeatsinkPad*%
%ADD20O,1.000000X1.800000*%
%TD*%
%TA.AperFunction,ComponentPad*%
%ADD21RoundRect,0.250000X0.550000X0.550000X-0.550000X0.550000X-0.550000X-0.550000X0.550000X-0.550000X0*%
%TD*%
%TA.AperFunction,ComponentPad*%
%ADD22C,1.600000*%
%TD*%
%TA.AperFunction,ComponentPad*%
%ADD23C,2.000000*%
%TD*%
%TA.AperFunction,ComponentPad*%
%ADD24RoundRect,0.250000X0.550000X-0.550000X0.550000X0.550000X-0.550000X0.550000X-0.550000X-0.550000X0*%
%TD*%
%TA.AperFunction,SMDPad,CuDef*%
%ADD25RoundRect,0.250000X0.625000X-0.400000X0.625000X0.400000X-0.625000X0.400000X-0.625000X-0.400000X0*%
%TD*%
%TA.AperFunction,ViaPad*%
%ADD26C,0.700000*%
%TD*%
%TA.AperFunction,ViaPad*%
%ADD27C,0.900000*%
%TD*%
%TA.AperFunction,Conductor*%
%ADD28C,0.254000*%
%TD*%
%TA.AperFunction,Conductor*%
%ADD29C,0.200000*%
%TD*%
%TA.AperFunction,Conductor*%
%ADD30C,0.500000*%
%TD*%
%TA.AperFunction,Conductor*%
%ADD31C,1.000000*%
%TD*%
%TA.AperFunction,Conductor*%
%ADD32C,0.600000*%
%TD*%
G04 APERTURE END LIST*
D10*
%TO.P,J3,1,Pin_1*%
%TO.N,/CONN/M1_A+*%
X96681750Y-69851658D03*
D11*
%TO.P,J3,2,Pin_2*%
%TO.N,/CONN/M1_B+*%
X96681750Y-72351658D03*
%TO.P,J3,3,Pin_3*%
%TO.N,/CONN/M1_A-*%
X96681750Y-74851658D03*
%TO.P,J3,4,Pin_4*%
%TO.N,/CONN/M1_B-*%
X96681750Y-77351658D03*
%TD*%
D12*
%TO.P,Q2,1,E*%
%TO.N,GND*%
X182626000Y-63659458D03*
D13*
%TO.P,Q2,2,B*%
%TO.N,Net-(Q2-B)*%
X182626000Y-62389458D03*
%TO.P,Q2,3,C*%
%TO.N,Net-(J7-TIP)*%
X182626000Y-61119458D03*
%TD*%
D12*
%TO.P,Q1,1,E*%
%TO.N,GND*%
X182664400Y-56268058D03*
D13*
%TO.P,Q1,2,B*%
%TO.N,Net-(Q1-B)*%
X182664400Y-54998058D03*
%TO.P,Q1,3,C*%
%TO.N,Net-(J7-RING)*%
X182664400Y-53728058D03*
%TD*%
D14*
%TO.P,J6,1,Pin_1*%
%TO.N,GND*%
X95497011Y-118113800D03*
D15*
%TO.P,J6,2,Pin_2*%
%TO.N,Net-(D2-A2)*%
X95497011Y-123113800D03*
%TD*%
D16*
%TO.P,J1,1,Pin_1*%
%TO.N,+3.3V*%
X188137800Y-82607858D03*
D17*
%TO.P,J1,2,Pin_2*%
%TO.N,/OBC/I2C_SCL*%
X188137800Y-85147858D03*
%TO.P,J1,3,Pin_3*%
%TO.N,/OBC/I2C_SDA*%
X188137800Y-87687858D03*
%TO.P,J1,4,Pin_4*%
%TO.N,GND*%
X188137800Y-90227858D03*
%TD*%
D18*
%TO.P,U1,41,GND*%
%TO.N,GND*%
X138709400Y-61478858D03*
X138784400Y-58678858D03*
X139409400Y-60063858D03*
X140809400Y-60063858D03*
X141484400Y-61428858D03*
X141534400Y-58663858D03*
%TD*%
D19*
%TO.P,J8,S1,SHIELD*%
%TO.N,GND*%
X164518382Y-123488131D03*
D20*
X164518382Y-127668131D03*
D19*
X173158382Y-123488131D03*
D20*
X173158382Y-127668131D03*
%TD*%
D10*
%TO.P,J4,1,Pin_1*%
%TO.N,/CONN/M2_A1*%
X95975285Y-95697973D03*
D11*
%TO.P,J4,2,Pin_2*%
%TO.N,/CONN/M2_B1*%
X95975285Y-98197973D03*
%TO.P,J4,3,Pin_3*%
%TO.N,/CONN/M2_A2*%
X95975285Y-100697973D03*
%TO.P,J4,4,Pin_4*%
%TO.N,/CONN/M2_B2*%
X95975285Y-103197973D03*
%TD*%
D16*
%TO.P,J9,1,Pin_1*%
%TO.N,+3.3V*%
X188087000Y-106375200D03*
D17*
%TO.P,J9,2,Pin_2*%
%TO.N,GND*%
X188087000Y-103835200D03*
%TO.P,J9,3,Pin_3*%
%TO.N,/OBC/I2C_SCL*%
X188087000Y-101295200D03*
%TO.P,J9,4,Pin_4*%
%TO.N,/OBC/I2C_SDA*%
X188087000Y-98755200D03*
%TO.P,J9,5,Pin_5*%
%TO.N,/OBC/VL_GPIO1*%
X188087000Y-96215200D03*
%TD*%
D21*
%TO.P,C11,1*%
%TO.N,VM*%
X116371859Y-112643343D03*
D22*
%TO.P,C11,2*%
%TO.N,GND*%
X114371859Y-112643343D03*
%TD*%
D21*
%TO.P,C10,1*%
%TO.N,VM*%
X117731212Y-82859646D03*
D22*
%TO.P,C10,2*%
%TO.N,GND*%
X115731212Y-82859646D03*
%TD*%
D16*
%TO.P,J2,1,Pin_1*%
%TO.N,+3.3V*%
X188137800Y-69425258D03*
D17*
%TO.P,J2,2,Pin_2*%
%TO.N,Net-(J2-Pin_2)*%
X188137800Y-71965258D03*
%TO.P,J2,3,Pin_3*%
%TO.N,Net-(J2-Pin_3)*%
X188137800Y-74505258D03*
%TO.P,J2,4,Pin_4*%
%TO.N,GND*%
X188137800Y-77045258D03*
%TD*%
D23*
%TO.P,SW3,*%
%TO.N,GND*%
X142910600Y-122687200D03*
X142910600Y-128687200D03*
X154910600Y-122687200D03*
X154910600Y-128687200D03*
D17*
%TO.P,SW3,1,A*%
%TO.N,unconnected-(SW3-A-Pad1)*%
X144910600Y-124437200D03*
%TO.P,SW3,2,B*%
%TO.N,Net-(D2-A2)*%
X148910600Y-124437200D03*
%TO.P,SW3,3,C*%
%TO.N,BATT*%
X152910600Y-124437200D03*
%TD*%
D24*
%TO.P,C54,1*%
%TO.N,Net-(D2-A2)*%
X102507411Y-121705379D03*
D22*
%TO.P,C54,2*%
%TO.N,GND*%
X102507411Y-119205379D03*
%TD*%
D16*
%TO.P,J10,1,Pin_1*%
%TO.N,+3.3V*%
X188087000Y-113131600D03*
D17*
%TO.P,J10,2,Pin_2*%
%TO.N,GND*%
X188087000Y-115671600D03*
%TO.P,J10,3,Pin_3*%
%TO.N,/OBC/I2C_SCL*%
X188087000Y-118211600D03*
%TO.P,J10,4,Pin_4*%
%TO.N,/OBC/I2C_SDA*%
X188087000Y-120751600D03*
%TD*%
D25*
%TO.P,R22,1*%
%TO.N,/LORA/SX_RST*%
X167894000Y-87662458D03*
%TO.P,R22,2*%
%TO.N,+3.3V*%
X167894000Y-84562458D03*
%TD*%
%TO.P,R10,1*%
%TO.N,Net-(U2-~{PD}{slash}UART)*%
X115112800Y-65794258D03*
%TO.P,R10,2*%
%TO.N,/Motor driver/TMC_RX*%
X115112800Y-62694258D03*
%TD*%
%TO.P,R24,1*%
%TO.N,/LORA/SX_NSS*%
X165531800Y-87663658D03*
%TO.P,R24,2*%
%TO.N,+3.3V*%
X165531800Y-84563658D03*
%TD*%
D26*
%TO.N,GND*%
X132308600Y-113893600D03*
X132359400Y-110363000D03*
X176657000Y-109397800D03*
X174294800Y-125653800D03*
X175437800Y-126923800D03*
X185064400Y-117551200D03*
X179882800Y-108305600D03*
X179857400Y-106426000D03*
X182422800Y-105765600D03*
%TO.N,/OBC/I2C_SCL*%
X158191200Y-114706400D03*
%TO.N,/OBC/I2C_SDA*%
X157073600Y-114731800D03*
%TO.N,GND*%
X126441200Y-112496600D03*
X129311400Y-112547400D03*
%TO.N,D2_STBY*%
X132423800Y-93827600D03*
%TO.N,GND*%
X147142200Y-120446800D03*
X140843000Y-124764800D03*
X117271800Y-124383800D03*
X115900200Y-118033800D03*
X154559000Y-120745642D03*
X122758200Y-94317258D03*
X173278800Y-96349258D03*
X115214400Y-90481858D03*
X180467000Y-102089658D03*
X136626600Y-97586800D03*
X164693600Y-64472258D03*
X117525800Y-62179200D03*
X155168600Y-107756742D03*
X119913400Y-78061258D03*
X115011200Y-60509858D03*
X125730000Y-71635058D03*
X152171400Y-68053658D03*
X128676400Y-67945000D03*
X157708600Y-53677258D03*
X124510800Y-61087000D03*
X157149800Y-128880700D03*
X170307000Y-75615800D03*
X157200600Y-125317642D03*
X125730000Y-74378258D03*
X163931600Y-53651858D03*
X137896600Y-112691400D03*
X169519600Y-73184458D03*
X112623669Y-120345199D03*
X114452400Y-94749058D03*
X134924800Y-100743458D03*
X184429400Y-115443000D03*
X163855400Y-56445858D03*
X105156000Y-75641200D03*
X106400600Y-102597658D03*
X147066000Y-71787458D03*
X185420000Y-105181400D03*
X126746000Y-89288058D03*
X130124200Y-61061600D03*
X161594800Y-95003058D03*
X127635000Y-106798600D03*
X116306600Y-84563658D03*
X185674000Y-88932458D03*
X185928000Y-76410258D03*
X182346600Y-91828058D03*
X117352371Y-99384543D03*
X186182000Y-98856800D03*
X132105400Y-83870800D03*
X157480000Y-96425458D03*
X132105400Y-73819458D03*
X174523400Y-79806800D03*
X152171400Y-59747858D03*
X120345200Y-96628658D03*
X120904000Y-53467000D03*
X189712600Y-129082800D03*
X170865800Y-97053400D03*
X123037600Y-68129858D03*
X166471600Y-82734858D03*
X178104800Y-91294658D03*
X183667400Y-95079258D03*
X149961600Y-107230400D03*
X186867800Y-79654400D03*
X106502200Y-68376800D03*
X150749000Y-110354600D03*
X128524000Y-64472258D03*
X134670800Y-52298600D03*
X120167400Y-68104458D03*
X158648400Y-83115858D03*
X166192200Y-117171300D03*
X144627600Y-103318800D03*
X156337000Y-92158258D03*
X189560200Y-56623658D03*
X129032000Y-73514658D03*
X185750200Y-68434658D03*
X136296400Y-90608858D03*
X116687600Y-77876400D03*
X173380400Y-120821842D03*
X189306200Y-63989658D03*
X138226800Y-88830858D03*
X157175200Y-102336600D03*
X131749800Y-88703858D03*
X135864600Y-106468400D03*
X144449800Y-110507000D03*
X165176200Y-67748858D03*
X167995600Y-70789800D03*
X151815800Y-119272442D03*
X128193800Y-53467000D03*
X148386800Y-52298600D03*
X185521600Y-86468658D03*
X112395069Y-123723399D03*
X181508400Y-73260658D03*
X190042800Y-99009200D03*
X132080000Y-96113600D03*
X152019000Y-121177442D03*
X138760200Y-105655600D03*
X146177000Y-107433600D03*
X92608400Y-50596800D03*
X121818400Y-65862200D03*
X154025600Y-91878858D03*
X125603000Y-66986858D03*
X158572200Y-126594700D03*
X153212800Y-53492400D03*
X163449000Y-95968258D03*
%TO.N,Net-(U1-IO0)*%
X163855400Y-57936458D03*
X149193164Y-68824357D03*
D27*
%TO.N,+3.3V*%
X118432600Y-53651858D03*
D26*
X113411000Y-62668858D03*
D27*
%TO.N,/CONN/M1_A+*%
X104470200Y-69476058D03*
D26*
X116193717Y-74101161D03*
D27*
%TO.N,/CONN/M1_B-*%
X103962200Y-77680258D03*
D26*
X119817956Y-72721102D03*
%TO.N,/CONN/M1_B+*%
X117093315Y-74074184D03*
D27*
X103911400Y-72651058D03*
D26*
%TO.N,/CONN/M2_B1*%
X108767700Y-103385058D03*
X103763900Y-98609858D03*
D27*
%TO.N,VBUS*%
X166039800Y-121486100D03*
X172087000Y-121486100D03*
D26*
%TO.N,/OBC/I2C_SDA*%
X180873400Y-104223258D03*
X134594600Y-63773858D03*
X152603200Y-112259600D03*
%TO.N,/OBC/I2C_SCL*%
X151434800Y-112234200D03*
X134594600Y-65005658D03*
X179666800Y-104248658D03*
%TO.N,/OBC/USB_D+*%
X167504814Y-115597711D03*
X132435600Y-71101658D03*
%TO.N,/OBC/USB_D-*%
X131360800Y-71101658D03*
X167504814Y-116547711D03*
%TO.N,/OBC/GPS_TX*%
X182321200Y-71965258D03*
X151790400Y-56191858D03*
%TO.N,/OBC/GPS_RX*%
X151790400Y-57436458D03*
X182321200Y-74479858D03*
%TO.N,Net-(U2-STEP)*%
X112886900Y-69279446D03*
X111799100Y-70769246D03*
%TO.N,/Motor driver/STEP1*%
X107404900Y-72140846D03*
X131404500Y-58693658D03*
%TO.N,Net-(U2-BRA)*%
X115293726Y-74096600D03*
X119895956Y-74243302D03*
%TO.N,Net-(U2-BRB)*%
X119526015Y-75907103D03*
X118198500Y-74045846D03*
%TO.N,/CONN/Focus*%
X151790400Y-53601058D03*
X186004200Y-59443058D03*
%TO.N,/CONN/Shutter*%
X185953400Y-66656658D03*
X151790400Y-54896458D03*
%TO.N,/Motor driver/DIR1*%
X131419600Y-59951058D03*
X113043700Y-70972446D03*
%TO.N,D2_STBY*%
X113720171Y-98728743D03*
X113516971Y-93212343D03*
%TO.N,Net-(U2-~{PD}{slash}UART)*%
X115112800Y-67088458D03*
%TO.N,/Motor driver/TMC_RX*%
X131404500Y-57398258D03*
X131404500Y-56153658D03*
%TO.N,Net-(U2-~{EN})*%
X120472200Y-71990658D03*
X127203200Y-71736658D03*
%TO.N,DIO3*%
X172810500Y-93339158D03*
X162269500Y-93440758D03*
%TO.N,/LORA/SX_RST*%
X167400300Y-91916758D03*
X139721000Y-71431858D03*
%TO.N,DIO2*%
X165459353Y-94497270D03*
X169279900Y-83153758D03*
%TO.N,/LORA/SX_NSS*%
X167106600Y-88881658D03*
X144801000Y-71431858D03*
%TO.N,/LORA/SX_MISO*%
X140970000Y-71431858D03*
X167400300Y-90976958D03*
%TO.N,/LORA/SX_MOSI*%
X142261000Y-71431858D03*
X167400300Y-89859358D03*
%TO.N,/LORA/SX_SCK*%
X143505600Y-71431858D03*
X166144500Y-89389658D03*
%TO.N,/OBC/VL_GPIO1*%
X185750200Y-81026000D03*
X151790400Y-63766600D03*
%TO.N,/Motor driver/TB_SCL*%
X132384800Y-87484658D03*
X131427600Y-61259058D03*
%TO.N,/LORA/SX_DIO1*%
X137160000Y-71431858D03*
X166155700Y-93825158D03*
%TO.N,/LORA/SX_BUSY*%
X138455400Y-71431858D03*
X167406900Y-92837758D03*
%TO.N,/Motor driver/TB_SDA*%
X132384800Y-86214658D03*
X131427600Y-62554458D03*
%TO.N,D2_B2*%
X123037600Y-92564658D03*
X113721924Y-100916568D03*
%TO.N,D2_A1*%
X113721043Y-97664694D03*
X123037600Y-90024658D03*
%TO.N,D2_B1*%
X123037600Y-91294658D03*
X113711802Y-100016622D03*
%TO.N,D2_A2*%
X123037600Y-88729258D03*
X113711100Y-96764747D03*
%TO.N,GND*%
X166192200Y-114700442D03*
X168706800Y-114675042D03*
%TD*%
D28*
%TO.N,/OBC/I2C_SDA*%
X188087000Y-120751600D02*
X189763400Y-119075200D01*
X189763400Y-119075200D02*
X189763400Y-100431600D01*
X189763400Y-100431600D02*
X188087000Y-98755200D01*
%TO.N,/OBC/I2C_SCL*%
X188087000Y-118211600D02*
X186199400Y-116324000D01*
X186199400Y-116324000D02*
X186199400Y-103182800D01*
X186199400Y-103182800D02*
X186639200Y-102743000D01*
%TO.N,/OBC/I2C_SDA*%
X157073600Y-114731800D02*
X159486600Y-112318800D01*
X159486600Y-112318800D02*
X170535600Y-112318800D01*
X170535600Y-112318800D02*
X179247800Y-103606600D01*
X179247800Y-103606600D02*
X180256742Y-103606600D01*
X180256742Y-103606600D02*
X180873400Y-104223258D01*
%TO.N,/OBC/I2C_SCL*%
X158191200Y-114706400D02*
X159870000Y-113027600D01*
X159870000Y-113027600D02*
X170887858Y-113027600D01*
X170887858Y-113027600D02*
X179666800Y-104248658D01*
%TO.N,/OBC/I2C_SDA*%
X152603200Y-112259600D02*
X152620200Y-112259600D01*
X152620200Y-112259600D02*
X155092400Y-114731800D01*
X155092400Y-114731800D02*
X157073600Y-114731800D01*
%TO.N,/OBC/I2C_SCL*%
X151434800Y-112234200D02*
X154559400Y-115358800D01*
X154559400Y-115358800D02*
X157538800Y-115358800D01*
X157538800Y-115358800D02*
X158191200Y-114706400D01*
X151434800Y-112234200D02*
X151434800Y-88798400D01*
X151434800Y-88798400D02*
X134594600Y-71958200D01*
X134594600Y-71958200D02*
X134594600Y-65005658D01*
%TO.N,/OBC/I2C_SDA*%
X152603200Y-112259600D02*
X152603200Y-88417642D01*
X152603200Y-88417642D02*
X135221600Y-71036042D01*
X135221600Y-71036042D02*
X135221600Y-64400858D01*
X135221600Y-64400858D02*
X134594600Y-63773858D01*
D29*
%TO.N,/OBC/USB_D-*%
X146523429Y-116278700D02*
X133328200Y-103083471D01*
X159318035Y-116278700D02*
X159198035Y-116278700D01*
X159558035Y-116525393D02*
X159558035Y-116518700D01*
X159198035Y-116278700D02*
X158111901Y-116278700D01*
X160158035Y-116518700D02*
X160158035Y-116525393D01*
X167504814Y-116547711D02*
X167235803Y-116278700D01*
X159558035Y-116518700D02*
G75*
G03*
X159318035Y-116278665I-240035J0D01*
G01*
X158111901Y-116278700D02*
X146523429Y-116278700D01*
X159798035Y-116765393D02*
G75*
G02*
X159558007Y-116525393I-35J239993D01*
G01*
X159918035Y-116765393D02*
X159798035Y-116765393D01*
X167235803Y-116278700D02*
X160398035Y-116278700D01*
X133328200Y-103083471D02*
X133328200Y-73633256D01*
X133328200Y-73633256D02*
X131677199Y-71982255D01*
X131677199Y-71982255D02*
X131677199Y-71301657D01*
X131677199Y-71301657D02*
X131477200Y-71101658D01*
X131477200Y-71101658D02*
X131360800Y-71101658D01*
X160398035Y-116278700D02*
G75*
G03*
X160158000Y-116518700I-35J-240000D01*
G01*
X160158035Y-116525393D02*
G75*
G02*
X159918035Y-116765435I-240035J-7D01*
G01*
%TO.N,/OBC/USB_D+*%
X167504814Y-115597711D02*
X167254815Y-115847710D01*
X167254815Y-115847710D02*
X146728807Y-115847710D01*
X146728807Y-115847710D02*
X133778200Y-102897103D01*
X133778200Y-102897103D02*
X133778200Y-73446860D01*
X133778200Y-73446860D02*
X132127201Y-71795861D01*
X132127201Y-71795861D02*
X132127201Y-71301657D01*
X132127201Y-71301657D02*
X132327200Y-71101658D01*
X132327200Y-71101658D02*
X132435600Y-71101658D01*
D28*
%TO.N,D2_STBY*%
X113033100Y-98041672D02*
X113033100Y-101425300D01*
X113033100Y-101425300D02*
X113411000Y-101803200D01*
X113411000Y-101803200D02*
X122326400Y-101803200D01*
X122326400Y-101803200D02*
X130302000Y-93827600D01*
X130302000Y-93827600D02*
X132423800Y-93827600D01*
X113033100Y-98041672D02*
X113033100Y-93696214D01*
X113084100Y-93645214D02*
X113516971Y-93212343D01*
%TO.N,Net-(U1-IO0)*%
X149193164Y-68824357D02*
X149193164Y-54598094D01*
X149193164Y-54598094D02*
X151333200Y-52458058D01*
X158377000Y-52458058D02*
X163855400Y-57936458D01*
X151333200Y-52458058D02*
X158377000Y-52458058D01*
D30*
%TO.N,+3.3V*%
X188137800Y-69425258D02*
X189484000Y-70771458D01*
D28*
X167894000Y-84562458D02*
X167894000Y-83406872D01*
D30*
X189484000Y-70771458D02*
X189484000Y-81261658D01*
D28*
X167894000Y-83406872D02*
X168948114Y-82352758D01*
X113411000Y-62668858D02*
X113411000Y-58579458D01*
D30*
X189484000Y-81261658D02*
X188137800Y-82607858D01*
D28*
X187882700Y-82352758D02*
X188137800Y-82607858D01*
D31*
X165531800Y-84563658D02*
X167892800Y-84563658D01*
D28*
X168948114Y-82352758D02*
X187882700Y-82352758D01*
D31*
X167892800Y-84563658D02*
X167894000Y-84562458D01*
D28*
X113411000Y-58579458D02*
X118440200Y-53550258D01*
D30*
%TO.N,/CONN/M1_A+*%
X116193717Y-74329395D02*
X116193717Y-74101161D01*
X104470200Y-69476058D02*
X104470200Y-70338932D01*
X115625512Y-74897600D02*
X116193717Y-74329395D01*
X104470200Y-70338932D02*
X109028868Y-74897600D01*
X109028868Y-74897600D02*
X115625512Y-74897600D01*
%TO.N,/CONN/M1_B-*%
X104876600Y-76765858D02*
X103962200Y-77680258D01*
X119800046Y-76765858D02*
X104876600Y-76765858D01*
X119817956Y-72721102D02*
X120696956Y-73600102D01*
X120696956Y-73600102D02*
X120696956Y-75868948D01*
X120696956Y-75868948D02*
X119800046Y-76765858D01*
%TO.N,/CONN/M1_B+*%
X106858942Y-75598600D02*
X103911400Y-72651058D01*
X115915876Y-75598600D02*
X106858942Y-75598600D01*
X117093315Y-74421161D02*
X115915876Y-75598600D01*
X117093315Y-74074184D02*
X117093315Y-74421161D01*
%TO.N,/CONN/M2_B1*%
X103992500Y-98609858D02*
X103763900Y-98609858D01*
X108767700Y-103385058D02*
X103992500Y-98609858D01*
D32*
%TO.N,VBUS*%
X166039800Y-121486100D02*
X165965700Y-121486100D01*
X165965700Y-121486100D02*
X165965600Y-121486200D01*
X172087000Y-121486100D02*
X166039800Y-121486100D01*
D28*
%TO.N,/OBC/I2C_SDA*%
X188087000Y-98755200D02*
X182618942Y-104223258D01*
X182618942Y-104223258D02*
X180873400Y-104223258D01*
%TO.N,/OBC/I2C_SCL*%
X188087000Y-101295200D02*
X184530942Y-104851258D01*
X184530942Y-104851258D02*
X180269400Y-104851258D01*
D29*
X151434800Y-112234200D02*
X151541085Y-112234200D01*
D28*
X180269400Y-104851258D02*
X179666800Y-104248658D01*
D29*
X186639200Y-102743000D02*
X188087000Y-101295200D01*
D28*
%TO.N,/OBC/GPS_TX*%
X167563800Y-71965258D02*
X151790400Y-56191858D01*
X182321200Y-71965258D02*
X167563800Y-71965258D01*
%TO.N,/OBC/GPS_RX*%
X168833800Y-74479858D02*
X151790400Y-57436458D01*
X182321200Y-74479858D02*
X168833800Y-74479858D01*
%TO.N,Net-(U2-STEP)*%
X112886900Y-69681446D02*
X111799100Y-70769246D01*
X112886900Y-69279446D02*
X112886900Y-69681446D01*
%TO.N,/Motor driver/STEP1*%
X131404500Y-58693658D02*
X124574400Y-58693658D01*
X124574400Y-58693658D02*
X114731800Y-68536258D01*
X114731800Y-68536258D02*
X111009488Y-68536258D01*
X111009488Y-68536258D02*
X107404900Y-72140846D01*
%TO.N,Net-(U2-BRA)*%
X115293726Y-74042315D02*
X115293726Y-74096600D01*
X119895956Y-74243302D02*
X119020500Y-73367846D01*
X119020500Y-73367846D02*
X115968195Y-73367846D01*
X115968195Y-73367846D02*
X115293726Y-74042315D01*
%TO.N,Net-(U2-BRB)*%
X118198500Y-74577846D02*
X118198500Y-74045846D01*
X119526015Y-75907103D02*
X119526015Y-75905361D01*
X119526015Y-75905361D02*
X118198500Y-74577846D01*
%TO.N,/CONN/Focus*%
X186004200Y-62212258D02*
X182398000Y-65818458D01*
X182398000Y-65818458D02*
X164033200Y-65818458D01*
X186004200Y-59443058D02*
X186004200Y-62212258D01*
X151815800Y-53601058D02*
X151790400Y-53601058D01*
X164033200Y-65818458D02*
X151815800Y-53601058D01*
%TO.N,/CONN/Shutter*%
X185953400Y-66656658D02*
X163550600Y-66656658D01*
X163550600Y-66656658D02*
X151790400Y-54896458D01*
%TO.N,/Motor driver/DIR1*%
X131419600Y-59951058D02*
X124065088Y-59951058D01*
X124065088Y-59951058D02*
X113043700Y-70972446D01*
%TO.N,D2_STBY*%
X113720171Y-98728743D02*
X113033100Y-98041672D01*
X113033100Y-93696214D02*
X113516971Y-93212343D01*
%TO.N,Net-(U2-~{PD}{slash}UART)*%
X115112800Y-65794258D02*
X115112800Y-67088458D01*
%TO.N,/Motor driver/TMC_RX*%
X120408800Y-57398258D02*
X128625600Y-57398258D01*
X130225800Y-57332358D02*
X130225800Y-57398258D01*
X128625600Y-57398258D02*
X131404500Y-57398258D01*
X115112800Y-62694258D02*
X120408800Y-57398258D01*
X131404500Y-56153658D02*
X130225800Y-57332358D01*
%TO.N,Net-(U2-~{EN})*%
X126034800Y-72905058D02*
X121386600Y-72905058D01*
X121386600Y-72905058D02*
X120472200Y-71990658D01*
X127203200Y-71736658D02*
X126034800Y-72905058D01*
%TO.N,DIO3*%
X164004012Y-95175270D02*
X170974388Y-95175270D01*
X162269500Y-93440758D02*
X164004012Y-95175270D01*
X170974388Y-95175270D02*
X172810500Y-93339158D01*
%TO.N,/LORA/SX_RST*%
X166722300Y-91238758D02*
X166575000Y-91091458D01*
X159380600Y-91091458D02*
X139721000Y-71431858D01*
X167138500Y-91654958D02*
X167119463Y-91654958D01*
X168201300Y-87969758D02*
X168201300Y-91308744D01*
X166722300Y-91257795D02*
X166722300Y-91238758D01*
X167400300Y-91916758D02*
X167138500Y-91654958D01*
X167894000Y-87662458D02*
X168201300Y-87969758D01*
X167593286Y-91916758D02*
X167400300Y-91916758D01*
X167119463Y-91654958D02*
X166722300Y-91257795D01*
X166575000Y-91091458D02*
X159380600Y-91091458D01*
X168201300Y-91308744D02*
X167593286Y-91916758D01*
%TO.N,DIO2*%
X165459353Y-94497270D02*
X165465241Y-94503158D01*
X167277700Y-94503158D02*
X169279900Y-92500958D01*
X169279900Y-92500958D02*
X169279900Y-83153758D01*
X165465241Y-94503158D02*
X167277700Y-94503158D01*
%TO.N,/LORA/SX_NSS*%
X166903400Y-88678458D02*
X162001200Y-88678458D01*
X165531800Y-87663658D02*
X165888600Y-87663658D01*
X144801000Y-71478258D02*
X144801000Y-71431858D01*
X162001200Y-88678458D02*
X144801000Y-71478258D01*
X167106600Y-88881658D02*
X166903400Y-88678458D01*
X165888600Y-87663658D02*
X167106600Y-88881658D01*
%TO.N,/LORA/SX_MISO*%
X166981400Y-90558058D02*
X160096200Y-90558058D01*
X160096200Y-90558058D02*
X140970000Y-71431858D01*
X167400300Y-90976958D02*
X166981400Y-90558058D01*
%TO.N,/LORA/SX_MOSI*%
X167400300Y-89859358D02*
X167192000Y-90067658D01*
X160896800Y-90067658D02*
X142261000Y-71431858D01*
X167192000Y-90067658D02*
X160896800Y-90067658D01*
%TO.N,/LORA/SX_SCK*%
X161463400Y-89389658D02*
X143505600Y-71431858D01*
X166144500Y-89389658D02*
X161463400Y-89389658D01*
%TO.N,/OBC/VL_GPIO1*%
X174015400Y-81026000D02*
X156768800Y-63779400D01*
X156768800Y-63779400D02*
X151803200Y-63779400D01*
X185750200Y-81026000D02*
X174015400Y-81026000D01*
X151803200Y-63779400D02*
X151790400Y-63766600D01*
%TO.N,/Motor driver/TB_SCL*%
X132359400Y-87484658D02*
X130124200Y-85249458D01*
X130124200Y-85249458D02*
X130124200Y-62562458D01*
X130124200Y-62562458D02*
X131427600Y-61259058D01*
%TO.N,/LORA/SX_DIO1*%
X164359600Y-92029058D02*
X157757200Y-92029058D01*
X166155700Y-93825158D02*
X164359600Y-92029058D01*
X157757200Y-92029058D02*
X137160000Y-71431858D01*
%TO.N,/LORA/SX_BUSY*%
X167406900Y-92837758D02*
X167252700Y-92837758D01*
X167252700Y-92837758D02*
X165989000Y-91574058D01*
X165989000Y-91574058D02*
X158597600Y-91574058D01*
X158597600Y-91574058D02*
X138455400Y-71431858D01*
%TO.N,/Motor driver/TB_SDA*%
X130733800Y-84588158D02*
X130733800Y-63248258D01*
X132360300Y-86214658D02*
X130733800Y-84588158D01*
X130733800Y-63248258D02*
X131427600Y-62554458D01*
%TO.N,D2_B2*%
X123037600Y-92564658D02*
X114685690Y-100916568D01*
X114685690Y-100916568D02*
X113721924Y-100916568D01*
%TO.N,D2_A1*%
X123037600Y-90024658D02*
X115397564Y-97664694D01*
X115397564Y-97664694D02*
X113721043Y-97664694D01*
%TO.N,D2_B1*%
X123037600Y-91294658D02*
X114315636Y-100016622D01*
X114315636Y-100016622D02*
X113711802Y-100016622D01*
%TO.N,D2_A2*%
X123037600Y-88729258D02*
X115002111Y-96764747D01*
X115002111Y-96764747D02*
X113711100Y-96764747D01*
%TD*%
%TA.AperFunction,Conductor*%
%TO.N,GND*%
G36*
X117552439Y-49611043D02*
G01*
X117598194Y-49663847D01*
X117609400Y-49715358D01*
X117609400Y-50853858D01*
X165609400Y-50853858D01*
X165609400Y-49715358D01*
X165629085Y-49648319D01*
X165681889Y-49602564D01*
X165733400Y-49591358D01*
X190361500Y-49591358D01*
X190428539Y-49611043D01*
X190474294Y-49663847D01*
X190485500Y-49715358D01*
X190485500Y-99974055D01*
X190465815Y-100041094D01*
X190413011Y-100086849D01*
X190343853Y-100096793D01*
X190280297Y-100067768D01*
X190258398Y-100042946D01*
X190250812Y-100031593D01*
X190209371Y-99990152D01*
X190163408Y-99944189D01*
X189430121Y-99210902D01*
X189396636Y-99149579D01*
X189399873Y-99084898D01*
X189404246Y-99071443D01*
X189437500Y-98861487D01*
X189437500Y-98648913D01*
X189404246Y-98438957D01*
X189338557Y-98236788D01*
X189242051Y-98047384D01*
X189242049Y-98047381D01*
X189242048Y-98047379D01*
X189117109Y-97875413D01*
X188966786Y-97725090D01*
X188794820Y-97600151D01*
X188794115Y-97599791D01*
X188786054Y-97595685D01*
X188735259Y-97547712D01*
X188718463Y-97479892D01*
X188740999Y-97413756D01*
X188786054Y-97374715D01*
X188794816Y-97370251D01*
X188866485Y-97318181D01*
X188966786Y-97245309D01*
X188966788Y-97245306D01*
X188966792Y-97245304D01*
X189117104Y-97094992D01*
X189117106Y-97094988D01*
X189117109Y-97094986D01*
X189242048Y-96923020D01*
X189242047Y-96923020D01*
X189242051Y-96923016D01*
X189338557Y-96733612D01*
X189404246Y-96531443D01*
X189437500Y-96321487D01*
X189437500Y-96108913D01*
X189404246Y-95898957D01*
X189338557Y-95696788D01*
X189242051Y-95507384D01*
X189242049Y-95507381D01*
X189242048Y-95507379D01*
X189117109Y-95335413D01*
X188966786Y-95185090D01*
X188794820Y-95060151D01*
X188605414Y-94963644D01*
X188605413Y-94963643D01*
X188605412Y-94963643D01*
X188403243Y-94897954D01*
X188403241Y-94897953D01*
X188403240Y-94897953D01*
X188241957Y-94872408D01*
X188193287Y-94864700D01*
X187980713Y-94864700D01*
X187932042Y-94872408D01*
X187770760Y-94897953D01*
X187568585Y-94963644D01*
X187379179Y-95060151D01*
X187207213Y-95185090D01*
X187056890Y-95335413D01*
X186931951Y-95507379D01*
X186835444Y-95696785D01*
X186769753Y-95898960D01*
X186752001Y-96011042D01*
X186736500Y-96108913D01*
X186736500Y-96321487D01*
X186740698Y-96347989D01*
X186769753Y-96531439D01*
X186835444Y-96733614D01*
X186931951Y-96923020D01*
X187056890Y-97094986D01*
X187207213Y-97245309D01*
X187379182Y-97370250D01*
X187387946Y-97374716D01*
X187438742Y-97422691D01*
X187455536Y-97490512D01*
X187432998Y-97556647D01*
X187387946Y-97595684D01*
X187379182Y-97600149D01*
X187207213Y-97725090D01*
X187056890Y-97875413D01*
X186931951Y-98047379D01*
X186835444Y-98236785D01*
X186769753Y-98438960D01*
X186736500Y-98648913D01*
X186736500Y-98861486D01*
X186769753Y-99071440D01*
X186769754Y-99071445D01*
X186774128Y-99084907D01*
X186776121Y-99154749D01*
X186743877Y-99210902D01*
X182395342Y-103559439D01*
X182334019Y-103592924D01*
X182307661Y-103595758D01*
X181500051Y-103595758D01*
X181433012Y-103576073D01*
X181420613Y-103566081D01*
X181420272Y-103566497D01*
X181415562Y-103562631D01*
X181276260Y-103469553D01*
X181121482Y-103405442D01*
X181121474Y-103405440D01*
X180957171Y-103372758D01*
X180951106Y-103372161D01*
X180951346Y-103369723D01*
X180894642Y-103353073D01*
X180874000Y-103336439D01*
X180656753Y-103119191D01*
X180656752Y-103119190D01*
X180653923Y-103117300D01*
X180645566Y-103111716D01*
X180553975Y-103050517D01*
X180503390Y-103029564D01*
X180439777Y-103003214D01*
X180439769Y-103003212D01*
X180318549Y-102979100D01*
X180318545Y-102979100D01*
X179309603Y-102979100D01*
X179185996Y-102979100D01*
X179185994Y-102979100D01*
X179064770Y-103003213D01*
X179064760Y-103003216D01*
X178950573Y-103050513D01*
X178950560Y-103050520D01*
X178847792Y-103119188D01*
X178847788Y-103119191D01*
X170312000Y-111654981D01*
X170250677Y-111688466D01*
X170224319Y-111691300D01*
X159424795Y-111691300D01*
X159303570Y-111715413D01*
X159303560Y-111715416D01*
X159189373Y-111762713D01*
X159189360Y-111762720D01*
X159086592Y-111831388D01*
X159086588Y-111831391D01*
X157073000Y-113844981D01*
X157011677Y-113878466D01*
X156995841Y-113880168D01*
X156995894Y-113880703D01*
X156989828Y-113881300D01*
X156825525Y-113913982D01*
X156825517Y-113913984D01*
X156670739Y-113978095D01*
X156531437Y-114071173D01*
X156526728Y-114075039D01*
X156525173Y-114073144D01*
X156473307Y-114101466D01*
X156446949Y-114104300D01*
X155403681Y-114104300D01*
X155336642Y-114084615D01*
X155316000Y-114067981D01*
X153487709Y-112239690D01*
X153454224Y-112178367D01*
X153453773Y-112176200D01*
X153427346Y-112043341D01*
X153421016Y-112011518D01*
X153356903Y-111856737D01*
X153310646Y-111787509D01*
X153263826Y-111717437D01*
X153259961Y-111712728D01*
X153261855Y-111711173D01*
X153233534Y-111659307D01*
X153230700Y-111632949D01*
X153230700Y-88689339D01*
X153250385Y-88622300D01*
X153303189Y-88576545D01*
X153372347Y-88566601D01*
X153435903Y-88595626D01*
X153442381Y-88601658D01*
X157269789Y-92429066D01*
X157317152Y-92476429D01*
X157357194Y-92516471D01*
X157357196Y-92516472D01*
X157409943Y-92551716D01*
X157459967Y-92585141D01*
X157459969Y-92585141D01*
X157459971Y-92585143D01*
X157470915Y-92589676D01*
X157470920Y-92589677D01*
X157574166Y-92632444D01*
X157690621Y-92655608D01*
X157695392Y-92656557D01*
X157695396Y-92656558D01*
X157695397Y-92656558D01*
X157819004Y-92656558D01*
X161551549Y-92656558D01*
X161618588Y-92676243D01*
X161664343Y-92729047D01*
X161674287Y-92798205D01*
X161645262Y-92861761D01*
X161639230Y-92868239D01*
X161608876Y-92898592D01*
X161608873Y-92898595D01*
X161515795Y-93037897D01*
X161451684Y-93192675D01*
X161451682Y-93192683D01*
X161419000Y-93356986D01*
X161419000Y-93524529D01*
X161451682Y-93688832D01*
X161451684Y-93688840D01*
X161515795Y-93843618D01*
X161608873Y-93982920D01*
X161727337Y-94101384D01*
X161810532Y-94156973D01*
X161866637Y-94194461D01*
X162021418Y-94258574D01*
X162185733Y-94291258D01*
X162185738Y-94291258D01*
X162191794Y-94291855D01*
X162191553Y-94294292D01*
X162248258Y-94310943D01*
X162268900Y-94327577D01*
X163604000Y-95662678D01*
X163604004Y-95662681D01*
X163706772Y-95731349D01*
X163706785Y-95731356D01*
X163820972Y-95778653D01*
X163820977Y-95778655D01*
X163820981Y-95778655D01*
X163820982Y-95778656D01*
X163942205Y-95802770D01*
X163942208Y-95802770D01*
X171036192Y-95802770D01*
X171036193Y-95802769D01*
X171157423Y-95778656D01*
X171247640Y-95741286D01*
X171271621Y-95731353D01*
X171374396Y-95662681D01*
X171461799Y-95575278D01*
X172673119Y-94363958D01*
X178489900Y-94363958D01*
X180389900Y-94363958D01*
X180389900Y-92273958D01*
X178489900Y-92273958D01*
X178489900Y-94363958D01*
X172673119Y-94363958D01*
X172811100Y-94225977D01*
X172872423Y-94192492D01*
X172888258Y-94190789D01*
X172888206Y-94190255D01*
X172894261Y-94189658D01*
X172894267Y-94189658D01*
X173058582Y-94156974D01*
X173213363Y-94092861D01*
X173352662Y-93999784D01*
X173471126Y-93881320D01*
X173564203Y-93742021D01*
X173628316Y-93587240D01*
X173661000Y-93422925D01*
X173661000Y-93255391D01*
X173628316Y-93091076D01*
X173564203Y-92936295D01*
X173479468Y-92809480D01*
X173471126Y-92796995D01*
X173352662Y-92678531D01*
X173213360Y-92585453D01*
X173058582Y-92521342D01*
X173058574Y-92521340D01*
X172894271Y-92488658D01*
X172894267Y-92488658D01*
X172726733Y-92488658D01*
X172726728Y-92488658D01*
X172562425Y-92521340D01*
X172562417Y-92521342D01*
X172407639Y-92585453D01*
X172268337Y-92678531D01*
X172149873Y-92796995D01*
X172056795Y-92936297D01*
X171992684Y-93091075D01*
X171992682Y-93091083D01*
X171960000Y-93255386D01*
X171959403Y-93261452D01*
X171956965Y-93261211D01*
X171940315Y-93317916D01*
X171923681Y-93338558D01*
X170750788Y-94511451D01*
X170689465Y-94544936D01*
X170663107Y-94547770D01*
X168419869Y-94547770D01*
X168352830Y-94528085D01*
X168307075Y-94475281D01*
X168297131Y-94406123D01*
X168326156Y-94342567D01*
X168332188Y-94336089D01*
X169767308Y-92900969D01*
X169767311Y-92900966D01*
X169835983Y-92798191D01*
X169883285Y-92683993D01*
X169902046Y-92589677D01*
X169907400Y-92562764D01*
X169907400Y-83780408D01*
X169927085Y-83713369D01*
X169937078Y-83700972D01*
X169936661Y-83700630D01*
X169940526Y-83695920D01*
X169941141Y-83695000D01*
X170033603Y-83556621D01*
X170097716Y-83401840D01*
X170130400Y-83237525D01*
X170130400Y-83104258D01*
X170150085Y-83037219D01*
X170202889Y-82991464D01*
X170254400Y-82980258D01*
X186663301Y-82980258D01*
X186730340Y-82999943D01*
X186776095Y-83052747D01*
X186787301Y-83104258D01*
X186787301Y-83505734D01*
X186793708Y-83565341D01*
X186844002Y-83700186D01*
X186844006Y-83700193D01*
X186930252Y-83815402D01*
X186930255Y-83815405D01*
X187045464Y-83901651D01*
X187045471Y-83901655D01*
X187176882Y-83950668D01*
X187232816Y-83992539D01*
X187257233Y-84058003D01*
X187242382Y-84126276D01*
X187221231Y-84154531D01*
X187107689Y-84268073D01*
X186982751Y-84440037D01*
X186886244Y-84629443D01*
X186820553Y-84831618D01*
X186791721Y-85013659D01*
X186787300Y-85041571D01*
X186787300Y-85254145D01*
X186791869Y-85282992D01*
X186820055Y-85460955D01*
X186820554Y-85464101D01*
X186880459Y-85648470D01*
X186886244Y-85666272D01*
X186982751Y-85855678D01*
X187107690Y-86027644D01*
X187258013Y-86177967D01*
X187429982Y-86302908D01*
X187438746Y-86307374D01*
X187489542Y-86355349D01*
X187506336Y-86423170D01*
X187483798Y-86489305D01*
X187438746Y-86528342D01*
X187429982Y-86532807D01*
X187258013Y-86657748D01*
X187107690Y-86808071D01*
X186982751Y-86980037D01*
X186886244Y-87169443D01*
X186820553Y-87371618D01*
X186787300Y-87581571D01*
X186787300Y-87794144D01*
X186818953Y-87993997D01*
X186820554Y-88004101D01*
X186866427Y-88145284D01*
X186886244Y-88206272D01*
X186982751Y-88395678D01*
X187107690Y-88567644D01*
X187258013Y-88717967D01*
X187429979Y-88842906D01*
X187429981Y-88842907D01*
X187429984Y-88842909D01*
X187439293Y-88847652D01*
X187490090Y-88895624D01*
X187506887Y-88963445D01*
X187484352Y-89029580D01*
X187439305Y-89068618D01*
X187430246Y-89073234D01*
X187430240Y-89073238D01*
X187376082Y-89112585D01*
X187376082Y-89112586D01*
X188008391Y-89744895D01*
X187944807Y-89761933D01*
X187830793Y-89827759D01*
X187737701Y-89920851D01*
X187671875Y-90034865D01*
X187654837Y-90098449D01*
X187022528Y-89466140D01*
X187022527Y-89466140D01*
X186983180Y-89520297D01*
X186886704Y-89709640D01*
X186821042Y-89911727D01*
X186821042Y-89911730D01*
X186787800Y-90121611D01*
X186787800Y-90334104D01*
X186821042Y-90543985D01*
X186821042Y-90543988D01*
X186886704Y-90746075D01*
X186983175Y-90935408D01*
X187022528Y-90989574D01*
X187654837Y-90357266D01*
X187671875Y-90420851D01*
X187737701Y-90534865D01*
X187830793Y-90627957D01*
X187944807Y-90693783D01*
X188008390Y-90710820D01*
X187376082Y-91343127D01*
X187376082Y-91343128D01*
X187430249Y-91382482D01*
X187619582Y-91478953D01*
X187821670Y-91544615D01*
X188031554Y-91577858D01*
X188244046Y-91577858D01*
X188453927Y-91544615D01*
X188453930Y-91544615D01*
X188656017Y-91478953D01*
X188845354Y-91382480D01*
X188899516Y-91343128D01*
X188899517Y-91343128D01*
X188267208Y-90710820D01*
X188330793Y-90693783D01*
X188444807Y-90627957D01*
X188537899Y-90534865D01*
X188603725Y-90420851D01*
X188620762Y-90357266D01*
X189253070Y-90989575D01*
X189253070Y-90989574D01*
X189292422Y-90935412D01*
X189388895Y-90746075D01*
X189454557Y-90543988D01*
X189454557Y-90543985D01*
X189487800Y-90334104D01*
X189487800Y-90121611D01*
X189454557Y-89911730D01*
X189454557Y-89911727D01*
X189388895Y-89709640D01*
X189292424Y-89520307D01*
X189253070Y-89466140D01*
X189253069Y-89466140D01*
X188620762Y-90098448D01*
X188603725Y-90034865D01*
X188537899Y-89920851D01*
X188444807Y-89827759D01*
X188330793Y-89761933D01*
X188267209Y-89744895D01*
X188899516Y-89112586D01*
X188845347Y-89073231D01*
X188845347Y-89073230D01*
X188836300Y-89068621D01*
X188785506Y-89020646D01*
X188768712Y-88952824D01*
X188791251Y-88886690D01*
X188836308Y-88847651D01*
X188845616Y-88842909D01*
X188924807Y-88785373D01*
X189017586Y-88717967D01*
X189017588Y-88717964D01*
X189017592Y-88717962D01*
X189167904Y-88567650D01*
X189167906Y-88567646D01*
X189167909Y-88567644D01*
X189292848Y-88395678D01*
X189292847Y-88395678D01*
X189292851Y-88395674D01*
X189389357Y-88206270D01*
X189455046Y-88004101D01*
X189488300Y-87794145D01*
X189488300Y-87581571D01*
X189455046Y-87371615D01*
X189389357Y-87169446D01*
X189292851Y-86980042D01*
X189292849Y-86980039D01*
X189292848Y-86980037D01*
X189167909Y-86808071D01*
X189017586Y-86657748D01*
X188845620Y-86532809D01*
X188844915Y-86532449D01*
X188836854Y-86528343D01*
X188786059Y-86480370D01*
X188769263Y-86412550D01*
X188791799Y-86346414D01*
X188836854Y-86307373D01*
X188845616Y-86302909D01*
X188867589Y-86286944D01*
X189017586Y-86177967D01*
X189017588Y-86177964D01*
X189017592Y-86177962D01*
X189167904Y-86027650D01*
X189167906Y-86027646D01*
X189167909Y-86027644D01*
X189292848Y-85855678D01*
X189292847Y-85855678D01*
X189292851Y-85855674D01*
X189389357Y-85666270D01*
X189455046Y-85464101D01*
X189488300Y-85254145D01*
X189488300Y-85041571D01*
X189455046Y-84831615D01*
X189389357Y-84629446D01*
X189292851Y-84440042D01*
X189292849Y-84440039D01*
X189292848Y-84440037D01*
X189167909Y-84268071D01*
X189054369Y-84154531D01*
X189020884Y-84093208D01*
X189025868Y-84023516D01*
X189067740Y-83967583D01*
X189098715Y-83950668D01*
X189230131Y-83901654D01*
X189345346Y-83815404D01*
X189431596Y-83700189D01*
X189481891Y-83565341D01*
X189488300Y-83505731D01*
X189488299Y-82370087D01*
X189507984Y-82303049D01*
X189524618Y-82282407D01*
X190066948Y-81740077D01*
X190066951Y-81740074D01*
X190149084Y-81617153D01*
X190205658Y-81480571D01*
X190234500Y-81335576D01*
X190234500Y-81187741D01*
X190234500Y-70697540D01*
X190234500Y-70697537D01*
X190205659Y-70552550D01*
X190205658Y-70552549D01*
X190205658Y-70552545D01*
X190205656Y-70552540D01*
X190149087Y-70415969D01*
X190149080Y-70415956D01*
X190066952Y-70293043D01*
X190025067Y-70251158D01*
X189962416Y-70188507D01*
X189524618Y-69750709D01*
X189491133Y-69689386D01*
X189488299Y-69663028D01*
X189488299Y-68527387D01*
X189488298Y-68527381D01*
X189488297Y-68527374D01*
X189481891Y-68467775D01*
X189464629Y-68421494D01*
X189431597Y-68332929D01*
X189431593Y-68332922D01*
X189345347Y-68217713D01*
X189345344Y-68217710D01*
X189230135Y-68131464D01*
X189230128Y-68131460D01*
X189095282Y-68081166D01*
X189095283Y-68081166D01*
X189035683Y-68074759D01*
X189035681Y-68074758D01*
X189035673Y-68074758D01*
X189035664Y-68074758D01*
X187239929Y-68074758D01*
X187239923Y-68074759D01*
X187180316Y-68081166D01*
X187045471Y-68131460D01*
X187045464Y-68131464D01*
X186930255Y-68217710D01*
X186930252Y-68217713D01*
X186844006Y-68332922D01*
X186844002Y-68332929D01*
X186793708Y-68467775D01*
X186787496Y-68525558D01*
X186787301Y-68527381D01*
X186787300Y-68527393D01*
X186787300Y-70323128D01*
X186787301Y-70323134D01*
X186793708Y-70382741D01*
X186844002Y-70517586D01*
X186844006Y-70517593D01*
X186930252Y-70632802D01*
X186930255Y-70632805D01*
X187045464Y-70719051D01*
X187045471Y-70719055D01*
X187176882Y-70768068D01*
X187232816Y-70809939D01*
X187257233Y-70875403D01*
X187242382Y-70943676D01*
X187221231Y-70971931D01*
X187107689Y-71085473D01*
X186982751Y-71257437D01*
X186886244Y-71446843D01*
X186820553Y-71649018D01*
X186787300Y-71858971D01*
X186787300Y-72071544D01*
X186819480Y-72274724D01*
X186820554Y-72281501D01*
X186882782Y-72473019D01*
X186886244Y-72483672D01*
X186982751Y-72673078D01*
X187107690Y-72845044D01*
X187258013Y-72995367D01*
X187429982Y-73120308D01*
X187438746Y-73124774D01*
X187489542Y-73172749D01*
X187506336Y-73240570D01*
X187483798Y-73306705D01*
X187438746Y-73345742D01*
X187429982Y-73350207D01*
X187258013Y-73475148D01*
X187107690Y-73625471D01*
X186982751Y-73797437D01*
X186886244Y-73986843D01*
X186820553Y-74189018D01*
X186787300Y-74398971D01*
X186787300Y-74611544D01*
X186811990Y-74767434D01*
X186820554Y-74821501D01*
X186880332Y-75005479D01*
X186886244Y-75023672D01*
X186982751Y-75213078D01*
X187107690Y-75385044D01*
X187258013Y-75535367D01*
X187429979Y-75660306D01*
X187429981Y-75660307D01*
X187429984Y-75660309D01*
X187439293Y-75665052D01*
X187490090Y-75713024D01*
X187506887Y-75780845D01*
X187484352Y-75846980D01*
X187439305Y-75886018D01*
X187430246Y-75890634D01*
X187430240Y-75890638D01*
X187376082Y-75929985D01*
X187376082Y-75929986D01*
X188008391Y-76562295D01*
X187944807Y-76579333D01*
X187830793Y-76645159D01*
X187737701Y-76738251D01*
X187671875Y-76852265D01*
X187654837Y-76915849D01*
X187022528Y-76283540D01*
X187022527Y-76283540D01*
X186983180Y-76337697D01*
X186886704Y-76527040D01*
X186821042Y-76729127D01*
X186821042Y-76729130D01*
X186787800Y-76939011D01*
X186787800Y-77151504D01*
X186821042Y-77361385D01*
X186821042Y-77361388D01*
X186886704Y-77563475D01*
X186983175Y-77752808D01*
X187022528Y-77806974D01*
X187654837Y-77174666D01*
X187671875Y-77238251D01*
X187737701Y-77352265D01*
X187830793Y-77445357D01*
X187944807Y-77511183D01*
X188008389Y-77528220D01*
X187376082Y-78160527D01*
X187376082Y-78160528D01*
X187430249Y-78199882D01*
X187619582Y-78296353D01*
X187821670Y-78362015D01*
X188031554Y-78395258D01*
X188244046Y-78395258D01*
X188453926Y-78362016D01*
X188571181Y-78323917D01*
X188641022Y-78321922D01*
X188700855Y-78358002D01*
X188731684Y-78420702D01*
X188733500Y-78441848D01*
X188733500Y-80899428D01*
X188713815Y-80966467D01*
X188697181Y-80987109D01*
X188463250Y-81221039D01*
X188401927Y-81254524D01*
X188375569Y-81257358D01*
X187239929Y-81257358D01*
X187239923Y-81257359D01*
X187180316Y-81263766D01*
X187045471Y-81314060D01*
X187045464Y-81314064D01*
X186930255Y-81400310D01*
X186930252Y-81400313D01*
X186844006Y-81515522D01*
X186844002Y-81515529D01*
X186795866Y-81644591D01*
X186782596Y-81662317D01*
X186773397Y-81682461D01*
X186762066Y-81689742D01*
X186753995Y-81700525D01*
X186733246Y-81708263D01*
X186714619Y-81720235D01*
X186692702Y-81723386D01*
X186688531Y-81724942D01*
X186679684Y-81725258D01*
X186537846Y-81725258D01*
X186470807Y-81705573D01*
X186425052Y-81652769D01*
X186415108Y-81583611D01*
X186434744Y-81532368D01*
X186478100Y-81467479D01*
X186503903Y-81428863D01*
X186568016Y-81274082D01*
X186600700Y-81109767D01*
X186600700Y-80942233D01*
X186568016Y-80777918D01*
X186503903Y-80623137D01*
X186472737Y-80576494D01*
X186410826Y-80483837D01*
X186292362Y-80365373D01*
X186153060Y-80272295D01*
X185998282Y-80208184D01*
X185998274Y-80208182D01*
X185833971Y-80175500D01*
X185833967Y-80175500D01*
X185666433Y-80175500D01*
X185666428Y-80175500D01*
X185502125Y-80208182D01*
X185502117Y-80208184D01*
X185347339Y-80272295D01*
X185208037Y-80365373D01*
X185203328Y-80369239D01*
X185201773Y-80367344D01*
X185149907Y-80395666D01*
X185123549Y-80398500D01*
X174326681Y-80398500D01*
X174259642Y-80378815D01*
X174239000Y-80362181D01*
X169195858Y-75319039D01*
X169162373Y-75257716D01*
X169167357Y-75188024D01*
X169209229Y-75132091D01*
X169274693Y-75107674D01*
X169283539Y-75107358D01*
X181694549Y-75107358D01*
X181761588Y-75127043D01*
X181773986Y-75137034D01*
X181774328Y-75136619D01*
X181779037Y-75140484D01*
X181820064Y-75167897D01*
X181918337Y-75233561D01*
X182073118Y-75297674D01*
X182237428Y-75330357D01*
X182237432Y-75330358D01*
X182237433Y-75330358D01*
X182404968Y-75330358D01*
X182404969Y-75330357D01*
X182569282Y-75297674D01*
X182724063Y-75233561D01*
X182863362Y-75140484D01*
X182981826Y-75022020D01*
X183074903Y-74882721D01*
X183139016Y-74727940D01*
X183171700Y-74563625D01*
X183171700Y-74396091D01*
X183139016Y-74231776D01*
X183088898Y-74110781D01*
X183074904Y-74076997D01*
X182981826Y-73937695D01*
X182863362Y-73819231D01*
X182724060Y-73726153D01*
X182569282Y-73662042D01*
X182569274Y-73662040D01*
X182404971Y-73629358D01*
X182404967Y-73629358D01*
X182237433Y-73629358D01*
X182237428Y-73629358D01*
X182073125Y-73662040D01*
X182073117Y-73662042D01*
X181918339Y-73726153D01*
X181779037Y-73819231D01*
X181774328Y-73823097D01*
X181772773Y-73821202D01*
X181720907Y-73849524D01*
X181694549Y-73852358D01*
X169145081Y-73852358D01*
X169078042Y-73832673D01*
X169057400Y-73816039D01*
X168045800Y-72804439D01*
X168012315Y-72743116D01*
X168017299Y-72673424D01*
X168059171Y-72617491D01*
X168124635Y-72593074D01*
X168133481Y-72592758D01*
X181694549Y-72592758D01*
X181761588Y-72612443D01*
X181773986Y-72622434D01*
X181774328Y-72622019D01*
X181779037Y-72625884D01*
X181850186Y-72673424D01*
X181918337Y-72718961D01*
X182073118Y-72783074D01*
X182217349Y-72811763D01*
X182237428Y-72815757D01*
X182237432Y-72815758D01*
X182237433Y-72815758D01*
X182404968Y-72815758D01*
X182404969Y-72815757D01*
X182569282Y-72783074D01*
X182724063Y-72718961D01*
X182863362Y-72625884D01*
X182981826Y-72507420D01*
X183074903Y-72368121D01*
X183139016Y-72213340D01*
X183171700Y-72049025D01*
X183171700Y-71881491D01*
X183139016Y-71717176D01*
X183074903Y-71562395D01*
X183024846Y-71487480D01*
X182981826Y-71423095D01*
X182863362Y-71304631D01*
X182724060Y-71211553D01*
X182569282Y-71147442D01*
X182569274Y-71147440D01*
X182404971Y-71114758D01*
X182404967Y-71114758D01*
X182237433Y-71114758D01*
X182237428Y-71114758D01*
X182073125Y-71147440D01*
X182073117Y-71147442D01*
X181918339Y-71211553D01*
X181779037Y-71304631D01*
X181774328Y-71308497D01*
X181772773Y-71306602D01*
X181720907Y-71334924D01*
X181694549Y-71337758D01*
X167875081Y-71337758D01*
X167808042Y-71318073D01*
X167787400Y-71301439D01*
X163981800Y-67495839D01*
X163948315Y-67434516D01*
X163953299Y-67364824D01*
X163995171Y-67308891D01*
X164060635Y-67284474D01*
X164069481Y-67284158D01*
X185326749Y-67284158D01*
X185393788Y-67303843D01*
X185406186Y-67313834D01*
X185406528Y-67313419D01*
X185411237Y-67317284D01*
X185482386Y-67364824D01*
X185550537Y-67410361D01*
X185705318Y-67474474D01*
X185869628Y-67507157D01*
X185869632Y-67507158D01*
X185869633Y-67507158D01*
X186037168Y-67507158D01*
X186037169Y-67507157D01*
X186201482Y-67474474D01*
X186356263Y-67410361D01*
X186495562Y-67317284D01*
X186614026Y-67198820D01*
X186707103Y-67059521D01*
X186771216Y-66904740D01*
X186803900Y-66740425D01*
X186803900Y-66572891D01*
X186771216Y-66408576D01*
X186707103Y-66253795D01*
X186675937Y-66207152D01*
X186614026Y-66114495D01*
X186495562Y-65996031D01*
X186356260Y-65902953D01*
X186201482Y-65838842D01*
X186201474Y-65838840D01*
X186037171Y-65806158D01*
X186037167Y-65806158D01*
X185869633Y-65806158D01*
X185869628Y-65806158D01*
X185705325Y-65838840D01*
X185705317Y-65838842D01*
X185550539Y-65902953D01*
X185411237Y-65996031D01*
X185406528Y-65999897D01*
X185404973Y-65998002D01*
X185353107Y-66026324D01*
X185326749Y-66029158D01*
X183374081Y-66029158D01*
X183307042Y-66009473D01*
X183261287Y-65956669D01*
X183251343Y-65887511D01*
X183280368Y-65823955D01*
X183286400Y-65817477D01*
X186491607Y-62612270D01*
X186491611Y-62612266D01*
X186509769Y-62585091D01*
X186560283Y-62509491D01*
X186597030Y-62420776D01*
X186607586Y-62395293D01*
X186631700Y-62274061D01*
X186631700Y-62150455D01*
X186631700Y-60069708D01*
X186651385Y-60002669D01*
X186661378Y-59990272D01*
X186660961Y-59989930D01*
X186664826Y-59985220D01*
X186667199Y-59981668D01*
X186757903Y-59845921D01*
X186822016Y-59691140D01*
X186854700Y-59526825D01*
X186854700Y-59359291D01*
X186822016Y-59194976D01*
X186757903Y-59040195D01*
X186700193Y-58953826D01*
X186664826Y-58900895D01*
X186546362Y-58782431D01*
X186407060Y-58689353D01*
X186252282Y-58625242D01*
X186252274Y-58625240D01*
X186087971Y-58592558D01*
X186087967Y-58592558D01*
X185920433Y-58592558D01*
X185920428Y-58592558D01*
X185756125Y-58625240D01*
X185756117Y-58625242D01*
X185601339Y-58689353D01*
X185462037Y-58782431D01*
X185343573Y-58900895D01*
X185250495Y-59040197D01*
X185186384Y-59194975D01*
X185186382Y-59194983D01*
X185153700Y-59359286D01*
X185153700Y-59526829D01*
X185186382Y-59691132D01*
X185186384Y-59691140D01*
X185250495Y-59845918D01*
X185343573Y-59985220D01*
X185347439Y-59989930D01*
X185345536Y-59991490D01*
X185373854Y-60043296D01*
X185376700Y-60069708D01*
X185376700Y-61900977D01*
X185357015Y-61968016D01*
X185340381Y-61988658D01*
X184087681Y-63241358D01*
X184026358Y-63274843D01*
X183956666Y-63269859D01*
X183900733Y-63227987D01*
X183876316Y-63162523D01*
X183876000Y-63153677D01*
X183876000Y-63086630D01*
X183875999Y-63086613D01*
X183869598Y-63027085D01*
X183869596Y-63027078D01*
X183819354Y-62892371D01*
X183819353Y-62892369D01*
X183818745Y-62891557D01*
X183818390Y-62890606D01*
X183815103Y-62884586D01*
X183815968Y-62884113D01*
X183794329Y-62826092D01*
X183803452Y-62769796D01*
X183837091Y-62688585D01*
X183876500Y-62490461D01*
X183876500Y-62288455D01*
X183837091Y-62090331D01*
X183759786Y-61903702D01*
X183706094Y-61823347D01*
X183685217Y-61756672D01*
X183703701Y-61689292D01*
X183706078Y-61685592D01*
X183759786Y-61605214D01*
X183837091Y-61418585D01*
X183876500Y-61220461D01*
X183876500Y-61018455D01*
X183837091Y-60820331D01*
X183759786Y-60633702D01*
X183759784Y-60633699D01*
X183759782Y-60633695D01*
X183647558Y-60465739D01*
X183504718Y-60322899D01*
X183336762Y-60210675D01*
X183336752Y-60210670D01*
X183150127Y-60133367D01*
X183150119Y-60133365D01*
X182952007Y-60093958D01*
X182952003Y-60093958D01*
X182299997Y-60093958D01*
X182299992Y-60093958D01*
X182101880Y-60133365D01*
X182101872Y-60133367D01*
X181915247Y-60210670D01*
X181915237Y-60210675D01*
X181747281Y-60322899D01*
X181604441Y-60465739D01*
X181492217Y-60633695D01*
X181492212Y-60633705D01*
X181414909Y-60820330D01*
X181414907Y-60820338D01*
X181375500Y-61018450D01*
X181375500Y-61220465D01*
X181414907Y-61418577D01*
X181414909Y-61418585D01*
X181492213Y-61605213D01*
X181545904Y-61685567D01*
X181566782Y-61752245D01*
X181548297Y-61819625D01*
X181545904Y-61823349D01*
X181492213Y-61903702D01*
X181414909Y-62090330D01*
X181414907Y-62090338D01*
X181375500Y-62288450D01*
X181375500Y-62490465D01*
X181414907Y-62688577D01*
X181414910Y-62688589D01*
X181448547Y-62769796D01*
X181456016Y-62839265D01*
X181436405Y-62884322D01*
X181436895Y-62884590D01*
X181433910Y-62890054D01*
X181433260Y-62891550D01*
X181432646Y-62892369D01*
X181432645Y-62892371D01*
X181382403Y-63027078D01*
X181382401Y-63027085D01*
X181376000Y-63086613D01*
X181376000Y-63409458D01*
X182260134Y-63409458D01*
X182262953Y-63409490D01*
X182273740Y-63409735D01*
X182299997Y-63414958D01*
X182449485Y-63414958D01*
X182441795Y-63419398D01*
X182385940Y-63475253D01*
X182346444Y-63543662D01*
X182326000Y-63619962D01*
X182326000Y-63698954D01*
X182346444Y-63775254D01*
X182385940Y-63843663D01*
X182441795Y-63899518D01*
X182459012Y-63909458D01*
X181376000Y-63909458D01*
X181376000Y-64232302D01*
X181382401Y-64291830D01*
X181382403Y-64291837D01*
X181432645Y-64426544D01*
X181432649Y-64426551D01*
X181518809Y-64541645D01*
X181518812Y-64541648D01*
X181633906Y-64627808D01*
X181633913Y-64627812D01*
X181768620Y-64678054D01*
X181768627Y-64678056D01*
X181828155Y-64684457D01*
X181828172Y-64684458D01*
X182345219Y-64684458D01*
X182412258Y-64704143D01*
X182458013Y-64756947D01*
X182467957Y-64826105D01*
X182438932Y-64889661D01*
X182432900Y-64896139D01*
X182174400Y-65154639D01*
X182113077Y-65188124D01*
X182086719Y-65190958D01*
X164344481Y-65190958D01*
X164277442Y-65171273D01*
X164256800Y-65154639D01*
X158910608Y-59808447D01*
X173078100Y-59808447D01*
X173078100Y-59981669D01*
X173081426Y-60002669D01*
X173102126Y-60133367D01*
X173105198Y-60152759D01*
X173158727Y-60317503D01*
X173237368Y-60471846D01*
X173339186Y-60611986D01*
X173461672Y-60734472D01*
X173601812Y-60836290D01*
X173756155Y-60914931D01*
X173920899Y-60968460D01*
X174091989Y-60995558D01*
X174091990Y-60995558D01*
X174265210Y-60995558D01*
X174265211Y-60995558D01*
X174436301Y-60968460D01*
X174601045Y-60914931D01*
X174755388Y-60836290D01*
X174895528Y-60734472D01*
X175018014Y-60611986D01*
X175119832Y-60471846D01*
X175198473Y-60317503D01*
X175252002Y-60152759D01*
X175279100Y-59981669D01*
X175279100Y-59808447D01*
X175252002Y-59637357D01*
X175198473Y-59472613D01*
X175119832Y-59318270D01*
X175018014Y-59178130D01*
X174895528Y-59055644D01*
X174755388Y-58953826D01*
X174601045Y-58875185D01*
X174436301Y-58821656D01*
X174436299Y-58821655D01*
X174436298Y-58821655D01*
X174304871Y-58800839D01*
X174265211Y-58794558D01*
X174091989Y-58794558D01*
X174052328Y-58800839D01*
X173920902Y-58821655D01*
X173756152Y-58875186D01*
X173601811Y-58953826D01*
X173521856Y-59011917D01*
X173461672Y-59055644D01*
X173461670Y-59055646D01*
X173461669Y-59055646D01*
X173339188Y-59178127D01*
X173339188Y-59178128D01*
X173339186Y-59178130D01*
X173326947Y-59194976D01*
X173237368Y-59318269D01*
X173158728Y-59472610D01*
X173105197Y-59637360D01*
X173094805Y-59702975D01*
X173078100Y-59808447D01*
X158910608Y-59808447D01*
X152672823Y-53570662D01*
X152639338Y-53509339D01*
X152638908Y-53507277D01*
X152608216Y-53352976D01*
X152568466Y-53257011D01*
X152560997Y-53187541D01*
X152592272Y-53125062D01*
X152652361Y-53089410D01*
X152683027Y-53085558D01*
X158065719Y-53085558D01*
X158132758Y-53105243D01*
X158153400Y-53121877D01*
X162968581Y-57937058D01*
X163002066Y-57998381D01*
X163003768Y-58014216D01*
X163004303Y-58014164D01*
X163004900Y-58020229D01*
X163037582Y-58184532D01*
X163037584Y-58184540D01*
X163101695Y-58339318D01*
X163194773Y-58478620D01*
X163313237Y-58597084D01*
X163355376Y-58625240D01*
X163452537Y-58690161D01*
X163607318Y-58754274D01*
X163748874Y-58782431D01*
X163771628Y-58786957D01*
X163771632Y-58786958D01*
X163771633Y-58786958D01*
X163939168Y-58786958D01*
X163939169Y-58786957D01*
X164103482Y-58754274D01*
X164258263Y-58690161D01*
X164397562Y-58597084D01*
X164516026Y-58478620D01*
X164609103Y-58339321D01*
X164673216Y-58184540D01*
X164705900Y-58020225D01*
X164705900Y-57852691D01*
X164673216Y-57688376D01*
X164609103Y-57533595D01*
X164574645Y-57482025D01*
X164516026Y-57394295D01*
X164397562Y-57275831D01*
X164258260Y-57182753D01*
X164103482Y-57118642D01*
X164103474Y-57118640D01*
X163939171Y-57085958D01*
X163933106Y-57085361D01*
X163933346Y-57082923D01*
X163876642Y-57066273D01*
X163856000Y-57049639D01*
X163647263Y-56840902D01*
X181414400Y-56840902D01*
X181420801Y-56900430D01*
X181420803Y-56900437D01*
X181471045Y-57035144D01*
X181471049Y-57035151D01*
X181557209Y-57150245D01*
X181557212Y-57150248D01*
X181672306Y-57236408D01*
X181672313Y-57236412D01*
X181807020Y-57286654D01*
X181807027Y-57286656D01*
X181866555Y-57293057D01*
X181866572Y-57293058D01*
X182414400Y-57293058D01*
X182914400Y-57293058D01*
X183462228Y-57293058D01*
X183462244Y-57293057D01*
X183521772Y-57286656D01*
X183521779Y-57286654D01*
X183656486Y-57236412D01*
X183656493Y-57236408D01*
X183771587Y-57150248D01*
X183771590Y-57150245D01*
X183857750Y-57035151D01*
X183857754Y-57035144D01*
X183907996Y-56900437D01*
X183907998Y-56900430D01*
X183914399Y-56840902D01*
X183914400Y-56840885D01*
X183914400Y-56518058D01*
X182914400Y-56518058D01*
X182914400Y-57293058D01*
X182414400Y-57293058D01*
X182414400Y-56518058D01*
X181414400Y-56518058D01*
X181414400Y-56840902D01*
X163647263Y-56840902D01*
X163360738Y-56554377D01*
X159697618Y-52891256D01*
X159614809Y-52808447D01*
X173078100Y-52808447D01*
X173078100Y-52981668D01*
X173100306Y-53121877D01*
X173105198Y-53152759D01*
X173158727Y-53317503D01*
X173237368Y-53471846D01*
X173339186Y-53611986D01*
X173461672Y-53734472D01*
X173601812Y-53836290D01*
X173756155Y-53914931D01*
X173920899Y-53968460D01*
X174091989Y-53995558D01*
X174091990Y-53995558D01*
X174265210Y-53995558D01*
X174265211Y-53995558D01*
X174436301Y-53968460D01*
X174601045Y-53914931D01*
X174755388Y-53836290D01*
X174895528Y-53734472D01*
X175002950Y-53627050D01*
X181413900Y-53627050D01*
X181413900Y-53829065D01*
X181453307Y-54027177D01*
X181453309Y-54027185D01*
X181530613Y-54213813D01*
X181530614Y-54213814D01*
X181582917Y-54292092D01*
X181584304Y-54294167D01*
X181605182Y-54360845D01*
X181586697Y-54428225D01*
X181584304Y-54431949D01*
X181530613Y-54512302D01*
X181453309Y-54698930D01*
X181453307Y-54698938D01*
X181413900Y-54897050D01*
X181413900Y-55099065D01*
X181453307Y-55297177D01*
X181453310Y-55297189D01*
X181486947Y-55378396D01*
X181494416Y-55447865D01*
X181474805Y-55492922D01*
X181475295Y-55493190D01*
X181472310Y-55498654D01*
X181471660Y-55500150D01*
X181471046Y-55500969D01*
X181471045Y-55500971D01*
X181420803Y-55635678D01*
X181420801Y-55635685D01*
X181414400Y-55695213D01*
X181414400Y-56018058D01*
X182298534Y-56018058D01*
X182322726Y-56020441D01*
X182325523Y-56020997D01*
X182338395Y-56023557D01*
X182338396Y-56023558D01*
X182338397Y-56023558D01*
X182487885Y-56023558D01*
X182480195Y-56027998D01*
X182424340Y-56083853D01*
X182384844Y-56152262D01*
X182364400Y-56228562D01*
X182364400Y-56307554D01*
X182384844Y-56383854D01*
X182424340Y-56452263D01*
X182480195Y-56508118D01*
X182548604Y-56547614D01*
X182624904Y-56568058D01*
X182703896Y-56568058D01*
X182780196Y-56547614D01*
X182848605Y-56508118D01*
X182904460Y-56452263D01*
X182943956Y-56383854D01*
X182964400Y-56307554D01*
X182964400Y-56228562D01*
X182943956Y-56152262D01*
X182904460Y-56083853D01*
X182848605Y-56027998D01*
X182840915Y-56023558D01*
X182990404Y-56023558D01*
X182990404Y-56023557D01*
X183003873Y-56020878D01*
X183006074Y-56020441D01*
X183030266Y-56018058D01*
X183914400Y-56018058D01*
X183914400Y-55695230D01*
X183914399Y-55695213D01*
X183907998Y-55635685D01*
X183907996Y-55635678D01*
X183857754Y-55500971D01*
X183857753Y-55500969D01*
X183857145Y-55500157D01*
X183856790Y-55499206D01*
X183853503Y-55493186D01*
X183854368Y-55492713D01*
X183832729Y-55434692D01*
X183841852Y-55378396D01*
X183875491Y-55297185D01*
X183914900Y-55099061D01*
X183914900Y-54897055D01*
X183875491Y-54698931D01*
X183798186Y-54512302D01*
X183744494Y-54431947D01*
X183723617Y-54365272D01*
X183742101Y-54297892D01*
X183744478Y-54294192D01*
X183798186Y-54213814D01*
X183875491Y-54027185D01*
X183914900Y-53829061D01*
X183914900Y-53627055D01*
X183875491Y-53428931D01*
X183798186Y-53242302D01*
X183798184Y-53242299D01*
X183798182Y-53242295D01*
X183685958Y-53074339D01*
X183543118Y-52931499D01*
X183375162Y-52819275D01*
X183375152Y-52819270D01*
X183188527Y-52741967D01*
X183188519Y-52741965D01*
X182990407Y-52702558D01*
X182990403Y-52702558D01*
X182338397Y-52702558D01*
X182338392Y-52702558D01*
X182140280Y-52741965D01*
X182140272Y-52741967D01*
X181953647Y-52819270D01*
X181953637Y-52819275D01*
X181785681Y-52931499D01*
X181642841Y-53074339D01*
X181530617Y-53242295D01*
X181530612Y-53242305D01*
X181453309Y-53428930D01*
X181453307Y-53428938D01*
X181413900Y-53627050D01*
X175002950Y-53627050D01*
X175018014Y-53611986D01*
X175119832Y-53471846D01*
X175198473Y-53317503D01*
X175252002Y-53152759D01*
X175279100Y-52981669D01*
X175279100Y-52808447D01*
X175252002Y-52637357D01*
X175198473Y-52472613D01*
X175119832Y-52318270D01*
X175018014Y-52178130D01*
X174895528Y-52055644D01*
X174755388Y-51953826D01*
X174601045Y-51875185D01*
X174436301Y-51821656D01*
X174436299Y-51821655D01*
X174436298Y-51821655D01*
X174304871Y-51800839D01*
X174265211Y-51794558D01*
X174091989Y-51794558D01*
X174052328Y-51800839D01*
X173920902Y-51821655D01*
X173756152Y-51875186D01*
X173601811Y-51953826D01*
X173521856Y-52011917D01*
X173461672Y-52055644D01*
X173461670Y-52055646D01*
X173461669Y-52055646D01*
X173339188Y-52178127D01*
X173339188Y-52178128D01*
X173339186Y-52178130D01*
X173295459Y-52238314D01*
X173237368Y-52318269D01*
X173158728Y-52472610D01*
X173105197Y-52637360D01*
X173078100Y-52808447D01*
X159614809Y-52808447D01*
X158777011Y-51970649D01*
X158777007Y-51970646D01*
X158674239Y-51901978D01*
X158674226Y-51901971D01*
X158640785Y-51888120D01*
X158560035Y-51854672D01*
X158560027Y-51854670D01*
X158438807Y-51830558D01*
X158438803Y-51830558D01*
X151395003Y-51830558D01*
X151271397Y-51830558D01*
X151271392Y-51830558D01*
X151150172Y-51854670D01*
X151150164Y-51854672D01*
X151069415Y-51888120D01*
X151035977Y-51901971D01*
X151035967Y-51901975D01*
X151035963Y-51901978D01*
X150933189Y-51970648D01*
X150933188Y-51970649D01*
X149291857Y-53611982D01*
X148793156Y-54110683D01*
X148705753Y-54198086D01*
X148642941Y-54292092D01*
X148637080Y-54300863D01*
X148623225Y-54334308D01*
X148623226Y-54334309D01*
X148589779Y-54415056D01*
X148589776Y-54415066D01*
X148573588Y-54496451D01*
X148565664Y-54536286D01*
X148565664Y-68197706D01*
X148545979Y-68264745D01*
X148535987Y-68277143D01*
X148536403Y-68277485D01*
X148532537Y-68282194D01*
X148439459Y-68421496D01*
X148375348Y-68576274D01*
X148375346Y-68576282D01*
X148342664Y-68740585D01*
X148342664Y-68908128D01*
X148375346Y-69072431D01*
X148375348Y-69072439D01*
X148439459Y-69227217D01*
X148532537Y-69366519D01*
X148651001Y-69484983D01*
X148714675Y-69527528D01*
X148790301Y-69578060D01*
X148945082Y-69642173D01*
X149109392Y-69674856D01*
X149109396Y-69674857D01*
X149109397Y-69674857D01*
X149276932Y-69674857D01*
X149276933Y-69674856D01*
X149441246Y-69642173D01*
X149596027Y-69578060D01*
X149735326Y-69484983D01*
X149853790Y-69366519D01*
X149946867Y-69227220D01*
X150010980Y-69072439D01*
X150043664Y-68908124D01*
X150043664Y-68740590D01*
X150010980Y-68576275D01*
X149946867Y-68421494D01*
X149887685Y-68332922D01*
X149853790Y-68282194D01*
X149849925Y-68277485D01*
X149851819Y-68275930D01*
X149823498Y-68224064D01*
X149820664Y-68197706D01*
X149820664Y-54909374D01*
X149840349Y-54842335D01*
X149856978Y-54821697D01*
X150799464Y-53879211D01*
X150860785Y-53845728D01*
X150930476Y-53850712D01*
X150986410Y-53892584D01*
X151001704Y-53919441D01*
X151036695Y-54003918D01*
X151129773Y-54143220D01*
X151147630Y-54161077D01*
X151181115Y-54222400D01*
X151176131Y-54292092D01*
X151147630Y-54336439D01*
X151129776Y-54354292D01*
X151129773Y-54354295D01*
X151036695Y-54493597D01*
X150972584Y-54648375D01*
X150972582Y-54648383D01*
X150939900Y-54812686D01*
X150939900Y-54980229D01*
X150972582Y-55144532D01*
X150972584Y-55144540D01*
X151036695Y-55299318D01*
X151129773Y-55438620D01*
X151147630Y-55456477D01*
X151181115Y-55517800D01*
X151176131Y-55587492D01*
X151147630Y-55631839D01*
X151129776Y-55649692D01*
X151129773Y-55649695D01*
X151036695Y-55788997D01*
X150972584Y-55943775D01*
X150972582Y-55943783D01*
X150939900Y-56108086D01*
X150939900Y-56275629D01*
X150972582Y-56439932D01*
X150972584Y-56439940D01*
X151036695Y-56594718D01*
X151129772Y-56734018D01*
X151130986Y-56735497D01*
X151131379Y-56736422D01*
X151133158Y-56739085D01*
X151132652Y-56739422D01*
X151158296Y-56799808D01*
X151146502Y-56868675D01*
X151130986Y-56892819D01*
X151129772Y-56894297D01*
X151036695Y-57033597D01*
X150972584Y-57188375D01*
X150972582Y-57188383D01*
X150939900Y-57352686D01*
X150939900Y-57520229D01*
X150972582Y-57684532D01*
X150972584Y-57684540D01*
X151036695Y-57839318D01*
X151129773Y-57978620D01*
X151248237Y-58097084D01*
X151329666Y-58151493D01*
X151387537Y-58190161D01*
X151542318Y-58254274D01*
X151706633Y-58286958D01*
X151706638Y-58286958D01*
X151712694Y-58287555D01*
X151712453Y-58289992D01*
X151769158Y-58306643D01*
X151789800Y-58323277D01*
X156406742Y-62940219D01*
X156440227Y-63001542D01*
X156435243Y-63071234D01*
X156393371Y-63127167D01*
X156327907Y-63151584D01*
X156319061Y-63151900D01*
X152429851Y-63151900D01*
X152362812Y-63132215D01*
X152342170Y-63115581D01*
X152332562Y-63105973D01*
X152193260Y-63012895D01*
X152038482Y-62948784D01*
X152038474Y-62948782D01*
X151874171Y-62916100D01*
X151874167Y-62916100D01*
X151706633Y-62916100D01*
X151706628Y-62916100D01*
X151542325Y-62948782D01*
X151542317Y-62948784D01*
X151387539Y-63012895D01*
X151248237Y-63105973D01*
X151129773Y-63224437D01*
X151036695Y-63363739D01*
X150972584Y-63518517D01*
X150972582Y-63518525D01*
X150939900Y-63682828D01*
X150939900Y-63850371D01*
X150972582Y-64014674D01*
X150972584Y-64014682D01*
X151036695Y-64169460D01*
X151129773Y-64308762D01*
X151248237Y-64427226D01*
X151340894Y-64489137D01*
X151387537Y-64520303D01*
X151542318Y-64584416D01*
X151706628Y-64617099D01*
X151706632Y-64617100D01*
X151706633Y-64617100D01*
X151874168Y-64617100D01*
X151874169Y-64617099D01*
X152038482Y-64584416D01*
X152193263Y-64520303D01*
X152331706Y-64427798D01*
X152398384Y-64406920D01*
X152400597Y-64406900D01*
X156457519Y-64406900D01*
X156524558Y-64426585D01*
X156545200Y-64443219D01*
X173527989Y-81426008D01*
X173582546Y-81480565D01*
X173615558Y-81513577D01*
X173649042Y-81574901D01*
X173644058Y-81644592D01*
X173602186Y-81700526D01*
X173536721Y-81724942D01*
X173527876Y-81725258D01*
X168886309Y-81725258D01*
X168765084Y-81749371D01*
X168765074Y-81749374D01*
X168650887Y-81796671D01*
X168650874Y-81796678D01*
X168548106Y-81865346D01*
X168548102Y-81865349D01*
X167756942Y-82656511D01*
X167493992Y-82919461D01*
X167464712Y-82948741D01*
X167406586Y-83006866D01*
X167406585Y-83006868D01*
X167337621Y-83110080D01*
X167337086Y-83111644D01*
X167290614Y-83223837D01*
X167280847Y-83272942D01*
X167279239Y-83281021D01*
X167279237Y-83281030D01*
X167271777Y-83318536D01*
X167239392Y-83380447D01*
X167178676Y-83415021D01*
X167162764Y-83417702D01*
X167116201Y-83422459D01*
X167116200Y-83422459D01*
X166949668Y-83477643D01*
X166949659Y-83477647D01*
X166840954Y-83544697D01*
X166824396Y-83549392D01*
X166810793Y-83558135D01*
X166775858Y-83563158D01*
X166647996Y-83563158D01*
X166582900Y-83544697D01*
X166476140Y-83478847D01*
X166476135Y-83478845D01*
X166476134Y-83478844D01*
X166309597Y-83423659D01*
X166309595Y-83423658D01*
X166206810Y-83413158D01*
X164856798Y-83413158D01*
X164856781Y-83413159D01*
X164754003Y-83423658D01*
X164754000Y-83423659D01*
X164587468Y-83478843D01*
X164587463Y-83478845D01*
X164438142Y-83570947D01*
X164314089Y-83695000D01*
X164221987Y-83844321D01*
X164221986Y-83844324D01*
X164166801Y-84010861D01*
X164166801Y-84010862D01*
X164166800Y-84010862D01*
X164156300Y-84113641D01*
X164156300Y-85013659D01*
X164156301Y-85013677D01*
X164166800Y-85116454D01*
X164166801Y-85116457D01*
X164190394Y-85187655D01*
X164221986Y-85282992D01*
X164314088Y-85432314D01*
X164438144Y-85556370D01*
X164587466Y-85648472D01*
X164754003Y-85703657D01*
X164856791Y-85714158D01*
X166206808Y-85714157D01*
X166309597Y-85703657D01*
X166476134Y-85648472D01*
X166582900Y-85582619D01*
X166599457Y-85577923D01*
X166613061Y-85569181D01*
X166647996Y-85564158D01*
X166779749Y-85564158D01*
X166844845Y-85582619D01*
X166949659Y-85647268D01*
X166949660Y-85647268D01*
X166949666Y-85647272D01*
X167116203Y-85702457D01*
X167218991Y-85712958D01*
X168528400Y-85712957D01*
X168595439Y-85732642D01*
X168641194Y-85785445D01*
X168652400Y-85836957D01*
X168652400Y-86387958D01*
X168632715Y-86454997D01*
X168579911Y-86500752D01*
X168528400Y-86511958D01*
X167218998Y-86511958D01*
X167218981Y-86511959D01*
X167116203Y-86522458D01*
X167116200Y-86522459D01*
X166949668Y-86577643D01*
X166949663Y-86577645D01*
X166800342Y-86669747D01*
X166799981Y-86670109D01*
X166799670Y-86670278D01*
X166794681Y-86674224D01*
X166794006Y-86673371D01*
X166738658Y-86703594D01*
X166668966Y-86698610D01*
X166631715Y-86674669D01*
X166631119Y-86675424D01*
X166625458Y-86670948D01*
X166625456Y-86670946D01*
X166476134Y-86578844D01*
X166309597Y-86523659D01*
X166309595Y-86523658D01*
X166206810Y-86513158D01*
X164856798Y-86513158D01*
X164856781Y-86513159D01*
X164754003Y-86523658D01*
X164754000Y-86523659D01*
X164587468Y-86578843D01*
X164587463Y-86578845D01*
X164438142Y-86670947D01*
X164314089Y-86795000D01*
X164221987Y-86944321D01*
X164221986Y-86944324D01*
X164166801Y-87110861D01*
X164166801Y-87110862D01*
X164166800Y-87110862D01*
X164156300Y-87213641D01*
X164156300Y-87213649D01*
X164156300Y-87581571D01*
X164156301Y-87926958D01*
X164136617Y-87993997D01*
X164083813Y-88039752D01*
X164032301Y-88050958D01*
X162312481Y-88050958D01*
X162245442Y-88031273D01*
X162224800Y-88014639D01*
X145687819Y-71477658D01*
X145654334Y-71416335D01*
X145651500Y-71389977D01*
X145651500Y-71348090D01*
X145651499Y-71348086D01*
X145646515Y-71323028D01*
X145618816Y-71183776D01*
X145554703Y-71028995D01*
X145516574Y-70971931D01*
X145461626Y-70889695D01*
X145343162Y-70771231D01*
X145203860Y-70678153D01*
X145049082Y-70614042D01*
X145049074Y-70614040D01*
X144884771Y-70581358D01*
X144884767Y-70581358D01*
X144717233Y-70581358D01*
X144717228Y-70581358D01*
X144552925Y-70614040D01*
X144552917Y-70614042D01*
X144398139Y-70678153D01*
X144258837Y-70771231D01*
X144258834Y-70771234D01*
X144240981Y-70789088D01*
X144179658Y-70822573D01*
X144109966Y-70817589D01*
X144065619Y-70789088D01*
X144047762Y-70771231D01*
X143908460Y-70678153D01*
X143753682Y-70614042D01*
X143753674Y-70614040D01*
X143589371Y-70581358D01*
X143589367Y-70581358D01*
X143421833Y-70581358D01*
X143421828Y-70581358D01*
X143257525Y-70614040D01*
X143257517Y-70614042D01*
X143102739Y-70678153D01*
X142963439Y-70771230D01*
X142961961Y-70772444D01*
X142961035Y-70772837D01*
X142958373Y-70774616D01*
X142958035Y-70774110D01*
X142897650Y-70799754D01*
X142828783Y-70787960D01*
X142804639Y-70772444D01*
X142803160Y-70771230D01*
X142663860Y-70678153D01*
X142509082Y-70614042D01*
X142509074Y-70614040D01*
X142344771Y-70581358D01*
X142344767Y-70581358D01*
X142177233Y-70581358D01*
X142177228Y-70581358D01*
X142012925Y-70614040D01*
X142012917Y-70614042D01*
X141858139Y-70678153D01*
X141718837Y-70771231D01*
X141718834Y-70771234D01*
X141703181Y-70786888D01*
X141641858Y-70820373D01*
X141572166Y-70815389D01*
X141527819Y-70786888D01*
X141512162Y-70771231D01*
X141372860Y-70678153D01*
X141218082Y-70614042D01*
X141218074Y-70614040D01*
X141053771Y-70581358D01*
X141053767Y-70581358D01*
X140886233Y-70581358D01*
X140886228Y-70581358D01*
X140721925Y-70614040D01*
X140721917Y-70614042D01*
X140567139Y-70678153D01*
X140427835Y-70771233D01*
X140424158Y-70774251D01*
X140359847Y-70801559D01*
X140290980Y-70789763D01*
X140266842Y-70774251D01*
X140263164Y-70771233D01*
X140123860Y-70678153D01*
X139969082Y-70614042D01*
X139969074Y-70614040D01*
X139804771Y-70581358D01*
X139804767Y-70581358D01*
X139637233Y-70581358D01*
X139637228Y-70581358D01*
X139472925Y-70614040D01*
X139472917Y-70614042D01*
X139318139Y-70678153D01*
X139178837Y-70771231D01*
X139178834Y-70771234D01*
X139175881Y-70774188D01*
X139114558Y-70807673D01*
X139044866Y-70802689D01*
X139000519Y-70774188D01*
X138997562Y-70771231D01*
X138858260Y-70678153D01*
X138703482Y-70614042D01*
X138703474Y-70614040D01*
X138539171Y-70581358D01*
X138539167Y-70581358D01*
X138371633Y-70581358D01*
X138371628Y-70581358D01*
X138207325Y-70614040D01*
X138207317Y-70614042D01*
X138052539Y-70678153D01*
X137913237Y-70771231D01*
X137913234Y-70771234D01*
X137895381Y-70789088D01*
X137834058Y-70822573D01*
X137764366Y-70817589D01*
X137720019Y-70789088D01*
X137702162Y-70771231D01*
X137562860Y-70678153D01*
X137408082Y-70614042D01*
X137408074Y-70614040D01*
X137243771Y-70581358D01*
X137243767Y-70581358D01*
X137076233Y-70581358D01*
X137076228Y-70581358D01*
X136911925Y-70614040D01*
X136911917Y-70614042D01*
X136757139Y-70678153D01*
X136617837Y-70771231D01*
X136499373Y-70889695D01*
X136406295Y-71028997D01*
X136406294Y-71028998D01*
X136388178Y-71072734D01*
X136344336Y-71127137D01*
X136278041Y-71149200D01*
X136210342Y-71131919D01*
X136185937Y-71112960D01*
X136082342Y-71009365D01*
X135885419Y-70812441D01*
X135851934Y-70751118D01*
X135849100Y-70724760D01*
X135849100Y-64339054D01*
X135849099Y-64339050D01*
X135839708Y-64291837D01*
X135824986Y-64217823D01*
X135780012Y-64109250D01*
X135778364Y-64104644D01*
X135709014Y-64000854D01*
X135709013Y-64000852D01*
X135667619Y-63959458D01*
X135621608Y-63913447D01*
X135481419Y-63773258D01*
X135447934Y-63711935D01*
X135446231Y-63696099D01*
X135445697Y-63696152D01*
X135445100Y-63690096D01*
X135445100Y-63690091D01*
X135412416Y-63525776D01*
X135362371Y-63404957D01*
X135348304Y-63370997D01*
X135343454Y-63363739D01*
X135306319Y-63308162D01*
X135255226Y-63231695D01*
X135136762Y-63113231D01*
X134997460Y-63020153D01*
X134842682Y-62956042D01*
X134842674Y-62956040D01*
X134678371Y-62923358D01*
X134678367Y-62923358D01*
X134510833Y-62923358D01*
X134510828Y-62923358D01*
X134346525Y-62956040D01*
X134346517Y-62956042D01*
X134191739Y-63020153D01*
X134052437Y-63113231D01*
X133933973Y-63231695D01*
X133840895Y-63370997D01*
X133776784Y-63525775D01*
X133776782Y-63525783D01*
X133744100Y-63690086D01*
X133744100Y-63857629D01*
X133776782Y-64021932D01*
X133776784Y-64021940D01*
X133840896Y-64176719D01*
X133840898Y-64176723D01*
X133937212Y-64320868D01*
X133958090Y-64387545D01*
X133939605Y-64454925D01*
X133937212Y-64458648D01*
X133840898Y-64602792D01*
X133840896Y-64602796D01*
X133776784Y-64757575D01*
X133776782Y-64757583D01*
X133744100Y-64921886D01*
X133744100Y-65089429D01*
X133776782Y-65253732D01*
X133776784Y-65253740D01*
X133840895Y-65408518D01*
X133933973Y-65547820D01*
X133937839Y-65552530D01*
X133935936Y-65554090D01*
X133964254Y-65605896D01*
X133967100Y-65632308D01*
X133967100Y-72020007D01*
X133990872Y-72139518D01*
X133991214Y-72141235D01*
X134022111Y-72215826D01*
X134038517Y-72255433D01*
X134088735Y-72330590D01*
X134091096Y-72334124D01*
X134091097Y-72334125D01*
X134107188Y-72358208D01*
X134107191Y-72358211D01*
X150770981Y-89022000D01*
X150804466Y-89083323D01*
X150807300Y-89109681D01*
X150807300Y-111607549D01*
X150787615Y-111674588D01*
X150777623Y-111686986D01*
X150778039Y-111687328D01*
X150774173Y-111692037D01*
X150681095Y-111831339D01*
X150616984Y-111986117D01*
X150616982Y-111986125D01*
X150584300Y-112150428D01*
X150584300Y-112317971D01*
X150616982Y-112482274D01*
X150616984Y-112482282D01*
X150681095Y-112637060D01*
X150774173Y-112776362D01*
X150892637Y-112894826D01*
X150971859Y-112947760D01*
X151031937Y-112987903D01*
X151186718Y-113052016D01*
X151351033Y-113084700D01*
X151351038Y-113084700D01*
X151357094Y-113085297D01*
X151356853Y-113087734D01*
X151413558Y-113104385D01*
X151434200Y-113121019D01*
X153348710Y-115035529D01*
X153382195Y-115096852D01*
X153377211Y-115166544D01*
X153335339Y-115222477D01*
X153269875Y-115246894D01*
X153261029Y-115247210D01*
X147028904Y-115247210D01*
X146961865Y-115227525D01*
X146941223Y-115210891D01*
X134415019Y-102684687D01*
X134381534Y-102623364D01*
X134378700Y-102597006D01*
X134378700Y-73367804D01*
X134378699Y-73367800D01*
X134373249Y-73347458D01*
X134337777Y-73215075D01*
X134301785Y-73152736D01*
X134301785Y-73152734D01*
X134258724Y-73078150D01*
X134258721Y-73078146D01*
X134258720Y-73078144D01*
X134146916Y-72966340D01*
X134146915Y-72966339D01*
X134142585Y-72962009D01*
X134142574Y-72961999D01*
X133047992Y-71867417D01*
X133014507Y-71806094D01*
X133019491Y-71736402D01*
X133047992Y-71692055D01*
X133096223Y-71643823D01*
X133096226Y-71643820D01*
X133112312Y-71619745D01*
X133189303Y-71504521D01*
X133253416Y-71349740D01*
X133286100Y-71185425D01*
X133286100Y-71017891D01*
X133253416Y-70853576D01*
X133189303Y-70698795D01*
X133132673Y-70614042D01*
X133096226Y-70559495D01*
X132977762Y-70441031D01*
X132838460Y-70347953D01*
X132683682Y-70283842D01*
X132683674Y-70283840D01*
X132519371Y-70251158D01*
X132519367Y-70251158D01*
X132351833Y-70251158D01*
X132351828Y-70251158D01*
X132187525Y-70283840D01*
X132187517Y-70283842D01*
X132032740Y-70347953D01*
X131967090Y-70391819D01*
X131900413Y-70412696D01*
X131833033Y-70394211D01*
X131829310Y-70391819D01*
X131791242Y-70366383D01*
X131763663Y-70347955D01*
X131763660Y-70347953D01*
X131763659Y-70347953D01*
X131608882Y-70283842D01*
X131608876Y-70283840D01*
X131461108Y-70254447D01*
X131399197Y-70222062D01*
X131364623Y-70161346D01*
X131361300Y-70132830D01*
X131361300Y-63559539D01*
X131369944Y-63530098D01*
X131376468Y-63500112D01*
X131380222Y-63495096D01*
X131380985Y-63492500D01*
X131397619Y-63471858D01*
X131428200Y-63441277D01*
X131489523Y-63407792D01*
X131505358Y-63406089D01*
X131505306Y-63405555D01*
X131511361Y-63404958D01*
X131511367Y-63404958D01*
X131675682Y-63372274D01*
X131830463Y-63308161D01*
X131969762Y-63215084D01*
X132088226Y-63096620D01*
X132181303Y-62957321D01*
X132245416Y-62802540D01*
X132278100Y-62638225D01*
X132278100Y-62470691D01*
X132245416Y-62306376D01*
X132195827Y-62186659D01*
X132181304Y-62151597D01*
X132088226Y-62012295D01*
X132088224Y-62012293D01*
X132070371Y-61994441D01*
X132036884Y-61933119D01*
X132041867Y-61863427D01*
X132070371Y-61819075D01*
X132088226Y-61801220D01*
X132120950Y-61752245D01*
X132181303Y-61661921D01*
X132245416Y-61507140D01*
X132278100Y-61342825D01*
X132278100Y-61175291D01*
X132245416Y-61010976D01*
X132181303Y-60856195D01*
X132088226Y-60716896D01*
X132060068Y-60688738D01*
X132026584Y-60627418D01*
X132031568Y-60557726D01*
X132060071Y-60513375D01*
X132080226Y-60493220D01*
X132094508Y-60471846D01*
X132173303Y-60353921D01*
X132237416Y-60199140D01*
X132270100Y-60034825D01*
X132270100Y-59867291D01*
X132237416Y-59702976D01*
X132173303Y-59548195D01*
X132122799Y-59472610D01*
X132080226Y-59408895D01*
X132080224Y-59408894D01*
X132073391Y-59402061D01*
X132039903Y-59340740D01*
X132044884Y-59271048D01*
X132062102Y-59241125D01*
X132061742Y-59240885D01*
X132086068Y-59204477D01*
X132158203Y-59096521D01*
X132222316Y-58941740D01*
X132255000Y-58777425D01*
X132255000Y-58609891D01*
X132222316Y-58445576D01*
X132158203Y-58290795D01*
X132090962Y-58190162D01*
X132065126Y-58151495D01*
X132065124Y-58151493D01*
X132047271Y-58133641D01*
X132013784Y-58072319D01*
X132018767Y-58002627D01*
X132047271Y-57958275D01*
X132065126Y-57940420D01*
X132067372Y-57937058D01*
X132158203Y-57801121D01*
X132222316Y-57646340D01*
X132255000Y-57482025D01*
X132255000Y-57314491D01*
X132222316Y-57150176D01*
X132158203Y-56995395D01*
X132101711Y-56910849D01*
X132065128Y-56856098D01*
X132063921Y-56854628D01*
X132063529Y-56853705D01*
X132061742Y-56851031D01*
X132062249Y-56850692D01*
X132036604Y-56790320D01*
X132048392Y-56721451D01*
X132063921Y-56697288D01*
X132065128Y-56695817D01*
X132132680Y-56594718D01*
X132158203Y-56556521D01*
X132222316Y-56401740D01*
X132255000Y-56237425D01*
X132255000Y-56069891D01*
X132222316Y-55905576D01*
X132158203Y-55750795D01*
X132121064Y-55695213D01*
X132065126Y-55611495D01*
X131946662Y-55493031D01*
X131807360Y-55399953D01*
X131652582Y-55335842D01*
X131652574Y-55335840D01*
X131488271Y-55303158D01*
X131488267Y-55303158D01*
X131320733Y-55303158D01*
X131320728Y-55303158D01*
X131156425Y-55335840D01*
X131156417Y-55335842D01*
X131001639Y-55399953D01*
X130862337Y-55493031D01*
X130743873Y-55611495D01*
X130650795Y-55750797D01*
X130586684Y-55905575D01*
X130586682Y-55905583D01*
X130554000Y-56069886D01*
X130553403Y-56075952D01*
X130550965Y-56075711D01*
X130534315Y-56132416D01*
X130517681Y-56153058D01*
X129936300Y-56734439D01*
X129874977Y-56767924D01*
X129848619Y-56770758D01*
X120346992Y-56770758D01*
X120225772Y-56794870D01*
X120225764Y-56794872D01*
X120145015Y-56828320D01*
X120111568Y-56842174D01*
X120111560Y-56842178D01*
X120014009Y-56907360D01*
X120014009Y-56907361D01*
X120010537Y-56909680D01*
X120008790Y-56910848D01*
X120008789Y-56910849D01*
X115412198Y-61507439D01*
X115350875Y-61540924D01*
X115324517Y-61543758D01*
X114437798Y-61543758D01*
X114437780Y-61543759D01*
X114335003Y-61554258D01*
X114335000Y-61554259D01*
X114201504Y-61598496D01*
X114131676Y-61600898D01*
X114071634Y-61565166D01*
X114040441Y-61502646D01*
X114038500Y-61480790D01*
X114038500Y-58890738D01*
X114058185Y-58823699D01*
X114074814Y-58803062D01*
X118239739Y-54638136D01*
X118301060Y-54604653D01*
X118332892Y-54602803D01*
X118332892Y-54602358D01*
X118526217Y-54602358D01*
X118526218Y-54602357D01*
X118709851Y-54565831D01*
X118882831Y-54494180D01*
X119038508Y-54390160D01*
X119170902Y-54257766D01*
X119274922Y-54102089D01*
X119346573Y-53929109D01*
X119383100Y-53745474D01*
X119383100Y-53558242D01*
X119346573Y-53374607D01*
X119274922Y-53201627D01*
X119274921Y-53201626D01*
X119274918Y-53201620D01*
X119170902Y-53045950D01*
X119170899Y-53045946D01*
X119038511Y-52913558D01*
X119038507Y-52913555D01*
X118882837Y-52809539D01*
X118882828Y-52809534D01*
X118709851Y-52737885D01*
X118709843Y-52737883D01*
X118526220Y-52701358D01*
X118526216Y-52701358D01*
X118338984Y-52701358D01*
X118338979Y-52701358D01*
X118155356Y-52737883D01*
X118155348Y-52737885D01*
X117982371Y-52809534D01*
X117982362Y-52809539D01*
X117826692Y-52913555D01*
X117826688Y-52913558D01*
X117694300Y-53045946D01*
X117694297Y-53045950D01*
X117590281Y-53201620D01*
X117590276Y-53201629D01*
X117518627Y-53374606D01*
X117518625Y-53374614D01*
X117482100Y-53558237D01*
X117482100Y-53569577D01*
X117462415Y-53636616D01*
X117445781Y-53657258D01*
X113010992Y-58092047D01*
X112969398Y-58133641D01*
X112923586Y-58179452D01*
X112923585Y-58179454D01*
X112854920Y-58282218D01*
X112854916Y-58282226D01*
X112850185Y-58293649D01*
X112807614Y-58396422D01*
X112807612Y-58396430D01*
X112786232Y-58503910D01*
X112786233Y-58503911D01*
X112783500Y-58517651D01*
X112783500Y-62042207D01*
X112763815Y-62109246D01*
X112753823Y-62121644D01*
X112754239Y-62121986D01*
X112750373Y-62126695D01*
X112657295Y-62265997D01*
X112593184Y-62420775D01*
X112593184Y-62420776D01*
X112560500Y-62585086D01*
X112560500Y-62752629D01*
X112593182Y-62916932D01*
X112593184Y-62916940D01*
X112657295Y-63071718D01*
X112750373Y-63211020D01*
X112868837Y-63329484D01*
X112961494Y-63391395D01*
X113008137Y-63422561D01*
X113162918Y-63486674D01*
X113301292Y-63514198D01*
X113327228Y-63519357D01*
X113327232Y-63519358D01*
X113327233Y-63519358D01*
X113494768Y-63519358D01*
X113494769Y-63519357D01*
X113659082Y-63486674D01*
X113712049Y-63464733D01*
X113781517Y-63457265D01*
X113843996Y-63488539D01*
X113865039Y-63514198D01*
X113895085Y-63562910D01*
X113895088Y-63562914D01*
X114019144Y-63686970D01*
X114168466Y-63779072D01*
X114335003Y-63834257D01*
X114437791Y-63844758D01*
X115787808Y-63844757D01*
X115890597Y-63834257D01*
X116057134Y-63779072D01*
X116206456Y-63686970D01*
X116330512Y-63562914D01*
X116422614Y-63413592D01*
X116477799Y-63247055D01*
X116488300Y-63144267D01*
X116488299Y-62257537D01*
X116507983Y-62190499D01*
X116524613Y-62169862D01*
X120632400Y-58062077D01*
X120693723Y-58028592D01*
X120720081Y-58025758D01*
X124055518Y-58025758D01*
X124122557Y-58045443D01*
X124168312Y-58098247D01*
X124178256Y-58167405D01*
X124149231Y-58230961D01*
X124143199Y-58237439D01*
X116699980Y-65680658D01*
X116638657Y-65714143D01*
X116568965Y-65709159D01*
X116513032Y-65667287D01*
X116488615Y-65601823D01*
X116488299Y-65592977D01*
X116488299Y-65344256D01*
X116488298Y-65344239D01*
X116477799Y-65241461D01*
X116477798Y-65241458D01*
X116427419Y-65089425D01*
X116422614Y-65074924D01*
X116330512Y-64925602D01*
X116206456Y-64801546D01*
X116057134Y-64709444D01*
X115890597Y-64654259D01*
X115890595Y-64654258D01*
X115787810Y-64643758D01*
X114437798Y-64643758D01*
X114437781Y-64643759D01*
X114335003Y-64654258D01*
X114335000Y-64654259D01*
X114168468Y-64709443D01*
X114168463Y-64709445D01*
X114019142Y-64801547D01*
X113895089Y-64925600D01*
X113802987Y-65074921D01*
X113802985Y-65074926D01*
X113776571Y-65154639D01*
X113747801Y-65241461D01*
X113747801Y-65241462D01*
X113747800Y-65241462D01*
X113737300Y-65344241D01*
X113737300Y-66244259D01*
X113737301Y-66244277D01*
X113747800Y-66347054D01*
X113747801Y-66347057D01*
X113768187Y-66408576D01*
X113802986Y-66513592D01*
X113895088Y-66662914D01*
X114019144Y-66786970D01*
X114168466Y-66879072D01*
X114177303Y-66882000D01*
X114234748Y-66921772D01*
X114261572Y-66986287D01*
X114262300Y-66999706D01*
X114262300Y-67172229D01*
X114294982Y-67336532D01*
X114294984Y-67336540D01*
X114359095Y-67491318D01*
X114452173Y-67630620D01*
X114513414Y-67691861D01*
X114517749Y-67699800D01*
X114524993Y-67705222D01*
X114534232Y-67729987D01*
X114546899Y-67753184D01*
X114546253Y-67762207D01*
X114549416Y-67770684D01*
X114543800Y-67796510D01*
X114541915Y-67822876D01*
X114536100Y-67831924D01*
X114534571Y-67838958D01*
X114513423Y-67867215D01*
X114508208Y-67872431D01*
X114446888Y-67905922D01*
X114420518Y-67908758D01*
X110947683Y-67908758D01*
X110826458Y-67932871D01*
X110826448Y-67932874D01*
X110712261Y-67980171D01*
X110712248Y-67980178D01*
X110609480Y-68048846D01*
X110609476Y-68048849D01*
X107404300Y-71254027D01*
X107342977Y-71287512D01*
X107327141Y-71289214D01*
X107327194Y-71289749D01*
X107321128Y-71290346D01*
X107156825Y-71323028D01*
X107156817Y-71323030D01*
X107002039Y-71387141D01*
X106862741Y-71480217D01*
X106862734Y-71480222D01*
X106855473Y-71487484D01*
X106794149Y-71520966D01*
X106724457Y-71515979D01*
X106680115Y-71487480D01*
X106000308Y-70807673D01*
X105306935Y-70114299D01*
X105273450Y-70052976D01*
X105278434Y-69983284D01*
X105291511Y-69957732D01*
X105312522Y-69926289D01*
X105384173Y-69753309D01*
X105420700Y-69569674D01*
X105420700Y-69382442D01*
X105384173Y-69198807D01*
X105312522Y-69025827D01*
X105312521Y-69025826D01*
X105312518Y-69025820D01*
X105208502Y-68870150D01*
X105208499Y-68870146D01*
X105076111Y-68737758D01*
X105076107Y-68737755D01*
X104920437Y-68633739D01*
X104920428Y-68633734D01*
X104747451Y-68562085D01*
X104747443Y-68562083D01*
X104563820Y-68525558D01*
X104563816Y-68525558D01*
X104376584Y-68525558D01*
X104376579Y-68525558D01*
X104192956Y-68562083D01*
X104192948Y-68562085D01*
X104019971Y-68633734D01*
X104019962Y-68633739D01*
X103864292Y-68737755D01*
X103864288Y-68737758D01*
X103731900Y-68870146D01*
X103731897Y-68870150D01*
X103627881Y-69025820D01*
X103627876Y-69025829D01*
X103556227Y-69198806D01*
X103556225Y-69198814D01*
X103519700Y-69382437D01*
X103519700Y-69569678D01*
X103556225Y-69753301D01*
X103556227Y-69753309D01*
X103627876Y-69926286D01*
X103627881Y-69926294D01*
X103698802Y-70032434D01*
X103719680Y-70099111D01*
X103719700Y-70101325D01*
X103719700Y-70412850D01*
X103719700Y-70412852D01*
X103719699Y-70412852D01*
X103748540Y-70557839D01*
X103748543Y-70557849D01*
X103805114Y-70694423D01*
X103805116Y-70694427D01*
X103808035Y-70698795D01*
X103825118Y-70724363D01*
X103887249Y-70817350D01*
X103887252Y-70817353D01*
X107706320Y-74636419D01*
X107739805Y-74697742D01*
X107734821Y-74767434D01*
X107692949Y-74823367D01*
X107627485Y-74847784D01*
X107618639Y-74848100D01*
X107221172Y-74848100D01*
X107154133Y-74828415D01*
X107133491Y-74811781D01*
X104884213Y-72562503D01*
X104850728Y-72501180D01*
X104850307Y-72499162D01*
X104825373Y-72373807D01*
X104753722Y-72200827D01*
X104753721Y-72200826D01*
X104753718Y-72200820D01*
X104649702Y-72045150D01*
X104649699Y-72045146D01*
X104517311Y-71912758D01*
X104517307Y-71912755D01*
X104361637Y-71808739D01*
X104361628Y-71808734D01*
X104188651Y-71737085D01*
X104188643Y-71737083D01*
X104005020Y-71700558D01*
X104005016Y-71700558D01*
X103817784Y-71700558D01*
X103817779Y-71700558D01*
X103634156Y-71737083D01*
X103634148Y-71737085D01*
X103461171Y-71808734D01*
X103461162Y-71808739D01*
X103305492Y-71912755D01*
X103305488Y-71912758D01*
X103173100Y-72045146D01*
X103173097Y-72045150D01*
X103069081Y-72200820D01*
X103069076Y-72200829D01*
X102997427Y-72373806D01*
X102997425Y-72373814D01*
X102960900Y-72557437D01*
X102960900Y-72744678D01*
X102997425Y-72928301D01*
X102997427Y-72928309D01*
X103069076Y-73101286D01*
X103069081Y-73101295D01*
X103173097Y-73256965D01*
X103173100Y-73256969D01*
X103305488Y-73389357D01*
X103305492Y-73389360D01*
X103461162Y-73493376D01*
X103461171Y-73493381D01*
X103480386Y-73501340D01*
X103634149Y-73565031D01*
X103759358Y-73589936D01*
X103821265Y-73622319D01*
X103822845Y-73623871D01*
X106002651Y-75803677D01*
X106036136Y-75865000D01*
X106031152Y-75934692D01*
X105989280Y-75990625D01*
X105923816Y-76015042D01*
X105914970Y-76015358D01*
X104802680Y-76015358D01*
X104657692Y-76044198D01*
X104657686Y-76044200D01*
X104521108Y-76100772D01*
X104521096Y-76100779D01*
X104471870Y-76133669D01*
X104471871Y-76133670D01*
X104398181Y-76182907D01*
X103873645Y-76707443D01*
X103812322Y-76740928D01*
X103810156Y-76741379D01*
X103684954Y-76766283D01*
X103684948Y-76766285D01*
X103511971Y-76837934D01*
X103511962Y-76837939D01*
X103356292Y-76941955D01*
X103356288Y-76941958D01*
X103223900Y-77074346D01*
X103223897Y-77074350D01*
X103119881Y-77230020D01*
X103119876Y-77230029D01*
X103048227Y-77403006D01*
X103048225Y-77403014D01*
X103011700Y-77586637D01*
X103011700Y-77773878D01*
X103048225Y-77957501D01*
X103048227Y-77957509D01*
X103119876Y-78130486D01*
X103119881Y-78130495D01*
X103223897Y-78286165D01*
X103223900Y-78286169D01*
X103356288Y-78418557D01*
X103356292Y-78418560D01*
X103511962Y-78522576D01*
X103511968Y-78522579D01*
X103511969Y-78522580D01*
X103684949Y-78594231D01*
X103868579Y-78630757D01*
X103868583Y-78630758D01*
X103868584Y-78630758D01*
X104055817Y-78630758D01*
X104055818Y-78630757D01*
X104239451Y-78594231D01*
X104412431Y-78522580D01*
X104568108Y-78418560D01*
X104700502Y-78286166D01*
X104804522Y-78130489D01*
X104876173Y-77957509D01*
X104901078Y-77832298D01*
X104933460Y-77770391D01*
X104934896Y-77768928D01*
X105151150Y-77552674D01*
X105212472Y-77519192D01*
X105238830Y-77516358D01*
X119873966Y-77516358D01*
X119971508Y-77496954D01*
X120018959Y-77487516D01*
X120155541Y-77430942D01*
X120204775Y-77398044D01*
X120278462Y-77348810D01*
X121279907Y-76347364D01*
X121362040Y-76224443D01*
X121418614Y-76087861D01*
X121437956Y-75990625D01*
X121447456Y-75942868D01*
X121447456Y-73656558D01*
X121467141Y-73589519D01*
X121519945Y-73543764D01*
X121571456Y-73532558D01*
X126096604Y-73532558D01*
X126096605Y-73532557D01*
X126217835Y-73508444D01*
X126307992Y-73471099D01*
X126332033Y-73461141D01*
X126434808Y-73392469D01*
X126522211Y-73305066D01*
X127203800Y-72623477D01*
X127265123Y-72589992D01*
X127280958Y-72588289D01*
X127280906Y-72587755D01*
X127286961Y-72587158D01*
X127286967Y-72587158D01*
X127451282Y-72554474D01*
X127606063Y-72490361D01*
X127745362Y-72397284D01*
X127863826Y-72278820D01*
X127956903Y-72139521D01*
X128021016Y-71984740D01*
X128053700Y-71820425D01*
X128053700Y-71652891D01*
X128021016Y-71488576D01*
X127956903Y-71333795D01*
X127908093Y-71260746D01*
X127863826Y-71194495D01*
X127745362Y-71076031D01*
X127606060Y-70982953D01*
X127451282Y-70918842D01*
X127451274Y-70918840D01*
X127286971Y-70886158D01*
X127286967Y-70886158D01*
X127119433Y-70886158D01*
X127119428Y-70886158D01*
X126955125Y-70918840D01*
X126955117Y-70918842D01*
X126800339Y-70982953D01*
X126661037Y-71076031D01*
X126542573Y-71194495D01*
X126449495Y-71333797D01*
X126385384Y-71488575D01*
X126385382Y-71488583D01*
X126352700Y-71652886D01*
X126352103Y-71658952D01*
X126349665Y-71658711D01*
X126333015Y-71715416D01*
X126316381Y-71736058D01*
X125811200Y-72241239D01*
X125749877Y-72274724D01*
X125723519Y-72277558D01*
X121697881Y-72277558D01*
X121630842Y-72257873D01*
X121610200Y-72241239D01*
X121359019Y-71990058D01*
X121325534Y-71928735D01*
X121323831Y-71912899D01*
X121323297Y-71912952D01*
X121322700Y-71906896D01*
X121322700Y-71906891D01*
X121290016Y-71742576D01*
X121225903Y-71587795D01*
X121170259Y-71504518D01*
X121132826Y-71448495D01*
X121014362Y-71330031D01*
X120875060Y-71236953D01*
X120720282Y-71172842D01*
X120720274Y-71172840D01*
X120555971Y-71140158D01*
X120555967Y-71140158D01*
X120388433Y-71140158D01*
X120388428Y-71140158D01*
X120224125Y-71172840D01*
X120224117Y-71172842D01*
X120069339Y-71236953D01*
X119930037Y-71330031D01*
X119811573Y-71448495D01*
X119718495Y-71587797D01*
X119654384Y-71742575D01*
X119654382Y-71742581D01*
X119640064Y-71814563D01*
X119607679Y-71876474D01*
X119565900Y-71904932D01*
X119415095Y-71967397D01*
X119275793Y-72060475D01*
X119157329Y-72178939D01*
X119064251Y-72318241D01*
X119000140Y-72473019D01*
X119000138Y-72473027D01*
X118966819Y-72640537D01*
X118934435Y-72702448D01*
X118873719Y-72737022D01*
X118845202Y-72740346D01*
X115906390Y-72740346D01*
X115785165Y-72764459D01*
X115785155Y-72764462D01*
X115670969Y-72811759D01*
X115670956Y-72811766D01*
X115583701Y-72870067D01*
X115583702Y-72870068D01*
X115568185Y-72880436D01*
X115568179Y-72880441D01*
X115227272Y-73221348D01*
X115165949Y-73254833D01*
X115163783Y-73255284D01*
X115045649Y-73278782D01*
X115045643Y-73278784D01*
X114890865Y-73342895D01*
X114751563Y-73435973D01*
X114633099Y-73554437D01*
X114540021Y-73693739D01*
X114475910Y-73848517D01*
X114475908Y-73848525D01*
X114443226Y-74012828D01*
X114443226Y-74023100D01*
X114423541Y-74090139D01*
X114370737Y-74135894D01*
X114319226Y-74147100D01*
X109391097Y-74147100D01*
X109324058Y-74127415D01*
X109303416Y-74110781D01*
X108058265Y-72865630D01*
X108024780Y-72804307D01*
X108029764Y-72734615D01*
X108058267Y-72690266D01*
X108065526Y-72683008D01*
X108158603Y-72543709D01*
X108222716Y-72388928D01*
X108255400Y-72224613D01*
X108255400Y-72224606D01*
X108255997Y-72218552D01*
X108258434Y-72218792D01*
X108275085Y-72162088D01*
X108291719Y-72141446D01*
X111233088Y-69200077D01*
X111294411Y-69166592D01*
X111320769Y-69163758D01*
X111912400Y-69163758D01*
X111979439Y-69183443D01*
X112025194Y-69236247D01*
X112036400Y-69287758D01*
X112036400Y-69363213D01*
X112037058Y-69366519D01*
X112070142Y-69532848D01*
X112063914Y-69602440D01*
X112036205Y-69644720D01*
X111798498Y-69882428D01*
X111737178Y-69915912D01*
X111721341Y-69917614D01*
X111721394Y-69918149D01*
X111715328Y-69918746D01*
X111551025Y-69951428D01*
X111551017Y-69951430D01*
X111396239Y-70015541D01*
X111256937Y-70108619D01*
X111138473Y-70227083D01*
X111045395Y-70366385D01*
X110981284Y-70521163D01*
X110981282Y-70521171D01*
X110948600Y-70685474D01*
X110948600Y-70853017D01*
X110981282Y-71017320D01*
X110981284Y-71017328D01*
X111045395Y-71172106D01*
X111138473Y-71311408D01*
X111256937Y-71429872D01*
X111332284Y-71480217D01*
X111396237Y-71522949D01*
X111551018Y-71587062D01*
X111715328Y-71619745D01*
X111715332Y-71619746D01*
X111715333Y-71619746D01*
X111882868Y-71619746D01*
X111882869Y-71619745D01*
X112047182Y-71587062D01*
X112201963Y-71522949D01*
X112230917Y-71503601D01*
X112297591Y-71482724D01*
X112364972Y-71501207D01*
X112387488Y-71519023D01*
X112501537Y-71633072D01*
X112589812Y-71692055D01*
X112640837Y-71726149D01*
X112640838Y-71726149D01*
X112640839Y-71726150D01*
X112675901Y-71740673D01*
X112795618Y-71790262D01*
X112947259Y-71820425D01*
X112959928Y-71822945D01*
X112959932Y-71822946D01*
X112959933Y-71822946D01*
X113127468Y-71822946D01*
X113127469Y-71822945D01*
X113291782Y-71790262D01*
X113446563Y-71726149D01*
X113585862Y-71633072D01*
X113704326Y-71514608D01*
X113797403Y-71375309D01*
X113861516Y-71220528D01*
X113894200Y-71056213D01*
X113894200Y-71056206D01*
X113894797Y-71050152D01*
X113897234Y-71050392D01*
X113913885Y-70993688D01*
X113930519Y-70973046D01*
X124288688Y-60614877D01*
X124350011Y-60581392D01*
X124376369Y-60578558D01*
X130627421Y-60578558D01*
X130694460Y-60598243D01*
X130740215Y-60651047D01*
X130750159Y-60720205D01*
X130730523Y-60771449D01*
X130673895Y-60856197D01*
X130609784Y-61010975D01*
X130609782Y-61010983D01*
X130577100Y-61175286D01*
X130576503Y-61181352D01*
X130574065Y-61181111D01*
X130557415Y-61237816D01*
X130540781Y-61258458D01*
X129724192Y-62075047D01*
X129689993Y-62109246D01*
X129636786Y-62162452D01*
X129636785Y-62162454D01*
X129567719Y-62265818D01*
X129567460Y-62266589D01*
X129566654Y-62268756D01*
X129520814Y-62379423D01*
X129517313Y-62397026D01*
X129515380Y-62406741D01*
X129515380Y-62406743D01*
X129496700Y-62500653D01*
X129496700Y-85311265D01*
X129520812Y-85432486D01*
X129520813Y-85432490D01*
X129520814Y-85432493D01*
X129532604Y-85460955D01*
X129568117Y-85546691D01*
X129629257Y-85638193D01*
X129632381Y-85642869D01*
X129632384Y-85642874D01*
X129636786Y-85649463D01*
X131502376Y-87515053D01*
X131535861Y-87576376D01*
X131536312Y-87578543D01*
X131566982Y-87732732D01*
X131566984Y-87732740D01*
X131631095Y-87887518D01*
X131724173Y-88026820D01*
X131842637Y-88145284D01*
X131933910Y-88206270D01*
X131981937Y-88238361D01*
X132136718Y-88302474D01*
X132301028Y-88335157D01*
X132301032Y-88335158D01*
X132301033Y-88335158D01*
X132468568Y-88335158D01*
X132468568Y-88335157D01*
X132579510Y-88313090D01*
X132649100Y-88319317D01*
X132704277Y-88362180D01*
X132727522Y-88428069D01*
X132727700Y-88434707D01*
X132727700Y-92869792D01*
X132708015Y-92936831D01*
X132655211Y-92982586D01*
X132586053Y-92992530D01*
X132579510Y-92991410D01*
X132535147Y-92982586D01*
X132507567Y-92977100D01*
X132340033Y-92977100D01*
X132340028Y-92977100D01*
X132175725Y-93009782D01*
X132175717Y-93009784D01*
X132020939Y-93073895D01*
X131881637Y-93166973D01*
X131876928Y-93170839D01*
X131875373Y-93168944D01*
X131823507Y-93197266D01*
X131797149Y-93200100D01*
X130240192Y-93200100D01*
X130118973Y-93224212D01*
X130118961Y-93224215D01*
X130079355Y-93240620D01*
X130079356Y-93240621D01*
X130004769Y-93271515D01*
X130004761Y-93271520D01*
X129934660Y-93318361D01*
X129934659Y-93318362D01*
X129901989Y-93340190D01*
X129901988Y-93340191D01*
X122102800Y-101139381D01*
X122041477Y-101172866D01*
X122015119Y-101175700D01*
X115613339Y-101175700D01*
X115546300Y-101156015D01*
X115500545Y-101103211D01*
X115490601Y-101034053D01*
X115519626Y-100970497D01*
X115525658Y-100964019D01*
X123038200Y-93451477D01*
X123099523Y-93417992D01*
X123115358Y-93416289D01*
X123115306Y-93415755D01*
X123121361Y-93415158D01*
X123121367Y-93415158D01*
X123285682Y-93382474D01*
X123440463Y-93318361D01*
X123579762Y-93225284D01*
X123698226Y-93106820D01*
X123791303Y-92967521D01*
X123855416Y-92812740D01*
X123888100Y-92648425D01*
X123888100Y-92480891D01*
X123855416Y-92316576D01*
X123791303Y-92161795D01*
X123698226Y-92022496D01*
X123693071Y-92017341D01*
X123659585Y-91956022D01*
X123664566Y-91886331D01*
X123693071Y-91841974D01*
X123698226Y-91836820D01*
X123791303Y-91697521D01*
X123855416Y-91542740D01*
X123888100Y-91378425D01*
X123888100Y-91210891D01*
X123855416Y-91046576D01*
X123791303Y-90891795D01*
X123698226Y-90752496D01*
X123693071Y-90747341D01*
X123659585Y-90686022D01*
X123664566Y-90616331D01*
X123693071Y-90571974D01*
X123698226Y-90566820D01*
X123791303Y-90427521D01*
X123855416Y-90272740D01*
X123888100Y-90108425D01*
X123888100Y-89940891D01*
X123855416Y-89776576D01*
X123791303Y-89621795D01*
X123723484Y-89520297D01*
X123698226Y-89482495D01*
X123698224Y-89482493D01*
X123680371Y-89464641D01*
X123646884Y-89403319D01*
X123651867Y-89333627D01*
X123680371Y-89289275D01*
X123698226Y-89271420D01*
X123791303Y-89132121D01*
X123855416Y-88977340D01*
X123888100Y-88813025D01*
X123888100Y-88645491D01*
X123855416Y-88481176D01*
X123794933Y-88335158D01*
X123791304Y-88326397D01*
X123786573Y-88319317D01*
X123732481Y-88238362D01*
X123698226Y-88187095D01*
X123579762Y-88068631D01*
X123440460Y-87975553D01*
X123285682Y-87911442D01*
X123285674Y-87911440D01*
X123121371Y-87878758D01*
X123121367Y-87878758D01*
X122953833Y-87878758D01*
X122953828Y-87878758D01*
X122789525Y-87911440D01*
X122789517Y-87911442D01*
X122634739Y-87975553D01*
X122495437Y-88068631D01*
X122376973Y-88187095D01*
X122283895Y-88326397D01*
X122219784Y-88481175D01*
X122219782Y-88481183D01*
X122187100Y-88645486D01*
X122186503Y-88651552D01*
X122184065Y-88651311D01*
X122167415Y-88708016D01*
X122150781Y-88728658D01*
X114778511Y-96100928D01*
X114717188Y-96134413D01*
X114690830Y-96137247D01*
X114337751Y-96137247D01*
X114270712Y-96117562D01*
X114258313Y-96107570D01*
X114257972Y-96107986D01*
X114253262Y-96104120D01*
X114113960Y-96011042D01*
X113959182Y-95946931D01*
X113959174Y-95946929D01*
X113794871Y-95914247D01*
X113794867Y-95914247D01*
X113784600Y-95914247D01*
X113717561Y-95894562D01*
X113671806Y-95841758D01*
X113660600Y-95790247D01*
X113660600Y-94152700D01*
X113680285Y-94085661D01*
X113733089Y-94039906D01*
X113760409Y-94031083D01*
X113761952Y-94030775D01*
X113765053Y-94030159D01*
X113919834Y-93966046D01*
X114059133Y-93872969D01*
X114177597Y-93754505D01*
X114270674Y-93615206D01*
X114334787Y-93460425D01*
X114367471Y-93296110D01*
X114367471Y-93128576D01*
X114334787Y-92964261D01*
X114285198Y-92844544D01*
X114270675Y-92809482D01*
X114268960Y-92806916D01*
X114216930Y-92729047D01*
X114177597Y-92670180D01*
X114059133Y-92551716D01*
X113919831Y-92458638D01*
X113765053Y-92394527D01*
X113765045Y-92394525D01*
X113600742Y-92361843D01*
X113600738Y-92361843D01*
X113433204Y-92361843D01*
X113433199Y-92361843D01*
X113268896Y-92394525D01*
X113268888Y-92394527D01*
X113114110Y-92458638D01*
X112974808Y-92551716D01*
X112856344Y-92670180D01*
X112763266Y-92809482D01*
X112699155Y-92964260D01*
X112699153Y-92964268D01*
X112666471Y-93128571D01*
X112665874Y-93134637D01*
X112663436Y-93134396D01*
X112646786Y-93191100D01*
X112630152Y-93211742D01*
X112545691Y-93296202D01*
X112545688Y-93296206D01*
X112477020Y-93398974D01*
X112477013Y-93398987D01*
X112469421Y-93417317D01*
X112469417Y-93417326D01*
X112467360Y-93422295D01*
X112429714Y-93513179D01*
X112414983Y-93587240D01*
X112413659Y-93593893D01*
X112413655Y-93593908D01*
X112405600Y-93634406D01*
X112405600Y-101487107D01*
X112429712Y-101608328D01*
X112429714Y-101608335D01*
X112456696Y-101673473D01*
X112477017Y-101722533D01*
X112537874Y-101813612D01*
X112540232Y-101817142D01*
X112540235Y-101817146D01*
X112545687Y-101825306D01*
X112545691Y-101825311D01*
X112923589Y-102203208D01*
X113010992Y-102290611D01*
X113010993Y-102290612D01*
X113113760Y-102359279D01*
X113113773Y-102359286D01*
X113227960Y-102406583D01*
X113227965Y-102406585D01*
X113227969Y-102406585D01*
X113227970Y-102406586D01*
X113349194Y-102430700D01*
X113349197Y-102430700D01*
X122388204Y-102430700D01*
X122388205Y-102430699D01*
X122509435Y-102406586D01*
X122590184Y-102373137D01*
X122623633Y-102359283D01*
X122726408Y-102290611D01*
X122813811Y-102203208D01*
X130525600Y-94491419D01*
X130586923Y-94457934D01*
X130613281Y-94455100D01*
X131797149Y-94455100D01*
X131864188Y-94474785D01*
X131876586Y-94484776D01*
X131876928Y-94484361D01*
X131881637Y-94488226D01*
X131974294Y-94550137D01*
X132020937Y-94581303D01*
X132175718Y-94645416D01*
X132299397Y-94670017D01*
X132340028Y-94678099D01*
X132340032Y-94678100D01*
X132340033Y-94678100D01*
X132507568Y-94678100D01*
X132507568Y-94678099D01*
X132579508Y-94663790D01*
X132649100Y-94670017D01*
X132704277Y-94712880D01*
X132727522Y-94778769D01*
X132727700Y-94785407D01*
X132727700Y-102996801D01*
X132727699Y-102996819D01*
X132727699Y-103162525D01*
X132727698Y-103162525D01*
X132768623Y-103315256D01*
X132797558Y-103365371D01*
X132797559Y-103365375D01*
X132797560Y-103365375D01*
X132801822Y-103372758D01*
X132847679Y-103452185D01*
X132847681Y-103452188D01*
X132966549Y-103571056D01*
X132966555Y-103571061D01*
X146038568Y-116643074D01*
X146038578Y-116643085D01*
X146042908Y-116647415D01*
X146042909Y-116647416D01*
X146154713Y-116759220D01*
X146218060Y-116795793D01*
X146291644Y-116838277D01*
X146444372Y-116879201D01*
X146444375Y-116879201D01*
X146610083Y-116879201D01*
X146610099Y-116879200D01*
X158032844Y-116879200D01*
X158957300Y-116879200D01*
X159024339Y-116898885D01*
X159060402Y-116934310D01*
X159145171Y-117061176D01*
X159145177Y-117061184D01*
X159262243Y-117178250D01*
X159262251Y-117178256D01*
X159399899Y-117270229D01*
X159399902Y-117270230D01*
X159399910Y-117270236D01*
X159552872Y-117333594D01*
X159552874Y-117333594D01*
X159552879Y-117333596D01*
X159650478Y-117353008D01*
X159715256Y-117365894D01*
X159798038Y-117365893D01*
X159918032Y-117365893D01*
X160000814Y-117365894D01*
X160081459Y-117349852D01*
X160163190Y-117333596D01*
X160163193Y-117333594D01*
X160163198Y-117333594D01*
X160316160Y-117270236D01*
X160453823Y-117178253D01*
X160570895Y-117061181D01*
X160593342Y-117027585D01*
X160655668Y-116934310D01*
X160709280Y-116889504D01*
X160758770Y-116879200D01*
X166638693Y-116879200D01*
X166705732Y-116898885D01*
X166746618Y-116946070D01*
X166748241Y-116945204D01*
X166751114Y-116950580D01*
X166844187Y-117089872D01*
X166844190Y-117089876D01*
X166962651Y-117208337D01*
X167001559Y-117234334D01*
X167101951Y-117301414D01*
X167256732Y-117365527D01*
X167421042Y-117398210D01*
X167421046Y-117398211D01*
X167421047Y-117398211D01*
X167588582Y-117398211D01*
X167588583Y-117398210D01*
X167752896Y-117365527D01*
X167907677Y-117301414D01*
X168046976Y-117208337D01*
X168165440Y-117089873D01*
X168258517Y-116950574D01*
X168322630Y-116795793D01*
X168355314Y-116631478D01*
X168355314Y-116463944D01*
X168322630Y-116299629D01*
X168258517Y-116144848D01*
X168256350Y-116141604D01*
X168255736Y-116139647D01*
X168255648Y-116139481D01*
X168255679Y-116139464D01*
X168235469Y-116074932D01*
X168253949Y-116007551D01*
X168256323Y-116003856D01*
X168258517Y-116000574D01*
X168322630Y-115845793D01*
X168355314Y-115681478D01*
X168355314Y-115513944D01*
X168322630Y-115349629D01*
X168258517Y-115194848D01*
X168201331Y-115109263D01*
X168165440Y-115055548D01*
X168046976Y-114937084D01*
X167907674Y-114844006D01*
X167752896Y-114779895D01*
X167752888Y-114779893D01*
X167588585Y-114747211D01*
X167588581Y-114747211D01*
X167421047Y-114747211D01*
X167421042Y-114747211D01*
X167256739Y-114779893D01*
X167256731Y-114779895D01*
X167101953Y-114844006D01*
X166962651Y-114937084D01*
X166844190Y-115055545D01*
X166844187Y-115055549D01*
X166752946Y-115192101D01*
X166699334Y-115236906D01*
X166649844Y-115247210D01*
X159073343Y-115247210D01*
X159006304Y-115227525D01*
X158960549Y-115174721D01*
X158950605Y-115105563D01*
X158958782Y-115075757D01*
X158975445Y-115035529D01*
X159009016Y-114954482D01*
X159041700Y-114790167D01*
X159041700Y-114790160D01*
X159042297Y-114784106D01*
X159044734Y-114784346D01*
X159061385Y-114727642D01*
X159078019Y-114707000D01*
X160093600Y-113691419D01*
X160154923Y-113657934D01*
X160181281Y-113655100D01*
X170949662Y-113655100D01*
X170949663Y-113655099D01*
X171070893Y-113630986D01*
X171151642Y-113597537D01*
X171185091Y-113583683D01*
X171287866Y-113515011D01*
X171375269Y-113427608D01*
X179579119Y-105223758D01*
X179587064Y-105219419D01*
X179592490Y-105212172D01*
X179617249Y-105202937D01*
X179640442Y-105190273D01*
X179649471Y-105190918D01*
X179657954Y-105187755D01*
X179683774Y-105193371D01*
X179710134Y-105195257D01*
X179719187Y-105201075D01*
X179726227Y-105202607D01*
X179754481Y-105223758D01*
X179781989Y-105251266D01*
X179869389Y-105338666D01*
X179869393Y-105338670D01*
X179972160Y-105407337D01*
X179972173Y-105407344D01*
X180086360Y-105454641D01*
X180086365Y-105454643D01*
X180086369Y-105454643D01*
X180086370Y-105454644D01*
X180207594Y-105478758D01*
X180207597Y-105478758D01*
X184592746Y-105478758D01*
X184592747Y-105478757D01*
X184713977Y-105454644D01*
X184814153Y-105413149D01*
X184828175Y-105407341D01*
X184930950Y-105338669D01*
X185018353Y-105251266D01*
X185076912Y-105192707D01*
X185076924Y-105192694D01*
X185360220Y-104909398D01*
X185421542Y-104875914D01*
X185491234Y-104880898D01*
X185547167Y-104922770D01*
X185571584Y-104988234D01*
X185571900Y-104997080D01*
X185571900Y-116385807D01*
X185596012Y-116507027D01*
X185596014Y-116507035D01*
X185629462Y-116587785D01*
X185643315Y-116621229D01*
X185643320Y-116621239D01*
X185711988Y-116724007D01*
X185711991Y-116724011D01*
X186743877Y-117755896D01*
X186777362Y-117817219D01*
X186774128Y-117881893D01*
X186769754Y-117895355D01*
X186763097Y-117937388D01*
X186736500Y-118105313D01*
X186736500Y-118317887D01*
X186769754Y-118527843D01*
X186803603Y-118632020D01*
X186835444Y-118730014D01*
X186931951Y-118919420D01*
X187056890Y-119091386D01*
X187207213Y-119241709D01*
X187379182Y-119366650D01*
X187387946Y-119371116D01*
X187438742Y-119419091D01*
X187455536Y-119486912D01*
X187432998Y-119553047D01*
X187387946Y-119592084D01*
X187379182Y-119596549D01*
X187207213Y-119721490D01*
X187056890Y-119871813D01*
X186931951Y-120043779D01*
X186835444Y-120233185D01*
X186769753Y-120435360D01*
X186736500Y-120645313D01*
X186736500Y-120857886D01*
X186764689Y-121035869D01*
X186769754Y-121067843D01*
X186827765Y-121246383D01*
X186835444Y-121270014D01*
X186931951Y-121459420D01*
X187056890Y-121631386D01*
X187207213Y-121781709D01*
X187379179Y-121906648D01*
X187379181Y-121906649D01*
X187379184Y-121906651D01*
X187568588Y-122003157D01*
X187770757Y-122068846D01*
X187980713Y-122102100D01*
X187980714Y-122102100D01*
X188193286Y-122102100D01*
X188193287Y-122102100D01*
X188403243Y-122068846D01*
X188605412Y-122003157D01*
X188794816Y-121906651D01*
X188857855Y-121860851D01*
X188966786Y-121781709D01*
X188966788Y-121781706D01*
X188966792Y-121781704D01*
X189117104Y-121631392D01*
X189117106Y-121631388D01*
X189117109Y-121631386D01*
X189242048Y-121459420D01*
X189242047Y-121459420D01*
X189242051Y-121459416D01*
X189338557Y-121270012D01*
X189404246Y-121067843D01*
X189437500Y-120857887D01*
X189437500Y-120645313D01*
X189404246Y-120435357D01*
X189399872Y-120421898D01*
X189397874Y-120352059D01*
X189430119Y-120295898D01*
X190250811Y-119475208D01*
X190258395Y-119463857D01*
X190312003Y-119419050D01*
X190381327Y-119410338D01*
X190444357Y-119440489D01*
X190481080Y-119499930D01*
X190485500Y-119532743D01*
X190485500Y-129648158D01*
X190465815Y-129715197D01*
X190413011Y-129760952D01*
X190361500Y-129772158D01*
X156219797Y-129772158D01*
X156152758Y-129752473D01*
X156107003Y-129699669D01*
X156097059Y-129630511D01*
X156119479Y-129575272D01*
X156193514Y-129473371D01*
X156300702Y-129263002D01*
X156373665Y-129038447D01*
X156410600Y-128805252D01*
X156410600Y-128569147D01*
X156373665Y-128335952D01*
X156300702Y-128111397D01*
X156204742Y-127923064D01*
X156204741Y-127923062D01*
X156193516Y-127901030D01*
X156133258Y-127818094D01*
X156133258Y-127818093D01*
X155475212Y-128476139D01*
X155469711Y-128455609D01*
X155390719Y-128318792D01*
X155279008Y-128207081D01*
X155142191Y-128128089D01*
X155121659Y-128122587D01*
X155779705Y-127464540D01*
X155779704Y-127464538D01*
X155696774Y-127404287D01*
X155486402Y-127297097D01*
X155438335Y-127281479D01*
X155261847Y-127224134D01*
X155261848Y-127224134D01*
X155028652Y-127187200D01*
X154792548Y-127187200D01*
X154559352Y-127224134D01*
X154334797Y-127297097D01*
X154124430Y-127404284D01*
X154041494Y-127464540D01*
X154699541Y-128122587D01*
X154679009Y-128128089D01*
X154542192Y-128207081D01*
X154430481Y-128318792D01*
X154351489Y-128455609D01*
X154345987Y-128476141D01*
X153687940Y-127818094D01*
X153627684Y-127901030D01*
X153520497Y-128111397D01*
X153447534Y-128335952D01*
X153410600Y-128569147D01*
X153410600Y-128805252D01*
X153447534Y-129038447D01*
X153520497Y-129263002D01*
X153627685Y-129473371D01*
X153701721Y-129575272D01*
X153725201Y-129641079D01*
X153709376Y-129709133D01*
X153659270Y-129757827D01*
X153601403Y-129772158D01*
X144219797Y-129772158D01*
X144152758Y-129752473D01*
X144107003Y-129699669D01*
X144097059Y-129630511D01*
X144119479Y-129575272D01*
X144193514Y-129473371D01*
X144300702Y-129263002D01*
X144373665Y-129038447D01*
X144410600Y-128805252D01*
X144410600Y-128569147D01*
X144373665Y-128335952D01*
X144300702Y-128111397D01*
X144193514Y-127901028D01*
X144133258Y-127818094D01*
X144133258Y-127818093D01*
X143475212Y-128476139D01*
X143469711Y-128455609D01*
X143390719Y-128318792D01*
X143279008Y-128207081D01*
X143142191Y-128128089D01*
X143121659Y-128122587D01*
X143779705Y-127464540D01*
X143779704Y-127464539D01*
X143696774Y-127404287D01*
X143486402Y-127297097D01*
X143261847Y-127224134D01*
X143261848Y-127224134D01*
X143028652Y-127187200D01*
X142792548Y-127187200D01*
X142559352Y-127224134D01*
X142334797Y-127297097D01*
X142124430Y-127404284D01*
X142041494Y-127464540D01*
X142699541Y-128122587D01*
X142679009Y-128128089D01*
X142542192Y-128207081D01*
X142430481Y-128318792D01*
X142351489Y-128455609D01*
X142345987Y-128476141D01*
X141687940Y-127818094D01*
X141627684Y-127901030D01*
X141520497Y-128111397D01*
X141447534Y-128335952D01*
X141410600Y-128569147D01*
X141410600Y-128805252D01*
X141447534Y-129038447D01*
X141520497Y-129263002D01*
X141627685Y-129473371D01*
X141701721Y-129575272D01*
X141725201Y-129641079D01*
X141709376Y-129709133D01*
X141659270Y-129757827D01*
X141601403Y-129772158D01*
X91810500Y-129772158D01*
X91743461Y-129752473D01*
X91697706Y-129699669D01*
X91686500Y-129648158D01*
X91686500Y-127169635D01*
X163518382Y-127169635D01*
X163518382Y-127418131D01*
X164218382Y-127418131D01*
X164218382Y-127918131D01*
X163518382Y-127918131D01*
X163518382Y-128166626D01*
X163556809Y-128359812D01*
X163556812Y-128359824D01*
X163632189Y-128541802D01*
X163632196Y-128541815D01*
X163741630Y-128705593D01*
X163741633Y-128705597D01*
X163880915Y-128844879D01*
X163880919Y-128844882D01*
X164044697Y-128954316D01*
X164044710Y-128954323D01*
X164226690Y-129029700D01*
X164268382Y-129037993D01*
X164268382Y-128235119D01*
X164278322Y-128252336D01*
X164334177Y-128308191D01*
X164402586Y-128347687D01*
X164478886Y-128368131D01*
X164557878Y-128368131D01*
X164634178Y-128347687D01*
X164702587Y-128308191D01*
X164758442Y-128252336D01*
X164768382Y-128235119D01*
X164768382Y-129037993D01*
X164810072Y-129029700D01*
X164810074Y-129029700D01*
X164992053Y-128954323D01*
X164992066Y-128954316D01*
X165155844Y-128844882D01*
X165155848Y-128844879D01*
X165295130Y-128705597D01*
X165295133Y-128705593D01*
X165404567Y-128541815D01*
X165404574Y-128541802D01*
X165479951Y-128359824D01*
X165479954Y-128359812D01*
X165518381Y-128166626D01*
X165518382Y-128166623D01*
X165518382Y-127918131D01*
X164818382Y-127918131D01*
X164818382Y-127418131D01*
X165518382Y-127418131D01*
X165518382Y-127169639D01*
X165518381Y-127169635D01*
X172158382Y-127169635D01*
X172158382Y-127418131D01*
X172858382Y-127418131D01*
X172858382Y-127918131D01*
X172158382Y-127918131D01*
X172158382Y-128166626D01*
X172196809Y-128359812D01*
X172196812Y-128359824D01*
X172272189Y-128541802D01*
X172272196Y-128541815D01*
X172381630Y-128705593D01*
X172381633Y-128705597D01*
X172520915Y-128844879D01*
X172520919Y-128844882D01*
X172684697Y-128954316D01*
X172684710Y-128954323D01*
X172866690Y-129029700D01*
X172908382Y-129037993D01*
X172908382Y-128235119D01*
X172918322Y-128252336D01*
X172974177Y-128308191D01*
X173042586Y-128347687D01*
X173118886Y-128368131D01*
X173197878Y-128368131D01*
X173274178Y-128347687D01*
X173342587Y-128308191D01*
X173398442Y-128252336D01*
X173408382Y-128235119D01*
X173408382Y-129037993D01*
X173450072Y-129029700D01*
X173450074Y-129029700D01*
X173632053Y-128954323D01*
X173632066Y-128954316D01*
X173795844Y-128844882D01*
X173795848Y-128844879D01*
X173935130Y-128705597D01*
X173935133Y-128705593D01*
X174044567Y-128541815D01*
X174044574Y-128541802D01*
X174119951Y-128359824D01*
X174119954Y-128359812D01*
X174158381Y-128166626D01*
X174158382Y-128166623D01*
X174158382Y-127918131D01*
X173458382Y-127918131D01*
X173458382Y-127418131D01*
X174158382Y-127418131D01*
X174158382Y-127169639D01*
X174158381Y-127169635D01*
X174119954Y-126976449D01*
X174119951Y-126976437D01*
X174044574Y-126794459D01*
X174044567Y-126794446D01*
X173935133Y-126630668D01*
X173935130Y-126630664D01*
X173795848Y-126491382D01*
X173795844Y-126491379D01*
X173632066Y-126381945D01*
X173632053Y-126381938D01*
X173450073Y-126306560D01*
X173450065Y-126306558D01*
X173408382Y-126298266D01*
X173408382Y-127101142D01*
X173398442Y-127083926D01*
X173342587Y-127028071D01*
X173274178Y-126988575D01*
X173197878Y-126968131D01*
X173118886Y-126968131D01*
X173042586Y-126988575D01*
X172974177Y-127028071D01*
X172918322Y-127083926D01*
X172908382Y-127101142D01*
X172908382Y-126298267D01*
X172908381Y-126298266D01*
X172866698Y-126306558D01*
X172866690Y-126306560D01*
X172684710Y-126381938D01*
X172684697Y-126381945D01*
X172520919Y-126491379D01*
X172520915Y-126491382D01*
X172381633Y-126630664D01*
X172381630Y-126630668D01*
X172272196Y-126794446D01*
X172272189Y-126794459D01*
X172196812Y-126976437D01*
X172196809Y-126976449D01*
X172158382Y-127169635D01*
X165518381Y-127169635D01*
X165479954Y-126976449D01*
X165479951Y-126976437D01*
X165404574Y-126794459D01*
X165404567Y-126794446D01*
X165295133Y-126630668D01*
X165295130Y-126630664D01*
X165155848Y-126491382D01*
X165155844Y-126491379D01*
X164992066Y-126381945D01*
X164992053Y-126381938D01*
X164810073Y-126306560D01*
X164810065Y-126306558D01*
X164768382Y-126298266D01*
X164768382Y-127101142D01*
X164758442Y-127083926D01*
X164702587Y-127028071D01*
X164634178Y-126988575D01*
X164557878Y-126968131D01*
X164478886Y-126968131D01*
X164402586Y-126988575D01*
X164334177Y-127028071D01*
X164278322Y-127083926D01*
X164268382Y-127101142D01*
X164268382Y-126298267D01*
X164268381Y-126298266D01*
X164226698Y-126306558D01*
X164226690Y-126306560D01*
X164044710Y-126381938D01*
X164044697Y-126381945D01*
X163880919Y-126491379D01*
X163880915Y-126491382D01*
X163741633Y-126630664D01*
X163741630Y-126630668D01*
X163632196Y-126794446D01*
X163632189Y-126794459D01*
X163556812Y-126976437D01*
X163556809Y-126976449D01*
X163518382Y-127169635D01*
X91686500Y-127169635D01*
X91686500Y-122973368D01*
X92996511Y-122973368D01*
X92996511Y-123254231D01*
X93027953Y-123533294D01*
X93027956Y-123533312D01*
X93090450Y-123807117D01*
X93090454Y-123807129D01*
X93183211Y-124072211D01*
X93305064Y-124325242D01*
X93305066Y-124325245D01*
X93454488Y-124563048D01*
X93629595Y-124782625D01*
X93828186Y-124981216D01*
X94047763Y-125156323D01*
X94285566Y-125305745D01*
X94538603Y-125427601D01*
X94737691Y-125497265D01*
X94803681Y-125520356D01*
X94803693Y-125520360D01*
X95077502Y-125582855D01*
X95077508Y-125582855D01*
X95077516Y-125582857D01*
X95263558Y-125603818D01*
X95356580Y-125614299D01*
X95356583Y-125614300D01*
X95356586Y-125614300D01*
X95637439Y-125614300D01*
X95637440Y-125614299D01*
X95780066Y-125598229D01*
X95916505Y-125582857D01*
X95916510Y-125582856D01*
X95916520Y-125582855D01*
X96190329Y-125520360D01*
X96455419Y-125427601D01*
X96708456Y-125305745D01*
X96946259Y-125156323D01*
X97165836Y-124981216D01*
X97364427Y-124782625D01*
X97539534Y-124563048D01*
X97688956Y-124325245D01*
X97810812Y-124072208D01*
X97903571Y-123807118D01*
X97966066Y-123533309D01*
X97978196Y-123425656D01*
X97991945Y-123303626D01*
X97997511Y-123254225D01*
X97997511Y-122973375D01*
X97972785Y-122753926D01*
X97966068Y-122694305D01*
X97966065Y-122694287D01*
X97964447Y-122687200D01*
X97903571Y-122420482D01*
X97810812Y-122155392D01*
X97724690Y-121976558D01*
X97688957Y-121902357D01*
X97636011Y-121818094D01*
X97539534Y-121664552D01*
X97364427Y-121444975D01*
X97165836Y-121246384D01*
X97137935Y-121224134D01*
X97106619Y-121199160D01*
X97091622Y-121187200D01*
X96989000Y-121105362D01*
X101206911Y-121105362D01*
X101206911Y-121105375D01*
X101206912Y-122305376D01*
X101206912Y-122305397D01*
X101217411Y-122408175D01*
X101217412Y-122408178D01*
X101272596Y-122574710D01*
X101272598Y-122574715D01*
X101293257Y-122608209D01*
X101364699Y-122724035D01*
X101488755Y-122848091D01*
X101638077Y-122940193D01*
X101804614Y-122995378D01*
X101907402Y-123005879D01*
X103107419Y-123005878D01*
X103210208Y-122995378D01*
X103376745Y-122940193D01*
X103526067Y-122848091D01*
X103650123Y-122724035D01*
X103742225Y-122574713D01*
X103744069Y-122569147D01*
X141410600Y-122569147D01*
X141410600Y-122805252D01*
X141447534Y-123038447D01*
X141520497Y-123263002D01*
X141627687Y-123473374D01*
X141687938Y-123556304D01*
X141687940Y-123556305D01*
X142345987Y-122898258D01*
X142351489Y-122918791D01*
X142430481Y-123055608D01*
X142542192Y-123167319D01*
X142679009Y-123246311D01*
X142699540Y-123251812D01*
X142041493Y-123909858D01*
X142124428Y-123970114D01*
X142334797Y-124077302D01*
X142559352Y-124150265D01*
X142559351Y-124150265D01*
X142792548Y-124187200D01*
X143028652Y-124187200D01*
X143261845Y-124150265D01*
X143413999Y-124100827D01*
X143483840Y-124098832D01*
X143543673Y-124134912D01*
X143574502Y-124197612D01*
X143574791Y-124238155D01*
X143567464Y-124284417D01*
X143560100Y-124330913D01*
X143560100Y-124543487D01*
X143593354Y-124753443D01*
X143648874Y-124924316D01*
X143659044Y-124955614D01*
X143755551Y-125145020D01*
X143880490Y-125316986D01*
X144030813Y-125467309D01*
X144202779Y-125592248D01*
X144202781Y-125592249D01*
X144202784Y-125592251D01*
X144392188Y-125688757D01*
X144594357Y-125754446D01*
X144804313Y-125787700D01*
X144804314Y-125787700D01*
X145016886Y-125787700D01*
X145016887Y-125787700D01*
X145226843Y-125754446D01*
X145429012Y-125688757D01*
X145618416Y-125592251D01*
X145640389Y-125576286D01*
X145790386Y-125467309D01*
X145790388Y-125467306D01*
X145790392Y-125467304D01*
X145940704Y-125316992D01*
X145940706Y-125316988D01*
X145940709Y-125316986D01*
X146065648Y-125145020D01*
X146065647Y-125145020D01*
X146065651Y-125145016D01*
X146162157Y-124955612D01*
X146227846Y-124753443D01*
X146261100Y-124543487D01*
X146261100Y-124330913D01*
X147560100Y-124330913D01*
X147560100Y-124543487D01*
X147593354Y-124753443D01*
X147648874Y-124924316D01*
X147659044Y-124955614D01*
X147755551Y-125145020D01*
X147880490Y-125316986D01*
X148030813Y-125467309D01*
X148202779Y-125592248D01*
X148202781Y-125592249D01*
X148202784Y-125592251D01*
X148392188Y-125688757D01*
X148594357Y-125754446D01*
X148804313Y-125787700D01*
X148804314Y-125787700D01*
X149016886Y-125787700D01*
X149016887Y-125787700D01*
X149226843Y-125754446D01*
X149429012Y-125688757D01*
X149618416Y-125592251D01*
X149640389Y-125576286D01*
X149790386Y-125467309D01*
X149790388Y-125467306D01*
X149790392Y-125467304D01*
X149940704Y-125316992D01*
X149940706Y-125316988D01*
X149940709Y-125316986D01*
X150065648Y-125145020D01*
X150065647Y-125145020D01*
X150065651Y-125145016D01*
X150162157Y-124955612D01*
X150227846Y-124753443D01*
X150261100Y-124543487D01*
X150261100Y-124330913D01*
X151560100Y-124330913D01*
X151560100Y-124543487D01*
X151593354Y-124753443D01*
X151648874Y-124924316D01*
X151659044Y-124955614D01*
X151755551Y-125145020D01*
X151880490Y-125316986D01*
X152030813Y-125467309D01*
X152202779Y-125592248D01*
X152202781Y-125592249D01*
X152202784Y-125592251D01*
X152392188Y-125688757D01*
X152594357Y-125754446D01*
X152804313Y-125787700D01*
X152804314Y-125787700D01*
X153016886Y-125787700D01*
X153016887Y-125787700D01*
X153226843Y-125754446D01*
X153429012Y-125688757D01*
X153618416Y-125592251D01*
X153640389Y-125576286D01*
X153790386Y-125467309D01*
X153790388Y-125467306D01*
X153790392Y-125467304D01*
X153940704Y-125316992D01*
X153940706Y-125316988D01*
X153940709Y-125316986D01*
X154065648Y-125145020D01*
X154065647Y-125145020D01*
X154065651Y-125145016D01*
X154162157Y-124955612D01*
X154227846Y-124753443D01*
X154261100Y-124543487D01*
X154261100Y-124330913D01*
X154246408Y-124238154D01*
X154255362Y-124168863D01*
X154300358Y-124115411D01*
X154367110Y-124094771D01*
X154407200Y-124100827D01*
X154559354Y-124150265D01*
X154792548Y-124187200D01*
X155028652Y-124187200D01*
X155261847Y-124150265D01*
X155486402Y-124077302D01*
X155696763Y-123970118D01*
X155696769Y-123970114D01*
X155779704Y-123909858D01*
X155779705Y-123909858D01*
X155644297Y-123774450D01*
X155121658Y-123251812D01*
X155142191Y-123246311D01*
X155279008Y-123167319D01*
X155390719Y-123055608D01*
X155469711Y-122918791D01*
X155475212Y-122898259D01*
X156133258Y-123556305D01*
X156133258Y-123556304D01*
X156193514Y-123473369D01*
X156193518Y-123473363D01*
X156300702Y-123263002D01*
X156373665Y-123038447D01*
X156405154Y-122839635D01*
X163518382Y-122839635D01*
X163518382Y-123238131D01*
X164218382Y-123238131D01*
X164218382Y-123738131D01*
X163518382Y-123738131D01*
X163518382Y-124136626D01*
X163556809Y-124329812D01*
X163556812Y-124329824D01*
X163632189Y-124511802D01*
X163632196Y-124511815D01*
X163741630Y-124675593D01*
X163741633Y-124675597D01*
X163880915Y-124814879D01*
X163880919Y-124814882D01*
X164044697Y-124924316D01*
X164044710Y-124924323D01*
X164226690Y-124999700D01*
X164268382Y-125007993D01*
X164268382Y-124205119D01*
X164278322Y-124222336D01*
X164334177Y-124278191D01*
X164402586Y-124317687D01*
X164478886Y-124338131D01*
X164557878Y-124338131D01*
X164634178Y-124317687D01*
X164702587Y-124278191D01*
X164758442Y-124222336D01*
X164768382Y-124205119D01*
X164768382Y-125007993D01*
X164810072Y-124999700D01*
X164810074Y-124999700D01*
X164992053Y-124924323D01*
X164992066Y-124924316D01*
X165155844Y-124814882D01*
X165155848Y-124814879D01*
X165295130Y-124675597D01*
X165295136Y-124675589D01*
X165397930Y-124521748D01*
X165451542Y-124476942D01*
X165520867Y-124468235D01*
X165569923Y-124487536D01*
X165652089Y-124542438D01*
X165652098Y-124542443D01*
X165673121Y-124551151D01*
X165765930Y-124589594D01*
X165886771Y-124613630D01*
X165886775Y-124613631D01*
X165886776Y-124613631D01*
X166009989Y-124613631D01*
X166009990Y-124613630D01*
X166130834Y-124589594D01*
X166244668Y-124542442D01*
X166347115Y-124473989D01*
X166434240Y-124386864D01*
X166502693Y-124284417D01*
X166549845Y-124170583D01*
X166573882Y-124049737D01*
X166573882Y-123926525D01*
X166549845Y-123805679D01*
X166502693Y-123691845D01*
X166502692Y-123691844D01*
X166502689Y-123691838D01*
X166434240Y-123589398D01*
X166434237Y-123589394D01*
X166347118Y-123502275D01*
X166347114Y-123502272D01*
X166244674Y-123433823D01*
X166244665Y-123433818D01*
X166149452Y-123394380D01*
X166130834Y-123386668D01*
X166130830Y-123386667D01*
X166130826Y-123386666D01*
X166009992Y-123362631D01*
X166009988Y-123362631D01*
X165886776Y-123362631D01*
X165886771Y-123362631D01*
X165765937Y-123386666D01*
X165765923Y-123386670D01*
X165689834Y-123418187D01*
X165620364Y-123425656D01*
X165557885Y-123394380D01*
X165522234Y-123334291D01*
X165518382Y-123303626D01*
X165518382Y-122839639D01*
X165518381Y-122839635D01*
X165479954Y-122646449D01*
X165479952Y-122646441D01*
X165412218Y-122482916D01*
X165404749Y-122413446D01*
X165436024Y-122350967D01*
X165496113Y-122315315D01*
X165565938Y-122317809D01*
X165585227Y-122326102D01*
X165589565Y-122328420D01*
X165589567Y-122328421D01*
X165589569Y-122328422D01*
X165762549Y-122400073D01*
X165946179Y-122436599D01*
X165946183Y-122436600D01*
X165946184Y-122436600D01*
X166133417Y-122436600D01*
X166133418Y-122436599D01*
X166317051Y-122400073D01*
X166490031Y-122328422D01*
X166490036Y-122328418D01*
X166490039Y-122328417D01*
X166521345Y-122307499D01*
X166588022Y-122286620D01*
X166590237Y-122286600D01*
X171536563Y-122286600D01*
X171603602Y-122306285D01*
X171605455Y-122307499D01*
X171636760Y-122328417D01*
X171636768Y-122328421D01*
X171636769Y-122328422D01*
X171809749Y-122400073D01*
X171993379Y-122436599D01*
X171993383Y-122436600D01*
X172098151Y-122436600D01*
X172165190Y-122456285D01*
X172210945Y-122509089D01*
X172220889Y-122578247D01*
X172212712Y-122608052D01*
X172196812Y-122646437D01*
X172196809Y-122646449D01*
X172158382Y-122839635D01*
X172158382Y-123303626D01*
X172138697Y-123370665D01*
X172085893Y-123416420D01*
X172016735Y-123426364D01*
X171986930Y-123418187D01*
X171910840Y-123386670D01*
X171910836Y-123386668D01*
X171910834Y-123386668D01*
X171910830Y-123386667D01*
X171910826Y-123386666D01*
X171789992Y-123362631D01*
X171789988Y-123362631D01*
X171666776Y-123362631D01*
X171666771Y-123362631D01*
X171545937Y-123386666D01*
X171545927Y-123386669D01*
X171432098Y-123433818D01*
X171432089Y-123433823D01*
X171329649Y-123502272D01*
X171329645Y-123502275D01*
X171242526Y-123589394D01*
X171242523Y-123589398D01*
X171174074Y-123691838D01*
X171174069Y-123691847D01*
X171126920Y-123805676D01*
X171126917Y-123805686D01*
X171102882Y-123926520D01*
X171102882Y-124049741D01*
X171126917Y-124170575D01*
X171126920Y-124170585D01*
X171174069Y-124284414D01*
X171174074Y-124284423D01*
X171242523Y-124386863D01*
X171242526Y-124386867D01*
X171329645Y-124473986D01*
X171329649Y-124473989D01*
X171432089Y-124542438D01*
X171432098Y-124542443D01*
X171453121Y-124551151D01*
X171545930Y-124589594D01*
X171666771Y-124613630D01*
X171666775Y-124613631D01*
X171666776Y-124613631D01*
X171789989Y-124613631D01*
X171789990Y-124613630D01*
X171910834Y-124589594D01*
X172024668Y-124542442D01*
X172106841Y-124487535D01*
X172173517Y-124466658D01*
X172240897Y-124485142D01*
X172278833Y-124521747D01*
X172381630Y-124675593D01*
X172381633Y-124675597D01*
X172520915Y-124814879D01*
X172520919Y-124814882D01*
X172684697Y-124924316D01*
X172684710Y-124924323D01*
X172866690Y-124999700D01*
X172908382Y-125007993D01*
X172908382Y-124205119D01*
X172918322Y-124222336D01*
X172974177Y-124278191D01*
X173042586Y-124317687D01*
X173118886Y-124338131D01*
X173197878Y-124338131D01*
X173274178Y-124317687D01*
X173342587Y-124278191D01*
X173398442Y-124222336D01*
X173408382Y-124205119D01*
X173408382Y-125007993D01*
X173450072Y-124999700D01*
X173450074Y-124999700D01*
X173632053Y-124924323D01*
X173632066Y-124924316D01*
X173795844Y-124814882D01*
X173795848Y-124814879D01*
X173935130Y-124675597D01*
X173935133Y-124675593D01*
X174044567Y-124511815D01*
X174044574Y-124511802D01*
X174119951Y-124329824D01*
X174119954Y-124329812D01*
X174158381Y-124136626D01*
X174158382Y-124136623D01*
X174158382Y-123738131D01*
X173458382Y-123738131D01*
X173458382Y-123238131D01*
X174158382Y-123238131D01*
X174158382Y-122839639D01*
X174158381Y-122839635D01*
X174119954Y-122646449D01*
X174119951Y-122646437D01*
X174044574Y-122464459D01*
X174044567Y-122464446D01*
X173935133Y-122300668D01*
X173935130Y-122300664D01*
X173795848Y-122161382D01*
X173795844Y-122161379D01*
X173632066Y-122051945D01*
X173632053Y-122051938D01*
X173450073Y-121976560D01*
X173450065Y-121976558D01*
X173408382Y-121968266D01*
X173408382Y-122771142D01*
X173398442Y-122753926D01*
X173342587Y-122698071D01*
X173274178Y-122658575D01*
X173197878Y-122638131D01*
X173118886Y-122638131D01*
X173042586Y-122658575D01*
X172974177Y-122698071D01*
X172918322Y-122753926D01*
X172908382Y-122771142D01*
X172908382Y-122005285D01*
X172918939Y-121955218D01*
X172923290Y-121945357D01*
X172929322Y-121936331D01*
X173000973Y-121763351D01*
X173037500Y-121579716D01*
X173037500Y-121392484D01*
X173000973Y-121208849D01*
X172942566Y-121067843D01*
X172929323Y-121035871D01*
X172929318Y-121035862D01*
X172825302Y-120880192D01*
X172825299Y-120880188D01*
X172692911Y-120747800D01*
X172692907Y-120747797D01*
X172537237Y-120643781D01*
X172537228Y-120643776D01*
X172364251Y-120572127D01*
X172364243Y-120572125D01*
X172180620Y-120535600D01*
X172180616Y-120535600D01*
X171993384Y-120535600D01*
X171993379Y-120535600D01*
X171809756Y-120572125D01*
X171809748Y-120572127D01*
X171636771Y-120643776D01*
X171636760Y-120643782D01*
X171605455Y-120664701D01*
X171538778Y-120685580D01*
X171536563Y-120685600D01*
X166590237Y-120685600D01*
X166523198Y-120665915D01*
X166521345Y-120664701D01*
X166490039Y-120643782D01*
X166490028Y-120643776D01*
X166317051Y-120572127D01*
X166317043Y-120572125D01*
X166133420Y-120535600D01*
X166133416Y-120535600D01*
X165946184Y-120535600D01*
X165946179Y-120535600D01*
X165762556Y-120572125D01*
X165762548Y-120572127D01*
X165589571Y-120643776D01*
X165589562Y-120643781D01*
X165433892Y-120747797D01*
X165433888Y-120747800D01*
X165301500Y-120880188D01*
X165301497Y-120880192D01*
X165197481Y-121035862D01*
X165197476Y-121035871D01*
X165125827Y-121208848D01*
X165125825Y-121208856D01*
X165089300Y-121392479D01*
X165089300Y-121579720D01*
X165125825Y-121763343D01*
X165125827Y-121763351D01*
X165185870Y-121908307D01*
X165193339Y-121977777D01*
X165162064Y-122040256D01*
X165101975Y-122075908D01*
X165032150Y-122073414D01*
X165002420Y-122058863D01*
X164992069Y-122051947D01*
X164992053Y-122051938D01*
X164810073Y-121976560D01*
X164810065Y-121976558D01*
X164768382Y-121968266D01*
X164768382Y-122771142D01*
X164758442Y-122753926D01*
X164702587Y-122698071D01*
X164634178Y-122658575D01*
X164557878Y-122638131D01*
X164478886Y-122638131D01*
X164402586Y-122658575D01*
X164334177Y-122698071D01*
X164278322Y-122753926D01*
X164268382Y-122771142D01*
X164268382Y-121968267D01*
X164268381Y-121968266D01*
X164226698Y-121976558D01*
X164226690Y-121976560D01*
X164044710Y-122051938D01*
X164044697Y-122051945D01*
X163880919Y-122161379D01*
X163880915Y-122161382D01*
X163741633Y-122300664D01*
X163741630Y-122300668D01*
X163632196Y-122464446D01*
X163632189Y-122464459D01*
X163556812Y-122646437D01*
X163556809Y-122646449D01*
X163518382Y-122839635D01*
X156405154Y-122839635D01*
X156409179Y-122814224D01*
X156409190Y-122814153D01*
X156410600Y-122805249D01*
X156410600Y-122569147D01*
X156373665Y-122335952D01*
X156300702Y-122111397D01*
X156193514Y-121901028D01*
X156133258Y-121818094D01*
X156133258Y-121818093D01*
X155475212Y-122476140D01*
X155469711Y-122455609D01*
X155390719Y-122318792D01*
X155279008Y-122207081D01*
X155142191Y-122128089D01*
X155121659Y-122122587D01*
X155779705Y-121464540D01*
X155779704Y-121464538D01*
X155696774Y-121404287D01*
X155486402Y-121297097D01*
X155261847Y-121224134D01*
X155261848Y-121224134D01*
X155028652Y-121187200D01*
X154792548Y-121187200D01*
X154559352Y-121224134D01*
X154334797Y-121297097D01*
X154124430Y-121404284D01*
X154041494Y-121464540D01*
X154699541Y-122122587D01*
X154679009Y-122128089D01*
X154542192Y-122207081D01*
X154430481Y-122318792D01*
X154351489Y-122455609D01*
X154345987Y-122476141D01*
X153687940Y-121818094D01*
X153627684Y-121901030D01*
X153520497Y-122111397D01*
X153447534Y-122335952D01*
X153410600Y-122569147D01*
X153410600Y-122805252D01*
X153441463Y-123000115D01*
X153432508Y-123069409D01*
X153387512Y-123122861D01*
X153320761Y-123143500D01*
X153280673Y-123137444D01*
X153226844Y-123119954D01*
X153226840Y-123119953D01*
X153065557Y-123094408D01*
X153016887Y-123086700D01*
X152804313Y-123086700D01*
X152755642Y-123094408D01*
X152594360Y-123119953D01*
X152392185Y-123185644D01*
X152202779Y-123282151D01*
X152030813Y-123407090D01*
X151880490Y-123557413D01*
X151755551Y-123729379D01*
X151659044Y-123918785D01*
X151593353Y-124120960D01*
X151574791Y-124238157D01*
X151560100Y-124330913D01*
X150261100Y-124330913D01*
X150227846Y-124120957D01*
X150162157Y-123918788D01*
X150065651Y-123729384D01*
X150065649Y-123729381D01*
X150065648Y-123729379D01*
X149940709Y-123557413D01*
X149790386Y-123407090D01*
X149618420Y-123282151D01*
X149429014Y-123185644D01*
X149429013Y-123185643D01*
X149429012Y-123185643D01*
X149226843Y-123119954D01*
X149226841Y-123119953D01*
X149226840Y-123119953D01*
X149065557Y-123094408D01*
X149016887Y-123086700D01*
X148804313Y-123086700D01*
X148755642Y-123094408D01*
X148594360Y-123119953D01*
X148392185Y-123185644D01*
X148202779Y-123282151D01*
X148030813Y-123407090D01*
X147880490Y-123557413D01*
X147755551Y-123729379D01*
X147659044Y-123918785D01*
X147593353Y-124120960D01*
X147574791Y-124238157D01*
X147560100Y-124330913D01*
X146261100Y-124330913D01*
X146227846Y-124120957D01*
X146162157Y-123918788D01*
X146065651Y-123729384D01*
X146065649Y-123729381D01*
X146065648Y-123729379D01*
X145940709Y-123557413D01*
X145790386Y-123407090D01*
X145618420Y-123282151D01*
X145429014Y-123185644D01*
X145429013Y-123185643D01*
X145429012Y-123185643D01*
X145226843Y-123119954D01*
X145226841Y-123119953D01*
X145226840Y-123119953D01*
X145065557Y-123094408D01*
X145016887Y-123086700D01*
X144804313Y-123086700D01*
X144764802Y-123092957D01*
X144594359Y-123119953D01*
X144594355Y-123119954D01*
X144540526Y-123137444D01*
X144470684Y-123139439D01*
X144410852Y-123103358D01*
X144380025Y-123040656D01*
X144379736Y-123000115D01*
X144410600Y-122805251D01*
X144410600Y-122569147D01*
X144373665Y-122335952D01*
X144300702Y-122111397D01*
X144193514Y-121901028D01*
X144133258Y-121818094D01*
X144133258Y-121818093D01*
X143475212Y-122476140D01*
X143469711Y-122455609D01*
X143390719Y-122318792D01*
X143279008Y-122207081D01*
X143142191Y-122128089D01*
X143121659Y-122122587D01*
X143779705Y-121464540D01*
X143779704Y-121464539D01*
X143696774Y-121404287D01*
X143486402Y-121297097D01*
X143261847Y-121224134D01*
X143261848Y-121224134D01*
X143028652Y-121187200D01*
X142792548Y-121187200D01*
X142559352Y-121224134D01*
X142334797Y-121297097D01*
X142124430Y-121404284D01*
X142041494Y-121464540D01*
X142699541Y-122122587D01*
X142679009Y-122128089D01*
X142542192Y-122207081D01*
X142430481Y-122318792D01*
X142351489Y-122455609D01*
X142345987Y-122476141D01*
X141687940Y-121818094D01*
X141627684Y-121901030D01*
X141520497Y-122111397D01*
X141447534Y-122335952D01*
X141410600Y-122569147D01*
X103744069Y-122569147D01*
X103797410Y-122408176D01*
X103807911Y-122305388D01*
X103807910Y-121105371D01*
X103804076Y-121067843D01*
X103797410Y-121002582D01*
X103797409Y-121002579D01*
X103742225Y-120836045D01*
X103650123Y-120686723D01*
X103526067Y-120562667D01*
X103376745Y-120470565D01*
X103314969Y-120450094D01*
X103257526Y-120410322D01*
X103230703Y-120345806D01*
X103230357Y-120322659D01*
X103233332Y-120284852D01*
X102553858Y-119605379D01*
X102560072Y-119605379D01*
X102661805Y-119578120D01*
X102753017Y-119525459D01*
X102827491Y-119450985D01*
X102880152Y-119359773D01*
X102907411Y-119258040D01*
X102907411Y-119251826D01*
X103586885Y-119931300D01*
X103619270Y-119886728D01*
X103712166Y-119704410D01*
X103775401Y-119509796D01*
X103807411Y-119307696D01*
X103807411Y-119103061D01*
X103775401Y-118900961D01*
X103712166Y-118706347D01*
X103619270Y-118524029D01*
X103586885Y-118479456D01*
X103586885Y-118479455D01*
X102907411Y-119158930D01*
X102907411Y-119152718D01*
X102880152Y-119050985D01*
X102827491Y-118959773D01*
X102753017Y-118885299D01*
X102661805Y-118832638D01*
X102560072Y-118805379D01*
X102553857Y-118805379D01*
X103233333Y-118125903D01*
X103233332Y-118125902D01*
X103188770Y-118093526D01*
X103188761Y-118093520D01*
X103006442Y-118000623D01*
X102811828Y-117937388D01*
X102609728Y-117905379D01*
X102405094Y-117905379D01*
X102202993Y-117937388D01*
X102008379Y-118000623D01*
X101826055Y-118093522D01*
X101781488Y-118125902D01*
X101781488Y-118125903D01*
X102460965Y-118805379D01*
X102454750Y-118805379D01*
X102353017Y-118832638D01*
X102261805Y-118885299D01*
X102187331Y-118959773D01*
X102134670Y-119050985D01*
X102107411Y-119152718D01*
X102107411Y-119158932D01*
X101427935Y-118479456D01*
X101427934Y-118479456D01*
X101395554Y-118524023D01*
X101302655Y-118706347D01*
X101239420Y-118900961D01*
X101207411Y-119103061D01*
X101207411Y-119307696D01*
X101239420Y-119509796D01*
X101302655Y-119704410D01*
X101395552Y-119886729D01*
X101395558Y-119886738D01*
X101427934Y-119931300D01*
X101427935Y-119931301D01*
X102107411Y-119251825D01*
X102107411Y-119258040D01*
X102134670Y-119359773D01*
X102187331Y-119450985D01*
X102261805Y-119525459D01*
X102353017Y-119578120D01*
X102454750Y-119605379D01*
X102460964Y-119605379D01*
X101781487Y-120284853D01*
X101784463Y-120322661D01*
X101770098Y-120391038D01*
X101721047Y-120440794D01*
X101699851Y-120450094D01*
X101638083Y-120470563D01*
X101638074Y-120470566D01*
X101488753Y-120562668D01*
X101364700Y-120686721D01*
X101272598Y-120836042D01*
X101272596Y-120836047D01*
X101265359Y-120857887D01*
X101217412Y-121002582D01*
X101217412Y-121002583D01*
X101217411Y-121002583D01*
X101206911Y-121105362D01*
X96989000Y-121105362D01*
X96946259Y-121071277D01*
X96708456Y-120921855D01*
X96708453Y-120921853D01*
X96455422Y-120800000D01*
X96326366Y-120754841D01*
X96269590Y-120714119D01*
X96243843Y-120649167D01*
X96257299Y-120580605D01*
X96305687Y-120530202D01*
X96367321Y-120513800D01*
X96701717Y-120513800D01*
X96701730Y-120513799D01*
X96834917Y-120503317D01*
X96834923Y-120503316D01*
X97054840Y-120447901D01*
X97054843Y-120447900D01*
X97261341Y-120354104D01*
X97261347Y-120354101D01*
X97447769Y-120224948D01*
X97447781Y-120224938D01*
X97608149Y-120064570D01*
X97608159Y-120064558D01*
X97737312Y-119878136D01*
X97737315Y-119878130D01*
X97831111Y-119671632D01*
X97831112Y-119671629D01*
X97886527Y-119451712D01*
X97886528Y-119451706D01*
X97897010Y-119318519D01*
X97897011Y-119318506D01*
X97897011Y-118363800D01*
X96824242Y-118363800D01*
X96847011Y-118220047D01*
X96847011Y-118007553D01*
X96824242Y-117863800D01*
X97897011Y-117863800D01*
X97897011Y-116909093D01*
X97897010Y-116909080D01*
X97886528Y-116775893D01*
X97886527Y-116775887D01*
X97831112Y-116555970D01*
X97831111Y-116555967D01*
X97737315Y-116349469D01*
X97737312Y-116349463D01*
X97608159Y-116163041D01*
X97608149Y-116163029D01*
X97447781Y-116002661D01*
X97447769Y-116002651D01*
X97261347Y-115873498D01*
X97261341Y-115873495D01*
X97054843Y-115779699D01*
X97054840Y-115779698D01*
X96834923Y-115724283D01*
X96834917Y-115724282D01*
X96701730Y-115713800D01*
X95747011Y-115713800D01*
X95747011Y-116786568D01*
X95603258Y-116763800D01*
X95390764Y-116763800D01*
X95247011Y-116786568D01*
X95247011Y-115713800D01*
X94292291Y-115713800D01*
X94159104Y-115724282D01*
X94159098Y-115724283D01*
X93939181Y-115779698D01*
X93939178Y-115779699D01*
X93732680Y-115873495D01*
X93732674Y-115873498D01*
X93546252Y-116002651D01*
X93546240Y-116002661D01*
X93385872Y-116163029D01*
X93385862Y-116163041D01*
X93256709Y-116349463D01*
X93256706Y-116349469D01*
X93162910Y-116555967D01*
X93162909Y-116555970D01*
X93107494Y-116775887D01*
X93107493Y-116775893D01*
X93097011Y-116909080D01*
X93097011Y-117863800D01*
X94169780Y-117863800D01*
X94147011Y-118007553D01*
X94147011Y-118220047D01*
X94169780Y-118363800D01*
X93097011Y-118363800D01*
X93097011Y-119318519D01*
X93107493Y-119451706D01*
X93107494Y-119451712D01*
X93162909Y-119671629D01*
X93162910Y-119671632D01*
X93256706Y-119878130D01*
X93256709Y-119878136D01*
X93385862Y-120064558D01*
X93385872Y-120064570D01*
X93546240Y-120224938D01*
X93546252Y-120224948D01*
X93732674Y-120354101D01*
X93732680Y-120354104D01*
X93939178Y-120447900D01*
X93939181Y-120447901D01*
X94159098Y-120503316D01*
X94159104Y-120503317D01*
X94292291Y-120513799D01*
X94292305Y-120513800D01*
X94626701Y-120513800D01*
X94693740Y-120533485D01*
X94739495Y-120586289D01*
X94749439Y-120655447D01*
X94720414Y-120719003D01*
X94667656Y-120754841D01*
X94538599Y-120800000D01*
X94285568Y-120921853D01*
X94047764Y-121071276D01*
X93828186Y-121246383D01*
X93629594Y-121444975D01*
X93454487Y-121664553D01*
X93305064Y-121902357D01*
X93183211Y-122155388D01*
X93090454Y-122420470D01*
X93090450Y-122420482D01*
X93027956Y-122694287D01*
X93027953Y-122694305D01*
X92996511Y-122973368D01*
X91686500Y-122973368D01*
X91686500Y-112541025D01*
X113071859Y-112541025D01*
X113071859Y-112745660D01*
X113103868Y-112947760D01*
X113167103Y-113142374D01*
X113260000Y-113324693D01*
X113260006Y-113324702D01*
X113292382Y-113369264D01*
X113292383Y-113369265D01*
X113971859Y-112689789D01*
X113971859Y-112696004D01*
X113999118Y-112797737D01*
X114051779Y-112888949D01*
X114126253Y-112963423D01*
X114217465Y-113016084D01*
X114319198Y-113043343D01*
X114325411Y-113043343D01*
X113645935Y-113722817D01*
X113690509Y-113755202D01*
X113872827Y-113848098D01*
X114067441Y-113911333D01*
X114269542Y-113943343D01*
X114474176Y-113943343D01*
X114676276Y-113911333D01*
X114870890Y-113848098D01*
X115053200Y-113755206D01*
X115053208Y-113755201D01*
X115123411Y-113704195D01*
X115189217Y-113680714D01*
X115257271Y-113696539D01*
X115283979Y-113716831D01*
X115353203Y-113786055D01*
X115502525Y-113878157D01*
X115669062Y-113933342D01*
X115771850Y-113943843D01*
X116971867Y-113943842D01*
X117074656Y-113933342D01*
X117241193Y-113878157D01*
X117390515Y-113786055D01*
X117514571Y-113661999D01*
X117606673Y-113512677D01*
X117661858Y-113346140D01*
X117672359Y-113243352D01*
X117672358Y-112043335D01*
X117661858Y-111940546D01*
X117606673Y-111774009D01*
X117514571Y-111624687D01*
X117390515Y-111500631D01*
X117241193Y-111408529D01*
X117074656Y-111353344D01*
X117074654Y-111353343D01*
X116971869Y-111342843D01*
X115771857Y-111342843D01*
X115771840Y-111342844D01*
X115669062Y-111353343D01*
X115669059Y-111353344D01*
X115502527Y-111408528D01*
X115502522Y-111408530D01*
X115353204Y-111500630D01*
X115283980Y-111569854D01*
X115222656Y-111603338D01*
X115152965Y-111598353D01*
X115123414Y-111582490D01*
X115053211Y-111531485D01*
X114870890Y-111438587D01*
X114676276Y-111375352D01*
X114474176Y-111343343D01*
X114269542Y-111343343D01*
X114067441Y-111375352D01*
X113872827Y-111438587D01*
X113690503Y-111531486D01*
X113645936Y-111563866D01*
X113645936Y-111563867D01*
X114325412Y-112243343D01*
X114319198Y-112243343D01*
X114217465Y-112270602D01*
X114126253Y-112323263D01*
X114051779Y-112397737D01*
X113999118Y-112488949D01*
X113971859Y-112590682D01*
X113971859Y-112596896D01*
X113292383Y-111917420D01*
X113292382Y-111917420D01*
X113260002Y-111961987D01*
X113167103Y-112144311D01*
X113103868Y-112338925D01*
X113071859Y-112541025D01*
X91686500Y-112541025D01*
X91686500Y-95047956D01*
X94499785Y-95047956D01*
X94499785Y-96347974D01*
X94499786Y-96347991D01*
X94510285Y-96450769D01*
X94510286Y-96450772D01*
X94537017Y-96531439D01*
X94565471Y-96617307D01*
X94637209Y-96733614D01*
X94657574Y-96766630D01*
X94781629Y-96890685D01*
X94936405Y-96986151D01*
X94983130Y-97038099D01*
X94994353Y-97107061D01*
X94966509Y-97171144D01*
X94958991Y-97179371D01*
X94820174Y-97318188D01*
X94695236Y-97490152D01*
X94598729Y-97679558D01*
X94533038Y-97881733D01*
X94499785Y-98091686D01*
X94499785Y-98304259D01*
X94530881Y-98500596D01*
X94533039Y-98514216D01*
X94536897Y-98526091D01*
X94598729Y-98716387D01*
X94695236Y-98905793D01*
X94820175Y-99077759D01*
X94970494Y-99228078D01*
X94970499Y-99228082D01*
X95135078Y-99347655D01*
X95177744Y-99402984D01*
X95183723Y-99472598D01*
X95151118Y-99534393D01*
X95135078Y-99548291D01*
X94970499Y-99667863D01*
X94970494Y-99667867D01*
X94820175Y-99818186D01*
X94695236Y-99990152D01*
X94598729Y-100179558D01*
X94533038Y-100381733D01*
X94499785Y-100591686D01*
X94499785Y-100804259D01*
X94526114Y-100970497D01*
X94533039Y-101014216D01*
X94594963Y-101204799D01*
X94598729Y-101216387D01*
X94695236Y-101405793D01*
X94820175Y-101577759D01*
X94970494Y-101728078D01*
X94970499Y-101728082D01*
X95135078Y-101847655D01*
X95177744Y-101902984D01*
X95183723Y-101972598D01*
X95151118Y-102034393D01*
X95135078Y-102048291D01*
X94970499Y-102167863D01*
X94970494Y-102167867D01*
X94820175Y-102318186D01*
X94695236Y-102490152D01*
X94598729Y-102679558D01*
X94533038Y-102881733D01*
X94506305Y-103050520D01*
X94499785Y-103091686D01*
X94499785Y-103304260D01*
X94504882Y-103336439D01*
X94525849Y-103468825D01*
X94533039Y-103514216D01*
X94571677Y-103633132D01*
X94598729Y-103716387D01*
X94695236Y-103905793D01*
X94820175Y-104077759D01*
X94970498Y-104228082D01*
X95142464Y-104353021D01*
X95142466Y-104353022D01*
X95142469Y-104353024D01*
X95331873Y-104449530D01*
X95534042Y-104515219D01*
X95743998Y-104548473D01*
X95743999Y-104548473D01*
X96206571Y-104548473D01*
X96206572Y-104548473D01*
X96416528Y-104515219D01*
X96618697Y-104449530D01*
X96808101Y-104353024D01*
X96832634Y-104335200D01*
X96980071Y-104228082D01*
X96980073Y-104228079D01*
X96980077Y-104228077D01*
X97130389Y-104077765D01*
X97130391Y-104077761D01*
X97130394Y-104077759D01*
X97255333Y-103905793D01*
X97255332Y-103905793D01*
X97255336Y-103905789D01*
X97351842Y-103716385D01*
X97417531Y-103514216D01*
X97450785Y-103304260D01*
X97450785Y-103091686D01*
X97417531Y-102881730D01*
X97351842Y-102679561D01*
X97255336Y-102490157D01*
X97255334Y-102490154D01*
X97255333Y-102490152D01*
X97130394Y-102318186D01*
X96980077Y-102167869D01*
X96954272Y-102149121D01*
X96815489Y-102048289D01*
X96772825Y-101992962D01*
X96766846Y-101923349D01*
X96799451Y-101861553D01*
X96815484Y-101847659D01*
X96980077Y-101728077D01*
X97130389Y-101577765D01*
X97130391Y-101577761D01*
X97130394Y-101577759D01*
X97255333Y-101405793D01*
X97255332Y-101405793D01*
X97255336Y-101405789D01*
X97351842Y-101216385D01*
X97417531Y-101014216D01*
X97450785Y-100804260D01*
X97450785Y-100591686D01*
X97417531Y-100381730D01*
X97351842Y-100179561D01*
X97255336Y-99990157D01*
X97255334Y-99990154D01*
X97255333Y-99990152D01*
X97130394Y-99818186D01*
X96980077Y-99667869D01*
X96980069Y-99667863D01*
X96815489Y-99548289D01*
X96772825Y-99492962D01*
X96766846Y-99423349D01*
X96799451Y-99361553D01*
X96815484Y-99347659D01*
X96980077Y-99228077D01*
X97130389Y-99077765D01*
X97130391Y-99077761D01*
X97130394Y-99077759D01*
X97255333Y-98905793D01*
X97255332Y-98905793D01*
X97255336Y-98905789D01*
X97351842Y-98716385D01*
X97413674Y-98526086D01*
X102913400Y-98526086D01*
X102913400Y-98693629D01*
X102946082Y-98857932D01*
X102946084Y-98857940D01*
X103010195Y-99012718D01*
X103103273Y-99152020D01*
X103221737Y-99270484D01*
X103314394Y-99332395D01*
X103361037Y-99363561D01*
X103515818Y-99427674D01*
X103680128Y-99460357D01*
X103680132Y-99460358D01*
X103680133Y-99460358D01*
X103730270Y-99460358D01*
X103797309Y-99480043D01*
X103817951Y-99496677D01*
X107929239Y-103607965D01*
X107956119Y-103648193D01*
X108013995Y-103787918D01*
X108107073Y-103927220D01*
X108225537Y-104045684D01*
X108306314Y-104099657D01*
X108364837Y-104138761D01*
X108519618Y-104202874D01*
X108682631Y-104235299D01*
X108683928Y-104235557D01*
X108683932Y-104235558D01*
X108683933Y-104235558D01*
X108851468Y-104235558D01*
X108851469Y-104235557D01*
X109015782Y-104202874D01*
X109170563Y-104138761D01*
X109309862Y-104045684D01*
X109428326Y-103927220D01*
X109521403Y-103787921D01*
X109585516Y-103633140D01*
X109618200Y-103468825D01*
X109618200Y-103301291D01*
X109585516Y-103136976D01*
X109535927Y-103017259D01*
X109521404Y-102982197D01*
X109428326Y-102842895D01*
X109309862Y-102724431D01*
X109170560Y-102631353D01*
X109030835Y-102573477D01*
X108990607Y-102546597D01*
X104470921Y-98026910D01*
X104470920Y-98026909D01*
X104373666Y-97961927D01*
X104347995Y-97944774D01*
X104347992Y-97944772D01*
X104347991Y-97944772D01*
X104231400Y-97896478D01*
X104209962Y-97885019D01*
X104166769Y-97856158D01*
X104166759Y-97856153D01*
X104011982Y-97792042D01*
X104011974Y-97792040D01*
X103847671Y-97759358D01*
X103847667Y-97759358D01*
X103680133Y-97759358D01*
X103680128Y-97759358D01*
X103515825Y-97792040D01*
X103515817Y-97792042D01*
X103361039Y-97856153D01*
X103221737Y-97949231D01*
X103103273Y-98067695D01*
X103010195Y-98206997D01*
X102946084Y-98361775D01*
X102946082Y-98361783D01*
X102913400Y-98526086D01*
X97413674Y-98526086D01*
X97417531Y-98514216D01*
X97450785Y-98304260D01*
X97450785Y-98091686D01*
X97417531Y-97881730D01*
X97351842Y-97679561D01*
X97255336Y-97490157D01*
X97255334Y-97490154D01*
X97255333Y-97490152D01*
X97130394Y-97318186D01*
X96991579Y-97179371D01*
X96958094Y-97118048D01*
X96963078Y-97048356D01*
X97004950Y-96992423D01*
X97014164Y-96986151D01*
X97019616Y-96982787D01*
X97019619Y-96982787D01*
X97168941Y-96890685D01*
X97292997Y-96766629D01*
X97385099Y-96617307D01*
X97440284Y-96450770D01*
X97450785Y-96347982D01*
X97450784Y-95047965D01*
X97440284Y-94945176D01*
X97385099Y-94778639D01*
X97292997Y-94629317D01*
X97168941Y-94505261D01*
X97050903Y-94432455D01*
X97019621Y-94413160D01*
X97019616Y-94413158D01*
X96998386Y-94406123D01*
X96853082Y-94357974D01*
X96853080Y-94357973D01*
X96750295Y-94347473D01*
X95200283Y-94347473D01*
X95200266Y-94347474D01*
X95097488Y-94357973D01*
X95097485Y-94357974D01*
X94930953Y-94413158D01*
X94930948Y-94413160D01*
X94781627Y-94505262D01*
X94657574Y-94629315D01*
X94565472Y-94778636D01*
X94565471Y-94778639D01*
X94510286Y-94945176D01*
X94510286Y-94945177D01*
X94510285Y-94945177D01*
X94499785Y-95047956D01*
X91686500Y-95047956D01*
X91686500Y-82757328D01*
X114431212Y-82757328D01*
X114431212Y-82961963D01*
X114463221Y-83164063D01*
X114526456Y-83358677D01*
X114619353Y-83540996D01*
X114619359Y-83541005D01*
X114651735Y-83585567D01*
X114651736Y-83585568D01*
X115331212Y-82906092D01*
X115331212Y-82912307D01*
X115358471Y-83014040D01*
X115411132Y-83105252D01*
X115485606Y-83179726D01*
X115576818Y-83232387D01*
X115678551Y-83259646D01*
X115684764Y-83259646D01*
X115005288Y-83939120D01*
X115049862Y-83971505D01*
X115232180Y-84064401D01*
X115426794Y-84127636D01*
X115628895Y-84159646D01*
X115833529Y-84159646D01*
X116035629Y-84127636D01*
X116230243Y-84064401D01*
X116412553Y-83971509D01*
X116412561Y-83971504D01*
X116482764Y-83920498D01*
X116548570Y-83897017D01*
X116616624Y-83912842D01*
X116643332Y-83933134D01*
X116712556Y-84002358D01*
X116861878Y-84094460D01*
X117028415Y-84149645D01*
X117131203Y-84160146D01*
X118331220Y-84160145D01*
X118434009Y-84149645D01*
X118600546Y-84094460D01*
X118749868Y-84002358D01*
X118873924Y-83878302D01*
X118966026Y-83728980D01*
X119021211Y-83562443D01*
X119031712Y-83459655D01*
X119031711Y-82259638D01*
X119021211Y-82156849D01*
X118966026Y-81990312D01*
X118873924Y-81840990D01*
X118749868Y-81716934D01*
X118632581Y-81644591D01*
X118600548Y-81624833D01*
X118600543Y-81624831D01*
X118577351Y-81617146D01*
X118434009Y-81569647D01*
X118434007Y-81569646D01*
X118331222Y-81559146D01*
X117131210Y-81559146D01*
X117131193Y-81559147D01*
X117028415Y-81569646D01*
X117028412Y-81569647D01*
X116861880Y-81624831D01*
X116861875Y-81624833D01*
X116712557Y-81716933D01*
X116643333Y-81786157D01*
X116582009Y-81819641D01*
X116512318Y-81814656D01*
X116482767Y-81798793D01*
X116412564Y-81747788D01*
X116230243Y-81654890D01*
X116035629Y-81591655D01*
X115833529Y-81559646D01*
X115628895Y-81559646D01*
X115426794Y-81591655D01*
X115232180Y-81654890D01*
X115049856Y-81747789D01*
X115005289Y-81780169D01*
X115005289Y-81780170D01*
X115684765Y-82459646D01*
X115678551Y-82459646D01*
X115576818Y-82486905D01*
X115485606Y-82539566D01*
X115411132Y-82614040D01*
X115358471Y-82705252D01*
X115331212Y-82806985D01*
X115331212Y-82813199D01*
X114651736Y-82133723D01*
X114651735Y-82133723D01*
X114619355Y-82178290D01*
X114526456Y-82360614D01*
X114463221Y-82555228D01*
X114431212Y-82757328D01*
X91686500Y-82757328D01*
X91686500Y-69201641D01*
X95206250Y-69201641D01*
X95206250Y-70501659D01*
X95206251Y-70501676D01*
X95216750Y-70604454D01*
X95216751Y-70604457D01*
X95271935Y-70770989D01*
X95271937Y-70770994D01*
X95300677Y-70817589D01*
X95364038Y-70920314D01*
X95488094Y-71044370D01*
X95622281Y-71127137D01*
X95642870Y-71139836D01*
X95689595Y-71191784D01*
X95700818Y-71260746D01*
X95672974Y-71324829D01*
X95665456Y-71333056D01*
X95526639Y-71471873D01*
X95401701Y-71643837D01*
X95305194Y-71833243D01*
X95239503Y-72035418D01*
X95210498Y-72218552D01*
X95206250Y-72245371D01*
X95206250Y-72457945D01*
X95210325Y-72483672D01*
X95234662Y-72637335D01*
X95239504Y-72667901D01*
X95303750Y-72865630D01*
X95305193Y-72870070D01*
X95401701Y-73059478D01*
X95526640Y-73231444D01*
X95676959Y-73381763D01*
X95676964Y-73381767D01*
X95841543Y-73501340D01*
X95884209Y-73556669D01*
X95890188Y-73626283D01*
X95857583Y-73688078D01*
X95841543Y-73701976D01*
X95676964Y-73821548D01*
X95676959Y-73821552D01*
X95526640Y-73971871D01*
X95401701Y-74143837D01*
X95305194Y-74333243D01*
X95239503Y-74535418D01*
X95235035Y-74563629D01*
X95206250Y-74745371D01*
X95206250Y-74957945D01*
X95209403Y-74977854D01*
X95235161Y-75140484D01*
X95239504Y-75167901D01*
X95292289Y-75330357D01*
X95305194Y-75370072D01*
X95401701Y-75559478D01*
X95526640Y-75731444D01*
X95676959Y-75881763D01*
X95676964Y-75881767D01*
X95841543Y-76001340D01*
X95884209Y-76056669D01*
X95890188Y-76126283D01*
X95857583Y-76188078D01*
X95841543Y-76201976D01*
X95676964Y-76321548D01*
X95676959Y-76321552D01*
X95526640Y-76471871D01*
X95401701Y-76643837D01*
X95305194Y-76833243D01*
X95239503Y-77035418D01*
X95221117Y-77151504D01*
X95206250Y-77245371D01*
X95206250Y-77457945D01*
X95239504Y-77667901D01*
X95273938Y-77773878D01*
X95305194Y-77870072D01*
X95401701Y-78059478D01*
X95526640Y-78231444D01*
X95676963Y-78381767D01*
X95848929Y-78506706D01*
X95848931Y-78506707D01*
X95848934Y-78506709D01*
X96038338Y-78603215D01*
X96240507Y-78668904D01*
X96450463Y-78702158D01*
X96450464Y-78702158D01*
X96913036Y-78702158D01*
X96913037Y-78702158D01*
X97122993Y-78668904D01*
X97325162Y-78603215D01*
X97514566Y-78506709D01*
X97536539Y-78490744D01*
X97686536Y-78381767D01*
X97686538Y-78381764D01*
X97686542Y-78381762D01*
X97836854Y-78231450D01*
X97836856Y-78231446D01*
X97836859Y-78231444D01*
X97961798Y-78059478D01*
X97961797Y-78059478D01*
X97961801Y-78059474D01*
X98058307Y-77870070D01*
X98123996Y-77667901D01*
X98157250Y-77457945D01*
X98157250Y-77245371D01*
X98123996Y-77035415D01*
X98058307Y-76833246D01*
X97961801Y-76643842D01*
X97961799Y-76643839D01*
X97961798Y-76643837D01*
X97836859Y-76471871D01*
X97686542Y-76321554D01*
X97686534Y-76321548D01*
X97521954Y-76201974D01*
X97479290Y-76146647D01*
X97473311Y-76077034D01*
X97505916Y-76015238D01*
X97521949Y-76001344D01*
X97686542Y-75881762D01*
X97836854Y-75731450D01*
X97836856Y-75731446D01*
X97836859Y-75731444D01*
X97961798Y-75559478D01*
X97961797Y-75559478D01*
X97961801Y-75559474D01*
X98058307Y-75370070D01*
X98123996Y-75167901D01*
X98157250Y-74957945D01*
X98157250Y-74745371D01*
X98123996Y-74535415D01*
X98058307Y-74333246D01*
X97961801Y-74143842D01*
X97961799Y-74143839D01*
X97961798Y-74143837D01*
X97836859Y-73971871D01*
X97686542Y-73821554D01*
X97653354Y-73797442D01*
X97521954Y-73701974D01*
X97479290Y-73646647D01*
X97473311Y-73577034D01*
X97505916Y-73515238D01*
X97521949Y-73501344D01*
X97686542Y-73381762D01*
X97836854Y-73231450D01*
X97836856Y-73231446D01*
X97836859Y-73231444D01*
X97961798Y-73059478D01*
X97961797Y-73059478D01*
X97961801Y-73059474D01*
X98058307Y-72870070D01*
X98123996Y-72667901D01*
X98157250Y-72457945D01*
X98157250Y-72245371D01*
X98123996Y-72035415D01*
X98058307Y-71833246D01*
X97961801Y-71643842D01*
X97961799Y-71643839D01*
X97961798Y-71643837D01*
X97836859Y-71471871D01*
X97698044Y-71333056D01*
X97664559Y-71271733D01*
X97669543Y-71202041D01*
X97711415Y-71146108D01*
X97720629Y-71139836D01*
X97726081Y-71136472D01*
X97726084Y-71136472D01*
X97875406Y-71044370D01*
X97999462Y-70920314D01*
X98091564Y-70770992D01*
X98146749Y-70604455D01*
X98157250Y-70501667D01*
X98157249Y-69201650D01*
X98156958Y-69198806D01*
X98146749Y-69098861D01*
X98146748Y-69098858D01*
X98091564Y-68932324D01*
X97999462Y-68783002D01*
X97875406Y-68658946D01*
X97726084Y-68566844D01*
X97559547Y-68511659D01*
X97559545Y-68511658D01*
X97456760Y-68501158D01*
X95906748Y-68501158D01*
X95906731Y-68501159D01*
X95803953Y-68511658D01*
X95803950Y-68511659D01*
X95637418Y-68566843D01*
X95637413Y-68566845D01*
X95488092Y-68658947D01*
X95364039Y-68783000D01*
X95271937Y-68932321D01*
X95271936Y-68932324D01*
X95216751Y-69098861D01*
X95216751Y-69098862D01*
X95216750Y-69098862D01*
X95206250Y-69201641D01*
X91686500Y-69201641D01*
X91686500Y-49715358D01*
X91706185Y-49648319D01*
X91758989Y-49602564D01*
X91810500Y-49591358D01*
X117485400Y-49591358D01*
X117552439Y-49611043D01*
G37*
%TD.AperFunction*%
%TA.AperFunction,Conductor*%
G36*
X186994233Y-114425233D02*
G01*
X186994667Y-114425395D01*
X186994669Y-114425396D01*
X187129517Y-114475691D01*
X187189127Y-114482100D01*
X187199685Y-114482099D01*
X187266723Y-114501779D01*
X187287372Y-114518418D01*
X187957591Y-115188637D01*
X187894007Y-115205675D01*
X187779993Y-115271501D01*
X187686901Y-115364593D01*
X187621075Y-115478607D01*
X187604037Y-115542191D01*
X186971728Y-114909882D01*
X186960630Y-114910756D01*
X186947018Y-114907896D01*
X186933253Y-114909876D01*
X186913501Y-114900855D01*
X186892252Y-114896392D01*
X186882347Y-114886628D01*
X186869697Y-114880851D01*
X186857957Y-114862584D01*
X186842495Y-114847341D01*
X186838668Y-114832569D01*
X186831923Y-114822073D01*
X186826900Y-114787138D01*
X186826900Y-114541415D01*
X186846585Y-114474376D01*
X186899389Y-114428621D01*
X186968547Y-114418677D01*
X186994233Y-114425233D01*
G37*
%TD.AperFunction*%
%TA.AperFunction,Conductor*%
G36*
X187621075Y-104028193D02*
G01*
X187686901Y-104142207D01*
X187779993Y-104235299D01*
X187894007Y-104301125D01*
X187957589Y-104318162D01*
X187287370Y-104988381D01*
X187226047Y-105021866D01*
X187199698Y-105024700D01*
X187189134Y-105024700D01*
X187189123Y-105024701D01*
X187129516Y-105031108D01*
X186994233Y-105081566D01*
X186963624Y-105083754D01*
X186933253Y-105088122D01*
X186929097Y-105086224D01*
X186924541Y-105086550D01*
X186897608Y-105071843D01*
X186869697Y-105059097D01*
X186867227Y-105055254D01*
X186863218Y-105053065D01*
X186848513Y-105026134D01*
X186831923Y-105000319D01*
X186831031Y-104994116D01*
X186829734Y-104991741D01*
X186826900Y-104965384D01*
X186826900Y-104719660D01*
X186846585Y-104652621D01*
X186899389Y-104606866D01*
X186960632Y-104596042D01*
X186971729Y-104596915D01*
X187604036Y-103964607D01*
X187621075Y-104028193D01*
G37*
%TD.AperFunction*%
%TA.AperFunction,Conductor*%
G36*
X131566503Y-72721240D02*
G01*
X131572981Y-72727272D01*
X132691381Y-73845672D01*
X132724866Y-73906995D01*
X132727700Y-73933353D01*
X132727700Y-85264608D01*
X132722445Y-85282502D01*
X132722193Y-85301150D01*
X132712806Y-85315330D01*
X132708015Y-85331647D01*
X132693921Y-85343858D01*
X132683627Y-85359411D01*
X132668062Y-85366265D01*
X132655211Y-85377402D01*
X132636750Y-85380056D01*
X132619684Y-85387573D01*
X132591136Y-85386615D01*
X132586053Y-85387346D01*
X132584393Y-85387096D01*
X132581946Y-85386710D01*
X132468567Y-85364158D01*
X132438867Y-85364158D01*
X132429274Y-85362646D01*
X132406116Y-85351688D01*
X132381542Y-85344473D01*
X132368281Y-85333786D01*
X132366117Y-85332763D01*
X132365214Y-85331315D01*
X132360900Y-85327839D01*
X131397619Y-84364558D01*
X131364134Y-84303235D01*
X131361300Y-84276877D01*
X131361300Y-72814953D01*
X131380985Y-72747914D01*
X131433789Y-72702159D01*
X131502947Y-72692215D01*
X131566503Y-72721240D01*
G37*
%TD.AperFunction*%
%TD*%
M02*
