%TF.GenerationSoftware,KiCad,Pcbnew,9.0.8-1.fc43*%
%TF.CreationDate,2026-03-28T20:24:26+01:00*%
%TF.ProjectId,Startracker,53746172-7472-4616-936b-65722e6b6963,rev?*%
%TF.SameCoordinates,Original*%
%TF.FileFunction,Soldermask,Bot*%
%TF.FilePolarity,Negative*%
%FSLAX46Y46*%
G04 Gerber Fmt 4.6, Leading zero omitted, Abs format (unit mm)*
G04 Created by KiCad (PCBNEW 9.0.8-1.fc43) date 2026-03-28 20:24:26*
%MOMM*%
%LPD*%
G01*
G04 APERTURE LIST*
G04 Aperture macros list*
%AMRoundRect*
0 Rectangle with rounded corners*
0 $1 Rounding radius*
0 $2 $3 $4 $5 $6 $7 $8 $9 X,Y pos of 4 corners*
0 Add a 4 corners polygon primitive as box body*
4,1,4,$2,$3,$4,$5,$6,$7,$8,$9,$2,$3,0*
0 Add four circle primitives for the rounded corners*
1,1,$1+$1,$2,$3*
1,1,$1+$1,$4,$5*
1,1,$1+$1,$6,$7*
1,1,$1+$1,$8,$9*
0 Add four rect primitives between the rounded corners*
20,1,$1+$1,$2,$3,$4,$5,0*
20,1,$1+$1,$4,$5,$6,$7,0*
20,1,$1+$1,$6,$7,$8,$9,0*
20,1,$1+$1,$8,$9,$2,$3,0*%
G04 Aperture macros list end*
%ADD10RoundRect,0.250000X-0.725000X0.600000X-0.725000X-0.600000X0.725000X-0.600000X0.725000X0.600000X0*%
%ADD11O,1.950000X1.700000*%
%ADD12R,1.500000X1.050000*%
%ADD13O,1.500000X1.050000*%
%ADD14C,1.600000*%
%ADD15RoundRect,0.760000X-1.140000X1.140000X-1.140000X-1.140000X1.140000X-1.140000X1.140000X1.140000X0*%
%ADD16C,4.000000*%
%ADD17R,1.700000X1.700000*%
%ADD18C,1.700000*%
%ADD19C,0.650000*%
%ADD20O,1.000000X2.100000*%
%ADD21O,1.000000X1.800000*%
%ADD22RoundRect,0.250000X0.550000X0.550000X-0.550000X0.550000X-0.550000X-0.550000X0.550000X-0.550000X0*%
%ADD23C,2.000000*%
%ADD24RoundRect,0.250000X0.550000X-0.550000X0.550000X0.550000X-0.550000X0.550000X-0.550000X-0.550000X0*%
%ADD25RoundRect,0.250000X0.625000X-0.400000X0.625000X0.400000X-0.625000X0.400000X-0.625000X-0.400000X0*%
G04 APERTURE END LIST*
D10*
%TO.C,J3*%
X96681750Y-69851658D03*
D11*
X96681750Y-72351658D03*
X96681750Y-74851658D03*
X96681750Y-77351658D03*
%TD*%
D12*
%TO.C,Q2*%
X182626000Y-63659458D03*
D13*
X182626000Y-62389458D03*
X182626000Y-61119458D03*
%TD*%
D12*
%TO.C,Q1*%
X182664400Y-56268058D03*
D13*
X182664400Y-54998058D03*
X182664400Y-53728058D03*
%TD*%
D14*
%TO.C,J7*%
X174178600Y-52895058D03*
X174178600Y-59895058D03*
%TD*%
D15*
%TO.C,J6*%
X95497011Y-118113800D03*
D16*
X95497011Y-123113800D03*
%TD*%
D17*
%TO.C,J1*%
X188137800Y-82607858D03*
D18*
X188137800Y-85147858D03*
X188137800Y-87687858D03*
X188137800Y-90227858D03*
%TD*%
D19*
%TO.C,J8*%
X165948382Y-123988131D03*
X171728382Y-123988131D03*
D20*
X164518382Y-123488131D03*
D21*
X164518382Y-127668131D03*
D20*
X173158382Y-123488131D03*
D21*
X173158382Y-127668131D03*
%TD*%
D10*
%TO.C,J4*%
X95975285Y-95697973D03*
D11*
X95975285Y-98197973D03*
X95975285Y-100697973D03*
X95975285Y-103197973D03*
%TD*%
D17*
%TO.C,J9*%
X188087000Y-106375200D03*
D18*
X188087000Y-103835200D03*
X188087000Y-101295200D03*
X188087000Y-98755200D03*
X188087000Y-96215200D03*
%TD*%
D22*
%TO.C,C11*%
X116371859Y-112643343D03*
D14*
X114371859Y-112643343D03*
%TD*%
D22*
%TO.C,C10*%
X117731212Y-82859646D03*
D14*
X115731212Y-82859646D03*
%TD*%
D17*
%TO.C,J2*%
X188137800Y-69425258D03*
D18*
X188137800Y-71965258D03*
X188137800Y-74505258D03*
X188137800Y-77045258D03*
%TD*%
D23*
%TO.C,SW3*%
X142910600Y-122687200D03*
X142910600Y-128687200D03*
X154910600Y-122687200D03*
X154910600Y-128687200D03*
D18*
X144910600Y-124437200D03*
X148910600Y-124437200D03*
X152910600Y-124437200D03*
%TD*%
D24*
%TO.C,C54*%
X102507411Y-121705379D03*
D14*
X102507411Y-119205379D03*
%TD*%
D17*
%TO.C,J10*%
X188087000Y-113131600D03*
D18*
X188087000Y-115671600D03*
X188087000Y-118211600D03*
X188087000Y-120751600D03*
%TD*%
D25*
%TO.C,R22*%
X167894000Y-87662458D03*
X167894000Y-84562458D03*
%TD*%
%TO.C,R10*%
X115112800Y-65794258D03*
X115112800Y-62694258D03*
%TD*%
%TO.C,R24*%
X165531800Y-87663658D03*
X165531800Y-84563658D03*
%TD*%
M02*
