%TF.GenerationSoftware,KiCad,Pcbnew,9.0.8-1.fc43*%
%TF.CreationDate,2026-03-28T20:24:26+01:00*%
%TF.ProjectId,Startracker,53746172-7472-4616-936b-65722e6b6963,rev?*%
%TF.SameCoordinates,Original*%
%TF.FileFunction,Copper,L2,Inr*%
%TF.FilePolarity,Positive*%
%FSLAX46Y46*%
G04 Gerber Fmt 4.6, Leading zero omitted, Abs format (unit mm)*
G04 Created by KiCad (PCBNEW 9.0.8-1.fc43) date 2026-03-28 20:24:26*
%MOMM*%
%LPD*%
G01*
G04 APERTURE LIST*
G04 Aperture macros list*
%AMRoundRect*
0 Rectangle with rounded corners*
0 $1 Rounding radius*
0 $2 $3 $4 $5 $6 $7 $8 $9 X,Y pos of 4 corners*
0 Add a 4 corners polygon primitive as box body*
4,1,4,$2,$3,$4,$5,$6,$7,$8,$9,$2,$3,0*
0 Add four circle primitives for the rounded corners*
1,1,$1+$1,$2,$3*
1,1,$1+$1,$4,$5*
1,1,$1+$1,$6,$7*
1,1,$1+$1,$8,$9*
0 Add four rect primitives between the rounded corners*
20,1,$1+$1,$2,$3,$4,$5,0*
20,1,$1+$1,$4,$5,$6,$7,0*
20,1,$1+$1,$6,$7,$8,$9,0*
20,1,$1+$1,$8,$9,$2,$3,0*%
G04 Aperture macros list end*
%TA.AperFunction,ComponentPad*%
%ADD10RoundRect,0.250000X-0.725000X0.600000X-0.725000X-0.600000X0.725000X-0.600000X0.725000X0.600000X0*%
%TD*%
%TA.AperFunction,ComponentPad*%
%ADD11O,1.950000X1.700000*%
%TD*%
%TA.AperFunction,ComponentPad*%
%ADD12R,1.500000X1.050000*%
%TD*%
%TA.AperFunction,ComponentPad*%
%ADD13O,1.500000X1.050000*%
%TD*%
%TA.AperFunction,ComponentPad*%
%ADD14RoundRect,0.760000X-1.140000X1.140000X-1.140000X-1.140000X1.140000X-1.140000X1.140000X1.140000X0*%
%TD*%
%TA.AperFunction,ComponentPad*%
%ADD15C,4.000000*%
%TD*%
%TA.AperFunction,ComponentPad*%
%ADD16R,1.700000X1.700000*%
%TD*%
%TA.AperFunction,ComponentPad*%
%ADD17C,1.700000*%
%TD*%
%TA.AperFunction,HeatsinkPad*%
%ADD18C,0.600000*%
%TD*%
%TA.AperFunction,HeatsinkPad*%
%ADD19O,1.000000X2.100000*%
%TD*%
%TA.AperFunction,HeatsinkPad*%
%ADD20O,1.000000X1.800000*%
%TD*%
%TA.AperFunction,ComponentPad*%
%ADD21RoundRect,0.250000X0.550000X0.550000X-0.550000X0.550000X-0.550000X-0.550000X0.550000X-0.550000X0*%
%TD*%
%TA.AperFunction,ComponentPad*%
%ADD22C,1.600000*%
%TD*%
%TA.AperFunction,ComponentPad*%
%ADD23C,2.000000*%
%TD*%
%TA.AperFunction,ComponentPad*%
%ADD24RoundRect,0.250000X0.550000X-0.550000X0.550000X0.550000X-0.550000X0.550000X-0.550000X-0.550000X0*%
%TD*%
%TA.AperFunction,ViaPad*%
%ADD25C,0.700000*%
%TD*%
%TA.AperFunction,ViaPad*%
%ADD26C,0.900000*%
%TD*%
G04 APERTURE END LIST*
D10*
%TO.N,/CONN/M1_A+*%
%TO.C,J3*%
X96681750Y-69851658D03*
D11*
%TO.N,/CONN/M1_B+*%
X96681750Y-72351658D03*
%TO.N,/CONN/M1_A-*%
X96681750Y-74851658D03*
%TO.N,/CONN/M1_B-*%
X96681750Y-77351658D03*
%TD*%
D12*
%TO.N,GND*%
%TO.C,Q2*%
X182626000Y-63659458D03*
D13*
%TO.N,Net-(Q2-B)*%
X182626000Y-62389458D03*
%TO.N,Net-(J7-TIP)*%
X182626000Y-61119458D03*
%TD*%
D12*
%TO.N,GND*%
%TO.C,Q1*%
X182664400Y-56268058D03*
D13*
%TO.N,Net-(Q1-B)*%
X182664400Y-54998058D03*
%TO.N,Net-(J7-RING)*%
X182664400Y-53728058D03*
%TD*%
D14*
%TO.N,GND*%
%TO.C,J6*%
X95497011Y-118113800D03*
D15*
%TO.N,Net-(D2-A2)*%
X95497011Y-123113800D03*
%TD*%
D16*
%TO.N,+3.3V*%
%TO.C,J1*%
X188137800Y-82607858D03*
D17*
%TO.N,/OBC/I2C_SCL*%
X188137800Y-85147858D03*
%TO.N,/OBC/I2C_SDA*%
X188137800Y-87687858D03*
%TO.N,GND*%
X188137800Y-90227858D03*
%TD*%
D18*
%TO.N,GND*%
%TO.C,U1*%
X138709400Y-61478858D03*
X138784400Y-58678858D03*
X139409400Y-60063858D03*
X140809400Y-60063858D03*
X141484400Y-61428858D03*
X141534400Y-58663858D03*
%TD*%
D19*
%TO.N,GND*%
%TO.C,J8*%
X164518382Y-123488131D03*
D20*
X164518382Y-127668131D03*
D19*
X173158382Y-123488131D03*
D20*
X173158382Y-127668131D03*
%TD*%
D10*
%TO.N,/CONN/M2_A1*%
%TO.C,J4*%
X95975285Y-95697973D03*
D11*
%TO.N,/CONN/M2_B1*%
X95975285Y-98197973D03*
%TO.N,/CONN/M2_A2*%
X95975285Y-100697973D03*
%TO.N,/CONN/M2_B2*%
X95975285Y-103197973D03*
%TD*%
D16*
%TO.N,+3.3V*%
%TO.C,J9*%
X188087000Y-106375200D03*
D17*
%TO.N,GND*%
X188087000Y-103835200D03*
%TO.N,/OBC/I2C_SCL*%
X188087000Y-101295200D03*
%TO.N,/OBC/I2C_SDA*%
X188087000Y-98755200D03*
%TO.N,/OBC/VL_GPIO1*%
X188087000Y-96215200D03*
%TD*%
D21*
%TO.N,VM*%
%TO.C,C11*%
X116371859Y-112643343D03*
D22*
%TO.N,GND*%
X114371859Y-112643343D03*
%TD*%
D21*
%TO.N,VM*%
%TO.C,C10*%
X117731212Y-82859646D03*
D22*
%TO.N,GND*%
X115731212Y-82859646D03*
%TD*%
D16*
%TO.N,+3.3V*%
%TO.C,J2*%
X188137800Y-69425258D03*
D17*
%TO.N,Net-(J2-Pin_2)*%
X188137800Y-71965258D03*
%TO.N,Net-(J2-Pin_3)*%
X188137800Y-74505258D03*
%TO.N,GND*%
X188137800Y-77045258D03*
%TD*%
D23*
%TO.N,GND*%
%TO.C,SW3*%
X142910600Y-122687200D03*
X142910600Y-128687200D03*
X154910600Y-122687200D03*
X154910600Y-128687200D03*
D17*
%TO.N,unconnected-(SW3-A-Pad1)*%
X144910600Y-124437200D03*
%TO.N,Net-(D2-A2)*%
X148910600Y-124437200D03*
%TO.N,BATT*%
X152910600Y-124437200D03*
%TD*%
D24*
%TO.N,Net-(D2-A2)*%
%TO.C,C54*%
X102507411Y-121705379D03*
D22*
%TO.N,GND*%
X102507411Y-119205379D03*
%TD*%
D16*
%TO.N,+3.3V*%
%TO.C,J10*%
X188087000Y-113131600D03*
D17*
%TO.N,GND*%
X188087000Y-115671600D03*
%TO.N,/OBC/I2C_SCL*%
X188087000Y-118211600D03*
%TO.N,/OBC/I2C_SDA*%
X188087000Y-120751600D03*
%TD*%
D25*
%TO.N,GND*%
X132308600Y-113893600D03*
X132359400Y-110363000D03*
X176657000Y-109397800D03*
X174294800Y-125653800D03*
X175437800Y-126923800D03*
X185064400Y-117551200D03*
X179882800Y-108305600D03*
X179857400Y-106426000D03*
X182422800Y-105765600D03*
%TO.N,/OBC/I2C_SCL*%
X158191200Y-114706400D03*
%TO.N,/OBC/I2C_SDA*%
X157073600Y-114731800D03*
%TO.N,GND*%
X126441200Y-112496600D03*
X129311400Y-112547400D03*
%TO.N,D2_STBY*%
X132423800Y-93827600D03*
%TO.N,GND*%
X147142200Y-120446800D03*
X140843000Y-124764800D03*
X117271800Y-124383800D03*
X115900200Y-118033800D03*
X154559000Y-120745642D03*
X122758200Y-94317258D03*
X173278800Y-96349258D03*
X115214400Y-90481858D03*
X180467000Y-102089658D03*
X136626600Y-97586800D03*
X164693600Y-64472258D03*
X117525800Y-62179200D03*
X155168600Y-107756742D03*
X119913400Y-78061258D03*
X115011200Y-60509858D03*
X125730000Y-71635058D03*
X152171400Y-68053658D03*
X128676400Y-67945000D03*
X157708600Y-53677258D03*
X124510800Y-61087000D03*
X157149800Y-128880700D03*
X170307000Y-75615800D03*
X157200600Y-125317642D03*
X125730000Y-74378258D03*
X163931600Y-53651858D03*
X137896600Y-112691400D03*
X169519600Y-73184458D03*
X112623669Y-120345199D03*
X114452400Y-94749058D03*
X134924800Y-100743458D03*
X184429400Y-115443000D03*
X163855400Y-56445858D03*
X105156000Y-75641200D03*
X106400600Y-102597658D03*
X147066000Y-71787458D03*
X185420000Y-105181400D03*
X126746000Y-89288058D03*
X130124200Y-61061600D03*
X161594800Y-95003058D03*
X127635000Y-106798600D03*
X116306600Y-84563658D03*
X185674000Y-88932458D03*
X185928000Y-76410258D03*
X182346600Y-91828058D03*
X117352371Y-99384543D03*
X186182000Y-98856800D03*
X132105400Y-83870800D03*
X157480000Y-96425458D03*
X132105400Y-73819458D03*
X174523400Y-79806800D03*
X152171400Y-59747858D03*
X120345200Y-96628658D03*
X120904000Y-53467000D03*
X189712600Y-129082800D03*
X170865800Y-97053400D03*
X123037600Y-68129858D03*
X166471600Y-82734858D03*
X178104800Y-91294658D03*
X183667400Y-95079258D03*
X149961600Y-107230400D03*
X186867800Y-79654400D03*
X106502200Y-68376800D03*
X150749000Y-110354600D03*
X128524000Y-64472258D03*
X134670800Y-52298600D03*
X120167400Y-68104458D03*
X158648400Y-83115858D03*
X166192200Y-117171300D03*
X144627600Y-103318800D03*
X156337000Y-92158258D03*
X189560200Y-56623658D03*
X129032000Y-73514658D03*
X185750200Y-68434658D03*
X136296400Y-90608858D03*
X116687600Y-77876400D03*
X173380400Y-120821842D03*
X189306200Y-63989658D03*
X138226800Y-88830858D03*
X157175200Y-102336600D03*
X131749800Y-88703858D03*
X135864600Y-106468400D03*
X144449800Y-110507000D03*
X165176200Y-67748858D03*
X167995600Y-70789800D03*
X151815800Y-119272442D03*
X128193800Y-53467000D03*
X148386800Y-52298600D03*
X185521600Y-86468658D03*
X112395069Y-123723399D03*
X181508400Y-73260658D03*
X190042800Y-99009200D03*
X132080000Y-96113600D03*
X152019000Y-121177442D03*
X138760200Y-105655600D03*
X146177000Y-107433600D03*
X92608400Y-50596800D03*
X121818400Y-65862200D03*
X154025600Y-91878858D03*
X125603000Y-66986858D03*
X158572200Y-126594700D03*
X153212800Y-53492400D03*
X163449000Y-95968258D03*
%TO.N,Net-(U1-IO0)*%
X163855400Y-57936458D03*
X149193164Y-68824357D03*
D26*
%TO.N,+3.3V*%
X118432600Y-53651858D03*
D25*
X113411000Y-62668858D03*
D26*
%TO.N,/CONN/M1_A+*%
X104470200Y-69476058D03*
D25*
X116193717Y-74101161D03*
D26*
%TO.N,/CONN/M1_B-*%
X103962200Y-77680258D03*
D25*
X119817956Y-72721102D03*
%TO.N,/CONN/M1_B+*%
X117093315Y-74074184D03*
D26*
X103911400Y-72651058D03*
D25*
%TO.N,/CONN/M2_B1*%
X108767700Y-103385058D03*
X103763900Y-98609858D03*
D26*
%TO.N,VBUS*%
X166039800Y-121486100D03*
X172087000Y-121486100D03*
D25*
%TO.N,/OBC/I2C_SDA*%
X180873400Y-104223258D03*
X134594600Y-63773858D03*
X152603200Y-112259600D03*
%TO.N,/OBC/I2C_SCL*%
X151434800Y-112234200D03*
X134594600Y-65005658D03*
X179666800Y-104248658D03*
%TO.N,/OBC/USB_D+*%
X167504814Y-115597711D03*
X132435600Y-71101658D03*
%TO.N,/OBC/USB_D-*%
X131360800Y-71101658D03*
X167504814Y-116547711D03*
%TO.N,/OBC/GPS_TX*%
X182321200Y-71965258D03*
X151790400Y-56191858D03*
%TO.N,/OBC/GPS_RX*%
X151790400Y-57436458D03*
X182321200Y-74479858D03*
%TO.N,Net-(U2-STEP)*%
X112886900Y-69279446D03*
X111799100Y-70769246D03*
%TO.N,/Motor driver/STEP1*%
X107404900Y-72140846D03*
X131404500Y-58693658D03*
%TO.N,Net-(U2-BRA)*%
X115293726Y-74096600D03*
X119895956Y-74243302D03*
%TO.N,Net-(U2-BRB)*%
X119526015Y-75907103D03*
X118198500Y-74045846D03*
%TO.N,/CONN/Focus*%
X151790400Y-53601058D03*
X186004200Y-59443058D03*
%TO.N,/CONN/Shutter*%
X185953400Y-66656658D03*
X151790400Y-54896458D03*
%TO.N,/Motor driver/DIR1*%
X131419600Y-59951058D03*
X113043700Y-70972446D03*
%TO.N,D2_STBY*%
X113720171Y-98728743D03*
X113516971Y-93212343D03*
%TO.N,Net-(U2-~{PD}{slash}UART)*%
X115112800Y-67088458D03*
%TO.N,/Motor driver/TMC_RX*%
X131404500Y-57398258D03*
X131404500Y-56153658D03*
%TO.N,Net-(U2-~{EN})*%
X120472200Y-71990658D03*
X127203200Y-71736658D03*
%TO.N,DIO3*%
X172810500Y-93339158D03*
X162269500Y-93440758D03*
%TO.N,/LORA/SX_RST*%
X167400300Y-91916758D03*
X139721000Y-71431858D03*
%TO.N,DIO2*%
X165459353Y-94497270D03*
X169279900Y-83153758D03*
%TO.N,/LORA/SX_NSS*%
X167106600Y-88881658D03*
X144801000Y-71431858D03*
%TO.N,/LORA/SX_MISO*%
X140970000Y-71431858D03*
X167400300Y-90976958D03*
%TO.N,/LORA/SX_MOSI*%
X142261000Y-71431858D03*
X167400300Y-89859358D03*
%TO.N,/LORA/SX_SCK*%
X143505600Y-71431858D03*
X166144500Y-89389658D03*
%TO.N,/OBC/VL_GPIO1*%
X185750200Y-81026000D03*
X151790400Y-63766600D03*
%TO.N,/Motor driver/TB_SCL*%
X132384800Y-87484658D03*
X131427600Y-61259058D03*
%TO.N,/LORA/SX_DIO1*%
X137160000Y-71431858D03*
X166155700Y-93825158D03*
%TO.N,/LORA/SX_BUSY*%
X138455400Y-71431858D03*
X167406900Y-92837758D03*
%TO.N,/Motor driver/TB_SDA*%
X132384800Y-86214658D03*
X131427600Y-62554458D03*
%TO.N,D2_B2*%
X123037600Y-92564658D03*
X113721924Y-100916568D03*
%TO.N,D2_A1*%
X113721043Y-97664694D03*
X123037600Y-90024658D03*
%TO.N,D2_B1*%
X123037600Y-91294658D03*
X113711802Y-100016622D03*
%TO.N,D2_A2*%
X123037600Y-88729258D03*
X113711100Y-96764747D03*
%TO.N,GND*%
X166192200Y-114700442D03*
X168706800Y-114675042D03*
%TD*%
%TA.AperFunction,Conductor*%
%TO.N,GND*%
G36*
X117552439Y-49611043D02*
G01*
X117598194Y-49663847D01*
X117609400Y-49715358D01*
X117609400Y-50853858D01*
X165609400Y-50853858D01*
X165609400Y-49715358D01*
X165629085Y-49648319D01*
X165681889Y-49602564D01*
X165733400Y-49591358D01*
X190361500Y-49591358D01*
X190428539Y-49611043D01*
X190474294Y-49663847D01*
X190485500Y-49715358D01*
X190485500Y-129648158D01*
X190465815Y-129715197D01*
X190413011Y-129760952D01*
X190361500Y-129772158D01*
X156219797Y-129772158D01*
X156152758Y-129752473D01*
X156107003Y-129699669D01*
X156097059Y-129630511D01*
X156119479Y-129575272D01*
X156193514Y-129473371D01*
X156300702Y-129263002D01*
X156373665Y-129038447D01*
X156410600Y-128805252D01*
X156410600Y-128569147D01*
X156373665Y-128335952D01*
X156300702Y-128111397D01*
X156204742Y-127923064D01*
X156204741Y-127923062D01*
X156193516Y-127901030D01*
X156133258Y-127818094D01*
X156133258Y-127818093D01*
X155475212Y-128476139D01*
X155469711Y-128455609D01*
X155390719Y-128318792D01*
X155279008Y-128207081D01*
X155142191Y-128128089D01*
X155121659Y-128122587D01*
X155779705Y-127464540D01*
X155779704Y-127464538D01*
X155696774Y-127404287D01*
X155486402Y-127297097D01*
X155438335Y-127281479D01*
X155261847Y-127224134D01*
X155261848Y-127224134D01*
X155028652Y-127187200D01*
X154792548Y-127187200D01*
X154559352Y-127224134D01*
X154334797Y-127297097D01*
X154124430Y-127404284D01*
X154041494Y-127464540D01*
X154699541Y-128122587D01*
X154679009Y-128128089D01*
X154542192Y-128207081D01*
X154430481Y-128318792D01*
X154351489Y-128455609D01*
X154345987Y-128476141D01*
X153687940Y-127818094D01*
X153627684Y-127901030D01*
X153520497Y-128111397D01*
X153447534Y-128335952D01*
X153410600Y-128569147D01*
X153410600Y-128805252D01*
X153447534Y-129038447D01*
X153520497Y-129263002D01*
X153627685Y-129473371D01*
X153701721Y-129575272D01*
X153725201Y-129641079D01*
X153709376Y-129709133D01*
X153659270Y-129757827D01*
X153601403Y-129772158D01*
X144219797Y-129772158D01*
X144152758Y-129752473D01*
X144107003Y-129699669D01*
X144097059Y-129630511D01*
X144119479Y-129575272D01*
X144193514Y-129473371D01*
X144300702Y-129263002D01*
X144373665Y-129038447D01*
X144410600Y-128805252D01*
X144410600Y-128569147D01*
X144373665Y-128335952D01*
X144300702Y-128111397D01*
X144193514Y-127901028D01*
X144133258Y-127818094D01*
X144133258Y-127818093D01*
X143475212Y-128476139D01*
X143469711Y-128455609D01*
X143390719Y-128318792D01*
X143279008Y-128207081D01*
X143142191Y-128128089D01*
X143121659Y-128122587D01*
X143779705Y-127464540D01*
X143779704Y-127464539D01*
X143696774Y-127404287D01*
X143486402Y-127297097D01*
X143261847Y-127224134D01*
X143261848Y-127224134D01*
X143028652Y-127187200D01*
X142792548Y-127187200D01*
X142559352Y-127224134D01*
X142334797Y-127297097D01*
X142124430Y-127404284D01*
X142041494Y-127464540D01*
X142699541Y-128122587D01*
X142679009Y-128128089D01*
X142542192Y-128207081D01*
X142430481Y-128318792D01*
X142351489Y-128455609D01*
X142345987Y-128476141D01*
X141687940Y-127818094D01*
X141627684Y-127901030D01*
X141520497Y-128111397D01*
X141447534Y-128335952D01*
X141410600Y-128569147D01*
X141410600Y-128805252D01*
X141447534Y-129038447D01*
X141520497Y-129263002D01*
X141627685Y-129473371D01*
X141701721Y-129575272D01*
X141725201Y-129641079D01*
X141709376Y-129709133D01*
X141659270Y-129757827D01*
X141601403Y-129772158D01*
X91810500Y-129772158D01*
X91743461Y-129752473D01*
X91697706Y-129699669D01*
X91686500Y-129648158D01*
X91686500Y-127169635D01*
X163518382Y-127169635D01*
X163518382Y-127418131D01*
X164218382Y-127418131D01*
X164218382Y-127918131D01*
X163518382Y-127918131D01*
X163518382Y-128166626D01*
X163556809Y-128359812D01*
X163556812Y-128359824D01*
X163632189Y-128541802D01*
X163632196Y-128541815D01*
X163741630Y-128705593D01*
X163741633Y-128705597D01*
X163880915Y-128844879D01*
X163880919Y-128844882D01*
X164044697Y-128954316D01*
X164044710Y-128954323D01*
X164226690Y-129029700D01*
X164268382Y-129037993D01*
X164268382Y-128235119D01*
X164278322Y-128252336D01*
X164334177Y-128308191D01*
X164402586Y-128347687D01*
X164478886Y-128368131D01*
X164557878Y-128368131D01*
X164634178Y-128347687D01*
X164702587Y-128308191D01*
X164758442Y-128252336D01*
X164768382Y-128235119D01*
X164768382Y-129037993D01*
X164810072Y-129029700D01*
X164810074Y-129029700D01*
X164992053Y-128954323D01*
X164992066Y-128954316D01*
X165155844Y-128844882D01*
X165155848Y-128844879D01*
X165295130Y-128705597D01*
X165295133Y-128705593D01*
X165404567Y-128541815D01*
X165404574Y-128541802D01*
X165479951Y-128359824D01*
X165479954Y-128359812D01*
X165518381Y-128166626D01*
X165518382Y-128166623D01*
X165518382Y-127918131D01*
X164818382Y-127918131D01*
X164818382Y-127418131D01*
X165518382Y-127418131D01*
X165518382Y-127169639D01*
X165518381Y-127169635D01*
X172158382Y-127169635D01*
X172158382Y-127418131D01*
X172858382Y-127418131D01*
X172858382Y-127918131D01*
X172158382Y-127918131D01*
X172158382Y-128166626D01*
X172196809Y-128359812D01*
X172196812Y-128359824D01*
X172272189Y-128541802D01*
X172272196Y-128541815D01*
X172381630Y-128705593D01*
X172381633Y-128705597D01*
X172520915Y-128844879D01*
X172520919Y-128844882D01*
X172684697Y-128954316D01*
X172684710Y-128954323D01*
X172866690Y-129029700D01*
X172908382Y-129037993D01*
X172908382Y-128235119D01*
X172918322Y-128252336D01*
X172974177Y-128308191D01*
X173042586Y-128347687D01*
X173118886Y-128368131D01*
X173197878Y-128368131D01*
X173274178Y-128347687D01*
X173342587Y-128308191D01*
X173398442Y-128252336D01*
X173408382Y-128235119D01*
X173408382Y-129037993D01*
X173450072Y-129029700D01*
X173450074Y-129029700D01*
X173632053Y-128954323D01*
X173632066Y-128954316D01*
X173795844Y-128844882D01*
X173795848Y-128844879D01*
X173935130Y-128705597D01*
X173935133Y-128705593D01*
X174044567Y-128541815D01*
X174044574Y-128541802D01*
X174119951Y-128359824D01*
X174119954Y-128359812D01*
X174158381Y-128166626D01*
X174158382Y-128166623D01*
X174158382Y-127918131D01*
X173458382Y-127918131D01*
X173458382Y-127418131D01*
X174158382Y-127418131D01*
X174158382Y-127169639D01*
X174158381Y-127169635D01*
X174119954Y-126976449D01*
X174119951Y-126976437D01*
X174044574Y-126794459D01*
X174044567Y-126794446D01*
X173935133Y-126630668D01*
X173935130Y-126630664D01*
X173795848Y-126491382D01*
X173795844Y-126491379D01*
X173632066Y-126381945D01*
X173632053Y-126381938D01*
X173450073Y-126306560D01*
X173450065Y-126306558D01*
X173408382Y-126298266D01*
X173408382Y-127101142D01*
X173398442Y-127083926D01*
X173342587Y-127028071D01*
X173274178Y-126988575D01*
X173197878Y-126968131D01*
X173118886Y-126968131D01*
X173042586Y-126988575D01*
X172974177Y-127028071D01*
X172918322Y-127083926D01*
X172908382Y-127101142D01*
X172908382Y-126298267D01*
X172908381Y-126298266D01*
X172866698Y-126306558D01*
X172866690Y-126306560D01*
X172684710Y-126381938D01*
X172684697Y-126381945D01*
X172520919Y-126491379D01*
X172520915Y-126491382D01*
X172381633Y-126630664D01*
X172381630Y-126630668D01*
X172272196Y-126794446D01*
X172272189Y-126794459D01*
X172196812Y-126976437D01*
X172196809Y-126976449D01*
X172158382Y-127169635D01*
X165518381Y-127169635D01*
X165479954Y-126976449D01*
X165479951Y-126976437D01*
X165404574Y-126794459D01*
X165404567Y-126794446D01*
X165295133Y-126630668D01*
X165295130Y-126630664D01*
X165155848Y-126491382D01*
X165155844Y-126491379D01*
X164992066Y-126381945D01*
X164992053Y-126381938D01*
X164810073Y-126306560D01*
X164810065Y-126306558D01*
X164768382Y-126298266D01*
X164768382Y-127101142D01*
X164758442Y-127083926D01*
X164702587Y-127028071D01*
X164634178Y-126988575D01*
X164557878Y-126968131D01*
X164478886Y-126968131D01*
X164402586Y-126988575D01*
X164334177Y-127028071D01*
X164278322Y-127083926D01*
X164268382Y-127101142D01*
X164268382Y-126298267D01*
X164268381Y-126298266D01*
X164226698Y-126306558D01*
X164226690Y-126306560D01*
X164044710Y-126381938D01*
X164044697Y-126381945D01*
X163880919Y-126491379D01*
X163880915Y-126491382D01*
X163741633Y-126630664D01*
X163741630Y-126630668D01*
X163632196Y-126794446D01*
X163632189Y-126794459D01*
X163556812Y-126976437D01*
X163556809Y-126976449D01*
X163518382Y-127169635D01*
X91686500Y-127169635D01*
X91686500Y-122973368D01*
X92996511Y-122973368D01*
X92996511Y-123254231D01*
X93027953Y-123533294D01*
X93027956Y-123533312D01*
X93090450Y-123807117D01*
X93090454Y-123807129D01*
X93183211Y-124072211D01*
X93305064Y-124325242D01*
X93305066Y-124325245D01*
X93454488Y-124563048D01*
X93629595Y-124782625D01*
X93828186Y-124981216D01*
X94047763Y-125156323D01*
X94285566Y-125305745D01*
X94538603Y-125427601D01*
X94737691Y-125497265D01*
X94803681Y-125520356D01*
X94803693Y-125520360D01*
X95077502Y-125582855D01*
X95077508Y-125582855D01*
X95077516Y-125582857D01*
X95263558Y-125603818D01*
X95356580Y-125614299D01*
X95356583Y-125614300D01*
X95356586Y-125614300D01*
X95637439Y-125614300D01*
X95637440Y-125614299D01*
X95780066Y-125598229D01*
X95916505Y-125582857D01*
X95916510Y-125582856D01*
X95916520Y-125582855D01*
X96190329Y-125520360D01*
X96455419Y-125427601D01*
X96708456Y-125305745D01*
X96946259Y-125156323D01*
X97165836Y-124981216D01*
X97364427Y-124782625D01*
X97539534Y-124563048D01*
X97688956Y-124325245D01*
X97810812Y-124072208D01*
X97903571Y-123807118D01*
X97966066Y-123533309D01*
X97978196Y-123425656D01*
X97991945Y-123303626D01*
X97997511Y-123254225D01*
X97997511Y-122973375D01*
X97972785Y-122753926D01*
X97966068Y-122694305D01*
X97966065Y-122694287D01*
X97964447Y-122687200D01*
X97903571Y-122420482D01*
X97810812Y-122155392D01*
X97724690Y-121976558D01*
X97688957Y-121902357D01*
X97636011Y-121818094D01*
X97539534Y-121664552D01*
X97364427Y-121444975D01*
X97165836Y-121246384D01*
X97137935Y-121224134D01*
X97106619Y-121199160D01*
X97091622Y-121187200D01*
X96989000Y-121105362D01*
X101206911Y-121105362D01*
X101206911Y-121105375D01*
X101206912Y-122305376D01*
X101206912Y-122305397D01*
X101217411Y-122408175D01*
X101217412Y-122408178D01*
X101272596Y-122574710D01*
X101272598Y-122574715D01*
X101293257Y-122608209D01*
X101364699Y-122724035D01*
X101488755Y-122848091D01*
X101638077Y-122940193D01*
X101804614Y-122995378D01*
X101907402Y-123005879D01*
X103107419Y-123005878D01*
X103210208Y-122995378D01*
X103376745Y-122940193D01*
X103526067Y-122848091D01*
X103650123Y-122724035D01*
X103742225Y-122574713D01*
X103744069Y-122569147D01*
X141410600Y-122569147D01*
X141410600Y-122805252D01*
X141447534Y-123038447D01*
X141520497Y-123263002D01*
X141627687Y-123473374D01*
X141687938Y-123556304D01*
X141687940Y-123556305D01*
X142345987Y-122898258D01*
X142351489Y-122918791D01*
X142430481Y-123055608D01*
X142542192Y-123167319D01*
X142679009Y-123246311D01*
X142699540Y-123251812D01*
X142041493Y-123909858D01*
X142124428Y-123970114D01*
X142334797Y-124077302D01*
X142559352Y-124150265D01*
X142559351Y-124150265D01*
X142792548Y-124187200D01*
X143028652Y-124187200D01*
X143261845Y-124150265D01*
X143413999Y-124100827D01*
X143483840Y-124098832D01*
X143543673Y-124134912D01*
X143574502Y-124197612D01*
X143574791Y-124238155D01*
X143567464Y-124284417D01*
X143560100Y-124330913D01*
X143560100Y-124543487D01*
X143593354Y-124753443D01*
X143648874Y-124924316D01*
X143659044Y-124955614D01*
X143755551Y-125145020D01*
X143880490Y-125316986D01*
X144030813Y-125467309D01*
X144202779Y-125592248D01*
X144202781Y-125592249D01*
X144202784Y-125592251D01*
X144392188Y-125688757D01*
X144594357Y-125754446D01*
X144804313Y-125787700D01*
X144804314Y-125787700D01*
X145016886Y-125787700D01*
X145016887Y-125787700D01*
X145226843Y-125754446D01*
X145429012Y-125688757D01*
X145618416Y-125592251D01*
X145640389Y-125576286D01*
X145790386Y-125467309D01*
X145790388Y-125467306D01*
X145790392Y-125467304D01*
X145940704Y-125316992D01*
X145940706Y-125316988D01*
X145940709Y-125316986D01*
X146065648Y-125145020D01*
X146065647Y-125145020D01*
X146065651Y-125145016D01*
X146162157Y-124955612D01*
X146227846Y-124753443D01*
X146261100Y-124543487D01*
X146261100Y-124330913D01*
X147560100Y-124330913D01*
X147560100Y-124543487D01*
X147593354Y-124753443D01*
X147648874Y-124924316D01*
X147659044Y-124955614D01*
X147755551Y-125145020D01*
X147880490Y-125316986D01*
X148030813Y-125467309D01*
X148202779Y-125592248D01*
X148202781Y-125592249D01*
X148202784Y-125592251D01*
X148392188Y-125688757D01*
X148594357Y-125754446D01*
X148804313Y-125787700D01*
X148804314Y-125787700D01*
X149016886Y-125787700D01*
X149016887Y-125787700D01*
X149226843Y-125754446D01*
X149429012Y-125688757D01*
X149618416Y-125592251D01*
X149640389Y-125576286D01*
X149790386Y-125467309D01*
X149790388Y-125467306D01*
X149790392Y-125467304D01*
X149940704Y-125316992D01*
X149940706Y-125316988D01*
X149940709Y-125316986D01*
X150065648Y-125145020D01*
X150065647Y-125145020D01*
X150065651Y-125145016D01*
X150162157Y-124955612D01*
X150227846Y-124753443D01*
X150261100Y-124543487D01*
X150261100Y-124330913D01*
X151560100Y-124330913D01*
X151560100Y-124543487D01*
X151593354Y-124753443D01*
X151648874Y-124924316D01*
X151659044Y-124955614D01*
X151755551Y-125145020D01*
X151880490Y-125316986D01*
X152030813Y-125467309D01*
X152202779Y-125592248D01*
X152202781Y-125592249D01*
X152202784Y-125592251D01*
X152392188Y-125688757D01*
X152594357Y-125754446D01*
X152804313Y-125787700D01*
X152804314Y-125787700D01*
X153016886Y-125787700D01*
X153016887Y-125787700D01*
X153226843Y-125754446D01*
X153429012Y-125688757D01*
X153618416Y-125592251D01*
X153640389Y-125576286D01*
X153790386Y-125467309D01*
X153790388Y-125467306D01*
X153790392Y-125467304D01*
X153940704Y-125316992D01*
X153940706Y-125316988D01*
X153940709Y-125316986D01*
X154065648Y-125145020D01*
X154065647Y-125145020D01*
X154065651Y-125145016D01*
X154162157Y-124955612D01*
X154227846Y-124753443D01*
X154261100Y-124543487D01*
X154261100Y-124330913D01*
X154246408Y-124238154D01*
X154255362Y-124168863D01*
X154300358Y-124115411D01*
X154367110Y-124094771D01*
X154407200Y-124100827D01*
X154559354Y-124150265D01*
X154792548Y-124187200D01*
X155028652Y-124187200D01*
X155261847Y-124150265D01*
X155486402Y-124077302D01*
X155696763Y-123970118D01*
X155696769Y-123970114D01*
X155779704Y-123909858D01*
X155779705Y-123909858D01*
X155644297Y-123774450D01*
X155121658Y-123251812D01*
X155142191Y-123246311D01*
X155279008Y-123167319D01*
X155390719Y-123055608D01*
X155469711Y-122918791D01*
X155475212Y-122898259D01*
X156133258Y-123556305D01*
X156133258Y-123556304D01*
X156193514Y-123473369D01*
X156193518Y-123473363D01*
X156300702Y-123263002D01*
X156373665Y-123038447D01*
X156405154Y-122839635D01*
X163518382Y-122839635D01*
X163518382Y-123238131D01*
X164218382Y-123238131D01*
X164218382Y-123738131D01*
X163518382Y-123738131D01*
X163518382Y-124136626D01*
X163556809Y-124329812D01*
X163556812Y-124329824D01*
X163632189Y-124511802D01*
X163632196Y-124511815D01*
X163741630Y-124675593D01*
X163741633Y-124675597D01*
X163880915Y-124814879D01*
X163880919Y-124814882D01*
X164044697Y-124924316D01*
X164044710Y-124924323D01*
X164226690Y-124999700D01*
X164268382Y-125007993D01*
X164268382Y-124205119D01*
X164278322Y-124222336D01*
X164334177Y-124278191D01*
X164402586Y-124317687D01*
X164478886Y-124338131D01*
X164557878Y-124338131D01*
X164634178Y-124317687D01*
X164702587Y-124278191D01*
X164758442Y-124222336D01*
X164768382Y-124205119D01*
X164768382Y-125007993D01*
X164810072Y-124999700D01*
X164810074Y-124999700D01*
X164992053Y-124924323D01*
X164992066Y-124924316D01*
X165155844Y-124814882D01*
X165155848Y-124814879D01*
X165295130Y-124675597D01*
X165295136Y-124675589D01*
X165397930Y-124521748D01*
X165451542Y-124476942D01*
X165520867Y-124468235D01*
X165569923Y-124487536D01*
X165652089Y-124542438D01*
X165652098Y-124542443D01*
X165673121Y-124551151D01*
X165765930Y-124589594D01*
X165886771Y-124613630D01*
X165886775Y-124613631D01*
X165886776Y-124613631D01*
X166009989Y-124613631D01*
X166009990Y-124613630D01*
X166130834Y-124589594D01*
X166244668Y-124542442D01*
X166347115Y-124473989D01*
X166434240Y-124386864D01*
X166502693Y-124284417D01*
X166549845Y-124170583D01*
X166573882Y-124049737D01*
X166573882Y-123926525D01*
X166573881Y-123926520D01*
X171102882Y-123926520D01*
X171102882Y-124049741D01*
X171126917Y-124170575D01*
X171126920Y-124170585D01*
X171174069Y-124284414D01*
X171174074Y-124284423D01*
X171242523Y-124386863D01*
X171242526Y-124386867D01*
X171329645Y-124473986D01*
X171329649Y-124473989D01*
X171432089Y-124542438D01*
X171432098Y-124542443D01*
X171453121Y-124551151D01*
X171545930Y-124589594D01*
X171666771Y-124613630D01*
X171666775Y-124613631D01*
X171666776Y-124613631D01*
X171789989Y-124613631D01*
X171789990Y-124613630D01*
X171910834Y-124589594D01*
X172024668Y-124542442D01*
X172106841Y-124487535D01*
X172173517Y-124466658D01*
X172240897Y-124485142D01*
X172278833Y-124521747D01*
X172381630Y-124675593D01*
X172381633Y-124675597D01*
X172520915Y-124814879D01*
X172520919Y-124814882D01*
X172684697Y-124924316D01*
X172684710Y-124924323D01*
X172866690Y-124999700D01*
X172908382Y-125007993D01*
X172908382Y-124205119D01*
X172918322Y-124222336D01*
X172974177Y-124278191D01*
X173042586Y-124317687D01*
X173118886Y-124338131D01*
X173197878Y-124338131D01*
X173274178Y-124317687D01*
X173342587Y-124278191D01*
X173398442Y-124222336D01*
X173408382Y-124205119D01*
X173408382Y-125007993D01*
X173450072Y-124999700D01*
X173450074Y-124999700D01*
X173632053Y-124924323D01*
X173632066Y-124924316D01*
X173795844Y-124814882D01*
X173795848Y-124814879D01*
X173935130Y-124675597D01*
X173935133Y-124675593D01*
X174044567Y-124511815D01*
X174044574Y-124511802D01*
X174119951Y-124329824D01*
X174119954Y-124329812D01*
X174158381Y-124136626D01*
X174158382Y-124136623D01*
X174158382Y-123738131D01*
X173458382Y-123738131D01*
X173458382Y-123238131D01*
X174158382Y-123238131D01*
X174158382Y-122839639D01*
X174158381Y-122839635D01*
X174119954Y-122646449D01*
X174119951Y-122646437D01*
X174044574Y-122464459D01*
X174044567Y-122464446D01*
X173935133Y-122300668D01*
X173935130Y-122300664D01*
X173795848Y-122161382D01*
X173795844Y-122161379D01*
X173632066Y-122051945D01*
X173632053Y-122051938D01*
X173450073Y-121976560D01*
X173450065Y-121976558D01*
X173408382Y-121968266D01*
X173408382Y-122771142D01*
X173398442Y-122753926D01*
X173342587Y-122698071D01*
X173274178Y-122658575D01*
X173197878Y-122638131D01*
X173118886Y-122638131D01*
X173042586Y-122658575D01*
X172974177Y-122698071D01*
X172918322Y-122753926D01*
X172908382Y-122771142D01*
X172908382Y-122005285D01*
X172918939Y-121955218D01*
X172923290Y-121945357D01*
X172929322Y-121936331D01*
X173000973Y-121763351D01*
X173037500Y-121579716D01*
X173037500Y-121392484D01*
X173000973Y-121208849D01*
X172942566Y-121067843D01*
X172929323Y-121035871D01*
X172929318Y-121035862D01*
X172825302Y-120880192D01*
X172825299Y-120880188D01*
X172692911Y-120747800D01*
X172692907Y-120747797D01*
X172537237Y-120643781D01*
X172537228Y-120643776D01*
X172364251Y-120572127D01*
X172364243Y-120572125D01*
X172180620Y-120535600D01*
X172180616Y-120535600D01*
X171993384Y-120535600D01*
X171993379Y-120535600D01*
X171809756Y-120572125D01*
X171809748Y-120572127D01*
X171636771Y-120643776D01*
X171636762Y-120643781D01*
X171481092Y-120747797D01*
X171481088Y-120747800D01*
X171348700Y-120880188D01*
X171348697Y-120880192D01*
X171244681Y-121035862D01*
X171244676Y-121035871D01*
X171173027Y-121208848D01*
X171173025Y-121208856D01*
X171136500Y-121392479D01*
X171136500Y-121579720D01*
X171173025Y-121763343D01*
X171173027Y-121763351D01*
X171244676Y-121936328D01*
X171244681Y-121936337D01*
X171348697Y-122092007D01*
X171348700Y-122092011D01*
X171481088Y-122224399D01*
X171481092Y-122224402D01*
X171636762Y-122328418D01*
X171636766Y-122328420D01*
X171636769Y-122328422D01*
X171809749Y-122400073D01*
X171993379Y-122436599D01*
X171993383Y-122436600D01*
X172098151Y-122436600D01*
X172165190Y-122456285D01*
X172210945Y-122509089D01*
X172220889Y-122578247D01*
X172212712Y-122608052D01*
X172196812Y-122646437D01*
X172196809Y-122646449D01*
X172158382Y-122839635D01*
X172158382Y-123303626D01*
X172138697Y-123370665D01*
X172085893Y-123416420D01*
X172016735Y-123426364D01*
X171986930Y-123418187D01*
X171910840Y-123386670D01*
X171910836Y-123386668D01*
X171910834Y-123386668D01*
X171910830Y-123386667D01*
X171910826Y-123386666D01*
X171789992Y-123362631D01*
X171789988Y-123362631D01*
X171666776Y-123362631D01*
X171666771Y-123362631D01*
X171545937Y-123386666D01*
X171545927Y-123386669D01*
X171432098Y-123433818D01*
X171432089Y-123433823D01*
X171329649Y-123502272D01*
X171329645Y-123502275D01*
X171242526Y-123589394D01*
X171242523Y-123589398D01*
X171174074Y-123691838D01*
X171174069Y-123691847D01*
X171126920Y-123805676D01*
X171126917Y-123805686D01*
X171102882Y-123926520D01*
X166573881Y-123926520D01*
X166549845Y-123805679D01*
X166502693Y-123691845D01*
X166502692Y-123691844D01*
X166502689Y-123691838D01*
X166434240Y-123589398D01*
X166434237Y-123589394D01*
X166347118Y-123502275D01*
X166347114Y-123502272D01*
X166244674Y-123433823D01*
X166244665Y-123433818D01*
X166149452Y-123394380D01*
X166130834Y-123386668D01*
X166130830Y-123386667D01*
X166130826Y-123386666D01*
X166009992Y-123362631D01*
X166009988Y-123362631D01*
X165886776Y-123362631D01*
X165886771Y-123362631D01*
X165765937Y-123386666D01*
X165765923Y-123386670D01*
X165689834Y-123418187D01*
X165620364Y-123425656D01*
X165557885Y-123394380D01*
X165522234Y-123334291D01*
X165518382Y-123303626D01*
X165518382Y-122839639D01*
X165518381Y-122839635D01*
X165479954Y-122646449D01*
X165479952Y-122646441D01*
X165412218Y-122482916D01*
X165404749Y-122413446D01*
X165436024Y-122350967D01*
X165496113Y-122315315D01*
X165565938Y-122317809D01*
X165585227Y-122326102D01*
X165589565Y-122328420D01*
X165589567Y-122328421D01*
X165589569Y-122328422D01*
X165762549Y-122400073D01*
X165946179Y-122436599D01*
X165946183Y-122436600D01*
X165946184Y-122436600D01*
X166133417Y-122436600D01*
X166133418Y-122436599D01*
X166317051Y-122400073D01*
X166490031Y-122328422D01*
X166645708Y-122224402D01*
X166778102Y-122092008D01*
X166882122Y-121936331D01*
X166953773Y-121763351D01*
X166990300Y-121579716D01*
X166990300Y-121392484D01*
X166953773Y-121208849D01*
X166895366Y-121067843D01*
X166882123Y-121035871D01*
X166882118Y-121035862D01*
X166778102Y-120880192D01*
X166778099Y-120880188D01*
X166645711Y-120747800D01*
X166645707Y-120747797D01*
X166490037Y-120643781D01*
X166490028Y-120643776D01*
X166317051Y-120572127D01*
X166317043Y-120572125D01*
X166133420Y-120535600D01*
X166133416Y-120535600D01*
X165946184Y-120535600D01*
X165946179Y-120535600D01*
X165762556Y-120572125D01*
X165762548Y-120572127D01*
X165589571Y-120643776D01*
X165589562Y-120643781D01*
X165433892Y-120747797D01*
X165433888Y-120747800D01*
X165301500Y-120880188D01*
X165301497Y-120880192D01*
X165197481Y-121035862D01*
X165197476Y-121035871D01*
X165125827Y-121208848D01*
X165125825Y-121208856D01*
X165089300Y-121392479D01*
X165089300Y-121579720D01*
X165125825Y-121763343D01*
X165125827Y-121763351D01*
X165185870Y-121908307D01*
X165193339Y-121977777D01*
X165162064Y-122040256D01*
X165101975Y-122075908D01*
X165032150Y-122073414D01*
X165002420Y-122058863D01*
X164992069Y-122051947D01*
X164992053Y-122051938D01*
X164810073Y-121976560D01*
X164810065Y-121976558D01*
X164768382Y-121968266D01*
X164768382Y-122771142D01*
X164758442Y-122753926D01*
X164702587Y-122698071D01*
X164634178Y-122658575D01*
X164557878Y-122638131D01*
X164478886Y-122638131D01*
X164402586Y-122658575D01*
X164334177Y-122698071D01*
X164278322Y-122753926D01*
X164268382Y-122771142D01*
X164268382Y-121968267D01*
X164268381Y-121968266D01*
X164226698Y-121976558D01*
X164226690Y-121976560D01*
X164044710Y-122051938D01*
X164044697Y-122051945D01*
X163880919Y-122161379D01*
X163880915Y-122161382D01*
X163741633Y-122300664D01*
X163741630Y-122300668D01*
X163632196Y-122464446D01*
X163632189Y-122464459D01*
X163556812Y-122646437D01*
X163556809Y-122646449D01*
X163518382Y-122839635D01*
X156405154Y-122839635D01*
X156409179Y-122814224D01*
X156409190Y-122814153D01*
X156410600Y-122805249D01*
X156410600Y-122569147D01*
X156373665Y-122335952D01*
X156300702Y-122111397D01*
X156193514Y-121901028D01*
X156133258Y-121818094D01*
X156133258Y-121818093D01*
X155475212Y-122476140D01*
X155469711Y-122455609D01*
X155390719Y-122318792D01*
X155279008Y-122207081D01*
X155142191Y-122128089D01*
X155121659Y-122122587D01*
X155779705Y-121464540D01*
X155779704Y-121464538D01*
X155696774Y-121404287D01*
X155486402Y-121297097D01*
X155261847Y-121224134D01*
X155261848Y-121224134D01*
X155028652Y-121187200D01*
X154792548Y-121187200D01*
X154559352Y-121224134D01*
X154334797Y-121297097D01*
X154124430Y-121404284D01*
X154041494Y-121464540D01*
X154699541Y-122122587D01*
X154679009Y-122128089D01*
X154542192Y-122207081D01*
X154430481Y-122318792D01*
X154351489Y-122455609D01*
X154345987Y-122476141D01*
X153687940Y-121818094D01*
X153627684Y-121901030D01*
X153520497Y-122111397D01*
X153447534Y-122335952D01*
X153410600Y-122569147D01*
X153410600Y-122805252D01*
X153441463Y-123000115D01*
X153432508Y-123069409D01*
X153387512Y-123122861D01*
X153320761Y-123143500D01*
X153280673Y-123137444D01*
X153226844Y-123119954D01*
X153226840Y-123119953D01*
X153065557Y-123094408D01*
X153016887Y-123086700D01*
X152804313Y-123086700D01*
X152755642Y-123094408D01*
X152594360Y-123119953D01*
X152392185Y-123185644D01*
X152202779Y-123282151D01*
X152030813Y-123407090D01*
X151880490Y-123557413D01*
X151755551Y-123729379D01*
X151659044Y-123918785D01*
X151593353Y-124120960D01*
X151574791Y-124238157D01*
X151560100Y-124330913D01*
X150261100Y-124330913D01*
X150227846Y-124120957D01*
X150162157Y-123918788D01*
X150065651Y-123729384D01*
X150065649Y-123729381D01*
X150065648Y-123729379D01*
X149940709Y-123557413D01*
X149790386Y-123407090D01*
X149618420Y-123282151D01*
X149429014Y-123185644D01*
X149429013Y-123185643D01*
X149429012Y-123185643D01*
X149226843Y-123119954D01*
X149226841Y-123119953D01*
X149226840Y-123119953D01*
X149065557Y-123094408D01*
X149016887Y-123086700D01*
X148804313Y-123086700D01*
X148755642Y-123094408D01*
X148594360Y-123119953D01*
X148392185Y-123185644D01*
X148202779Y-123282151D01*
X148030813Y-123407090D01*
X147880490Y-123557413D01*
X147755551Y-123729379D01*
X147659044Y-123918785D01*
X147593353Y-124120960D01*
X147574791Y-124238157D01*
X147560100Y-124330913D01*
X146261100Y-124330913D01*
X146227846Y-124120957D01*
X146162157Y-123918788D01*
X146065651Y-123729384D01*
X146065649Y-123729381D01*
X146065648Y-123729379D01*
X145940709Y-123557413D01*
X145790386Y-123407090D01*
X145618420Y-123282151D01*
X145429014Y-123185644D01*
X145429013Y-123185643D01*
X145429012Y-123185643D01*
X145226843Y-123119954D01*
X145226841Y-123119953D01*
X145226840Y-123119953D01*
X145065557Y-123094408D01*
X145016887Y-123086700D01*
X144804313Y-123086700D01*
X144764802Y-123092957D01*
X144594359Y-123119953D01*
X144594355Y-123119954D01*
X144540526Y-123137444D01*
X144470684Y-123139439D01*
X144410852Y-123103358D01*
X144380025Y-123040656D01*
X144379736Y-123000115D01*
X144410600Y-122805251D01*
X144410600Y-122569147D01*
X144373665Y-122335952D01*
X144300702Y-122111397D01*
X144193514Y-121901028D01*
X144133258Y-121818094D01*
X144133258Y-121818093D01*
X143475212Y-122476140D01*
X143469711Y-122455609D01*
X143390719Y-122318792D01*
X143279008Y-122207081D01*
X143142191Y-122128089D01*
X143121659Y-122122587D01*
X143779705Y-121464540D01*
X143779704Y-121464539D01*
X143696774Y-121404287D01*
X143486402Y-121297097D01*
X143261847Y-121224134D01*
X143261848Y-121224134D01*
X143028652Y-121187200D01*
X142792548Y-121187200D01*
X142559352Y-121224134D01*
X142334797Y-121297097D01*
X142124430Y-121404284D01*
X142041494Y-121464540D01*
X142699541Y-122122587D01*
X142679009Y-122128089D01*
X142542192Y-122207081D01*
X142430481Y-122318792D01*
X142351489Y-122455609D01*
X142345987Y-122476141D01*
X141687940Y-121818094D01*
X141627684Y-121901030D01*
X141520497Y-122111397D01*
X141447534Y-122335952D01*
X141410600Y-122569147D01*
X103744069Y-122569147D01*
X103797410Y-122408176D01*
X103807911Y-122305388D01*
X103807910Y-121105371D01*
X103804076Y-121067843D01*
X103797410Y-121002582D01*
X103797409Y-121002579D01*
X103742225Y-120836045D01*
X103650123Y-120686723D01*
X103526067Y-120562667D01*
X103376745Y-120470565D01*
X103314969Y-120450094D01*
X103257526Y-120410322D01*
X103230703Y-120345806D01*
X103230357Y-120322659D01*
X103233332Y-120284852D01*
X102553858Y-119605379D01*
X102560072Y-119605379D01*
X102661805Y-119578120D01*
X102753017Y-119525459D01*
X102827491Y-119450985D01*
X102880152Y-119359773D01*
X102907411Y-119258040D01*
X102907411Y-119251826D01*
X103586885Y-119931300D01*
X103619270Y-119886728D01*
X103712166Y-119704410D01*
X103775401Y-119509796D01*
X103807411Y-119307696D01*
X103807411Y-119103061D01*
X103775401Y-118900961D01*
X103712166Y-118706347D01*
X103619270Y-118524029D01*
X103586885Y-118479456D01*
X103586885Y-118479455D01*
X102907411Y-119158930D01*
X102907411Y-119152718D01*
X102880152Y-119050985D01*
X102827491Y-118959773D01*
X102753017Y-118885299D01*
X102661805Y-118832638D01*
X102560072Y-118805379D01*
X102553857Y-118805379D01*
X103233333Y-118125903D01*
X103233333Y-118125902D01*
X103188770Y-118093526D01*
X103188761Y-118093520D01*
X103006442Y-118000623D01*
X102811828Y-117937388D01*
X102609728Y-117905379D01*
X102405094Y-117905379D01*
X102202993Y-117937388D01*
X102008379Y-118000623D01*
X101826055Y-118093522D01*
X101781488Y-118125902D01*
X101781488Y-118125903D01*
X102460965Y-118805379D01*
X102454750Y-118805379D01*
X102353017Y-118832638D01*
X102261805Y-118885299D01*
X102187331Y-118959773D01*
X102134670Y-119050985D01*
X102107411Y-119152718D01*
X102107411Y-119158932D01*
X101427935Y-118479456D01*
X101427934Y-118479456D01*
X101395554Y-118524023D01*
X101302655Y-118706347D01*
X101239420Y-118900961D01*
X101207411Y-119103061D01*
X101207411Y-119307696D01*
X101239420Y-119509796D01*
X101302655Y-119704410D01*
X101395552Y-119886729D01*
X101395558Y-119886738D01*
X101427934Y-119931300D01*
X101427935Y-119931301D01*
X102107411Y-119251825D01*
X102107411Y-119258040D01*
X102134670Y-119359773D01*
X102187331Y-119450985D01*
X102261805Y-119525459D01*
X102353017Y-119578120D01*
X102454750Y-119605379D01*
X102460964Y-119605379D01*
X101781487Y-120284853D01*
X101784463Y-120322661D01*
X101770098Y-120391038D01*
X101721047Y-120440794D01*
X101699851Y-120450094D01*
X101638083Y-120470563D01*
X101638074Y-120470566D01*
X101488753Y-120562668D01*
X101364700Y-120686721D01*
X101272598Y-120836042D01*
X101272596Y-120836047D01*
X101265359Y-120857887D01*
X101217412Y-121002582D01*
X101217412Y-121002583D01*
X101217411Y-121002583D01*
X101206911Y-121105362D01*
X96989000Y-121105362D01*
X96946259Y-121071277D01*
X96708456Y-120921855D01*
X96708453Y-120921853D01*
X96455422Y-120800000D01*
X96326366Y-120754841D01*
X96269590Y-120714119D01*
X96243843Y-120649167D01*
X96257299Y-120580605D01*
X96305687Y-120530202D01*
X96367321Y-120513800D01*
X96701717Y-120513800D01*
X96701730Y-120513799D01*
X96834917Y-120503317D01*
X96834923Y-120503316D01*
X97054840Y-120447901D01*
X97054843Y-120447900D01*
X97261341Y-120354104D01*
X97261347Y-120354101D01*
X97447769Y-120224948D01*
X97447781Y-120224938D01*
X97608149Y-120064570D01*
X97608159Y-120064558D01*
X97737312Y-119878136D01*
X97737315Y-119878130D01*
X97831111Y-119671632D01*
X97831112Y-119671629D01*
X97886527Y-119451712D01*
X97886528Y-119451706D01*
X97897010Y-119318519D01*
X97897011Y-119318506D01*
X97897011Y-118363800D01*
X96824242Y-118363800D01*
X96847011Y-118220047D01*
X96847011Y-118007553D01*
X96824242Y-117863800D01*
X97897011Y-117863800D01*
X97897011Y-116909093D01*
X97897010Y-116909080D01*
X97886528Y-116775893D01*
X97886527Y-116775887D01*
X97831112Y-116555970D01*
X97831111Y-116555967D01*
X97737315Y-116349469D01*
X97737312Y-116349463D01*
X97608159Y-116163041D01*
X97608149Y-116163029D01*
X97447781Y-116002661D01*
X97447769Y-116002651D01*
X97261347Y-115873498D01*
X97261341Y-115873495D01*
X97054843Y-115779699D01*
X97054840Y-115779698D01*
X96834923Y-115724283D01*
X96834917Y-115724282D01*
X96701730Y-115713800D01*
X95747011Y-115713800D01*
X95747011Y-116786568D01*
X95603258Y-116763800D01*
X95390764Y-116763800D01*
X95247011Y-116786568D01*
X95247011Y-115713800D01*
X94292291Y-115713800D01*
X94159104Y-115724282D01*
X94159098Y-115724283D01*
X93939181Y-115779698D01*
X93939178Y-115779699D01*
X93732680Y-115873495D01*
X93732674Y-115873498D01*
X93546252Y-116002651D01*
X93546240Y-116002661D01*
X93385872Y-116163029D01*
X93385862Y-116163041D01*
X93256709Y-116349463D01*
X93256706Y-116349469D01*
X93162910Y-116555967D01*
X93162909Y-116555970D01*
X93107494Y-116775887D01*
X93107493Y-116775893D01*
X93097011Y-116909080D01*
X93097011Y-117863800D01*
X94169780Y-117863800D01*
X94147011Y-118007553D01*
X94147011Y-118220047D01*
X94169780Y-118363800D01*
X93097011Y-118363800D01*
X93097011Y-119318519D01*
X93107493Y-119451706D01*
X93107494Y-119451712D01*
X93162909Y-119671629D01*
X93162910Y-119671632D01*
X93256706Y-119878130D01*
X93256709Y-119878136D01*
X93385862Y-120064558D01*
X93385872Y-120064570D01*
X93546240Y-120224938D01*
X93546252Y-120224948D01*
X93732674Y-120354101D01*
X93732680Y-120354104D01*
X93939178Y-120447900D01*
X93939181Y-120447901D01*
X94159098Y-120503316D01*
X94159104Y-120503317D01*
X94292291Y-120513799D01*
X94292305Y-120513800D01*
X94626701Y-120513800D01*
X94693740Y-120533485D01*
X94739495Y-120586289D01*
X94749439Y-120655447D01*
X94720414Y-120719003D01*
X94667656Y-120754841D01*
X94538599Y-120800000D01*
X94285568Y-120921853D01*
X94047764Y-121071276D01*
X93828186Y-121246383D01*
X93629594Y-121444975D01*
X93454487Y-121664553D01*
X93305064Y-121902357D01*
X93183211Y-122155388D01*
X93090454Y-122420470D01*
X93090450Y-122420482D01*
X93027956Y-122694287D01*
X93027953Y-122694305D01*
X92996511Y-122973368D01*
X91686500Y-122973368D01*
X91686500Y-114648028D01*
X156223100Y-114648028D01*
X156223100Y-114815571D01*
X156255782Y-114979874D01*
X156255784Y-114979882D01*
X156319895Y-115134660D01*
X156412973Y-115273962D01*
X156531437Y-115392426D01*
X156564683Y-115414640D01*
X156670737Y-115485503D01*
X156825518Y-115549616D01*
X156989828Y-115582299D01*
X156989832Y-115582300D01*
X156989833Y-115582300D01*
X157157368Y-115582300D01*
X157157369Y-115582299D01*
X157321682Y-115549616D01*
X157476463Y-115485503D01*
X157582517Y-115414639D01*
X157649192Y-115393762D01*
X157716572Y-115412246D01*
X157720297Y-115414640D01*
X157788337Y-115460103D01*
X157943118Y-115524216D01*
X158070809Y-115549615D01*
X158107428Y-115556899D01*
X158107432Y-115556900D01*
X158107433Y-115556900D01*
X158274968Y-115556900D01*
X158274969Y-115556899D01*
X158439282Y-115524216D01*
X158464093Y-115513939D01*
X166654314Y-115513939D01*
X166654314Y-115681482D01*
X166686996Y-115845785D01*
X166686998Y-115845793D01*
X166751111Y-116000575D01*
X166751112Y-116000577D01*
X166753284Y-116003828D01*
X166753897Y-116005787D01*
X166753981Y-116005944D01*
X166753951Y-116005959D01*
X166774157Y-116070507D01*
X166755668Y-116137886D01*
X166753284Y-116141594D01*
X166751112Y-116144844D01*
X166751111Y-116144846D01*
X166686998Y-116299628D01*
X166686996Y-116299636D01*
X166654314Y-116463939D01*
X166654314Y-116631482D01*
X166686996Y-116795785D01*
X166686998Y-116795793D01*
X166751109Y-116950571D01*
X166844187Y-117089873D01*
X166962651Y-117208337D01*
X167001559Y-117234334D01*
X167101951Y-117301414D01*
X167256732Y-117365527D01*
X167421042Y-117398210D01*
X167421046Y-117398211D01*
X167421047Y-117398211D01*
X167588582Y-117398211D01*
X167588583Y-117398210D01*
X167752896Y-117365527D01*
X167907677Y-117301414D01*
X168046976Y-117208337D01*
X168165440Y-117089873D01*
X168258517Y-116950574D01*
X168322630Y-116795793D01*
X168355314Y-116631478D01*
X168355314Y-116463944D01*
X168322630Y-116299629D01*
X168258517Y-116144848D01*
X168256350Y-116141604D01*
X168255736Y-116139647D01*
X168255648Y-116139481D01*
X168255679Y-116139464D01*
X168235469Y-116074932D01*
X168253949Y-116007551D01*
X168256323Y-116003856D01*
X168258517Y-116000574D01*
X168322630Y-115845793D01*
X168355314Y-115681478D01*
X168355314Y-115513944D01*
X168322630Y-115349629D01*
X168258517Y-115194848D01*
X168218303Y-115134663D01*
X168165440Y-115055548D01*
X168046976Y-114937084D01*
X167907674Y-114844006D01*
X167752896Y-114779895D01*
X167752888Y-114779893D01*
X167588585Y-114747211D01*
X167588581Y-114747211D01*
X167421047Y-114747211D01*
X167421042Y-114747211D01*
X167256739Y-114779893D01*
X167256731Y-114779895D01*
X167101953Y-114844006D01*
X166962651Y-114937084D01*
X166844187Y-115055548D01*
X166751109Y-115194850D01*
X166686998Y-115349628D01*
X166686996Y-115349636D01*
X166654314Y-115513939D01*
X158464093Y-115513939D01*
X158594063Y-115460103D01*
X158733362Y-115367026D01*
X158851826Y-115248562D01*
X158944903Y-115109263D01*
X159009016Y-114954482D01*
X159041700Y-114790167D01*
X159041700Y-114622633D01*
X159009016Y-114458318D01*
X158944903Y-114303537D01*
X158913737Y-114256894D01*
X158851826Y-114164237D01*
X158733362Y-114045773D01*
X158594060Y-113952695D01*
X158439282Y-113888584D01*
X158439274Y-113888582D01*
X158274971Y-113855900D01*
X158274967Y-113855900D01*
X158107433Y-113855900D01*
X158107428Y-113855900D01*
X157943125Y-113888582D01*
X157943117Y-113888584D01*
X157788340Y-113952695D01*
X157682283Y-114023560D01*
X157615606Y-114044437D01*
X157548226Y-114025952D01*
X157544503Y-114023560D01*
X157538757Y-114019720D01*
X157476463Y-113978097D01*
X157476460Y-113978095D01*
X157476459Y-113978095D01*
X157321682Y-113913984D01*
X157321674Y-113913982D01*
X157157371Y-113881300D01*
X157157367Y-113881300D01*
X156989833Y-113881300D01*
X156989828Y-113881300D01*
X156825525Y-113913982D01*
X156825517Y-113913984D01*
X156670739Y-113978095D01*
X156531437Y-114071173D01*
X156412973Y-114189637D01*
X156319895Y-114328939D01*
X156255784Y-114483717D01*
X156255782Y-114483725D01*
X156223100Y-114648028D01*
X91686500Y-114648028D01*
X91686500Y-112541025D01*
X113071859Y-112541025D01*
X113071859Y-112745660D01*
X113103868Y-112947760D01*
X113167103Y-113142374D01*
X113260000Y-113324693D01*
X113260006Y-113324702D01*
X113292382Y-113369264D01*
X113292383Y-113369265D01*
X113971859Y-112689789D01*
X113971859Y-112696004D01*
X113999118Y-112797737D01*
X114051779Y-112888949D01*
X114126253Y-112963423D01*
X114217465Y-113016084D01*
X114319198Y-113043343D01*
X114325411Y-113043343D01*
X113645935Y-113722817D01*
X113690509Y-113755202D01*
X113872827Y-113848098D01*
X114067441Y-113911333D01*
X114269542Y-113943343D01*
X114474176Y-113943343D01*
X114676276Y-113911333D01*
X114870890Y-113848098D01*
X115053200Y-113755206D01*
X115053208Y-113755201D01*
X115123411Y-113704195D01*
X115189217Y-113680714D01*
X115257271Y-113696539D01*
X115283979Y-113716831D01*
X115353203Y-113786055D01*
X115502525Y-113878157D01*
X115669062Y-113933342D01*
X115771850Y-113943843D01*
X116971867Y-113943842D01*
X117074656Y-113933342D01*
X117241193Y-113878157D01*
X117390515Y-113786055D01*
X117514571Y-113661999D01*
X117606673Y-113512677D01*
X117661858Y-113346140D01*
X117672359Y-113243352D01*
X117672358Y-112150428D01*
X150584300Y-112150428D01*
X150584300Y-112317971D01*
X150616982Y-112482274D01*
X150616984Y-112482282D01*
X150681095Y-112637060D01*
X150774173Y-112776362D01*
X150892637Y-112894826D01*
X150971859Y-112947760D01*
X151031937Y-112987903D01*
X151186718Y-113052016D01*
X151314409Y-113077415D01*
X151351028Y-113084699D01*
X151351032Y-113084700D01*
X151351033Y-113084700D01*
X151518568Y-113084700D01*
X151518569Y-113084699D01*
X151682882Y-113052016D01*
X151837663Y-112987903D01*
X151931104Y-112925467D01*
X151997779Y-112904590D01*
X152065159Y-112923074D01*
X152068862Y-112925454D01*
X152200337Y-113013303D01*
X152355118Y-113077416D01*
X152519428Y-113110099D01*
X152519432Y-113110100D01*
X152519433Y-113110100D01*
X152686968Y-113110100D01*
X152686969Y-113110099D01*
X152851282Y-113077416D01*
X153006063Y-113013303D01*
X153145362Y-112920226D01*
X153263826Y-112801762D01*
X153356903Y-112662463D01*
X153421016Y-112507682D01*
X153453700Y-112343367D01*
X153453700Y-112233735D01*
X186736500Y-112233735D01*
X186736500Y-114029470D01*
X186736501Y-114029476D01*
X186742908Y-114089083D01*
X186793202Y-114223928D01*
X186793206Y-114223935D01*
X186879452Y-114339144D01*
X186879455Y-114339147D01*
X186994664Y-114425393D01*
X186994671Y-114425397D01*
X187039618Y-114442161D01*
X187129517Y-114475691D01*
X187189127Y-114482100D01*
X187199685Y-114482099D01*
X187266723Y-114501779D01*
X187287372Y-114518418D01*
X187957591Y-115188637D01*
X187894007Y-115205675D01*
X187779993Y-115271501D01*
X187686901Y-115364593D01*
X187621075Y-115478607D01*
X187604037Y-115542191D01*
X186971728Y-114909882D01*
X186971727Y-114909882D01*
X186932380Y-114964039D01*
X186835904Y-115153382D01*
X186770242Y-115355469D01*
X186770242Y-115355472D01*
X186737000Y-115565353D01*
X186737000Y-115777846D01*
X186770242Y-115987727D01*
X186770242Y-115987730D01*
X186835904Y-116189817D01*
X186932375Y-116379150D01*
X186971728Y-116433316D01*
X187604037Y-115801008D01*
X187621075Y-115864593D01*
X187686901Y-115978607D01*
X187779993Y-116071699D01*
X187894007Y-116137525D01*
X187957590Y-116154562D01*
X187325282Y-116786869D01*
X187325282Y-116786870D01*
X187379452Y-116826226D01*
X187379451Y-116826226D01*
X187388495Y-116830834D01*
X187439292Y-116878808D01*
X187456087Y-116946629D01*
X187433550Y-117012764D01*
X187388499Y-117051802D01*
X187379182Y-117056549D01*
X187207213Y-117181490D01*
X187056890Y-117331813D01*
X186931951Y-117503779D01*
X186835444Y-117693185D01*
X186769753Y-117895360D01*
X186738367Y-118093526D01*
X186736500Y-118105313D01*
X186736500Y-118317887D01*
X186769754Y-118527843D01*
X186803603Y-118632020D01*
X186835444Y-118730014D01*
X186931951Y-118919420D01*
X187056890Y-119091386D01*
X187207213Y-119241709D01*
X187379182Y-119366650D01*
X187387946Y-119371116D01*
X187438742Y-119419091D01*
X187455536Y-119486912D01*
X187432998Y-119553047D01*
X187387946Y-119592084D01*
X187379182Y-119596549D01*
X187207213Y-119721490D01*
X187056890Y-119871813D01*
X186931951Y-120043779D01*
X186835444Y-120233185D01*
X186769753Y-120435360D01*
X186736500Y-120645313D01*
X186736500Y-120857886D01*
X186764689Y-121035869D01*
X186769754Y-121067843D01*
X186827765Y-121246383D01*
X186835444Y-121270014D01*
X186931951Y-121459420D01*
X187056890Y-121631386D01*
X187207213Y-121781709D01*
X187379179Y-121906648D01*
X187379181Y-121906649D01*
X187379184Y-121906651D01*
X187568588Y-122003157D01*
X187770757Y-122068846D01*
X187980713Y-122102100D01*
X187980714Y-122102100D01*
X188193286Y-122102100D01*
X188193287Y-122102100D01*
X188403243Y-122068846D01*
X188605412Y-122003157D01*
X188794816Y-121906651D01*
X188857855Y-121860851D01*
X188966786Y-121781709D01*
X188966788Y-121781706D01*
X188966792Y-121781704D01*
X189117104Y-121631392D01*
X189117106Y-121631388D01*
X189117109Y-121631386D01*
X189242048Y-121459420D01*
X189242047Y-121459420D01*
X189242051Y-121459416D01*
X189338557Y-121270012D01*
X189404246Y-121067843D01*
X189437500Y-120857887D01*
X189437500Y-120645313D01*
X189404246Y-120435357D01*
X189338557Y-120233188D01*
X189242051Y-120043784D01*
X189242049Y-120043781D01*
X189242048Y-120043779D01*
X189117109Y-119871813D01*
X188966786Y-119721490D01*
X188794820Y-119596551D01*
X188794115Y-119596191D01*
X188786054Y-119592085D01*
X188735259Y-119544112D01*
X188718463Y-119476292D01*
X188740999Y-119410156D01*
X188786054Y-119371115D01*
X188794816Y-119366651D01*
X188816789Y-119350686D01*
X188966786Y-119241709D01*
X188966788Y-119241706D01*
X188966792Y-119241704D01*
X189117104Y-119091392D01*
X189117106Y-119091388D01*
X189117109Y-119091386D01*
X189242048Y-118919420D01*
X189242047Y-118919420D01*
X189242051Y-118919416D01*
X189338557Y-118730012D01*
X189404246Y-118527843D01*
X189437500Y-118317887D01*
X189437500Y-118105313D01*
X189404246Y-117895357D01*
X189338557Y-117693188D01*
X189242051Y-117503784D01*
X189242049Y-117503781D01*
X189242048Y-117503779D01*
X189117109Y-117331813D01*
X188966786Y-117181490D01*
X188794817Y-117056549D01*
X188785504Y-117051804D01*
X188734707Y-117003830D01*
X188717912Y-116936009D01*
X188740449Y-116869874D01*
X188785507Y-116830832D01*
X188794555Y-116826222D01*
X188848716Y-116786870D01*
X188848717Y-116786870D01*
X188216408Y-116154562D01*
X188279993Y-116137525D01*
X188394007Y-116071699D01*
X188487099Y-115978607D01*
X188552925Y-115864593D01*
X188569962Y-115801009D01*
X189202270Y-116433317D01*
X189202270Y-116433316D01*
X189241622Y-116379154D01*
X189338095Y-116189817D01*
X189403757Y-115987730D01*
X189403757Y-115987727D01*
X189437000Y-115777846D01*
X189437000Y-115565353D01*
X189403757Y-115355472D01*
X189403757Y-115355469D01*
X189338095Y-115153382D01*
X189241624Y-114964049D01*
X189202270Y-114909882D01*
X189202269Y-114909882D01*
X188569962Y-115542190D01*
X188552925Y-115478607D01*
X188487099Y-115364593D01*
X188394007Y-115271501D01*
X188279993Y-115205675D01*
X188216409Y-115188637D01*
X188886627Y-114518418D01*
X188947950Y-114484933D01*
X188974307Y-114482099D01*
X188984872Y-114482099D01*
X189044483Y-114475691D01*
X189179331Y-114425396D01*
X189294546Y-114339146D01*
X189380796Y-114223931D01*
X189431091Y-114089083D01*
X189437500Y-114029473D01*
X189437499Y-112233728D01*
X189432299Y-112185357D01*
X189431091Y-112174116D01*
X189380797Y-112039271D01*
X189380793Y-112039264D01*
X189294547Y-111924055D01*
X189294544Y-111924052D01*
X189179335Y-111837806D01*
X189179328Y-111837802D01*
X189044482Y-111787508D01*
X189044483Y-111787508D01*
X188984883Y-111781101D01*
X188984881Y-111781100D01*
X188984873Y-111781100D01*
X188984864Y-111781100D01*
X187189129Y-111781100D01*
X187189123Y-111781101D01*
X187129516Y-111787508D01*
X186994671Y-111837802D01*
X186994664Y-111837806D01*
X186879455Y-111924052D01*
X186879452Y-111924055D01*
X186793206Y-112039264D01*
X186793202Y-112039271D01*
X186742908Y-112174117D01*
X186736501Y-112233716D01*
X186736501Y-112233723D01*
X186736500Y-112233735D01*
X153453700Y-112233735D01*
X153453700Y-112175833D01*
X153421016Y-112011518D01*
X153356903Y-111856737D01*
X153310646Y-111787509D01*
X153263826Y-111717437D01*
X153145362Y-111598973D01*
X153006060Y-111505895D01*
X152851282Y-111441784D01*
X152851274Y-111441782D01*
X152686971Y-111409100D01*
X152686967Y-111409100D01*
X152519433Y-111409100D01*
X152519428Y-111409100D01*
X152355125Y-111441782D01*
X152355117Y-111441784D01*
X152200340Y-111505895D01*
X152106896Y-111568332D01*
X152040218Y-111589209D01*
X151972838Y-111570724D01*
X151969115Y-111568331D01*
X151962434Y-111563867D01*
X151837663Y-111480497D01*
X151837662Y-111480496D01*
X151837660Y-111480495D01*
X151682882Y-111416384D01*
X151682874Y-111416382D01*
X151518571Y-111383700D01*
X151518567Y-111383700D01*
X151351033Y-111383700D01*
X151351028Y-111383700D01*
X151186725Y-111416382D01*
X151186717Y-111416384D01*
X151031939Y-111480495D01*
X150892637Y-111573573D01*
X150774173Y-111692037D01*
X150681095Y-111831339D01*
X150616984Y-111986117D01*
X150616982Y-111986125D01*
X150584300Y-112150428D01*
X117672358Y-112150428D01*
X117672358Y-112043335D01*
X117661858Y-111940546D01*
X117606673Y-111774009D01*
X117514571Y-111624687D01*
X117390515Y-111500631D01*
X117241193Y-111408529D01*
X117074656Y-111353344D01*
X117074654Y-111353343D01*
X116971869Y-111342843D01*
X115771857Y-111342843D01*
X115771840Y-111342844D01*
X115669062Y-111353343D01*
X115669059Y-111353344D01*
X115502527Y-111408528D01*
X115502522Y-111408530D01*
X115353204Y-111500630D01*
X115283980Y-111569854D01*
X115222656Y-111603338D01*
X115152965Y-111598353D01*
X115123414Y-111582490D01*
X115053211Y-111531485D01*
X114870890Y-111438587D01*
X114676276Y-111375352D01*
X114474176Y-111343343D01*
X114269542Y-111343343D01*
X114067441Y-111375352D01*
X113872827Y-111438587D01*
X113690503Y-111531486D01*
X113645936Y-111563866D01*
X113645936Y-111563867D01*
X114325412Y-112243343D01*
X114319198Y-112243343D01*
X114217465Y-112270602D01*
X114126253Y-112323263D01*
X114051779Y-112397737D01*
X113999118Y-112488949D01*
X113971859Y-112590682D01*
X113971859Y-112596896D01*
X113292383Y-111917420D01*
X113292382Y-111917420D01*
X113260002Y-111961987D01*
X113167103Y-112144311D01*
X113103868Y-112338925D01*
X113071859Y-112541025D01*
X91686500Y-112541025D01*
X91686500Y-95047956D01*
X94499785Y-95047956D01*
X94499785Y-96347974D01*
X94499786Y-96347991D01*
X94510285Y-96450769D01*
X94510286Y-96450772D01*
X94537017Y-96531439D01*
X94565471Y-96617307D01*
X94637209Y-96733614D01*
X94657574Y-96766630D01*
X94781629Y-96890685D01*
X94936405Y-96986151D01*
X94983130Y-97038099D01*
X94994353Y-97107061D01*
X94966509Y-97171144D01*
X94958991Y-97179371D01*
X94820174Y-97318188D01*
X94695236Y-97490152D01*
X94598729Y-97679558D01*
X94533038Y-97881733D01*
X94506802Y-98047384D01*
X94499785Y-98091686D01*
X94499785Y-98304260D01*
X94508895Y-98361775D01*
X94530881Y-98500596D01*
X94533039Y-98514216D01*
X94575525Y-98644975D01*
X94598729Y-98716387D01*
X94695236Y-98905793D01*
X94820175Y-99077759D01*
X94970494Y-99228078D01*
X94970499Y-99228082D01*
X95135078Y-99347655D01*
X95177744Y-99402984D01*
X95183723Y-99472598D01*
X95151118Y-99534393D01*
X95135078Y-99548291D01*
X94970499Y-99667863D01*
X94970494Y-99667867D01*
X94820175Y-99818186D01*
X94695236Y-99990152D01*
X94598729Y-100179558D01*
X94533038Y-100381733D01*
X94512136Y-100513705D01*
X94499785Y-100591686D01*
X94499785Y-100804260D01*
X94509819Y-100867617D01*
X94530840Y-101000336D01*
X94533039Y-101014216D01*
X94581918Y-101164650D01*
X94598729Y-101216387D01*
X94695236Y-101405793D01*
X94820175Y-101577759D01*
X94970494Y-101728078D01*
X94970499Y-101728082D01*
X95135078Y-101847655D01*
X95177744Y-101902984D01*
X95183723Y-101972598D01*
X95151118Y-102034393D01*
X95135078Y-102048291D01*
X94970499Y-102167863D01*
X94970494Y-102167867D01*
X94820175Y-102318186D01*
X94695236Y-102490152D01*
X94598729Y-102679558D01*
X94533038Y-102881733D01*
X94517127Y-102982195D01*
X94499785Y-103091686D01*
X94499785Y-103304260D01*
X94509819Y-103367617D01*
X94525849Y-103468825D01*
X94533039Y-103514216D01*
X94571677Y-103633132D01*
X94598729Y-103716387D01*
X94695236Y-103905793D01*
X94820175Y-104077759D01*
X94970498Y-104228082D01*
X95142464Y-104353021D01*
X95142466Y-104353022D01*
X95142469Y-104353024D01*
X95331873Y-104449530D01*
X95534042Y-104515219D01*
X95743998Y-104548473D01*
X95743999Y-104548473D01*
X96206571Y-104548473D01*
X96206572Y-104548473D01*
X96416528Y-104515219D01*
X96618697Y-104449530D01*
X96808101Y-104353024D01*
X96871408Y-104307029D01*
X96980071Y-104228082D01*
X96980073Y-104228079D01*
X96980077Y-104228077D01*
X97130389Y-104077765D01*
X97130391Y-104077761D01*
X97130394Y-104077759D01*
X97255333Y-103905793D01*
X97255332Y-103905793D01*
X97255336Y-103905789D01*
X97351842Y-103716385D01*
X97417531Y-103514216D01*
X97450785Y-103304260D01*
X97450785Y-103301286D01*
X107917200Y-103301286D01*
X107917200Y-103468829D01*
X107949882Y-103633132D01*
X107949884Y-103633140D01*
X108013995Y-103787918D01*
X108107073Y-103927220D01*
X108225537Y-104045684D01*
X108240523Y-104055697D01*
X108364837Y-104138761D01*
X108519618Y-104202874D01*
X108682631Y-104235299D01*
X108683928Y-104235557D01*
X108683932Y-104235558D01*
X108683933Y-104235558D01*
X108851468Y-104235558D01*
X108851469Y-104235557D01*
X109015782Y-104202874D01*
X109107492Y-104164886D01*
X178816300Y-104164886D01*
X178816300Y-104332429D01*
X178848982Y-104496732D01*
X178848984Y-104496740D01*
X178913095Y-104651518D01*
X179006173Y-104790820D01*
X179124637Y-104909284D01*
X179217294Y-104971195D01*
X179263937Y-105002361D01*
X179418718Y-105066474D01*
X179583028Y-105099157D01*
X179583032Y-105099158D01*
X179583033Y-105099158D01*
X179750568Y-105099158D01*
X179750569Y-105099157D01*
X179914882Y-105066474D01*
X180069663Y-105002361D01*
X180208962Y-104909284D01*
X180208963Y-104909283D01*
X180209807Y-104908591D01*
X180210335Y-104908366D01*
X180214027Y-104905900D01*
X180214494Y-104906599D01*
X180274116Y-104881277D01*
X180342984Y-104893067D01*
X180357365Y-104901341D01*
X180470537Y-104976961D01*
X180625318Y-105041074D01*
X180753009Y-105066473D01*
X180789628Y-105073757D01*
X180789632Y-105073758D01*
X180789633Y-105073758D01*
X180957168Y-105073758D01*
X180957169Y-105073757D01*
X181121482Y-105041074D01*
X181276263Y-104976961D01*
X181415562Y-104883884D01*
X181534026Y-104765420D01*
X181627103Y-104626121D01*
X181691216Y-104471340D01*
X181723900Y-104307025D01*
X181723900Y-104139491D01*
X181691216Y-103975176D01*
X181633236Y-103835201D01*
X181627104Y-103820397D01*
X181608779Y-103792972D01*
X181608778Y-103792970D01*
X181534029Y-103681100D01*
X181534023Y-103681092D01*
X181415562Y-103562631D01*
X181276260Y-103469553D01*
X181121482Y-103405442D01*
X181121474Y-103405440D01*
X180957171Y-103372758D01*
X180957167Y-103372758D01*
X180789633Y-103372758D01*
X180789628Y-103372758D01*
X180625325Y-103405440D01*
X180625317Y-103405442D01*
X180470539Y-103469553D01*
X180331229Y-103562637D01*
X180330373Y-103563340D01*
X180329838Y-103563567D01*
X180326173Y-103566016D01*
X180325708Y-103565320D01*
X180266058Y-103590641D01*
X180197193Y-103578837D01*
X180182836Y-103570574D01*
X180069665Y-103494956D01*
X180069661Y-103494954D01*
X179914882Y-103430842D01*
X179914874Y-103430840D01*
X179750571Y-103398158D01*
X179750567Y-103398158D01*
X179583033Y-103398158D01*
X179583028Y-103398158D01*
X179418725Y-103430840D01*
X179418717Y-103430842D01*
X179263939Y-103494953D01*
X179124637Y-103588031D01*
X179006173Y-103706495D01*
X178913095Y-103845797D01*
X178848984Y-104000575D01*
X178848982Y-104000583D01*
X178816300Y-104164886D01*
X109107492Y-104164886D01*
X109170563Y-104138761D01*
X109309862Y-104045684D01*
X109428326Y-103927220D01*
X109521403Y-103787921D01*
X109585516Y-103633140D01*
X109618200Y-103468825D01*
X109618200Y-103301291D01*
X109585516Y-103136976D01*
X109521403Y-102982195D01*
X109490237Y-102935552D01*
X109428326Y-102842895D01*
X109309862Y-102724431D01*
X109170560Y-102631353D01*
X109015782Y-102567242D01*
X109015774Y-102567240D01*
X108851471Y-102534558D01*
X108851467Y-102534558D01*
X108683933Y-102534558D01*
X108683928Y-102534558D01*
X108519625Y-102567240D01*
X108519617Y-102567242D01*
X108364839Y-102631353D01*
X108225537Y-102724431D01*
X108107073Y-102842895D01*
X108013995Y-102982197D01*
X107949884Y-103136975D01*
X107949882Y-103136983D01*
X107917200Y-103301286D01*
X97450785Y-103301286D01*
X97450785Y-103091686D01*
X97417531Y-102881730D01*
X97351842Y-102679561D01*
X97255336Y-102490157D01*
X97255334Y-102490154D01*
X97255333Y-102490152D01*
X97130394Y-102318186D01*
X96980077Y-102167869D01*
X96980069Y-102167863D01*
X96815489Y-102048289D01*
X96772825Y-101992962D01*
X96766846Y-101923349D01*
X96799451Y-101861553D01*
X96815484Y-101847659D01*
X96980077Y-101728077D01*
X97130389Y-101577765D01*
X97130391Y-101577761D01*
X97130394Y-101577759D01*
X97255333Y-101405793D01*
X97255332Y-101405793D01*
X97255336Y-101405789D01*
X97351842Y-101216385D01*
X97417531Y-101014216D01*
X97450785Y-100804260D01*
X97450785Y-100591686D01*
X97417531Y-100381730D01*
X97351842Y-100179561D01*
X97255336Y-99990157D01*
X97255334Y-99990154D01*
X97255333Y-99990152D01*
X97130394Y-99818186D01*
X96980077Y-99667869D01*
X96905600Y-99613759D01*
X96815489Y-99548289D01*
X96772825Y-99492962D01*
X96766846Y-99423349D01*
X96799451Y-99361553D01*
X96815484Y-99347659D01*
X96980077Y-99228077D01*
X97130389Y-99077765D01*
X97130391Y-99077761D01*
X97130394Y-99077759D01*
X97255333Y-98905793D01*
X97255332Y-98905793D01*
X97255336Y-98905789D01*
X97351842Y-98716385D01*
X97413674Y-98526086D01*
X102913400Y-98526086D01*
X102913400Y-98693629D01*
X102946082Y-98857932D01*
X102946084Y-98857940D01*
X103010195Y-99012718D01*
X103103273Y-99152020D01*
X103221737Y-99270484D01*
X103314394Y-99332395D01*
X103361037Y-99363561D01*
X103515818Y-99427674D01*
X103659124Y-99456179D01*
X103680128Y-99460357D01*
X103680132Y-99460358D01*
X103680133Y-99460358D01*
X103847668Y-99460358D01*
X103847669Y-99460357D01*
X104011982Y-99427674D01*
X104166763Y-99363561D01*
X104306062Y-99270484D01*
X104424526Y-99152020D01*
X104517603Y-99012721D01*
X104581716Y-98857940D01*
X104614400Y-98693625D01*
X104614400Y-98526091D01*
X104581716Y-98361776D01*
X104517603Y-98206995D01*
X104486437Y-98160352D01*
X104424526Y-98067695D01*
X104306062Y-97949231D01*
X104166760Y-97856153D01*
X104011982Y-97792042D01*
X104011974Y-97792040D01*
X103847671Y-97759358D01*
X103847667Y-97759358D01*
X103680133Y-97759358D01*
X103680128Y-97759358D01*
X103515825Y-97792040D01*
X103515817Y-97792042D01*
X103361039Y-97856153D01*
X103221737Y-97949231D01*
X103103273Y-98067695D01*
X103010195Y-98206997D01*
X102946084Y-98361775D01*
X102946082Y-98361783D01*
X102913400Y-98526086D01*
X97413674Y-98526086D01*
X97417531Y-98514216D01*
X97450785Y-98304260D01*
X97450785Y-98091686D01*
X97417531Y-97881730D01*
X97351842Y-97679561D01*
X97255336Y-97490157D01*
X97255334Y-97490154D01*
X97255333Y-97490152D01*
X97130394Y-97318186D01*
X96991579Y-97179371D01*
X96958094Y-97118048D01*
X96963078Y-97048356D01*
X97004950Y-96992423D01*
X97014164Y-96986151D01*
X97019616Y-96982787D01*
X97019619Y-96982787D01*
X97168941Y-96890685D01*
X97292997Y-96766629D01*
X97345828Y-96680975D01*
X112860600Y-96680975D01*
X112860600Y-96848518D01*
X112893282Y-97012821D01*
X112893284Y-97012829D01*
X112959728Y-97173238D01*
X112958630Y-97173692D01*
X112971582Y-97235913D01*
X112962543Y-97273411D01*
X112903227Y-97416611D01*
X112903225Y-97416619D01*
X112870543Y-97580922D01*
X112870543Y-97748465D01*
X112903225Y-97912768D01*
X112903227Y-97912776D01*
X112967338Y-98067554D01*
X113007175Y-98127174D01*
X113028053Y-98193852D01*
X113009568Y-98261232D01*
X113007176Y-98264955D01*
X112966467Y-98325881D01*
X112902355Y-98480660D01*
X112902353Y-98480668D01*
X112869671Y-98644971D01*
X112869671Y-98812514D01*
X112902353Y-98976817D01*
X112902355Y-98976825D01*
X112966466Y-99131603D01*
X113059544Y-99270905D01*
X113069456Y-99280817D01*
X113102941Y-99342140D01*
X113097957Y-99411832D01*
X113069456Y-99456179D01*
X113051178Y-99474456D01*
X113051175Y-99474459D01*
X112958097Y-99613761D01*
X112893986Y-99768539D01*
X112893984Y-99768547D01*
X112861302Y-99932850D01*
X112861302Y-100100393D01*
X112893984Y-100264696D01*
X112893986Y-100264704D01*
X112958099Y-100419486D01*
X112958144Y-100419570D01*
X112958154Y-100419618D01*
X112960430Y-100425113D01*
X112959387Y-100425544D01*
X112972384Y-100487974D01*
X112963345Y-100525472D01*
X112904109Y-100668481D01*
X112904106Y-100668493D01*
X112871424Y-100832796D01*
X112871424Y-101000339D01*
X112904106Y-101164642D01*
X112904108Y-101164650D01*
X112968219Y-101319428D01*
X113061297Y-101458730D01*
X113179761Y-101577194D01*
X113231013Y-101611439D01*
X113319061Y-101670271D01*
X113473842Y-101734384D01*
X113638152Y-101767067D01*
X113638156Y-101767068D01*
X113638157Y-101767068D01*
X113805692Y-101767068D01*
X113805693Y-101767067D01*
X113970006Y-101734384D01*
X114124787Y-101670271D01*
X114264086Y-101577194D01*
X114382550Y-101458730D01*
X114475627Y-101319431D01*
X114539740Y-101164650D01*
X114572424Y-101000335D01*
X114572424Y-100832801D01*
X114539740Y-100668486D01*
X114475627Y-100513705D01*
X114475624Y-100513701D01*
X114475588Y-100513632D01*
X114475578Y-100513588D01*
X114473296Y-100508077D01*
X114474340Y-100507644D01*
X114461339Y-100445231D01*
X114470376Y-100407724D01*
X114529618Y-100264704D01*
X114562302Y-100100389D01*
X114562302Y-99932855D01*
X114529618Y-99768540D01*
X114465505Y-99613759D01*
X114384791Y-99492962D01*
X114372428Y-99474459D01*
X114362516Y-99464547D01*
X114329031Y-99403224D01*
X114334015Y-99333532D01*
X114362518Y-99289183D01*
X114380797Y-99270905D01*
X114473874Y-99131606D01*
X114537987Y-98976825D01*
X114570671Y-98812510D01*
X114570671Y-98644976D01*
X114537987Y-98480661D01*
X114473874Y-98325880D01*
X114434037Y-98266260D01*
X114413159Y-98199586D01*
X114431643Y-98132206D01*
X114434019Y-98128507D01*
X114474746Y-98067557D01*
X114538859Y-97912776D01*
X114571543Y-97748461D01*
X114571543Y-97580927D01*
X114538859Y-97416612D01*
X114474746Y-97261831D01*
X114472415Y-97256203D01*
X114473516Y-97255746D01*
X114460559Y-97193547D01*
X114469598Y-97156033D01*
X114528916Y-97012829D01*
X114561600Y-96848514D01*
X114561600Y-96680980D01*
X114528916Y-96516665D01*
X114464803Y-96361884D01*
X114433637Y-96315241D01*
X114371726Y-96222584D01*
X114258055Y-96108913D01*
X186736500Y-96108913D01*
X186736500Y-96321487D01*
X186740698Y-96347989D01*
X186756976Y-96450770D01*
X186769754Y-96531443D01*
X186818341Y-96680979D01*
X186835444Y-96733614D01*
X186931951Y-96923020D01*
X187056890Y-97094986D01*
X187207213Y-97245309D01*
X187379182Y-97370250D01*
X187387946Y-97374716D01*
X187438742Y-97422691D01*
X187455536Y-97490512D01*
X187432998Y-97556647D01*
X187387946Y-97595684D01*
X187379182Y-97600149D01*
X187207213Y-97725090D01*
X187056890Y-97875413D01*
X186931951Y-98047379D01*
X186835444Y-98236785D01*
X186769753Y-98438960D01*
X186736500Y-98648913D01*
X186736500Y-98861486D01*
X186754766Y-98976817D01*
X186769754Y-99071443D01*
X186834563Y-99270905D01*
X186835444Y-99273614D01*
X186931951Y-99463020D01*
X187056890Y-99634986D01*
X187207213Y-99785309D01*
X187379182Y-99910250D01*
X187387946Y-99914716D01*
X187438742Y-99962691D01*
X187455536Y-100030512D01*
X187432998Y-100096647D01*
X187387946Y-100135684D01*
X187379182Y-100140149D01*
X187207213Y-100265090D01*
X187056890Y-100415413D01*
X186931951Y-100587379D01*
X186835444Y-100776785D01*
X186769753Y-100978960D01*
X186766367Y-101000339D01*
X186736500Y-101188913D01*
X186736500Y-101401487D01*
X186769754Y-101611443D01*
X186809700Y-101734385D01*
X186835444Y-101813614D01*
X186931951Y-102003020D01*
X187056890Y-102174986D01*
X187207213Y-102325309D01*
X187379179Y-102450248D01*
X187379181Y-102450249D01*
X187379184Y-102450251D01*
X187388493Y-102454994D01*
X187439290Y-102502966D01*
X187456087Y-102570787D01*
X187433552Y-102636922D01*
X187388505Y-102675960D01*
X187379446Y-102680576D01*
X187379440Y-102680580D01*
X187325282Y-102719927D01*
X187325282Y-102719928D01*
X187957591Y-103352237D01*
X187894007Y-103369275D01*
X187779993Y-103435101D01*
X187686901Y-103528193D01*
X187621075Y-103642207D01*
X187604037Y-103705791D01*
X186971728Y-103073482D01*
X186971727Y-103073482D01*
X186932380Y-103127639D01*
X186835904Y-103316982D01*
X186770242Y-103519069D01*
X186770242Y-103519072D01*
X186737000Y-103728953D01*
X186737000Y-103941446D01*
X186770242Y-104151327D01*
X186770242Y-104151330D01*
X186835904Y-104353417D01*
X186932375Y-104542750D01*
X186971728Y-104596916D01*
X187604037Y-103964608D01*
X187621075Y-104028193D01*
X187686901Y-104142207D01*
X187779993Y-104235299D01*
X187894007Y-104301125D01*
X187957590Y-104318162D01*
X187287370Y-104988381D01*
X187226047Y-105021866D01*
X187199698Y-105024700D01*
X187189134Y-105024700D01*
X187189123Y-105024701D01*
X187129516Y-105031108D01*
X186994671Y-105081402D01*
X186994664Y-105081406D01*
X186879455Y-105167652D01*
X186879452Y-105167655D01*
X186793206Y-105282864D01*
X186793202Y-105282871D01*
X186742908Y-105417717D01*
X186736501Y-105477316D01*
X186736501Y-105477323D01*
X186736500Y-105477335D01*
X186736500Y-107273070D01*
X186736501Y-107273076D01*
X186742908Y-107332683D01*
X186793202Y-107467528D01*
X186793206Y-107467535D01*
X186879452Y-107582744D01*
X186879455Y-107582747D01*
X186994664Y-107668993D01*
X186994671Y-107668997D01*
X187129517Y-107719291D01*
X187129516Y-107719291D01*
X187136444Y-107720035D01*
X187189127Y-107725700D01*
X188984872Y-107725699D01*
X189044483Y-107719291D01*
X189179331Y-107668996D01*
X189294546Y-107582746D01*
X189380796Y-107467531D01*
X189431091Y-107332683D01*
X189437500Y-107273073D01*
X189437499Y-105477328D01*
X189431091Y-105417717D01*
X189380796Y-105282869D01*
X189380795Y-105282868D01*
X189380793Y-105282864D01*
X189294547Y-105167655D01*
X189294544Y-105167652D01*
X189179335Y-105081406D01*
X189179328Y-105081402D01*
X189044482Y-105031108D01*
X189044483Y-105031108D01*
X188984883Y-105024701D01*
X188984881Y-105024700D01*
X188984873Y-105024700D01*
X188984865Y-105024700D01*
X188974309Y-105024700D01*
X188907270Y-105005015D01*
X188886628Y-104988381D01*
X188216408Y-104318162D01*
X188279993Y-104301125D01*
X188394007Y-104235299D01*
X188487099Y-104142207D01*
X188552925Y-104028193D01*
X188569962Y-103964609D01*
X189202270Y-104596917D01*
X189202270Y-104596916D01*
X189241622Y-104542754D01*
X189338095Y-104353417D01*
X189403757Y-104151330D01*
X189403757Y-104151327D01*
X189437000Y-103941446D01*
X189437000Y-103728953D01*
X189403757Y-103519072D01*
X189403757Y-103519069D01*
X189338095Y-103316982D01*
X189241624Y-103127649D01*
X189202270Y-103073482D01*
X189202269Y-103073482D01*
X188569962Y-103705790D01*
X188552925Y-103642207D01*
X188487099Y-103528193D01*
X188394007Y-103435101D01*
X188279993Y-103369275D01*
X188216409Y-103352237D01*
X188848716Y-102719928D01*
X188794547Y-102680573D01*
X188794547Y-102680572D01*
X188785500Y-102675963D01*
X188734706Y-102627988D01*
X188717912Y-102560166D01*
X188740451Y-102494032D01*
X188785508Y-102454993D01*
X188794816Y-102450251D01*
X188874007Y-102392715D01*
X188966786Y-102325309D01*
X188966788Y-102325306D01*
X188966792Y-102325304D01*
X189117104Y-102174992D01*
X189117106Y-102174988D01*
X189117109Y-102174986D01*
X189242048Y-102003020D01*
X189242047Y-102003020D01*
X189242051Y-102003016D01*
X189338557Y-101813612D01*
X189404246Y-101611443D01*
X189437500Y-101401487D01*
X189437500Y-101188913D01*
X189404246Y-100978957D01*
X189338557Y-100776788D01*
X189242051Y-100587384D01*
X189242049Y-100587381D01*
X189242048Y-100587379D01*
X189117109Y-100415413D01*
X188966786Y-100265090D01*
X188794820Y-100140151D01*
X188794115Y-100139791D01*
X188786054Y-100135685D01*
X188735259Y-100087712D01*
X188718463Y-100019892D01*
X188740999Y-99953756D01*
X188786054Y-99914715D01*
X188794816Y-99910251D01*
X188816789Y-99894286D01*
X188966786Y-99785309D01*
X188966788Y-99785306D01*
X188966792Y-99785304D01*
X189117104Y-99634992D01*
X189117106Y-99634988D01*
X189117109Y-99634986D01*
X189226086Y-99484989D01*
X189242051Y-99463016D01*
X189338557Y-99273612D01*
X189404246Y-99071443D01*
X189437500Y-98861487D01*
X189437500Y-98648913D01*
X189404246Y-98438957D01*
X189338557Y-98236788D01*
X189242051Y-98047384D01*
X189242049Y-98047381D01*
X189242048Y-98047379D01*
X189117109Y-97875413D01*
X188966786Y-97725090D01*
X188794820Y-97600151D01*
X188794115Y-97599791D01*
X188786054Y-97595685D01*
X188735259Y-97547712D01*
X188718463Y-97479892D01*
X188740999Y-97413756D01*
X188786054Y-97374715D01*
X188794816Y-97370251D01*
X188928106Y-97273411D01*
X188966786Y-97245309D01*
X188966788Y-97245306D01*
X188966792Y-97245304D01*
X189117104Y-97094992D01*
X189117106Y-97094988D01*
X189117109Y-97094986D01*
X189242048Y-96923020D01*
X189242047Y-96923020D01*
X189242051Y-96923016D01*
X189338557Y-96733612D01*
X189404246Y-96531443D01*
X189437500Y-96321487D01*
X189437500Y-96108913D01*
X189404246Y-95898957D01*
X189338557Y-95696788D01*
X189242051Y-95507384D01*
X189242049Y-95507381D01*
X189242048Y-95507379D01*
X189117109Y-95335413D01*
X188966786Y-95185090D01*
X188794820Y-95060151D01*
X188605414Y-94963644D01*
X188605413Y-94963643D01*
X188605412Y-94963643D01*
X188403243Y-94897954D01*
X188403241Y-94897953D01*
X188403240Y-94897953D01*
X188241957Y-94872408D01*
X188193287Y-94864700D01*
X187980713Y-94864700D01*
X187932042Y-94872408D01*
X187770760Y-94897953D01*
X187568585Y-94963644D01*
X187379179Y-95060151D01*
X187207213Y-95185090D01*
X187056890Y-95335413D01*
X186931951Y-95507379D01*
X186835444Y-95696785D01*
X186769753Y-95898960D01*
X186752001Y-96011042D01*
X186736500Y-96108913D01*
X114258055Y-96108913D01*
X114253262Y-96104120D01*
X114113960Y-96011042D01*
X113959182Y-95946931D01*
X113959174Y-95946929D01*
X113794871Y-95914247D01*
X113794867Y-95914247D01*
X113627333Y-95914247D01*
X113627328Y-95914247D01*
X113463025Y-95946929D01*
X113463017Y-95946931D01*
X113308239Y-96011042D01*
X113168937Y-96104120D01*
X113050473Y-96222584D01*
X112957395Y-96361886D01*
X112893284Y-96516664D01*
X112893282Y-96516672D01*
X112860600Y-96680975D01*
X97345828Y-96680975D01*
X97385099Y-96617307D01*
X97440284Y-96450770D01*
X97450785Y-96347982D01*
X97450784Y-95047965D01*
X97440284Y-94945176D01*
X97385099Y-94778639D01*
X97292997Y-94629317D01*
X97168941Y-94505261D01*
X97019619Y-94413159D01*
X96853082Y-94357974D01*
X96853080Y-94357973D01*
X96750295Y-94347473D01*
X95200283Y-94347473D01*
X95200266Y-94347474D01*
X95097488Y-94357973D01*
X95097485Y-94357974D01*
X94930953Y-94413158D01*
X94930948Y-94413160D01*
X94781627Y-94505262D01*
X94657574Y-94629315D01*
X94565472Y-94778636D01*
X94565471Y-94778639D01*
X94510286Y-94945176D01*
X94510286Y-94945177D01*
X94510285Y-94945177D01*
X94499785Y-95047956D01*
X91686500Y-95047956D01*
X91686500Y-93128571D01*
X112666471Y-93128571D01*
X112666471Y-93296114D01*
X112699153Y-93460417D01*
X112699155Y-93460425D01*
X112763266Y-93615203D01*
X112856344Y-93754505D01*
X112974808Y-93872969D01*
X113032275Y-93911367D01*
X113114108Y-93966046D01*
X113268889Y-94030159D01*
X113433199Y-94062842D01*
X113433203Y-94062843D01*
X113433204Y-94062843D01*
X113600739Y-94062843D01*
X113600740Y-94062842D01*
X113765053Y-94030159D01*
X113919834Y-93966046D01*
X114059133Y-93872969D01*
X114177597Y-93754505D01*
X114184731Y-93743828D01*
X131573300Y-93743828D01*
X131573300Y-93911371D01*
X131605982Y-94075674D01*
X131605984Y-94075682D01*
X131670095Y-94230460D01*
X131763173Y-94369762D01*
X131881637Y-94488226D01*
X131974294Y-94550137D01*
X132020937Y-94581303D01*
X132175718Y-94645416D01*
X132274064Y-94664978D01*
X132340028Y-94678099D01*
X132340032Y-94678100D01*
X132340033Y-94678100D01*
X132507568Y-94678100D01*
X132507569Y-94678099D01*
X132671882Y-94645416D01*
X132826663Y-94581303D01*
X132965962Y-94488226D01*
X133040690Y-94413498D01*
X164608853Y-94413498D01*
X164608853Y-94581041D01*
X164641535Y-94745344D01*
X164641537Y-94745352D01*
X164705648Y-94900130D01*
X164798726Y-95039432D01*
X164917190Y-95157896D01*
X165009847Y-95219807D01*
X165056490Y-95250973D01*
X165211271Y-95315086D01*
X165313463Y-95335413D01*
X165375581Y-95347769D01*
X165375585Y-95347770D01*
X165375586Y-95347770D01*
X165543121Y-95347770D01*
X165543122Y-95347769D01*
X165707435Y-95315086D01*
X165862216Y-95250973D01*
X166001515Y-95157896D01*
X166119979Y-95039432D01*
X166213056Y-94900133D01*
X166277169Y-94745352D01*
X166277170Y-94745342D01*
X166278938Y-94739520D01*
X166280296Y-94739932D01*
X166309363Y-94684343D01*
X166370073Y-94649759D01*
X166374377Y-94648822D01*
X166403782Y-94642974D01*
X166558563Y-94578861D01*
X166697862Y-94485784D01*
X166816326Y-94367320D01*
X166818572Y-94363958D01*
X178489900Y-94363958D01*
X180389900Y-94363958D01*
X180389900Y-92273958D01*
X178489900Y-92273958D01*
X178489900Y-94363958D01*
X166818572Y-94363958D01*
X166909403Y-94228021D01*
X166973516Y-94073240D01*
X167006200Y-93908925D01*
X167006200Y-93776310D01*
X167025885Y-93709271D01*
X167078689Y-93663516D01*
X167147847Y-93653572D01*
X167154392Y-93654693D01*
X167158815Y-93655572D01*
X167158818Y-93655574D01*
X167323131Y-93688257D01*
X167323132Y-93688258D01*
X167323133Y-93688258D01*
X167490668Y-93688258D01*
X167490669Y-93688257D01*
X167654982Y-93655574D01*
X167809763Y-93591461D01*
X167949062Y-93498384D01*
X168067526Y-93379920D01*
X168150737Y-93255386D01*
X171960000Y-93255386D01*
X171960000Y-93422929D01*
X171992682Y-93587232D01*
X171992684Y-93587240D01*
X172056795Y-93742018D01*
X172149873Y-93881320D01*
X172268337Y-93999784D01*
X172360994Y-94061695D01*
X172407637Y-94092861D01*
X172562418Y-94156974D01*
X172726728Y-94189657D01*
X172726732Y-94189658D01*
X172726733Y-94189658D01*
X172894268Y-94189658D01*
X172894269Y-94189657D01*
X173058582Y-94156974D01*
X173213363Y-94092861D01*
X173352662Y-93999784D01*
X173471126Y-93881320D01*
X173564203Y-93742021D01*
X173628316Y-93587240D01*
X173661000Y-93422925D01*
X173661000Y-93255391D01*
X173628316Y-93091076D01*
X173564203Y-92936295D01*
X173479468Y-92809480D01*
X173471126Y-92796995D01*
X173352662Y-92678531D01*
X173213360Y-92585453D01*
X173058582Y-92521342D01*
X173058574Y-92521340D01*
X172894271Y-92488658D01*
X172894267Y-92488658D01*
X172726733Y-92488658D01*
X172726728Y-92488658D01*
X172562425Y-92521340D01*
X172562417Y-92521342D01*
X172407639Y-92585453D01*
X172268337Y-92678531D01*
X172149873Y-92796995D01*
X172056795Y-92936297D01*
X171992684Y-93091075D01*
X171992682Y-93091083D01*
X171960000Y-93255386D01*
X168150737Y-93255386D01*
X168160603Y-93240621D01*
X168224716Y-93085840D01*
X168257400Y-92921525D01*
X168257400Y-92753991D01*
X168224716Y-92589676D01*
X168160603Y-92434895D01*
X168160599Y-92434890D01*
X168157730Y-92429520D01*
X168158573Y-92429069D01*
X168156094Y-92426406D01*
X168151231Y-92399452D01*
X168143002Y-92373328D01*
X168144799Y-92363803D01*
X168143689Y-92357647D01*
X168152417Y-92323449D01*
X168155265Y-92316575D01*
X168218116Y-92164840D01*
X168250800Y-92000525D01*
X168250800Y-91832991D01*
X168218116Y-91668676D01*
X168154003Y-91513895D01*
X168154000Y-91513891D01*
X168151134Y-91508528D01*
X168152717Y-91507681D01*
X168134363Y-91449084D01*
X168144353Y-91398049D01*
X168148866Y-91387508D01*
X168154003Y-91379821D01*
X168218116Y-91225040D01*
X168250800Y-91060725D01*
X168250800Y-90893191D01*
X168218116Y-90728876D01*
X168154003Y-90574095D01*
X168095839Y-90487047D01*
X168074962Y-90420372D01*
X168093446Y-90352991D01*
X168095840Y-90349267D01*
X168105972Y-90334104D01*
X168154003Y-90262221D01*
X168218116Y-90107440D01*
X168250800Y-89943125D01*
X168250800Y-89775591D01*
X168218116Y-89611276D01*
X168157377Y-89464641D01*
X168154004Y-89456497D01*
X168060926Y-89317195D01*
X167962830Y-89219099D01*
X167929345Y-89157776D01*
X167928894Y-89107227D01*
X167935655Y-89073238D01*
X167957100Y-88965425D01*
X167957100Y-88797891D01*
X167924416Y-88633576D01*
X167860303Y-88478795D01*
X167804763Y-88395674D01*
X167767226Y-88339495D01*
X167648762Y-88221031D01*
X167509460Y-88127953D01*
X167354682Y-88063842D01*
X167354674Y-88063840D01*
X167190371Y-88031158D01*
X167190367Y-88031158D01*
X167022833Y-88031158D01*
X167022828Y-88031158D01*
X166858525Y-88063840D01*
X166858517Y-88063842D01*
X166703739Y-88127953D01*
X166564437Y-88221031D01*
X166445973Y-88339495D01*
X166349513Y-88483860D01*
X166347458Y-88482486D01*
X166306082Y-88524588D01*
X166237941Y-88540032D01*
X166233560Y-88539679D01*
X166228269Y-88539158D01*
X166228267Y-88539158D01*
X166060733Y-88539158D01*
X166060728Y-88539158D01*
X165896425Y-88571840D01*
X165896417Y-88571842D01*
X165741639Y-88635953D01*
X165602337Y-88729031D01*
X165483873Y-88847495D01*
X165390795Y-88986797D01*
X165326684Y-89141575D01*
X165326682Y-89141583D01*
X165294000Y-89305886D01*
X165294000Y-89473429D01*
X165326682Y-89637732D01*
X165326684Y-89637740D01*
X165390795Y-89792518D01*
X165483873Y-89931820D01*
X165602337Y-90050284D01*
X165665584Y-90092544D01*
X165741637Y-90143361D01*
X165896418Y-90207474D01*
X166060728Y-90240157D01*
X166060732Y-90240158D01*
X166060733Y-90240158D01*
X166228268Y-90240158D01*
X166228269Y-90240157D01*
X166392582Y-90207474D01*
X166475481Y-90173135D01*
X166544948Y-90165667D01*
X166607427Y-90196941D01*
X166629100Y-90223631D01*
X166633922Y-90231623D01*
X166646597Y-90262221D01*
X166706347Y-90351644D01*
X166707825Y-90354092D01*
X166716020Y-90385231D01*
X166725637Y-90415945D01*
X166724854Y-90418797D01*
X166725608Y-90421661D01*
X166715665Y-90452292D01*
X166707152Y-90483325D01*
X166704760Y-90487048D01*
X166646595Y-90574098D01*
X166582484Y-90728875D01*
X166582482Y-90728883D01*
X166549800Y-90893186D01*
X166549800Y-91060729D01*
X166582482Y-91225032D01*
X166582484Y-91225040D01*
X166646597Y-91379822D01*
X166649467Y-91385191D01*
X166647885Y-91386036D01*
X166666236Y-91444650D01*
X166648807Y-91508172D01*
X166649467Y-91508525D01*
X166647912Y-91511433D01*
X166647749Y-91512029D01*
X166646828Y-91513460D01*
X166646597Y-91513893D01*
X166582484Y-91668675D01*
X166582482Y-91668683D01*
X166549800Y-91832986D01*
X166549800Y-92000529D01*
X166582482Y-92164832D01*
X166582484Y-92164840D01*
X166646597Y-92319622D01*
X166649467Y-92324991D01*
X166647008Y-92326305D01*
X166664206Y-92381701D01*
X166654782Y-92431065D01*
X166589085Y-92589671D01*
X166589082Y-92589683D01*
X166556400Y-92753986D01*
X166556400Y-92886605D01*
X166536715Y-92953644D01*
X166483911Y-92999399D01*
X166414753Y-93009343D01*
X166408209Y-93008222D01*
X166239471Y-92974658D01*
X166239467Y-92974658D01*
X166071933Y-92974658D01*
X166071928Y-92974658D01*
X165907625Y-93007340D01*
X165907617Y-93007342D01*
X165752839Y-93071453D01*
X165613537Y-93164531D01*
X165495073Y-93282995D01*
X165401995Y-93422297D01*
X165337883Y-93577077D01*
X165336114Y-93582910D01*
X165334760Y-93582499D01*
X165305670Y-93638103D01*
X165244952Y-93672673D01*
X165240637Y-93673612D01*
X165211273Y-93679453D01*
X165211270Y-93679454D01*
X165056492Y-93743565D01*
X164917190Y-93836643D01*
X164798726Y-93955107D01*
X164705648Y-94094409D01*
X164641537Y-94249187D01*
X164641535Y-94249195D01*
X164608853Y-94413498D01*
X133040690Y-94413498D01*
X133084426Y-94369762D01*
X133177503Y-94230463D01*
X133241616Y-94075682D01*
X133274300Y-93911367D01*
X133274300Y-93743833D01*
X133241616Y-93579518D01*
X133177503Y-93424737D01*
X133174197Y-93419789D01*
X133132233Y-93356986D01*
X161419000Y-93356986D01*
X161419000Y-93524529D01*
X161451682Y-93688832D01*
X161451684Y-93688840D01*
X161515795Y-93843618D01*
X161608873Y-93982920D01*
X161727337Y-94101384D01*
X161810532Y-94156973D01*
X161866637Y-94194461D01*
X162021418Y-94258574D01*
X162185728Y-94291257D01*
X162185732Y-94291258D01*
X162185733Y-94291258D01*
X162353268Y-94291258D01*
X162353269Y-94291257D01*
X162361560Y-94289608D01*
X162380739Y-94285794D01*
X162441538Y-94273699D01*
X162517582Y-94258574D01*
X162672363Y-94194461D01*
X162811662Y-94101384D01*
X162930126Y-93982920D01*
X163023203Y-93843621D01*
X163087316Y-93688840D01*
X163120000Y-93524525D01*
X163120000Y-93356991D01*
X163087316Y-93192676D01*
X163023203Y-93037895D01*
X162980949Y-92974658D01*
X162930126Y-92898595D01*
X162811662Y-92780131D01*
X162672360Y-92687053D01*
X162517582Y-92622942D01*
X162517574Y-92622940D01*
X162353271Y-92590258D01*
X162353267Y-92590258D01*
X162185733Y-92590258D01*
X162185728Y-92590258D01*
X162021425Y-92622940D01*
X162021417Y-92622942D01*
X161866639Y-92687053D01*
X161727337Y-92780131D01*
X161608873Y-92898595D01*
X161515795Y-93037897D01*
X161451684Y-93192675D01*
X161451682Y-93192683D01*
X161419000Y-93356986D01*
X133132233Y-93356986D01*
X133084429Y-93285442D01*
X133084423Y-93285434D01*
X132965962Y-93166973D01*
X132826660Y-93073895D01*
X132671882Y-93009784D01*
X132671874Y-93009782D01*
X132507571Y-92977100D01*
X132507567Y-92977100D01*
X132340033Y-92977100D01*
X132340028Y-92977100D01*
X132175725Y-93009782D01*
X132175717Y-93009784D01*
X132020939Y-93073895D01*
X131881637Y-93166973D01*
X131763173Y-93285437D01*
X131670095Y-93424739D01*
X131605984Y-93579517D01*
X131605982Y-93579525D01*
X131573300Y-93743828D01*
X114184731Y-93743828D01*
X114270674Y-93615206D01*
X114334787Y-93460425D01*
X114367471Y-93296110D01*
X114367471Y-93128576D01*
X114334787Y-92964261D01*
X114285198Y-92844544D01*
X114270675Y-92809482D01*
X114251063Y-92780131D01*
X114188871Y-92687053D01*
X114177597Y-92670180D01*
X114059133Y-92551716D01*
X113919831Y-92458638D01*
X113765053Y-92394527D01*
X113765045Y-92394525D01*
X113600742Y-92361843D01*
X113600738Y-92361843D01*
X113433204Y-92361843D01*
X113433199Y-92361843D01*
X113268896Y-92394525D01*
X113268888Y-92394527D01*
X113114110Y-92458638D01*
X112974808Y-92551716D01*
X112856344Y-92670180D01*
X112763266Y-92809482D01*
X112699155Y-92964260D01*
X112699153Y-92964268D01*
X112666471Y-93128571D01*
X91686500Y-93128571D01*
X91686500Y-88645486D01*
X122187100Y-88645486D01*
X122187100Y-88813029D01*
X122219782Y-88977332D01*
X122219784Y-88977340D01*
X122283895Y-89132118D01*
X122376973Y-89271420D01*
X122394830Y-89289277D01*
X122428315Y-89350600D01*
X122423331Y-89420292D01*
X122394830Y-89464639D01*
X122376976Y-89482492D01*
X122376973Y-89482495D01*
X122283895Y-89621797D01*
X122219784Y-89776575D01*
X122219782Y-89776583D01*
X122187100Y-89940886D01*
X122187100Y-90108429D01*
X122219782Y-90272732D01*
X122219784Y-90272740D01*
X122283895Y-90427518D01*
X122376973Y-90566820D01*
X122382130Y-90571977D01*
X122415615Y-90633300D01*
X122410631Y-90702992D01*
X122382130Y-90747339D01*
X122376976Y-90752492D01*
X122376973Y-90752495D01*
X122283895Y-90891797D01*
X122219784Y-91046575D01*
X122219782Y-91046583D01*
X122187100Y-91210886D01*
X122187100Y-91378429D01*
X122219782Y-91542732D01*
X122219784Y-91542740D01*
X122283895Y-91697518D01*
X122376973Y-91836820D01*
X122382130Y-91841977D01*
X122415615Y-91903300D01*
X122410631Y-91972992D01*
X122382130Y-92017339D01*
X122376976Y-92022492D01*
X122376973Y-92022495D01*
X122283895Y-92161797D01*
X122219784Y-92316575D01*
X122219782Y-92316583D01*
X122187100Y-92480886D01*
X122187100Y-92648429D01*
X122219782Y-92812732D01*
X122219784Y-92812740D01*
X122283895Y-92967518D01*
X122376973Y-93106820D01*
X122495437Y-93225284D01*
X122540496Y-93255391D01*
X122634737Y-93318361D01*
X122789518Y-93382474D01*
X122953828Y-93415157D01*
X122953832Y-93415158D01*
X122953833Y-93415158D01*
X123121368Y-93415158D01*
X123121369Y-93415157D01*
X123285682Y-93382474D01*
X123440463Y-93318361D01*
X123579762Y-93225284D01*
X123698226Y-93106820D01*
X123791303Y-92967521D01*
X123855416Y-92812740D01*
X123888100Y-92648425D01*
X123888100Y-92480891D01*
X123855416Y-92316576D01*
X123791303Y-92161795D01*
X123698226Y-92022496D01*
X123693071Y-92017341D01*
X123659585Y-91956022D01*
X123664566Y-91886331D01*
X123693071Y-91841974D01*
X123698226Y-91836820D01*
X123791303Y-91697521D01*
X123855416Y-91542740D01*
X123888100Y-91378425D01*
X123888100Y-91210891D01*
X123855416Y-91046576D01*
X123791303Y-90891795D01*
X123698226Y-90752496D01*
X123693071Y-90747341D01*
X123659585Y-90686022D01*
X123664566Y-90616331D01*
X123693071Y-90571974D01*
X123698226Y-90566820D01*
X123791303Y-90427521D01*
X123855416Y-90272740D01*
X123888100Y-90108425D01*
X123888100Y-89940891D01*
X123855416Y-89776576D01*
X123791303Y-89621795D01*
X123723484Y-89520297D01*
X123698226Y-89482495D01*
X123698224Y-89482493D01*
X123680371Y-89464641D01*
X123646884Y-89403319D01*
X123651867Y-89333627D01*
X123680371Y-89289275D01*
X123698226Y-89271420D01*
X123733186Y-89219099D01*
X123791303Y-89132121D01*
X123855416Y-88977340D01*
X123888100Y-88813025D01*
X123888100Y-88645491D01*
X123855416Y-88481176D01*
X123794933Y-88335158D01*
X123791304Y-88326397D01*
X123698226Y-88187095D01*
X123579762Y-88068631D01*
X123440460Y-87975553D01*
X123285682Y-87911442D01*
X123285674Y-87911440D01*
X123121371Y-87878758D01*
X123121367Y-87878758D01*
X122953833Y-87878758D01*
X122953828Y-87878758D01*
X122789525Y-87911440D01*
X122789517Y-87911442D01*
X122634739Y-87975553D01*
X122495437Y-88068631D01*
X122376973Y-88187095D01*
X122283895Y-88326397D01*
X122219784Y-88481175D01*
X122219782Y-88481183D01*
X122187100Y-88645486D01*
X91686500Y-88645486D01*
X91686500Y-86130886D01*
X131534300Y-86130886D01*
X131534300Y-86298429D01*
X131566982Y-86462732D01*
X131566984Y-86462740D01*
X131631095Y-86617518D01*
X131724173Y-86756820D01*
X131729330Y-86761977D01*
X131762815Y-86823300D01*
X131757831Y-86892992D01*
X131729330Y-86937339D01*
X131724176Y-86942492D01*
X131724173Y-86942495D01*
X131631095Y-87081797D01*
X131566984Y-87236575D01*
X131566982Y-87236583D01*
X131534300Y-87400886D01*
X131534300Y-87568429D01*
X131566982Y-87732732D01*
X131566984Y-87732740D01*
X131631095Y-87887518D01*
X131724173Y-88026820D01*
X131842637Y-88145284D01*
X131933910Y-88206270D01*
X131981937Y-88238361D01*
X132136718Y-88302474D01*
X132301028Y-88335157D01*
X132301032Y-88335158D01*
X132301033Y-88335158D01*
X132468568Y-88335158D01*
X132468569Y-88335157D01*
X132632882Y-88302474D01*
X132787663Y-88238361D01*
X132926962Y-88145284D01*
X133045426Y-88026820D01*
X133138503Y-87887521D01*
X133202616Y-87732740D01*
X133235300Y-87568425D01*
X133235300Y-87400891D01*
X133202616Y-87236576D01*
X133138503Y-87081795D01*
X133045426Y-86942496D01*
X133040271Y-86937341D01*
X133006785Y-86876022D01*
X133011766Y-86806331D01*
X133040271Y-86761974D01*
X133045426Y-86756820D01*
X133138503Y-86617521D01*
X133202616Y-86462740D01*
X133235300Y-86298425D01*
X133235300Y-86130891D01*
X133202616Y-85966576D01*
X133138503Y-85811795D01*
X133107337Y-85765152D01*
X133045426Y-85672495D01*
X132926962Y-85554031D01*
X132787660Y-85460953D01*
X132632882Y-85396842D01*
X132632874Y-85396840D01*
X132468571Y-85364158D01*
X132468567Y-85364158D01*
X132301033Y-85364158D01*
X132301028Y-85364158D01*
X132136725Y-85396840D01*
X132136717Y-85396842D01*
X131981939Y-85460953D01*
X131842637Y-85554031D01*
X131724173Y-85672495D01*
X131631095Y-85811797D01*
X131566984Y-85966575D01*
X131566982Y-85966583D01*
X131534300Y-86130886D01*
X91686500Y-86130886D01*
X91686500Y-82757328D01*
X114431212Y-82757328D01*
X114431212Y-82961963D01*
X114463221Y-83164063D01*
X114526456Y-83358677D01*
X114619353Y-83540996D01*
X114619359Y-83541005D01*
X114651735Y-83585567D01*
X114651736Y-83585568D01*
X115331212Y-82906092D01*
X115331212Y-82912307D01*
X115358471Y-83014040D01*
X115411132Y-83105252D01*
X115485606Y-83179726D01*
X115576818Y-83232387D01*
X115678551Y-83259646D01*
X115684764Y-83259646D01*
X115005288Y-83939120D01*
X115049862Y-83971505D01*
X115232180Y-84064401D01*
X115426794Y-84127636D01*
X115628895Y-84159646D01*
X115833529Y-84159646D01*
X116035629Y-84127636D01*
X116230243Y-84064401D01*
X116412553Y-83971509D01*
X116412561Y-83971504D01*
X116482764Y-83920498D01*
X116548570Y-83897017D01*
X116616624Y-83912842D01*
X116643332Y-83933134D01*
X116712556Y-84002358D01*
X116861878Y-84094460D01*
X117028415Y-84149645D01*
X117131203Y-84160146D01*
X118331220Y-84160145D01*
X118434009Y-84149645D01*
X118600546Y-84094460D01*
X118749868Y-84002358D01*
X118873924Y-83878302D01*
X118966026Y-83728980D01*
X119021211Y-83562443D01*
X119031712Y-83459655D01*
X119031711Y-83069986D01*
X168429400Y-83069986D01*
X168429400Y-83237529D01*
X168462082Y-83401832D01*
X168462084Y-83401840D01*
X168526195Y-83556618D01*
X168619273Y-83695920D01*
X168737737Y-83814384D01*
X168830394Y-83876295D01*
X168877037Y-83907461D01*
X168877038Y-83907461D01*
X168877039Y-83907462D01*
X168908511Y-83920498D01*
X169031818Y-83971574D01*
X169186571Y-84002356D01*
X169196128Y-84004257D01*
X169196132Y-84004258D01*
X169196133Y-84004258D01*
X169363668Y-84004258D01*
X169363669Y-84004257D01*
X169527982Y-83971574D01*
X169682763Y-83907461D01*
X169822062Y-83814384D01*
X169940526Y-83695920D01*
X170033603Y-83556621D01*
X170097716Y-83401840D01*
X170130400Y-83237525D01*
X170130400Y-83069991D01*
X170097716Y-82905676D01*
X170048127Y-82785959D01*
X170033604Y-82750897D01*
X169940526Y-82611595D01*
X169822062Y-82493131D01*
X169682760Y-82400053D01*
X169527982Y-82335942D01*
X169527974Y-82335940D01*
X169363671Y-82303258D01*
X169363667Y-82303258D01*
X169196133Y-82303258D01*
X169196128Y-82303258D01*
X169031825Y-82335940D01*
X169031817Y-82335942D01*
X168877039Y-82400053D01*
X168737737Y-82493131D01*
X168619273Y-82611595D01*
X168526195Y-82750897D01*
X168462084Y-82905675D01*
X168462082Y-82905683D01*
X168429400Y-83069986D01*
X119031711Y-83069986D01*
X119031711Y-82859646D01*
X119031711Y-82259644D01*
X119031710Y-82259627D01*
X119021211Y-82156849D01*
X119021210Y-82156846D01*
X119013548Y-82133723D01*
X118966026Y-81990312D01*
X118873924Y-81840990D01*
X118749868Y-81716934D01*
X118641958Y-81650375D01*
X118600548Y-81624833D01*
X118600543Y-81624831D01*
X118582895Y-81618983D01*
X118434009Y-81569647D01*
X118434007Y-81569646D01*
X118331222Y-81559146D01*
X117131210Y-81559146D01*
X117131193Y-81559147D01*
X117028415Y-81569646D01*
X117028412Y-81569647D01*
X116861880Y-81624831D01*
X116861875Y-81624833D01*
X116712557Y-81716933D01*
X116643333Y-81786157D01*
X116582009Y-81819641D01*
X116512318Y-81814656D01*
X116482767Y-81798793D01*
X116412564Y-81747788D01*
X116230243Y-81654890D01*
X116035629Y-81591655D01*
X115833529Y-81559646D01*
X115628895Y-81559646D01*
X115426794Y-81591655D01*
X115232180Y-81654890D01*
X115049856Y-81747789D01*
X115005289Y-81780169D01*
X115005289Y-81780170D01*
X115684765Y-82459646D01*
X115678551Y-82459646D01*
X115576818Y-82486905D01*
X115485606Y-82539566D01*
X115411132Y-82614040D01*
X115358471Y-82705252D01*
X115331212Y-82806985D01*
X115331212Y-82813199D01*
X114651736Y-82133723D01*
X114651735Y-82133723D01*
X114619355Y-82178290D01*
X114526456Y-82360614D01*
X114463221Y-82555228D01*
X114431212Y-82757328D01*
X91686500Y-82757328D01*
X91686500Y-80942228D01*
X184899700Y-80942228D01*
X184899700Y-81109771D01*
X184932382Y-81274074D01*
X184932384Y-81274082D01*
X184996495Y-81428860D01*
X185089573Y-81568162D01*
X185208037Y-81686626D01*
X185253398Y-81716935D01*
X185347337Y-81779703D01*
X185502118Y-81843816D01*
X185666428Y-81876499D01*
X185666432Y-81876500D01*
X185666433Y-81876500D01*
X185833968Y-81876500D01*
X185833969Y-81876499D01*
X185998282Y-81843816D01*
X186153063Y-81779703D01*
X186257391Y-81709993D01*
X186787300Y-81709993D01*
X186787300Y-83505728D01*
X186787301Y-83505734D01*
X186793708Y-83565341D01*
X186844002Y-83700186D01*
X186844006Y-83700193D01*
X186930252Y-83815402D01*
X186930255Y-83815405D01*
X187045464Y-83901651D01*
X187045471Y-83901655D01*
X187176882Y-83950668D01*
X187232816Y-83992539D01*
X187257233Y-84058003D01*
X187242382Y-84126276D01*
X187221231Y-84154531D01*
X187107689Y-84268073D01*
X186982751Y-84440037D01*
X186886244Y-84629443D01*
X186820553Y-84831618D01*
X186787300Y-85041571D01*
X186787300Y-85254144D01*
X186820055Y-85460955D01*
X186820554Y-85464101D01*
X186849774Y-85554032D01*
X186886244Y-85666272D01*
X186982751Y-85855678D01*
X187107690Y-86027644D01*
X187258013Y-86177967D01*
X187429982Y-86302908D01*
X187438746Y-86307374D01*
X187489542Y-86355349D01*
X187506336Y-86423170D01*
X187483798Y-86489305D01*
X187438746Y-86528342D01*
X187429982Y-86532807D01*
X187258013Y-86657748D01*
X187107690Y-86808071D01*
X186982751Y-86980037D01*
X186886244Y-87169443D01*
X186820553Y-87371618D01*
X186787300Y-87581571D01*
X186787300Y-87794144D01*
X186816032Y-87975555D01*
X186820554Y-88004101D01*
X186866427Y-88145284D01*
X186886244Y-88206272D01*
X186982751Y-88395678D01*
X187107690Y-88567644D01*
X187258013Y-88717967D01*
X187429979Y-88842906D01*
X187429981Y-88842907D01*
X187429984Y-88842909D01*
X187439293Y-88847652D01*
X187490090Y-88895624D01*
X187506887Y-88963445D01*
X187484352Y-89029580D01*
X187439305Y-89068618D01*
X187430246Y-89073234D01*
X187430240Y-89073238D01*
X187376082Y-89112585D01*
X187376082Y-89112586D01*
X188008391Y-89744895D01*
X187944807Y-89761933D01*
X187830793Y-89827759D01*
X187737701Y-89920851D01*
X187671875Y-90034865D01*
X187654837Y-90098449D01*
X187022528Y-89466140D01*
X187022527Y-89466140D01*
X186983180Y-89520297D01*
X186886704Y-89709640D01*
X186821042Y-89911727D01*
X186821042Y-89911730D01*
X186787800Y-90121611D01*
X186787800Y-90334104D01*
X186821042Y-90543985D01*
X186821042Y-90543988D01*
X186886704Y-90746075D01*
X186983175Y-90935408D01*
X187022528Y-90989574D01*
X187654837Y-90357266D01*
X187671875Y-90420851D01*
X187737701Y-90534865D01*
X187830793Y-90627957D01*
X187944807Y-90693783D01*
X188008390Y-90710820D01*
X187376082Y-91343127D01*
X187376082Y-91343128D01*
X187430249Y-91382482D01*
X187619582Y-91478953D01*
X187821670Y-91544615D01*
X188031554Y-91577858D01*
X188244046Y-91577858D01*
X188453927Y-91544615D01*
X188453930Y-91544615D01*
X188656017Y-91478953D01*
X188845354Y-91382480D01*
X188899516Y-91343128D01*
X188899517Y-91343128D01*
X188267208Y-90710820D01*
X188330793Y-90693783D01*
X188444807Y-90627957D01*
X188537899Y-90534865D01*
X188603725Y-90420851D01*
X188620762Y-90357266D01*
X189253070Y-90989575D01*
X189253070Y-90989574D01*
X189292422Y-90935412D01*
X189388895Y-90746075D01*
X189454557Y-90543988D01*
X189454557Y-90543985D01*
X189487800Y-90334104D01*
X189487800Y-90121611D01*
X189454557Y-89911730D01*
X189454557Y-89911727D01*
X189388895Y-89709640D01*
X189292424Y-89520307D01*
X189253070Y-89466140D01*
X189253069Y-89466140D01*
X188620762Y-90098448D01*
X188603725Y-90034865D01*
X188537899Y-89920851D01*
X188444807Y-89827759D01*
X188330793Y-89761933D01*
X188267209Y-89744895D01*
X188899516Y-89112586D01*
X188845347Y-89073231D01*
X188845347Y-89073230D01*
X188836300Y-89068621D01*
X188785506Y-89020646D01*
X188768712Y-88952824D01*
X188791251Y-88886690D01*
X188836308Y-88847651D01*
X188845616Y-88842909D01*
X188924807Y-88785373D01*
X189017586Y-88717967D01*
X189017588Y-88717964D01*
X189017592Y-88717962D01*
X189167904Y-88567650D01*
X189167906Y-88567646D01*
X189167909Y-88567644D01*
X189292848Y-88395678D01*
X189292847Y-88395678D01*
X189292851Y-88395674D01*
X189389357Y-88206270D01*
X189455046Y-88004101D01*
X189488300Y-87794145D01*
X189488300Y-87581571D01*
X189455046Y-87371615D01*
X189389357Y-87169446D01*
X189292851Y-86980042D01*
X189292849Y-86980039D01*
X189292848Y-86980037D01*
X189167909Y-86808071D01*
X189017586Y-86657748D01*
X188845620Y-86532809D01*
X188844915Y-86532449D01*
X188836854Y-86528343D01*
X188786059Y-86480370D01*
X188769263Y-86412550D01*
X188791799Y-86346414D01*
X188836854Y-86307373D01*
X188845616Y-86302909D01*
X188867589Y-86286944D01*
X189017586Y-86177967D01*
X189017588Y-86177964D01*
X189017592Y-86177962D01*
X189167904Y-86027650D01*
X189167906Y-86027646D01*
X189167909Y-86027644D01*
X189292848Y-85855678D01*
X189292847Y-85855678D01*
X189292851Y-85855674D01*
X189389357Y-85666270D01*
X189455046Y-85464101D01*
X189488300Y-85254145D01*
X189488300Y-85041571D01*
X189455046Y-84831615D01*
X189389357Y-84629446D01*
X189292851Y-84440042D01*
X189292849Y-84440039D01*
X189292848Y-84440037D01*
X189167909Y-84268071D01*
X189054369Y-84154531D01*
X189020884Y-84093208D01*
X189025868Y-84023516D01*
X189067740Y-83967583D01*
X189098715Y-83950668D01*
X189230131Y-83901654D01*
X189345346Y-83815404D01*
X189431596Y-83700189D01*
X189481891Y-83565341D01*
X189488300Y-83505731D01*
X189488299Y-81709986D01*
X189481891Y-81650375D01*
X189472364Y-81624833D01*
X189431597Y-81515529D01*
X189431593Y-81515522D01*
X189345347Y-81400313D01*
X189345344Y-81400310D01*
X189230135Y-81314064D01*
X189230128Y-81314060D01*
X189095282Y-81263766D01*
X189095283Y-81263766D01*
X189035683Y-81257359D01*
X189035681Y-81257358D01*
X189035673Y-81257358D01*
X189035664Y-81257358D01*
X187239929Y-81257358D01*
X187239923Y-81257359D01*
X187180316Y-81263766D01*
X187045471Y-81314060D01*
X187045464Y-81314064D01*
X186930255Y-81400310D01*
X186930252Y-81400313D01*
X186844006Y-81515522D01*
X186844002Y-81515529D01*
X186793708Y-81650375D01*
X186789811Y-81686626D01*
X186787301Y-81709981D01*
X186787300Y-81709993D01*
X186257391Y-81709993D01*
X186292362Y-81686626D01*
X186324098Y-81654890D01*
X186360006Y-81618983D01*
X186410823Y-81568165D01*
X186410826Y-81568162D01*
X186445994Y-81515529D01*
X186503903Y-81428863D01*
X186568016Y-81274082D01*
X186600700Y-81109767D01*
X186600700Y-80942233D01*
X186568016Y-80777918D01*
X186503903Y-80623137D01*
X186472737Y-80576494D01*
X186410826Y-80483837D01*
X186292362Y-80365373D01*
X186153060Y-80272295D01*
X185998282Y-80208184D01*
X185998274Y-80208182D01*
X185833971Y-80175500D01*
X185833967Y-80175500D01*
X185666433Y-80175500D01*
X185666428Y-80175500D01*
X185502125Y-80208182D01*
X185502117Y-80208184D01*
X185347339Y-80272295D01*
X185208037Y-80365373D01*
X185089573Y-80483837D01*
X184996495Y-80623139D01*
X184932384Y-80777917D01*
X184932382Y-80777925D01*
X184899700Y-80942228D01*
X91686500Y-80942228D01*
X91686500Y-69201641D01*
X95206250Y-69201641D01*
X95206250Y-70501659D01*
X95206251Y-70501676D01*
X95216750Y-70604454D01*
X95216751Y-70604457D01*
X95271935Y-70770989D01*
X95271937Y-70770994D01*
X95296124Y-70810207D01*
X95358051Y-70910608D01*
X95364039Y-70920315D01*
X95488094Y-71044370D01*
X95642870Y-71139836D01*
X95689595Y-71191784D01*
X95700818Y-71260746D01*
X95672974Y-71324829D01*
X95665456Y-71333056D01*
X95526639Y-71471873D01*
X95401701Y-71643837D01*
X95305194Y-71833243D01*
X95239503Y-72035418D01*
X95211323Y-72213340D01*
X95206250Y-72245371D01*
X95206250Y-72457945D01*
X95210325Y-72483672D01*
X95239503Y-72667897D01*
X95239503Y-72667899D01*
X95239504Y-72667901D01*
X95297063Y-72845050D01*
X95305194Y-72870072D01*
X95401701Y-73059478D01*
X95526640Y-73231444D01*
X95676959Y-73381763D01*
X95676964Y-73381767D01*
X95841543Y-73501340D01*
X95884209Y-73556669D01*
X95890188Y-73626283D01*
X95857583Y-73688078D01*
X95841543Y-73701976D01*
X95676964Y-73821548D01*
X95676959Y-73821552D01*
X95526640Y-73971871D01*
X95401701Y-74143837D01*
X95305194Y-74333243D01*
X95239503Y-74535418D01*
X95206250Y-74745371D01*
X95206250Y-74957944D01*
X95235161Y-75140484D01*
X95239504Y-75167901D01*
X95303526Y-75364941D01*
X95305194Y-75370072D01*
X95401701Y-75559478D01*
X95526640Y-75731444D01*
X95676959Y-75881763D01*
X95676964Y-75881767D01*
X95841543Y-76001340D01*
X95884209Y-76056669D01*
X95890188Y-76126283D01*
X95857583Y-76188078D01*
X95841543Y-76201976D01*
X95676964Y-76321548D01*
X95676959Y-76321552D01*
X95526640Y-76471871D01*
X95401701Y-76643837D01*
X95305194Y-76833243D01*
X95239503Y-77035418D01*
X95206250Y-77245371D01*
X95206250Y-77457944D01*
X95226633Y-77586641D01*
X95239504Y-77667901D01*
X95273938Y-77773878D01*
X95305194Y-77870072D01*
X95401701Y-78059478D01*
X95526640Y-78231444D01*
X95676963Y-78381767D01*
X95848929Y-78506706D01*
X95848931Y-78506707D01*
X95848934Y-78506709D01*
X96038338Y-78603215D01*
X96240507Y-78668904D01*
X96450463Y-78702158D01*
X96450464Y-78702158D01*
X96913036Y-78702158D01*
X96913037Y-78702158D01*
X97122993Y-78668904D01*
X97325162Y-78603215D01*
X97514566Y-78506709D01*
X97635898Y-78418557D01*
X97686536Y-78381767D01*
X97686538Y-78381764D01*
X97686542Y-78381762D01*
X97836854Y-78231450D01*
X97836856Y-78231446D01*
X97836859Y-78231444D01*
X97961798Y-78059478D01*
X97961797Y-78059478D01*
X97961801Y-78059474D01*
X98058307Y-77870070D01*
X98123996Y-77667901D01*
X98136867Y-77586637D01*
X103011700Y-77586637D01*
X103011700Y-77773878D01*
X103048225Y-77957501D01*
X103048227Y-77957509D01*
X103119876Y-78130486D01*
X103119881Y-78130495D01*
X103223897Y-78286165D01*
X103223900Y-78286169D01*
X103356288Y-78418557D01*
X103356292Y-78418560D01*
X103511962Y-78522576D01*
X103511968Y-78522579D01*
X103511969Y-78522580D01*
X103684949Y-78594231D01*
X103868579Y-78630757D01*
X103868583Y-78630758D01*
X103868584Y-78630758D01*
X104055817Y-78630758D01*
X104055818Y-78630757D01*
X104239451Y-78594231D01*
X104412431Y-78522580D01*
X104568108Y-78418560D01*
X104700502Y-78286166D01*
X104804522Y-78130489D01*
X104876173Y-77957509D01*
X104912700Y-77773874D01*
X104912700Y-77586642D01*
X104876173Y-77403007D01*
X104804522Y-77230027D01*
X104804521Y-77230026D01*
X104804518Y-77230020D01*
X104700502Y-77074350D01*
X104700499Y-77074346D01*
X104568111Y-76941958D01*
X104568107Y-76941955D01*
X104412437Y-76837939D01*
X104412428Y-76837934D01*
X104239451Y-76766285D01*
X104239443Y-76766283D01*
X104055820Y-76729758D01*
X104055816Y-76729758D01*
X103868584Y-76729758D01*
X103868579Y-76729758D01*
X103684956Y-76766283D01*
X103684948Y-76766285D01*
X103511971Y-76837934D01*
X103511962Y-76837939D01*
X103356292Y-76941955D01*
X103356288Y-76941958D01*
X103223900Y-77074346D01*
X103223897Y-77074350D01*
X103119881Y-77230020D01*
X103119876Y-77230029D01*
X103048227Y-77403006D01*
X103048225Y-77403014D01*
X103011700Y-77586637D01*
X98136867Y-77586637D01*
X98157250Y-77457945D01*
X98157250Y-77245371D01*
X98123996Y-77035415D01*
X98058307Y-76833246D01*
X97961801Y-76643842D01*
X97961799Y-76643839D01*
X97961798Y-76643837D01*
X97836859Y-76471871D01*
X97686542Y-76321554D01*
X97670588Y-76309963D01*
X97521954Y-76201974D01*
X97479290Y-76146647D01*
X97473311Y-76077034D01*
X97505916Y-76015238D01*
X97521949Y-76001344D01*
X97686542Y-75881762D01*
X97836854Y-75731450D01*
X97836856Y-75731446D01*
X97836859Y-75731444D01*
X97961798Y-75559478D01*
X97961797Y-75559478D01*
X97961801Y-75559474D01*
X98058307Y-75370070D01*
X98123996Y-75167901D01*
X98157250Y-74957945D01*
X98157250Y-74745371D01*
X98123996Y-74535415D01*
X98058307Y-74333246D01*
X97961801Y-74143842D01*
X97961799Y-74143839D01*
X97915146Y-74079625D01*
X97915145Y-74079624D01*
X97866615Y-74012828D01*
X114443226Y-74012828D01*
X114443226Y-74180371D01*
X114475908Y-74344674D01*
X114475910Y-74344682D01*
X114540021Y-74499460D01*
X114633099Y-74638762D01*
X114751563Y-74757226D01*
X114814906Y-74799550D01*
X114890863Y-74850303D01*
X114890864Y-74850303D01*
X114890865Y-74850304D01*
X114923112Y-74863661D01*
X115045644Y-74914416D01*
X115191986Y-74943525D01*
X115209954Y-74947099D01*
X115209958Y-74947100D01*
X115209959Y-74947100D01*
X115377494Y-74947100D01*
X115377495Y-74947099D01*
X115541808Y-74914416D01*
X115690764Y-74852715D01*
X115760231Y-74845247D01*
X115785668Y-74852716D01*
X115790854Y-74854864D01*
X115945635Y-74918977D01*
X116087015Y-74947099D01*
X116109945Y-74951660D01*
X116109949Y-74951661D01*
X116109950Y-74951661D01*
X116277485Y-74951661D01*
X116277486Y-74951660D01*
X116441799Y-74918977D01*
X116596580Y-74854864D01*
X116602309Y-74851035D01*
X116668980Y-74830152D01*
X116718658Y-74839570D01*
X116845233Y-74892000D01*
X116957922Y-74914415D01*
X117009543Y-74924683D01*
X117009547Y-74924684D01*
X117009548Y-74924684D01*
X117177083Y-74924684D01*
X117177084Y-74924683D01*
X117341397Y-74892000D01*
X117496178Y-74827887D01*
X117598224Y-74759701D01*
X117664897Y-74738824D01*
X117732278Y-74757308D01*
X117735990Y-74759693D01*
X117795637Y-74799549D01*
X117950418Y-74863662D01*
X118092879Y-74891999D01*
X118114728Y-74896345D01*
X118114732Y-74896346D01*
X118114733Y-74896346D01*
X118282268Y-74896346D01*
X118282269Y-74896345D01*
X118446582Y-74863662D01*
X118601363Y-74799549D01*
X118740662Y-74706472D01*
X118859126Y-74588008D01*
X118890148Y-74541579D01*
X118943758Y-74496775D01*
X119013083Y-74488066D01*
X119076111Y-74518220D01*
X119107811Y-74563016D01*
X119142252Y-74646164D01*
X119235329Y-74785464D01*
X119332067Y-74882202D01*
X119365552Y-74943525D01*
X119360568Y-75013217D01*
X119318696Y-75069150D01*
X119283554Y-75086939D01*
X119283561Y-75086956D01*
X119283346Y-75087044D01*
X119280393Y-75088540D01*
X119277939Y-75089284D01*
X119123154Y-75153398D01*
X118983852Y-75246476D01*
X118865388Y-75364940D01*
X118772310Y-75504242D01*
X118708199Y-75659020D01*
X118708197Y-75659028D01*
X118675515Y-75823331D01*
X118675515Y-75990874D01*
X118708197Y-76155177D01*
X118708199Y-76155185D01*
X118772310Y-76309963D01*
X118865388Y-76449265D01*
X118983852Y-76567729D01*
X119076509Y-76629640D01*
X119123152Y-76660806D01*
X119277933Y-76724919D01*
X119442243Y-76757602D01*
X119442247Y-76757603D01*
X119442248Y-76757603D01*
X119609783Y-76757603D01*
X119609784Y-76757602D01*
X119774097Y-76724919D01*
X119928878Y-76660806D01*
X120068177Y-76567729D01*
X120186641Y-76449265D01*
X120279718Y-76309966D01*
X120343831Y-76155185D01*
X120376515Y-75990870D01*
X120376515Y-75823336D01*
X120343831Y-75659021D01*
X120279718Y-75504240D01*
X120248552Y-75457597D01*
X120186641Y-75364940D01*
X120089903Y-75268202D01*
X120056418Y-75206879D01*
X120061402Y-75137187D01*
X120103274Y-75081254D01*
X120138417Y-75063466D01*
X120138410Y-75063449D01*
X120138644Y-75063351D01*
X120141594Y-75061859D01*
X120144028Y-75061119D01*
X120144038Y-75061118D01*
X120298819Y-74997005D01*
X120438118Y-74903928D01*
X120556582Y-74785464D01*
X120649659Y-74646165D01*
X120713772Y-74491384D01*
X120732728Y-74396086D01*
X181470700Y-74396086D01*
X181470700Y-74563629D01*
X181503382Y-74727932D01*
X181503384Y-74727940D01*
X181567495Y-74882718D01*
X181660573Y-75022020D01*
X181779037Y-75140484D01*
X181820064Y-75167897D01*
X181918337Y-75233561D01*
X182073118Y-75297674D01*
X182237428Y-75330357D01*
X182237432Y-75330358D01*
X182237433Y-75330358D01*
X182404968Y-75330358D01*
X182404969Y-75330357D01*
X182569282Y-75297674D01*
X182724063Y-75233561D01*
X182863362Y-75140484D01*
X182981826Y-75022020D01*
X183074903Y-74882721D01*
X183139016Y-74727940D01*
X183171700Y-74563625D01*
X183171700Y-74396091D01*
X183139016Y-74231776D01*
X183089427Y-74112059D01*
X183074904Y-74076997D01*
X182981826Y-73937695D01*
X182863362Y-73819231D01*
X182724060Y-73726153D01*
X182569282Y-73662042D01*
X182569274Y-73662040D01*
X182404971Y-73629358D01*
X182404967Y-73629358D01*
X182237433Y-73629358D01*
X182237428Y-73629358D01*
X182073125Y-73662040D01*
X182073117Y-73662042D01*
X181918339Y-73726153D01*
X181779037Y-73819231D01*
X181660573Y-73937695D01*
X181567495Y-74076997D01*
X181503384Y-74231775D01*
X181503382Y-74231783D01*
X181470700Y-74396086D01*
X120732728Y-74396086D01*
X120738751Y-74365808D01*
X120746455Y-74327073D01*
X120746456Y-74327070D01*
X120746456Y-74159534D01*
X120746455Y-74159530D01*
X120743334Y-74143839D01*
X120713772Y-73995220D01*
X120653008Y-73848525D01*
X120649660Y-73840441D01*
X120556582Y-73701139D01*
X120438121Y-73582678D01*
X120438117Y-73582675D01*
X120396531Y-73554888D01*
X120351726Y-73501276D01*
X120343019Y-73431951D01*
X120373174Y-73368923D01*
X120377722Y-73364123D01*
X120478582Y-73263264D01*
X120571659Y-73123965D01*
X120635772Y-72969184D01*
X120650091Y-72897197D01*
X120682475Y-72835286D01*
X120724252Y-72806829D01*
X120875063Y-72744361D01*
X121014362Y-72651284D01*
X121132826Y-72532820D01*
X121225903Y-72393521D01*
X121290016Y-72238740D01*
X121322700Y-72074425D01*
X121322700Y-71906891D01*
X121290016Y-71742576D01*
X121252867Y-71652891D01*
X121252865Y-71652886D01*
X126352700Y-71652886D01*
X126352700Y-71820429D01*
X126385382Y-71984732D01*
X126385384Y-71984740D01*
X126449495Y-72139518D01*
X126542573Y-72278820D01*
X126661037Y-72397284D01*
X126751820Y-72457943D01*
X126800337Y-72490361D01*
X126955118Y-72554474D01*
X127119428Y-72587157D01*
X127119432Y-72587158D01*
X127119433Y-72587158D01*
X127286968Y-72587158D01*
X127286969Y-72587157D01*
X127451282Y-72554474D01*
X127606063Y-72490361D01*
X127745362Y-72397284D01*
X127863826Y-72278820D01*
X127956903Y-72139521D01*
X128021016Y-71984740D01*
X128053700Y-71820425D01*
X128053700Y-71652891D01*
X128021016Y-71488576D01*
X127956903Y-71333795D01*
X127908093Y-71260746D01*
X127863826Y-71194495D01*
X127745362Y-71076031D01*
X127658341Y-71017886D01*
X130510300Y-71017886D01*
X130510300Y-71185429D01*
X130542982Y-71349732D01*
X130542984Y-71349740D01*
X130607095Y-71504518D01*
X130700173Y-71643820D01*
X130818637Y-71762284D01*
X130888706Y-71809102D01*
X130957937Y-71855361D01*
X131112718Y-71919474D01*
X131277028Y-71952157D01*
X131277032Y-71952158D01*
X131277033Y-71952158D01*
X131444568Y-71952158D01*
X131444569Y-71952157D01*
X131608882Y-71919474D01*
X131763663Y-71855361D01*
X131829310Y-71811496D01*
X131895985Y-71790618D01*
X131963365Y-71809102D01*
X131967060Y-71811476D01*
X132032737Y-71855361D01*
X132187518Y-71919474D01*
X132351828Y-71952157D01*
X132351832Y-71952158D01*
X132351833Y-71952158D01*
X132519368Y-71952158D01*
X132519369Y-71952157D01*
X132683682Y-71919474D01*
X132838463Y-71855361D01*
X132977762Y-71762284D01*
X133096226Y-71643820D01*
X133189303Y-71504521D01*
X133253416Y-71349740D01*
X133253745Y-71348086D01*
X136309500Y-71348086D01*
X136309500Y-71515629D01*
X136342182Y-71679932D01*
X136342184Y-71679940D01*
X136406295Y-71834718D01*
X136499373Y-71974020D01*
X136617837Y-72092484D01*
X136710494Y-72154395D01*
X136757137Y-72185561D01*
X136911918Y-72249674D01*
X137071925Y-72281501D01*
X137076228Y-72282357D01*
X137076232Y-72282358D01*
X137076233Y-72282358D01*
X137243768Y-72282358D01*
X137243769Y-72282357D01*
X137408082Y-72249674D01*
X137562863Y-72185561D01*
X137702162Y-72092484D01*
X137720017Y-72074629D01*
X137781339Y-72041142D01*
X137851031Y-72046125D01*
X137895383Y-72074629D01*
X137913235Y-72092482D01*
X137913237Y-72092484D01*
X138005894Y-72154395D01*
X138052537Y-72185561D01*
X138207318Y-72249674D01*
X138367325Y-72281501D01*
X138371628Y-72282357D01*
X138371632Y-72282358D01*
X138371633Y-72282358D01*
X138539168Y-72282358D01*
X138539169Y-72282357D01*
X138703482Y-72249674D01*
X138858263Y-72185561D01*
X138997562Y-72092484D01*
X139000513Y-72089533D01*
X139061834Y-72056044D01*
X139131526Y-72061023D01*
X139175887Y-72089533D01*
X139178837Y-72092483D01*
X139178837Y-72092484D01*
X139271494Y-72154395D01*
X139318137Y-72185561D01*
X139472918Y-72249674D01*
X139632925Y-72281501D01*
X139637228Y-72282357D01*
X139637232Y-72282358D01*
X139637233Y-72282358D01*
X139804768Y-72282358D01*
X139804769Y-72282357D01*
X139969082Y-72249674D01*
X140123863Y-72185561D01*
X140263162Y-72092484D01*
X140263164Y-72092482D01*
X140266835Y-72089470D01*
X140331145Y-72062157D01*
X140400012Y-72073948D01*
X140424165Y-72089470D01*
X140427837Y-72092484D01*
X140520494Y-72154395D01*
X140567137Y-72185561D01*
X140721918Y-72249674D01*
X140881925Y-72281501D01*
X140886228Y-72282357D01*
X140886232Y-72282358D01*
X140886233Y-72282358D01*
X141053768Y-72282358D01*
X141053769Y-72282357D01*
X141218082Y-72249674D01*
X141372863Y-72185561D01*
X141512162Y-72092484D01*
X141527817Y-72076829D01*
X141589139Y-72043342D01*
X141658831Y-72048325D01*
X141703183Y-72076829D01*
X141718835Y-72092482D01*
X141718837Y-72092484D01*
X141811494Y-72154395D01*
X141858137Y-72185561D01*
X142012918Y-72249674D01*
X142172925Y-72281501D01*
X142177228Y-72282357D01*
X142177232Y-72282358D01*
X142177233Y-72282358D01*
X142344768Y-72282358D01*
X142344769Y-72282357D01*
X142509082Y-72249674D01*
X142663863Y-72185561D01*
X142803162Y-72092484D01*
X142803164Y-72092481D01*
X142804630Y-72091279D01*
X142805552Y-72090887D01*
X142808227Y-72089100D01*
X142808565Y-72089607D01*
X142868938Y-72063962D01*
X142937807Y-72075750D01*
X142961970Y-72091279D01*
X142963440Y-72092486D01*
X143055884Y-72154254D01*
X143102737Y-72185561D01*
X143257518Y-72249674D01*
X143417525Y-72281501D01*
X143421828Y-72282357D01*
X143421832Y-72282358D01*
X143421833Y-72282358D01*
X143589368Y-72282358D01*
X143589369Y-72282357D01*
X143753682Y-72249674D01*
X143908463Y-72185561D01*
X144047762Y-72092484D01*
X144065617Y-72074629D01*
X144126939Y-72041142D01*
X144196631Y-72046125D01*
X144240983Y-72074629D01*
X144258835Y-72092482D01*
X144258837Y-72092484D01*
X144351494Y-72154395D01*
X144398137Y-72185561D01*
X144552918Y-72249674D01*
X144712925Y-72281501D01*
X144717228Y-72282357D01*
X144717232Y-72282358D01*
X144717233Y-72282358D01*
X144884768Y-72282358D01*
X144884769Y-72282357D01*
X145049082Y-72249674D01*
X145203863Y-72185561D01*
X145343162Y-72092484D01*
X145461626Y-71974020D01*
X145523455Y-71881486D01*
X181470700Y-71881486D01*
X181470700Y-72049029D01*
X181503382Y-72213332D01*
X181503384Y-72213340D01*
X181567495Y-72368118D01*
X181660573Y-72507420D01*
X181779037Y-72625884D01*
X181864530Y-72683008D01*
X181918337Y-72718961D01*
X182073118Y-72783074D01*
X182200814Y-72808474D01*
X182237428Y-72815757D01*
X182237432Y-72815758D01*
X182237433Y-72815758D01*
X182404968Y-72815758D01*
X182404969Y-72815757D01*
X182569282Y-72783074D01*
X182724063Y-72718961D01*
X182863362Y-72625884D01*
X182981826Y-72507420D01*
X183074903Y-72368121D01*
X183139016Y-72213340D01*
X183171700Y-72049025D01*
X183171700Y-71881491D01*
X183139016Y-71717176D01*
X183074903Y-71562395D01*
X183025578Y-71488575D01*
X182981826Y-71423095D01*
X182863362Y-71304631D01*
X182724060Y-71211553D01*
X182569282Y-71147442D01*
X182569274Y-71147440D01*
X182404971Y-71114758D01*
X182404967Y-71114758D01*
X182237433Y-71114758D01*
X182237428Y-71114758D01*
X182073125Y-71147440D01*
X182073117Y-71147442D01*
X181918339Y-71211553D01*
X181779037Y-71304631D01*
X181660573Y-71423095D01*
X181567495Y-71562397D01*
X181503384Y-71717175D01*
X181503382Y-71717183D01*
X181470700Y-71881486D01*
X145523455Y-71881486D01*
X145554703Y-71834721D01*
X145554704Y-71834717D01*
X145554706Y-71834715D01*
X145557512Y-71827942D01*
X145594773Y-71737985D01*
X145618816Y-71679940D01*
X145651500Y-71515625D01*
X145651500Y-71348091D01*
X145618816Y-71183776D01*
X145554703Y-71028995D01*
X145516574Y-70971931D01*
X145461626Y-70889695D01*
X145343162Y-70771231D01*
X145203860Y-70678153D01*
X145049082Y-70614042D01*
X145049074Y-70614040D01*
X144884771Y-70581358D01*
X144884767Y-70581358D01*
X144717233Y-70581358D01*
X144717228Y-70581358D01*
X144552925Y-70614040D01*
X144552917Y-70614042D01*
X144398139Y-70678153D01*
X144258837Y-70771231D01*
X144258834Y-70771234D01*
X144240981Y-70789088D01*
X144179658Y-70822573D01*
X144109966Y-70817589D01*
X144065619Y-70789088D01*
X144047762Y-70771231D01*
X143908460Y-70678153D01*
X143753682Y-70614042D01*
X143753674Y-70614040D01*
X143589371Y-70581358D01*
X143589367Y-70581358D01*
X143421833Y-70581358D01*
X143421828Y-70581358D01*
X143257525Y-70614040D01*
X143257517Y-70614042D01*
X143102739Y-70678153D01*
X142963439Y-70771230D01*
X142961961Y-70772444D01*
X142961035Y-70772837D01*
X142958373Y-70774616D01*
X142958035Y-70774110D01*
X142897650Y-70799754D01*
X142828783Y-70787960D01*
X142804639Y-70772444D01*
X142803160Y-70771230D01*
X142663860Y-70678153D01*
X142509082Y-70614042D01*
X142509074Y-70614040D01*
X142344771Y-70581358D01*
X142344767Y-70581358D01*
X142177233Y-70581358D01*
X142177228Y-70581358D01*
X142012925Y-70614040D01*
X142012917Y-70614042D01*
X141858139Y-70678153D01*
X141718837Y-70771231D01*
X141718834Y-70771234D01*
X141703181Y-70786888D01*
X141641858Y-70820373D01*
X141572166Y-70815389D01*
X141527819Y-70786888D01*
X141512162Y-70771231D01*
X141372860Y-70678153D01*
X141218082Y-70614042D01*
X141218074Y-70614040D01*
X141053771Y-70581358D01*
X141053767Y-70581358D01*
X140886233Y-70581358D01*
X140886228Y-70581358D01*
X140721925Y-70614040D01*
X140721917Y-70614042D01*
X140567139Y-70678153D01*
X140427835Y-70771233D01*
X140424158Y-70774251D01*
X140359847Y-70801559D01*
X140290980Y-70789763D01*
X140266842Y-70774251D01*
X140263164Y-70771233D01*
X140123860Y-70678153D01*
X139969082Y-70614042D01*
X139969074Y-70614040D01*
X139804771Y-70581358D01*
X139804767Y-70581358D01*
X139637233Y-70581358D01*
X139637228Y-70581358D01*
X139472925Y-70614040D01*
X139472917Y-70614042D01*
X139318139Y-70678153D01*
X139178837Y-70771231D01*
X139178834Y-70771234D01*
X139175881Y-70774188D01*
X139114558Y-70807673D01*
X139044866Y-70802689D01*
X139000519Y-70774188D01*
X138997562Y-70771231D01*
X138858260Y-70678153D01*
X138703482Y-70614042D01*
X138703474Y-70614040D01*
X138539171Y-70581358D01*
X138539167Y-70581358D01*
X138371633Y-70581358D01*
X138371628Y-70581358D01*
X138207325Y-70614040D01*
X138207317Y-70614042D01*
X138052539Y-70678153D01*
X137913237Y-70771231D01*
X137913234Y-70771234D01*
X137895381Y-70789088D01*
X137834058Y-70822573D01*
X137764366Y-70817589D01*
X137720019Y-70789088D01*
X137702162Y-70771231D01*
X137562860Y-70678153D01*
X137408082Y-70614042D01*
X137408074Y-70614040D01*
X137243771Y-70581358D01*
X137243767Y-70581358D01*
X137076233Y-70581358D01*
X137076228Y-70581358D01*
X136911925Y-70614040D01*
X136911917Y-70614042D01*
X136757139Y-70678153D01*
X136617837Y-70771231D01*
X136499373Y-70889695D01*
X136406295Y-71028997D01*
X136342184Y-71183775D01*
X136342182Y-71183783D01*
X136309500Y-71348086D01*
X133253745Y-71348086D01*
X133258729Y-71323030D01*
X133259768Y-71317808D01*
X133286099Y-71185429D01*
X133286100Y-71185426D01*
X133286100Y-71017890D01*
X133286099Y-71017886D01*
X133266398Y-70918842D01*
X133253416Y-70853576D01*
X133189303Y-70698795D01*
X133132673Y-70614042D01*
X133096226Y-70559495D01*
X132977762Y-70441031D01*
X132838460Y-70347953D01*
X132683682Y-70283842D01*
X132683674Y-70283840D01*
X132519371Y-70251158D01*
X132519367Y-70251158D01*
X132351833Y-70251158D01*
X132351828Y-70251158D01*
X132187525Y-70283840D01*
X132187517Y-70283842D01*
X132032740Y-70347953D01*
X131967090Y-70391819D01*
X131900413Y-70412696D01*
X131833033Y-70394211D01*
X131829310Y-70391819D01*
X131791242Y-70366383D01*
X131763663Y-70347955D01*
X131763660Y-70347953D01*
X131763659Y-70347953D01*
X131608882Y-70283842D01*
X131608874Y-70283840D01*
X131444571Y-70251158D01*
X131444567Y-70251158D01*
X131277033Y-70251158D01*
X131277028Y-70251158D01*
X131112725Y-70283840D01*
X131112717Y-70283842D01*
X130957939Y-70347953D01*
X130818637Y-70441031D01*
X130700173Y-70559495D01*
X130607095Y-70698797D01*
X130542984Y-70853575D01*
X130542982Y-70853583D01*
X130510300Y-71017886D01*
X127658341Y-71017886D01*
X127606060Y-70982953D01*
X127451282Y-70918842D01*
X127451274Y-70918840D01*
X127286971Y-70886158D01*
X127286967Y-70886158D01*
X127119433Y-70886158D01*
X127119428Y-70886158D01*
X126955125Y-70918840D01*
X126955117Y-70918842D01*
X126800339Y-70982953D01*
X126661037Y-71076031D01*
X126542573Y-71194495D01*
X126449495Y-71333797D01*
X126385384Y-71488575D01*
X126385382Y-71488583D01*
X126352700Y-71652886D01*
X121252865Y-71652886D01*
X121225904Y-71587796D01*
X121132826Y-71448495D01*
X121014362Y-71330031D01*
X120875060Y-71236953D01*
X120720282Y-71172842D01*
X120720274Y-71172840D01*
X120555971Y-71140158D01*
X120555967Y-71140158D01*
X120388433Y-71140158D01*
X120388428Y-71140158D01*
X120224125Y-71172840D01*
X120224117Y-71172842D01*
X120069339Y-71236953D01*
X119930037Y-71330031D01*
X119811573Y-71448495D01*
X119718495Y-71587797D01*
X119654384Y-71742575D01*
X119654382Y-71742581D01*
X119640064Y-71814563D01*
X119607679Y-71876474D01*
X119565900Y-71904932D01*
X119415095Y-71967397D01*
X119275793Y-72060475D01*
X119157329Y-72178939D01*
X119064251Y-72318241D01*
X119000140Y-72473019D01*
X119000138Y-72473027D01*
X118967456Y-72637330D01*
X118967456Y-72804873D01*
X119000138Y-72969176D01*
X119000140Y-72969184D01*
X119064251Y-73123962D01*
X119157329Y-73263264D01*
X119275790Y-73381725D01*
X119275798Y-73381731D01*
X119317379Y-73409515D01*
X119328565Y-73422899D01*
X119343134Y-73432502D01*
X119350507Y-73449154D01*
X119362185Y-73463127D01*
X119364359Y-73480438D01*
X119371422Y-73496389D01*
X119368622Y-73514382D01*
X119370892Y-73532452D01*
X119363333Y-73548379D01*
X119360681Y-73565428D01*
X119343940Y-73589244D01*
X119341258Y-73594897D01*
X119338787Y-73597682D01*
X119235330Y-73701140D01*
X119199599Y-73754614D01*
X119193974Y-73760957D01*
X119171257Y-73775187D01*
X119150694Y-73792373D01*
X119142102Y-73793452D01*
X119134763Y-73798050D01*
X119107958Y-73797740D01*
X119081369Y-73801080D01*
X119073558Y-73797343D01*
X119064898Y-73797243D01*
X119042516Y-73782491D01*
X119018342Y-73770925D01*
X119012550Y-73762740D01*
X119006560Y-73758792D01*
X119001216Y-73746722D01*
X118986644Y-73726130D01*
X118952204Y-73642985D01*
X118859126Y-73503683D01*
X118740662Y-73385219D01*
X118601360Y-73292141D01*
X118446582Y-73228030D01*
X118446574Y-73228028D01*
X118282271Y-73195346D01*
X118282267Y-73195346D01*
X118114733Y-73195346D01*
X118114728Y-73195346D01*
X117950425Y-73228028D01*
X117950417Y-73228030D01*
X117795639Y-73292141D01*
X117693593Y-73360327D01*
X117626915Y-73381205D01*
X117559535Y-73362720D01*
X117555811Y-73360327D01*
X117536551Y-73347458D01*
X117496178Y-73320481D01*
X117496177Y-73320480D01*
X117496175Y-73320479D01*
X117341397Y-73256368D01*
X117341389Y-73256366D01*
X117177086Y-73223684D01*
X117177082Y-73223684D01*
X117009548Y-73223684D01*
X117009543Y-73223684D01*
X116845240Y-73256366D01*
X116845232Y-73256368D01*
X116690455Y-73320479D01*
X116690449Y-73320482D01*
X116684712Y-73324316D01*
X116618034Y-73345192D01*
X116568370Y-73335773D01*
X116531447Y-73320479D01*
X116441799Y-73283345D01*
X116441791Y-73283343D01*
X116277488Y-73250661D01*
X116277484Y-73250661D01*
X116109950Y-73250661D01*
X116109945Y-73250661D01*
X115945642Y-73283343D01*
X115945634Y-73283345D01*
X115796680Y-73345044D01*
X115727210Y-73352513D01*
X115701774Y-73345044D01*
X115541808Y-73278784D01*
X115541800Y-73278782D01*
X115377497Y-73246100D01*
X115377493Y-73246100D01*
X115209959Y-73246100D01*
X115209954Y-73246100D01*
X115045651Y-73278782D01*
X115045643Y-73278784D01*
X114890865Y-73342895D01*
X114751563Y-73435973D01*
X114633099Y-73554437D01*
X114540021Y-73693739D01*
X114475910Y-73848517D01*
X114475908Y-73848525D01*
X114443226Y-74012828D01*
X97866615Y-74012828D01*
X97836859Y-73971872D01*
X97836855Y-73971867D01*
X97686542Y-73821554D01*
X97654191Y-73798050D01*
X97521954Y-73701974D01*
X97479290Y-73646647D01*
X97473311Y-73577034D01*
X97505916Y-73515238D01*
X97521949Y-73501344D01*
X97686542Y-73381762D01*
X97836854Y-73231450D01*
X97836856Y-73231446D01*
X97836859Y-73231444D01*
X97961798Y-73059478D01*
X97961797Y-73059478D01*
X97961801Y-73059474D01*
X98058307Y-72870070D01*
X98123996Y-72667901D01*
X98141492Y-72557437D01*
X102960900Y-72557437D01*
X102960900Y-72744678D01*
X102997425Y-72928301D01*
X102997427Y-72928309D01*
X103069076Y-73101286D01*
X103069081Y-73101295D01*
X103173097Y-73256965D01*
X103173100Y-73256969D01*
X103305488Y-73389357D01*
X103305492Y-73389360D01*
X103461162Y-73493376D01*
X103461171Y-73493381D01*
X103486045Y-73503684D01*
X103634149Y-73565031D01*
X103784297Y-73594897D01*
X103817779Y-73601557D01*
X103817783Y-73601558D01*
X103817784Y-73601558D01*
X104005017Y-73601558D01*
X104005018Y-73601557D01*
X104188651Y-73565031D01*
X104361631Y-73493380D01*
X104517308Y-73389360D01*
X104649702Y-73256966D01*
X104753722Y-73101289D01*
X104825373Y-72928309D01*
X104861900Y-72744674D01*
X104861900Y-72557442D01*
X104825373Y-72373807D01*
X104753722Y-72200827D01*
X104753721Y-72200826D01*
X104753718Y-72200820D01*
X104699634Y-72119878D01*
X104657669Y-72057074D01*
X106554400Y-72057074D01*
X106554400Y-72224617D01*
X106587082Y-72388920D01*
X106587084Y-72388928D01*
X106651195Y-72543706D01*
X106744273Y-72683008D01*
X106862737Y-72801472D01*
X106913344Y-72835286D01*
X107002037Y-72894549D01*
X107002038Y-72894549D01*
X107002039Y-72894550D01*
X107037101Y-72909073D01*
X107156818Y-72958662D01*
X107321128Y-72991345D01*
X107321132Y-72991346D01*
X107321133Y-72991346D01*
X107488668Y-72991346D01*
X107488669Y-72991345D01*
X107652982Y-72958662D01*
X107807763Y-72894549D01*
X107947062Y-72801472D01*
X108065526Y-72683008D01*
X108158603Y-72543709D01*
X108222716Y-72388928D01*
X108255400Y-72224613D01*
X108255400Y-72057079D01*
X108222716Y-71892764D01*
X108168669Y-71762284D01*
X108158604Y-71737985D01*
X108158001Y-71737083D01*
X108101746Y-71652891D01*
X108065526Y-71598683D01*
X107947062Y-71480219D01*
X107807760Y-71387141D01*
X107652982Y-71323030D01*
X107652974Y-71323028D01*
X107488671Y-71290346D01*
X107488667Y-71290346D01*
X107321133Y-71290346D01*
X107321128Y-71290346D01*
X107156825Y-71323028D01*
X107156817Y-71323030D01*
X107002039Y-71387141D01*
X106862737Y-71480219D01*
X106744273Y-71598683D01*
X106651195Y-71737985D01*
X106587084Y-71892763D01*
X106587082Y-71892771D01*
X106554400Y-72057074D01*
X104657669Y-72057074D01*
X104649702Y-72045150D01*
X104649699Y-72045146D01*
X104517311Y-71912758D01*
X104517307Y-71912755D01*
X104361637Y-71808739D01*
X104361628Y-71808734D01*
X104188651Y-71737085D01*
X104188643Y-71737083D01*
X104005020Y-71700558D01*
X104005016Y-71700558D01*
X103817784Y-71700558D01*
X103817779Y-71700558D01*
X103634156Y-71737083D01*
X103634148Y-71737085D01*
X103461171Y-71808734D01*
X103461162Y-71808739D01*
X103305492Y-71912755D01*
X103305488Y-71912758D01*
X103173100Y-72045146D01*
X103173097Y-72045150D01*
X103069081Y-72200820D01*
X103069076Y-72200829D01*
X102997427Y-72373806D01*
X102997425Y-72373814D01*
X102960900Y-72557437D01*
X98141492Y-72557437D01*
X98157250Y-72457945D01*
X98157250Y-72245371D01*
X98123996Y-72035415D01*
X98058307Y-71833246D01*
X97961801Y-71643842D01*
X97961799Y-71643839D01*
X97961798Y-71643837D01*
X97836859Y-71471871D01*
X97698044Y-71333056D01*
X97664559Y-71271733D01*
X97669543Y-71202041D01*
X97711415Y-71146108D01*
X97720629Y-71139836D01*
X97726081Y-71136472D01*
X97726084Y-71136472D01*
X97875406Y-71044370D01*
X97999462Y-70920314D01*
X98091564Y-70770992D01*
X98119902Y-70685474D01*
X110948600Y-70685474D01*
X110948600Y-70853017D01*
X110981282Y-71017320D01*
X110981284Y-71017328D01*
X111045395Y-71172106D01*
X111138473Y-71311408D01*
X111256937Y-71429872D01*
X111332287Y-71480219D01*
X111396237Y-71522949D01*
X111551018Y-71587062D01*
X111715328Y-71619745D01*
X111715332Y-71619746D01*
X111715333Y-71619746D01*
X111882868Y-71619746D01*
X111882869Y-71619745D01*
X112047182Y-71587062D01*
X112201963Y-71522949D01*
X112230917Y-71503601D01*
X112297591Y-71482724D01*
X112364972Y-71501207D01*
X112387488Y-71519023D01*
X112501537Y-71633072D01*
X112593100Y-71694252D01*
X112640837Y-71726149D01*
X112640838Y-71726149D01*
X112640839Y-71726150D01*
X112669411Y-71737985D01*
X112795618Y-71790262D01*
X112947259Y-71820425D01*
X112959928Y-71822945D01*
X112959932Y-71822946D01*
X112959933Y-71822946D01*
X113127468Y-71822946D01*
X113127469Y-71822945D01*
X113291782Y-71790262D01*
X113446563Y-71726149D01*
X113585862Y-71633072D01*
X113704326Y-71514608D01*
X113797403Y-71375309D01*
X113861516Y-71220528D01*
X113894200Y-71056213D01*
X113894200Y-70888679D01*
X113891394Y-70874570D01*
X113861518Y-70724370D01*
X113861516Y-70724366D01*
X113861516Y-70724364D01*
X113811846Y-70604451D01*
X113797404Y-70569585D01*
X113704326Y-70430283D01*
X113585862Y-70311819D01*
X113446562Y-70218742D01*
X113392628Y-70196402D01*
X113338225Y-70152560D01*
X113316161Y-70086266D01*
X113333441Y-70018567D01*
X113371190Y-69978740D01*
X113429062Y-69940072D01*
X113547526Y-69821608D01*
X113640603Y-69682309D01*
X113704716Y-69527528D01*
X113737400Y-69363213D01*
X113737400Y-69195679D01*
X113704716Y-69031364D01*
X113655127Y-68911647D01*
X113640604Y-68876585D01*
X113636304Y-68870150D01*
X113549735Y-68740590D01*
X113549732Y-68740585D01*
X148342664Y-68740585D01*
X148342664Y-68908128D01*
X148375346Y-69072431D01*
X148375348Y-69072439D01*
X148439459Y-69227217D01*
X148532537Y-69366519D01*
X148651001Y-69484983D01*
X148714663Y-69527520D01*
X148790301Y-69578060D01*
X148945082Y-69642173D01*
X149109392Y-69674856D01*
X149109396Y-69674857D01*
X149109397Y-69674857D01*
X149276932Y-69674857D01*
X149276933Y-69674856D01*
X149441246Y-69642173D01*
X149596027Y-69578060D01*
X149735326Y-69484983D01*
X149853790Y-69366519D01*
X149946867Y-69227220D01*
X150010980Y-69072439D01*
X150043664Y-68908124D01*
X150043664Y-68740590D01*
X150010980Y-68576275D01*
X149990732Y-68527393D01*
X186787300Y-68527393D01*
X186787300Y-70323128D01*
X186787301Y-70323134D01*
X186793708Y-70382741D01*
X186844002Y-70517586D01*
X186844006Y-70517593D01*
X186930252Y-70632802D01*
X186930255Y-70632805D01*
X187045464Y-70719051D01*
X187045471Y-70719055D01*
X187176882Y-70768068D01*
X187232816Y-70809939D01*
X187257233Y-70875403D01*
X187242382Y-70943676D01*
X187221231Y-70971931D01*
X187107689Y-71085473D01*
X186982751Y-71257437D01*
X186886244Y-71446843D01*
X186820553Y-71649018D01*
X186791375Y-71833243D01*
X186787300Y-71858971D01*
X186787300Y-72071545D01*
X186790617Y-72092486D01*
X186814831Y-72245371D01*
X186820554Y-72281501D01*
X186882782Y-72473019D01*
X186886244Y-72483672D01*
X186982751Y-72673078D01*
X187107690Y-72845044D01*
X187258013Y-72995367D01*
X187429982Y-73120308D01*
X187438746Y-73124774D01*
X187489542Y-73172749D01*
X187506336Y-73240570D01*
X187483798Y-73306705D01*
X187438746Y-73345742D01*
X187429982Y-73350207D01*
X187258013Y-73475148D01*
X187107690Y-73625471D01*
X186982751Y-73797437D01*
X186886244Y-73986843D01*
X186820553Y-74189018D01*
X186787757Y-74396086D01*
X186787300Y-74398971D01*
X186787300Y-74611545D01*
X186820554Y-74821501D01*
X186877579Y-74997006D01*
X186886244Y-75023672D01*
X186982751Y-75213078D01*
X187107690Y-75385044D01*
X187258013Y-75535367D01*
X187429979Y-75660306D01*
X187429981Y-75660307D01*
X187429984Y-75660309D01*
X187439293Y-75665052D01*
X187490090Y-75713024D01*
X187506887Y-75780845D01*
X187484352Y-75846980D01*
X187439305Y-75886018D01*
X187430246Y-75890634D01*
X187430240Y-75890638D01*
X187376082Y-75929985D01*
X187376082Y-75929986D01*
X188008391Y-76562295D01*
X187944807Y-76579333D01*
X187830793Y-76645159D01*
X187737701Y-76738251D01*
X187671875Y-76852265D01*
X187654837Y-76915849D01*
X187022528Y-76283540D01*
X187022527Y-76283540D01*
X186983180Y-76337697D01*
X186886704Y-76527040D01*
X186821042Y-76729127D01*
X186821042Y-76729130D01*
X186787800Y-76939011D01*
X186787800Y-77151504D01*
X186821042Y-77361385D01*
X186821042Y-77361388D01*
X186886704Y-77563475D01*
X186983175Y-77752808D01*
X187022528Y-77806974D01*
X187654837Y-77174666D01*
X187671875Y-77238251D01*
X187737701Y-77352265D01*
X187830793Y-77445357D01*
X187944807Y-77511183D01*
X188008390Y-77528220D01*
X187376082Y-78160527D01*
X187376082Y-78160528D01*
X187430249Y-78199882D01*
X187619582Y-78296353D01*
X187821670Y-78362015D01*
X188031554Y-78395258D01*
X188244046Y-78395258D01*
X188453927Y-78362015D01*
X188453930Y-78362015D01*
X188656017Y-78296353D01*
X188845354Y-78199880D01*
X188899516Y-78160528D01*
X188899517Y-78160528D01*
X188267208Y-77528220D01*
X188330793Y-77511183D01*
X188444807Y-77445357D01*
X188537899Y-77352265D01*
X188603725Y-77238251D01*
X188620762Y-77174666D01*
X189253070Y-77806975D01*
X189253070Y-77806974D01*
X189292422Y-77752812D01*
X189388895Y-77563475D01*
X189454557Y-77361388D01*
X189454557Y-77361385D01*
X189487800Y-77151504D01*
X189487800Y-76939011D01*
X189454557Y-76729130D01*
X189454557Y-76729127D01*
X189388895Y-76527040D01*
X189292424Y-76337707D01*
X189253070Y-76283540D01*
X189253069Y-76283540D01*
X188620762Y-76915848D01*
X188603725Y-76852265D01*
X188537899Y-76738251D01*
X188444807Y-76645159D01*
X188330793Y-76579333D01*
X188267209Y-76562295D01*
X188899516Y-75929986D01*
X188845347Y-75890631D01*
X188845347Y-75890630D01*
X188836300Y-75886021D01*
X188785506Y-75838046D01*
X188768712Y-75770224D01*
X188791251Y-75704090D01*
X188836308Y-75665051D01*
X188845616Y-75660309D01*
X188924807Y-75602773D01*
X189017586Y-75535367D01*
X189017588Y-75535364D01*
X189017592Y-75535362D01*
X189167904Y-75385050D01*
X189167906Y-75385046D01*
X189167909Y-75385044D01*
X189292848Y-75213078D01*
X189292847Y-75213078D01*
X189292851Y-75213074D01*
X189389357Y-75023670D01*
X189455046Y-74821501D01*
X189488300Y-74611545D01*
X189488300Y-74398971D01*
X189455046Y-74189015D01*
X189389357Y-73986846D01*
X189292851Y-73797442D01*
X189292849Y-73797439D01*
X189292848Y-73797437D01*
X189167909Y-73625471D01*
X189017586Y-73475148D01*
X188845620Y-73350209D01*
X188844915Y-73349849D01*
X188836854Y-73345743D01*
X188786059Y-73297770D01*
X188769263Y-73229950D01*
X188791799Y-73163814D01*
X188836854Y-73124773D01*
X188845616Y-73120309D01*
X188871799Y-73101286D01*
X189017586Y-72995367D01*
X189017588Y-72995364D01*
X189017592Y-72995362D01*
X189167904Y-72845050D01*
X189167906Y-72845046D01*
X189167909Y-72845044D01*
X189292848Y-72673078D01*
X189292847Y-72673078D01*
X189292851Y-72673074D01*
X189389357Y-72483670D01*
X189455046Y-72281501D01*
X189488300Y-72071545D01*
X189488300Y-71858971D01*
X189455046Y-71649015D01*
X189389357Y-71446846D01*
X189292851Y-71257442D01*
X189292849Y-71257439D01*
X189292848Y-71257437D01*
X189167909Y-71085471D01*
X189054369Y-70971931D01*
X189020884Y-70910608D01*
X189025868Y-70840916D01*
X189067740Y-70784983D01*
X189098715Y-70768068D01*
X189230131Y-70719054D01*
X189345346Y-70632804D01*
X189431596Y-70517589D01*
X189481891Y-70382741D01*
X189488300Y-70323131D01*
X189488299Y-68527386D01*
X189481891Y-68467775D01*
X189479598Y-68461628D01*
X189431597Y-68332929D01*
X189431593Y-68332922D01*
X189345347Y-68217713D01*
X189345344Y-68217710D01*
X189230135Y-68131464D01*
X189230128Y-68131460D01*
X189095282Y-68081166D01*
X189095283Y-68081166D01*
X189035683Y-68074759D01*
X189035681Y-68074758D01*
X189035673Y-68074758D01*
X189035664Y-68074758D01*
X187239929Y-68074758D01*
X187239923Y-68074759D01*
X187180316Y-68081166D01*
X187045471Y-68131460D01*
X187045464Y-68131464D01*
X186930255Y-68217710D01*
X186930252Y-68217713D01*
X186844006Y-68332922D01*
X186844002Y-68332929D01*
X186793708Y-68467775D01*
X186787301Y-68527374D01*
X186787301Y-68527381D01*
X186787300Y-68527393D01*
X149990732Y-68527393D01*
X149946867Y-68421494D01*
X149887685Y-68332922D01*
X149853790Y-68282194D01*
X149735326Y-68163730D01*
X149596024Y-68070652D01*
X149441246Y-68006541D01*
X149441238Y-68006539D01*
X149276935Y-67973857D01*
X149276931Y-67973857D01*
X149109397Y-67973857D01*
X149109392Y-67973857D01*
X148945089Y-68006539D01*
X148945081Y-68006541D01*
X148790303Y-68070652D01*
X148651001Y-68163730D01*
X148532537Y-68282194D01*
X148439459Y-68421496D01*
X148375348Y-68576274D01*
X148375346Y-68576282D01*
X148342664Y-68740585D01*
X113549732Y-68740585D01*
X113547529Y-68737288D01*
X113547523Y-68737280D01*
X113429062Y-68618819D01*
X113289760Y-68525741D01*
X113134982Y-68461630D01*
X113134974Y-68461628D01*
X112970671Y-68428946D01*
X112970667Y-68428946D01*
X112803133Y-68428946D01*
X112803128Y-68428946D01*
X112638825Y-68461628D01*
X112638817Y-68461630D01*
X112484039Y-68525741D01*
X112344737Y-68618819D01*
X112226273Y-68737283D01*
X112133195Y-68876585D01*
X112069084Y-69031363D01*
X112069082Y-69031371D01*
X112036400Y-69195674D01*
X112036400Y-69363217D01*
X112069082Y-69527520D01*
X112069084Y-69527528D01*
X112133196Y-69682307D01*
X112133198Y-69682311D01*
X112188061Y-69764420D01*
X112208939Y-69831097D01*
X112190454Y-69898477D01*
X112138475Y-69945167D01*
X112069505Y-69956343D01*
X112048960Y-69951970D01*
X112047185Y-69951431D01*
X112047182Y-69951430D01*
X112047178Y-69951429D01*
X112047171Y-69951427D01*
X111882871Y-69918746D01*
X111882867Y-69918746D01*
X111715333Y-69918746D01*
X111715328Y-69918746D01*
X111551025Y-69951428D01*
X111551017Y-69951430D01*
X111396239Y-70015541D01*
X111256937Y-70108619D01*
X111138473Y-70227083D01*
X111045395Y-70366385D01*
X110981284Y-70521163D01*
X110981282Y-70521171D01*
X110948600Y-70685474D01*
X98119902Y-70685474D01*
X98146749Y-70604455D01*
X98157250Y-70501667D01*
X98157249Y-69382437D01*
X103519700Y-69382437D01*
X103519700Y-69569678D01*
X103556225Y-69753301D01*
X103556227Y-69753309D01*
X103627876Y-69926286D01*
X103627881Y-69926295D01*
X103731897Y-70081965D01*
X103731900Y-70081969D01*
X103864288Y-70214357D01*
X103864292Y-70214360D01*
X104019962Y-70318376D01*
X104019971Y-70318381D01*
X104031436Y-70323130D01*
X104192949Y-70390031D01*
X104376579Y-70426557D01*
X104376583Y-70426558D01*
X104376584Y-70426558D01*
X104563817Y-70426558D01*
X104563818Y-70426557D01*
X104747451Y-70390031D01*
X104920431Y-70318380D01*
X105076108Y-70214360D01*
X105208502Y-70081966D01*
X105312522Y-69926289D01*
X105384173Y-69753309D01*
X105420700Y-69569674D01*
X105420700Y-69382442D01*
X105384173Y-69198807D01*
X105328754Y-69065014D01*
X105312523Y-69025829D01*
X105312518Y-69025820D01*
X105208502Y-68870150D01*
X105208499Y-68870146D01*
X105076111Y-68737758D01*
X105076107Y-68737755D01*
X104920437Y-68633739D01*
X104920428Y-68633734D01*
X104747451Y-68562085D01*
X104747443Y-68562083D01*
X104563820Y-68525558D01*
X104563816Y-68525558D01*
X104376584Y-68525558D01*
X104376579Y-68525558D01*
X104192956Y-68562083D01*
X104192948Y-68562085D01*
X104019971Y-68633734D01*
X104019962Y-68633739D01*
X103864292Y-68737755D01*
X103864288Y-68737758D01*
X103731900Y-68870146D01*
X103731897Y-68870150D01*
X103627881Y-69025820D01*
X103627876Y-69025829D01*
X103556227Y-69198806D01*
X103556225Y-69198814D01*
X103519700Y-69382437D01*
X98157249Y-69382437D01*
X98157249Y-69201650D01*
X98156958Y-69198806D01*
X98146749Y-69098861D01*
X98146748Y-69098858D01*
X98091564Y-68932324D01*
X97999462Y-68783002D01*
X97875406Y-68658946D01*
X97741373Y-68576274D01*
X97726086Y-68566845D01*
X97726081Y-68566843D01*
X97711716Y-68562083D01*
X97559547Y-68511659D01*
X97559545Y-68511658D01*
X97456760Y-68501158D01*
X95906748Y-68501158D01*
X95906731Y-68501159D01*
X95803953Y-68511658D01*
X95803950Y-68511659D01*
X95637418Y-68566843D01*
X95637413Y-68566845D01*
X95488092Y-68658947D01*
X95364039Y-68783000D01*
X95271937Y-68932321D01*
X95271936Y-68932324D01*
X95216751Y-69098861D01*
X95216751Y-69098862D01*
X95216750Y-69098862D01*
X95206250Y-69201641D01*
X91686500Y-69201641D01*
X91686500Y-67004686D01*
X114262300Y-67004686D01*
X114262300Y-67172229D01*
X114294982Y-67336532D01*
X114294984Y-67336540D01*
X114359095Y-67491318D01*
X114452173Y-67630620D01*
X114570637Y-67749084D01*
X114663294Y-67810995D01*
X114709937Y-67842161D01*
X114864718Y-67906274D01*
X115029028Y-67938957D01*
X115029032Y-67938958D01*
X115029033Y-67938958D01*
X115196568Y-67938958D01*
X115196569Y-67938957D01*
X115360882Y-67906274D01*
X115515663Y-67842161D01*
X115654962Y-67749084D01*
X115773426Y-67630620D01*
X115866503Y-67491321D01*
X115930616Y-67336540D01*
X115963300Y-67172225D01*
X115963300Y-67004691D01*
X115930616Y-66840376D01*
X115866503Y-66685595D01*
X115791193Y-66572886D01*
X185102900Y-66572886D01*
X185102900Y-66740429D01*
X185135582Y-66904732D01*
X185135584Y-66904740D01*
X185199695Y-67059518D01*
X185292773Y-67198820D01*
X185411237Y-67317284D01*
X185503894Y-67379195D01*
X185550537Y-67410361D01*
X185705318Y-67474474D01*
X185869628Y-67507157D01*
X185869632Y-67507158D01*
X185869633Y-67507158D01*
X186037168Y-67507158D01*
X186037169Y-67507157D01*
X186201482Y-67474474D01*
X186356263Y-67410361D01*
X186495562Y-67317284D01*
X186614026Y-67198820D01*
X186707103Y-67059521D01*
X186771216Y-66904740D01*
X186803900Y-66740425D01*
X186803900Y-66572891D01*
X186771216Y-66408576D01*
X186714081Y-66270642D01*
X186707104Y-66253797D01*
X186614026Y-66114495D01*
X186495562Y-65996031D01*
X186356260Y-65902953D01*
X186201482Y-65838842D01*
X186201474Y-65838840D01*
X186037171Y-65806158D01*
X186037167Y-65806158D01*
X185869633Y-65806158D01*
X185869628Y-65806158D01*
X185705325Y-65838840D01*
X185705317Y-65838842D01*
X185550539Y-65902953D01*
X185411237Y-65996031D01*
X185292773Y-66114495D01*
X185199695Y-66253797D01*
X185135584Y-66408575D01*
X185135582Y-66408583D01*
X185102900Y-66572886D01*
X115791193Y-66572886D01*
X115773426Y-66546296D01*
X115773425Y-66546295D01*
X115773423Y-66546292D01*
X115654962Y-66427831D01*
X115515660Y-66334753D01*
X115360882Y-66270642D01*
X115360874Y-66270640D01*
X115196571Y-66237958D01*
X115196567Y-66237958D01*
X115029033Y-66237958D01*
X115029028Y-66237958D01*
X114864725Y-66270640D01*
X114864717Y-66270642D01*
X114709939Y-66334753D01*
X114570637Y-66427831D01*
X114452173Y-66546295D01*
X114359095Y-66685597D01*
X114294984Y-66840375D01*
X114294982Y-66840383D01*
X114262300Y-67004686D01*
X91686500Y-67004686D01*
X91686500Y-63690086D01*
X133744100Y-63690086D01*
X133744100Y-63857629D01*
X133776782Y-64021932D01*
X133776784Y-64021940D01*
X133840896Y-64176719D01*
X133840898Y-64176723D01*
X133937212Y-64320868D01*
X133958090Y-64387545D01*
X133939605Y-64454925D01*
X133937212Y-64458648D01*
X133840898Y-64602792D01*
X133840896Y-64602796D01*
X133776784Y-64757575D01*
X133776782Y-64757583D01*
X133744100Y-64921886D01*
X133744100Y-65089429D01*
X133776782Y-65253732D01*
X133776784Y-65253740D01*
X133840895Y-65408518D01*
X133933973Y-65547820D01*
X134052437Y-65666284D01*
X134145094Y-65728195D01*
X134191737Y-65759361D01*
X134346518Y-65823474D01*
X134510828Y-65856157D01*
X134510832Y-65856158D01*
X134510833Y-65856158D01*
X134678368Y-65856158D01*
X134678369Y-65856157D01*
X134842682Y-65823474D01*
X134997463Y-65759361D01*
X135136762Y-65666284D01*
X135255226Y-65547820D01*
X135348303Y-65408521D01*
X135412416Y-65253740D01*
X135445100Y-65089425D01*
X135445100Y-64921891D01*
X135412416Y-64757576D01*
X135362827Y-64637859D01*
X135348304Y-64602797D01*
X135336021Y-64584415D01*
X135255226Y-64463496D01*
X135255225Y-64463495D01*
X135251987Y-64458649D01*
X135231109Y-64391972D01*
X135249593Y-64324591D01*
X135251987Y-64320867D01*
X135255226Y-64316020D01*
X135348303Y-64176721D01*
X135412416Y-64021940D01*
X135445100Y-63857625D01*
X135445100Y-63690091D01*
X135443655Y-63682828D01*
X150939900Y-63682828D01*
X150939900Y-63850371D01*
X150972582Y-64014674D01*
X150972584Y-64014682D01*
X151036695Y-64169460D01*
X151129773Y-64308762D01*
X151248237Y-64427226D01*
X151340894Y-64489137D01*
X151387537Y-64520303D01*
X151542318Y-64584416D01*
X151706628Y-64617099D01*
X151706632Y-64617100D01*
X151706633Y-64617100D01*
X151874168Y-64617100D01*
X151874169Y-64617099D01*
X152038482Y-64584416D01*
X152193263Y-64520303D01*
X152332562Y-64427226D01*
X152451026Y-64308762D01*
X152502115Y-64232302D01*
X181376000Y-64232302D01*
X181382401Y-64291830D01*
X181382403Y-64291837D01*
X181432645Y-64426544D01*
X181432649Y-64426551D01*
X181518809Y-64541645D01*
X181518812Y-64541648D01*
X181633906Y-64627808D01*
X181633913Y-64627812D01*
X181768620Y-64678054D01*
X181768627Y-64678056D01*
X181828155Y-64684457D01*
X181828172Y-64684458D01*
X182376000Y-64684458D01*
X182876000Y-64684458D01*
X183423828Y-64684458D01*
X183423844Y-64684457D01*
X183483372Y-64678056D01*
X183483379Y-64678054D01*
X183618086Y-64627812D01*
X183618093Y-64627808D01*
X183733187Y-64541648D01*
X183733190Y-64541645D01*
X183819350Y-64426551D01*
X183819354Y-64426544D01*
X183869596Y-64291837D01*
X183869598Y-64291830D01*
X183875999Y-64232302D01*
X183876000Y-64232285D01*
X183876000Y-63909458D01*
X182876000Y-63909458D01*
X182876000Y-64684458D01*
X182376000Y-64684458D01*
X182376000Y-63909458D01*
X181376000Y-63909458D01*
X181376000Y-64232302D01*
X152502115Y-64232302D01*
X152544103Y-64169463D01*
X152608216Y-64014682D01*
X152640900Y-63850367D01*
X152640900Y-63682833D01*
X152608216Y-63518518D01*
X152547110Y-63370997D01*
X152544104Y-63363739D01*
X152451026Y-63224437D01*
X152332562Y-63105973D01*
X152193260Y-63012895D01*
X152038482Y-62948784D01*
X152038474Y-62948782D01*
X151874171Y-62916100D01*
X151874167Y-62916100D01*
X151706633Y-62916100D01*
X151706628Y-62916100D01*
X151542325Y-62948782D01*
X151542317Y-62948784D01*
X151387539Y-63012895D01*
X151248237Y-63105973D01*
X151129773Y-63224437D01*
X151036695Y-63363739D01*
X150972584Y-63518517D01*
X150972582Y-63518525D01*
X150939900Y-63682828D01*
X135443655Y-63682828D01*
X135412416Y-63525776D01*
X135362371Y-63404957D01*
X135348304Y-63370997D01*
X135343454Y-63363739D01*
X135306319Y-63308162D01*
X135255226Y-63231695D01*
X135136762Y-63113231D01*
X134997460Y-63020153D01*
X134842682Y-62956042D01*
X134842674Y-62956040D01*
X134678371Y-62923358D01*
X134678367Y-62923358D01*
X134510833Y-62923358D01*
X134510828Y-62923358D01*
X134346525Y-62956040D01*
X134346517Y-62956042D01*
X134191739Y-63020153D01*
X134052437Y-63113231D01*
X133933973Y-63231695D01*
X133840895Y-63370997D01*
X133776784Y-63525775D01*
X133776782Y-63525783D01*
X133744100Y-63690086D01*
X91686500Y-63690086D01*
X91686500Y-62585086D01*
X112560500Y-62585086D01*
X112560500Y-62752629D01*
X112593182Y-62916932D01*
X112593184Y-62916940D01*
X112657295Y-63071718D01*
X112750373Y-63211020D01*
X112868837Y-63329484D01*
X112961494Y-63391395D01*
X113008137Y-63422561D01*
X113162918Y-63486674D01*
X113323005Y-63518517D01*
X113327228Y-63519357D01*
X113327232Y-63519358D01*
X113327233Y-63519358D01*
X113494768Y-63519358D01*
X113494769Y-63519357D01*
X113659082Y-63486674D01*
X113813863Y-63422561D01*
X113953162Y-63329484D01*
X114071626Y-63211020D01*
X114164703Y-63071721D01*
X114228816Y-62916940D01*
X114261500Y-62752625D01*
X114261500Y-62585091D01*
X114228816Y-62420776D01*
X114164703Y-62265995D01*
X114133537Y-62219352D01*
X114071626Y-62126695D01*
X113953162Y-62008231D01*
X113813860Y-61915153D01*
X113659082Y-61851042D01*
X113659074Y-61851040D01*
X113494771Y-61818358D01*
X113494767Y-61818358D01*
X113327233Y-61818358D01*
X113327228Y-61818358D01*
X113162925Y-61851040D01*
X113162917Y-61851042D01*
X113008139Y-61915153D01*
X112868837Y-62008231D01*
X112750373Y-62126695D01*
X112657295Y-62265997D01*
X112593184Y-62420775D01*
X112593182Y-62420783D01*
X112560500Y-62585086D01*
X91686500Y-62585086D01*
X91686500Y-56069886D01*
X130554000Y-56069886D01*
X130554000Y-56237429D01*
X130586682Y-56401732D01*
X130586684Y-56401740D01*
X130650795Y-56556518D01*
X130743872Y-56695818D01*
X130745086Y-56697297D01*
X130745479Y-56698222D01*
X130747258Y-56700885D01*
X130746752Y-56701222D01*
X130772396Y-56761608D01*
X130760602Y-56830475D01*
X130745086Y-56854619D01*
X130743872Y-56856097D01*
X130650795Y-56995397D01*
X130586684Y-57150175D01*
X130586682Y-57150183D01*
X130554000Y-57314486D01*
X130554000Y-57482029D01*
X130586682Y-57646332D01*
X130586684Y-57646340D01*
X130650795Y-57801118D01*
X130743873Y-57940420D01*
X130761730Y-57958277D01*
X130795215Y-58019600D01*
X130790231Y-58089292D01*
X130761730Y-58133639D01*
X130743876Y-58151492D01*
X130743873Y-58151495D01*
X130650795Y-58290797D01*
X130586684Y-58445575D01*
X130586682Y-58445583D01*
X130554000Y-58609886D01*
X130554000Y-58777429D01*
X130586682Y-58941732D01*
X130586684Y-58941740D01*
X130650795Y-59096518D01*
X130743873Y-59235820D01*
X130743875Y-59235821D01*
X130750708Y-59242654D01*
X130784196Y-59303975D01*
X130779215Y-59373667D01*
X130762000Y-59403592D01*
X130762358Y-59403831D01*
X130665895Y-59548197D01*
X130601784Y-59702975D01*
X130601782Y-59702983D01*
X130569100Y-59867286D01*
X130569100Y-60034829D01*
X130601782Y-60199132D01*
X130601784Y-60199140D01*
X130665895Y-60353918D01*
X130758972Y-60493218D01*
X130758973Y-60493219D01*
X130758974Y-60493220D01*
X130787130Y-60521376D01*
X130820615Y-60582697D01*
X130815631Y-60652389D01*
X130787132Y-60696736D01*
X130766973Y-60716895D01*
X130673895Y-60856197D01*
X130609784Y-61010975D01*
X130609782Y-61010983D01*
X130577100Y-61175286D01*
X130577100Y-61342829D01*
X130609782Y-61507132D01*
X130609784Y-61507140D01*
X130673895Y-61661918D01*
X130766973Y-61801220D01*
X130784830Y-61819077D01*
X130818315Y-61880400D01*
X130813331Y-61950092D01*
X130784830Y-61994439D01*
X130766976Y-62012292D01*
X130766973Y-62012295D01*
X130673895Y-62151597D01*
X130609784Y-62306375D01*
X130609782Y-62306383D01*
X130577100Y-62470686D01*
X130577100Y-62638229D01*
X130609782Y-62802532D01*
X130609784Y-62802540D01*
X130673895Y-62957318D01*
X130766973Y-63096620D01*
X130885437Y-63215084D01*
X130978094Y-63276995D01*
X131024737Y-63308161D01*
X131179518Y-63372274D01*
X131343828Y-63404957D01*
X131343832Y-63404958D01*
X131343833Y-63404958D01*
X131511368Y-63404958D01*
X131511369Y-63404957D01*
X131675682Y-63372274D01*
X131830463Y-63308161D01*
X131969762Y-63215084D01*
X132088226Y-63096620D01*
X132181303Y-62957321D01*
X132245416Y-62802540D01*
X132278100Y-62638225D01*
X132278100Y-62470691D01*
X132245416Y-62306376D01*
X132181303Y-62151595D01*
X132140367Y-62090330D01*
X132088226Y-62012295D01*
X132088224Y-62012293D01*
X132070371Y-61994441D01*
X132036884Y-61933119D01*
X132041867Y-61863427D01*
X132070371Y-61819075D01*
X132088226Y-61801220D01*
X132120950Y-61752245D01*
X132181303Y-61661921D01*
X132245416Y-61507140D01*
X132278100Y-61342825D01*
X132278100Y-61175291D01*
X132246903Y-61018450D01*
X181375500Y-61018450D01*
X181375500Y-61220465D01*
X181414907Y-61418577D01*
X181414909Y-61418585D01*
X181492213Y-61605213D01*
X181545904Y-61685567D01*
X181566782Y-61752245D01*
X181548297Y-61819625D01*
X181545904Y-61823349D01*
X181492213Y-61903702D01*
X181414909Y-62090330D01*
X181414907Y-62090338D01*
X181375500Y-62288450D01*
X181375500Y-62490465D01*
X181414907Y-62688577D01*
X181414910Y-62688589D01*
X181448547Y-62769796D01*
X181456016Y-62839265D01*
X181436405Y-62884322D01*
X181436895Y-62884590D01*
X181433910Y-62890054D01*
X181433260Y-62891550D01*
X181432646Y-62892369D01*
X181432645Y-62892371D01*
X181382403Y-63027078D01*
X181382401Y-63027085D01*
X181376000Y-63086613D01*
X181376000Y-63409458D01*
X182260134Y-63409458D01*
X182284326Y-63411841D01*
X182287123Y-63412397D01*
X182299995Y-63414957D01*
X182299996Y-63414958D01*
X182299997Y-63414958D01*
X182449485Y-63414958D01*
X182441795Y-63419398D01*
X182385940Y-63475253D01*
X182346444Y-63543662D01*
X182326000Y-63619962D01*
X182326000Y-63698954D01*
X182346444Y-63775254D01*
X182385940Y-63843663D01*
X182441795Y-63899518D01*
X182510204Y-63939014D01*
X182586504Y-63959458D01*
X182665496Y-63959458D01*
X182741796Y-63939014D01*
X182810205Y-63899518D01*
X182866060Y-63843663D01*
X182905556Y-63775254D01*
X182926000Y-63698954D01*
X182926000Y-63619962D01*
X182905556Y-63543662D01*
X182866060Y-63475253D01*
X182810205Y-63419398D01*
X182802515Y-63414958D01*
X182952004Y-63414958D01*
X182952004Y-63414957D01*
X182965473Y-63412278D01*
X182967674Y-63411841D01*
X182991866Y-63409458D01*
X183876000Y-63409458D01*
X183876000Y-63086630D01*
X183875999Y-63086613D01*
X183869598Y-63027085D01*
X183869596Y-63027078D01*
X183819354Y-62892371D01*
X183819353Y-62892369D01*
X183818745Y-62891557D01*
X183818390Y-62890606D01*
X183815103Y-62884586D01*
X183815968Y-62884113D01*
X183794329Y-62826092D01*
X183803452Y-62769796D01*
X183837091Y-62688585D01*
X183876500Y-62490461D01*
X183876500Y-62288455D01*
X183837091Y-62090331D01*
X183759786Y-61903702D01*
X183706094Y-61823347D01*
X183685217Y-61756672D01*
X183703701Y-61689292D01*
X183706078Y-61685592D01*
X183759786Y-61605214D01*
X183837091Y-61418585D01*
X183876500Y-61220461D01*
X183876500Y-61018455D01*
X183837091Y-60820331D01*
X183759786Y-60633702D01*
X183759784Y-60633699D01*
X183759782Y-60633695D01*
X183647558Y-60465739D01*
X183504718Y-60322899D01*
X183336762Y-60210675D01*
X183336752Y-60210670D01*
X183150127Y-60133367D01*
X183150119Y-60133365D01*
X182952007Y-60093958D01*
X182952003Y-60093958D01*
X182299997Y-60093958D01*
X182299992Y-60093958D01*
X182101880Y-60133365D01*
X182101872Y-60133367D01*
X181915247Y-60210670D01*
X181915237Y-60210675D01*
X181747281Y-60322899D01*
X181604441Y-60465739D01*
X181492217Y-60633695D01*
X181492212Y-60633705D01*
X181414909Y-60820330D01*
X181414907Y-60820338D01*
X181375500Y-61018450D01*
X132246903Y-61018450D01*
X132245416Y-61010976D01*
X132181303Y-60856195D01*
X132088226Y-60716896D01*
X132060068Y-60688738D01*
X132026584Y-60627418D01*
X132031568Y-60557726D01*
X132060071Y-60513375D01*
X132080226Y-60493220D01*
X132094508Y-60471846D01*
X132173303Y-60353921D01*
X132237416Y-60199140D01*
X132270100Y-60034825D01*
X132270100Y-59867291D01*
X132262238Y-59827765D01*
X132262238Y-59827762D01*
X132258396Y-59808447D01*
X173078100Y-59808447D01*
X173078100Y-59981669D01*
X173086277Y-60033297D01*
X173102126Y-60133367D01*
X173105198Y-60152759D01*
X173158727Y-60317503D01*
X173237368Y-60471846D01*
X173339186Y-60611986D01*
X173461672Y-60734472D01*
X173601812Y-60836290D01*
X173756155Y-60914931D01*
X173920899Y-60968460D01*
X174091989Y-60995558D01*
X174091990Y-60995558D01*
X174265210Y-60995558D01*
X174265211Y-60995558D01*
X174436301Y-60968460D01*
X174601045Y-60914931D01*
X174755388Y-60836290D01*
X174895528Y-60734472D01*
X175018014Y-60611986D01*
X175119832Y-60471846D01*
X175198473Y-60317503D01*
X175252002Y-60152759D01*
X175279100Y-59981669D01*
X175279100Y-59808447D01*
X175252002Y-59637357D01*
X175198473Y-59472613D01*
X175198470Y-59472607D01*
X175166314Y-59409495D01*
X175166313Y-59409494D01*
X175140733Y-59359291D01*
X175140730Y-59359286D01*
X185153700Y-59359286D01*
X185153700Y-59526829D01*
X185186382Y-59691132D01*
X185186384Y-59691140D01*
X185250495Y-59845918D01*
X185343573Y-59985220D01*
X185462037Y-60103684D01*
X185554694Y-60165595D01*
X185601337Y-60196761D01*
X185756118Y-60260874D01*
X185920428Y-60293557D01*
X185920432Y-60293558D01*
X185920433Y-60293558D01*
X186087968Y-60293558D01*
X186087969Y-60293557D01*
X186252282Y-60260874D01*
X186407063Y-60196761D01*
X186546362Y-60103684D01*
X186664826Y-59985220D01*
X186757903Y-59845921D01*
X186822016Y-59691140D01*
X186854700Y-59526825D01*
X186854700Y-59359291D01*
X186822016Y-59194976D01*
X186757903Y-59040195D01*
X186700193Y-58953826D01*
X186664826Y-58900895D01*
X186546362Y-58782431D01*
X186407060Y-58689353D01*
X186252282Y-58625242D01*
X186252274Y-58625240D01*
X186087971Y-58592558D01*
X186087967Y-58592558D01*
X185920433Y-58592558D01*
X185920428Y-58592558D01*
X185756125Y-58625240D01*
X185756117Y-58625242D01*
X185601339Y-58689353D01*
X185462037Y-58782431D01*
X185343573Y-58900895D01*
X185250495Y-59040197D01*
X185186384Y-59194975D01*
X185186382Y-59194983D01*
X185153700Y-59359286D01*
X175140730Y-59359286D01*
X175119832Y-59318270D01*
X175018014Y-59178130D01*
X174895528Y-59055644D01*
X174755388Y-58953826D01*
X174601045Y-58875185D01*
X174436301Y-58821656D01*
X174436299Y-58821655D01*
X174436298Y-58821655D01*
X174304871Y-58800839D01*
X174265211Y-58794558D01*
X174091989Y-58794558D01*
X174052328Y-58800839D01*
X173920902Y-58821655D01*
X173756152Y-58875186D01*
X173601811Y-58953826D01*
X173521856Y-59011917D01*
X173461672Y-59055644D01*
X173461670Y-59055646D01*
X173461669Y-59055646D01*
X173339188Y-59178127D01*
X173339188Y-59178128D01*
X173339186Y-59178130D01*
X173326947Y-59194976D01*
X173237368Y-59318269D01*
X173158728Y-59472610D01*
X173105197Y-59637360D01*
X173094805Y-59702975D01*
X173078100Y-59808447D01*
X132258396Y-59808447D01*
X132237417Y-59702983D01*
X132237416Y-59702976D01*
X132173303Y-59548195D01*
X132122797Y-59472607D01*
X132080226Y-59408895D01*
X132080224Y-59408894D01*
X132073391Y-59402061D01*
X132039903Y-59340740D01*
X132044884Y-59271048D01*
X132062102Y-59241125D01*
X132061742Y-59240885D01*
X132086068Y-59204477D01*
X132158203Y-59096521D01*
X132222316Y-58941740D01*
X132255000Y-58777425D01*
X132255000Y-58609891D01*
X132222316Y-58445576D01*
X132158203Y-58290795D01*
X132090962Y-58190162D01*
X132065126Y-58151495D01*
X132065124Y-58151493D01*
X132047271Y-58133641D01*
X132013784Y-58072319D01*
X132018767Y-58002627D01*
X132047271Y-57958275D01*
X132065126Y-57940420D01*
X132158203Y-57801121D01*
X132222316Y-57646340D01*
X132255000Y-57482025D01*
X132255000Y-57314491D01*
X132222316Y-57150176D01*
X132158203Y-56995395D01*
X132090652Y-56894298D01*
X132065128Y-56856098D01*
X132063921Y-56854628D01*
X132063529Y-56853705D01*
X132061742Y-56851031D01*
X132062249Y-56850692D01*
X132036604Y-56790320D01*
X132048392Y-56721451D01*
X132063921Y-56697288D01*
X132065128Y-56695817D01*
X132132680Y-56594718D01*
X132158203Y-56556521D01*
X132222316Y-56401740D01*
X132255000Y-56237425D01*
X132255000Y-56069891D01*
X132222316Y-55905576D01*
X132158203Y-55750795D01*
X132121064Y-55695213D01*
X132065126Y-55611495D01*
X131946662Y-55493031D01*
X131807360Y-55399953D01*
X131652582Y-55335842D01*
X131652574Y-55335840D01*
X131488271Y-55303158D01*
X131488267Y-55303158D01*
X131320733Y-55303158D01*
X131320728Y-55303158D01*
X131156425Y-55335840D01*
X131156417Y-55335842D01*
X131001639Y-55399953D01*
X130862337Y-55493031D01*
X130743873Y-55611495D01*
X130650795Y-55750797D01*
X130586684Y-55905575D01*
X130586682Y-55905583D01*
X130554000Y-56069886D01*
X91686500Y-56069886D01*
X91686500Y-53558237D01*
X117482100Y-53558237D01*
X117482100Y-53745478D01*
X117518625Y-53929101D01*
X117518627Y-53929109D01*
X117590276Y-54102086D01*
X117590281Y-54102095D01*
X117694297Y-54257765D01*
X117694300Y-54257769D01*
X117826688Y-54390157D01*
X117826692Y-54390160D01*
X117982362Y-54494176D01*
X117982368Y-54494179D01*
X117982369Y-54494180D01*
X118155349Y-54565831D01*
X118338979Y-54602357D01*
X118338983Y-54602358D01*
X118338984Y-54602358D01*
X118526217Y-54602358D01*
X118526218Y-54602357D01*
X118709851Y-54565831D01*
X118882831Y-54494180D01*
X119038508Y-54390160D01*
X119170902Y-54257766D01*
X119274922Y-54102089D01*
X119346573Y-53929109D01*
X119383100Y-53745474D01*
X119383100Y-53558242D01*
X119381078Y-53548077D01*
X119378555Y-53535390D01*
X119374954Y-53517286D01*
X150939900Y-53517286D01*
X150939900Y-53684829D01*
X150972582Y-53849132D01*
X150972584Y-53849140D01*
X151036695Y-54003918D01*
X151129773Y-54143220D01*
X151147630Y-54161077D01*
X151181115Y-54222400D01*
X151176131Y-54292092D01*
X151147630Y-54336439D01*
X151129776Y-54354292D01*
X151129773Y-54354295D01*
X151036695Y-54493597D01*
X150972584Y-54648375D01*
X150972582Y-54648383D01*
X150939900Y-54812686D01*
X150939900Y-54980229D01*
X150972582Y-55144532D01*
X150972584Y-55144540D01*
X151036695Y-55299318D01*
X151129773Y-55438620D01*
X151147630Y-55456477D01*
X151181115Y-55517800D01*
X151176131Y-55587492D01*
X151147630Y-55631839D01*
X151129776Y-55649692D01*
X151129773Y-55649695D01*
X151036695Y-55788997D01*
X150972584Y-55943775D01*
X150972582Y-55943783D01*
X150939900Y-56108086D01*
X150939900Y-56275629D01*
X150972582Y-56439932D01*
X150972584Y-56439940D01*
X151036695Y-56594718D01*
X151129772Y-56734018D01*
X151130986Y-56735497D01*
X151131379Y-56736422D01*
X151133158Y-56739085D01*
X151132652Y-56739422D01*
X151158296Y-56799808D01*
X151146502Y-56868675D01*
X151130986Y-56892819D01*
X151129772Y-56894297D01*
X151036695Y-57033597D01*
X150972584Y-57188375D01*
X150972582Y-57188383D01*
X150939900Y-57352686D01*
X150939900Y-57520229D01*
X150972582Y-57684532D01*
X150972584Y-57684540D01*
X151036695Y-57839318D01*
X151129773Y-57978620D01*
X151248237Y-58097084D01*
X151302946Y-58133639D01*
X151387537Y-58190161D01*
X151542318Y-58254274D01*
X151706628Y-58286957D01*
X151706632Y-58286958D01*
X151706633Y-58286958D01*
X151874168Y-58286958D01*
X151874169Y-58286957D01*
X152038482Y-58254274D01*
X152193263Y-58190161D01*
X152332562Y-58097084D01*
X152451026Y-57978620D01*
X152535173Y-57852686D01*
X163004900Y-57852686D01*
X163004900Y-58020229D01*
X163037582Y-58184532D01*
X163037584Y-58184540D01*
X163101695Y-58339318D01*
X163194773Y-58478620D01*
X163313237Y-58597084D01*
X163355376Y-58625240D01*
X163452537Y-58690161D01*
X163607318Y-58754274D01*
X163748874Y-58782431D01*
X163771628Y-58786957D01*
X163771632Y-58786958D01*
X163771633Y-58786958D01*
X163939168Y-58786958D01*
X163939169Y-58786957D01*
X164103482Y-58754274D01*
X164258263Y-58690161D01*
X164397562Y-58597084D01*
X164516026Y-58478620D01*
X164609103Y-58339321D01*
X164673216Y-58184540D01*
X164705900Y-58020225D01*
X164705900Y-57852691D01*
X164673216Y-57688376D01*
X164609103Y-57533595D01*
X164574645Y-57482025D01*
X164516026Y-57394295D01*
X164397562Y-57275831D01*
X164258260Y-57182753D01*
X164103482Y-57118642D01*
X164103474Y-57118640D01*
X163939171Y-57085958D01*
X163939167Y-57085958D01*
X163771633Y-57085958D01*
X163771628Y-57085958D01*
X163607325Y-57118640D01*
X163607317Y-57118642D01*
X163452539Y-57182753D01*
X163313237Y-57275831D01*
X163194773Y-57394295D01*
X163101695Y-57533597D01*
X163037584Y-57688375D01*
X163037582Y-57688383D01*
X163004900Y-57852686D01*
X152535173Y-57852686D01*
X152544103Y-57839321D01*
X152559926Y-57801121D01*
X152560744Y-57799147D01*
X152560744Y-57799146D01*
X152608216Y-57684540D01*
X152640900Y-57520225D01*
X152640900Y-57352691D01*
X152608216Y-57188376D01*
X152544103Y-57033595D01*
X152512796Y-56986742D01*
X152451028Y-56894298D01*
X152449821Y-56892828D01*
X152449429Y-56891905D01*
X152447642Y-56889231D01*
X152448149Y-56888892D01*
X152427764Y-56840902D01*
X181414400Y-56840902D01*
X181420801Y-56900430D01*
X181420803Y-56900437D01*
X181471045Y-57035144D01*
X181471049Y-57035151D01*
X181557209Y-57150245D01*
X181557212Y-57150248D01*
X181672306Y-57236408D01*
X181672313Y-57236412D01*
X181807020Y-57286654D01*
X181807027Y-57286656D01*
X181866555Y-57293057D01*
X181866572Y-57293058D01*
X182414400Y-57293058D01*
X182914400Y-57293058D01*
X183462228Y-57293058D01*
X183462244Y-57293057D01*
X183521772Y-57286656D01*
X183521779Y-57286654D01*
X183656486Y-57236412D01*
X183656493Y-57236408D01*
X183771587Y-57150248D01*
X183771590Y-57150245D01*
X183857750Y-57035151D01*
X183857754Y-57035144D01*
X183907996Y-56900437D01*
X183907998Y-56900430D01*
X183914399Y-56840902D01*
X183914400Y-56840885D01*
X183914400Y-56518058D01*
X182914400Y-56518058D01*
X182914400Y-57293058D01*
X182414400Y-57293058D01*
X182414400Y-56518058D01*
X181414400Y-56518058D01*
X181414400Y-56840902D01*
X152427764Y-56840902D01*
X152422504Y-56828520D01*
X152434292Y-56759651D01*
X152449821Y-56735488D01*
X152451028Y-56734017D01*
X152473166Y-56700885D01*
X152544103Y-56594721D01*
X152608216Y-56439940D01*
X152640900Y-56275625D01*
X152640900Y-56108091D01*
X152608216Y-55943776D01*
X152544103Y-55788995D01*
X152452416Y-55651776D01*
X152451026Y-55649695D01*
X152451024Y-55649693D01*
X152433171Y-55631841D01*
X152399684Y-55570519D01*
X152404667Y-55500827D01*
X152433171Y-55456475D01*
X152451026Y-55438620D01*
X152476861Y-55399955D01*
X152544103Y-55299321D01*
X152608216Y-55144540D01*
X152640900Y-54980225D01*
X152640900Y-54812691D01*
X152608216Y-54648376D01*
X152544103Y-54493595D01*
X152474988Y-54390157D01*
X152451026Y-54354295D01*
X152451024Y-54354293D01*
X152433171Y-54336441D01*
X152399684Y-54275119D01*
X152404667Y-54205427D01*
X152433171Y-54161075D01*
X152451026Y-54143220D01*
X152528558Y-54027185D01*
X152544103Y-54003921D01*
X152608216Y-53849140D01*
X152640900Y-53684825D01*
X152640900Y-53517291D01*
X152608216Y-53352976D01*
X152558627Y-53233259D01*
X152544104Y-53198197D01*
X152451026Y-53058895D01*
X152332564Y-52940433D01*
X152292339Y-52913556D01*
X152193263Y-52847355D01*
X152193262Y-52847354D01*
X152193260Y-52847353D01*
X152099332Y-52808447D01*
X173078100Y-52808447D01*
X173078100Y-52981668D01*
X173090331Y-53058896D01*
X173105198Y-53152759D01*
X173158727Y-53317503D01*
X173237368Y-53471846D01*
X173339186Y-53611986D01*
X173461672Y-53734472D01*
X173601812Y-53836290D01*
X173756155Y-53914931D01*
X173920899Y-53968460D01*
X174091989Y-53995558D01*
X174091990Y-53995558D01*
X174265210Y-53995558D01*
X174265211Y-53995558D01*
X174436301Y-53968460D01*
X174601045Y-53914931D01*
X174755388Y-53836290D01*
X174895528Y-53734472D01*
X175002950Y-53627050D01*
X181413900Y-53627050D01*
X181413900Y-53829065D01*
X181453307Y-54027177D01*
X181453309Y-54027185D01*
X181530613Y-54213813D01*
X181530614Y-54213814D01*
X181582917Y-54292092D01*
X181584304Y-54294167D01*
X181605182Y-54360845D01*
X181586697Y-54428225D01*
X181584304Y-54431949D01*
X181530613Y-54512302D01*
X181453309Y-54698930D01*
X181453307Y-54698938D01*
X181413900Y-54897050D01*
X181413900Y-55099065D01*
X181453307Y-55297177D01*
X181453310Y-55297189D01*
X181486947Y-55378396D01*
X181494416Y-55447865D01*
X181474805Y-55492922D01*
X181475295Y-55493190D01*
X181472310Y-55498654D01*
X181471660Y-55500150D01*
X181471046Y-55500969D01*
X181471045Y-55500971D01*
X181420803Y-55635678D01*
X181420801Y-55635685D01*
X181414400Y-55695213D01*
X181414400Y-56018058D01*
X182298534Y-56018058D01*
X182322726Y-56020441D01*
X182325523Y-56020997D01*
X182338395Y-56023557D01*
X182338396Y-56023558D01*
X182338397Y-56023558D01*
X182487885Y-56023558D01*
X182480195Y-56027998D01*
X182424340Y-56083853D01*
X182384844Y-56152262D01*
X182364400Y-56228562D01*
X182364400Y-56307554D01*
X182384844Y-56383854D01*
X182424340Y-56452263D01*
X182480195Y-56508118D01*
X182548604Y-56547614D01*
X182624904Y-56568058D01*
X182703896Y-56568058D01*
X182780196Y-56547614D01*
X182848605Y-56508118D01*
X182904460Y-56452263D01*
X182943956Y-56383854D01*
X182964400Y-56307554D01*
X182964400Y-56228562D01*
X182943956Y-56152262D01*
X182904460Y-56083853D01*
X182848605Y-56027998D01*
X182840915Y-56023558D01*
X182990404Y-56023558D01*
X182990404Y-56023557D01*
X183003873Y-56020878D01*
X183006074Y-56020441D01*
X183030266Y-56018058D01*
X183914400Y-56018058D01*
X183914400Y-55695230D01*
X183914399Y-55695213D01*
X183907998Y-55635685D01*
X183907996Y-55635678D01*
X183857754Y-55500971D01*
X183857753Y-55500969D01*
X183857145Y-55500157D01*
X183856790Y-55499206D01*
X183853503Y-55493186D01*
X183854368Y-55492713D01*
X183832729Y-55434692D01*
X183841852Y-55378396D01*
X183875491Y-55297185D01*
X183914900Y-55099061D01*
X183914900Y-54897055D01*
X183875491Y-54698931D01*
X183798186Y-54512302D01*
X183744494Y-54431947D01*
X183723617Y-54365272D01*
X183742101Y-54297892D01*
X183744478Y-54294192D01*
X183798186Y-54213814D01*
X183875491Y-54027185D01*
X183914900Y-53829061D01*
X183914900Y-53627055D01*
X183875491Y-53428931D01*
X183798186Y-53242302D01*
X183798184Y-53242299D01*
X183798182Y-53242295D01*
X183685958Y-53074339D01*
X183543118Y-52931499D01*
X183375162Y-52819275D01*
X183375152Y-52819270D01*
X183188527Y-52741967D01*
X183188519Y-52741965D01*
X182990407Y-52702558D01*
X182990403Y-52702558D01*
X182338397Y-52702558D01*
X182338392Y-52702558D01*
X182140280Y-52741965D01*
X182140272Y-52741967D01*
X181953647Y-52819270D01*
X181953637Y-52819275D01*
X181785681Y-52931499D01*
X181642841Y-53074339D01*
X181530617Y-53242295D01*
X181530612Y-53242305D01*
X181453309Y-53428930D01*
X181453307Y-53428938D01*
X181413900Y-53627050D01*
X175002950Y-53627050D01*
X175018014Y-53611986D01*
X175119832Y-53471846D01*
X175198473Y-53317503D01*
X175252002Y-53152759D01*
X175279100Y-52981669D01*
X175279100Y-52808447D01*
X175252002Y-52637357D01*
X175198473Y-52472613D01*
X175119832Y-52318270D01*
X175018014Y-52178130D01*
X174895528Y-52055644D01*
X174755388Y-51953826D01*
X174601045Y-51875185D01*
X174436301Y-51821656D01*
X174436299Y-51821655D01*
X174436298Y-51821655D01*
X174304871Y-51800839D01*
X174265211Y-51794558D01*
X174091989Y-51794558D01*
X174052328Y-51800839D01*
X173920902Y-51821655D01*
X173756152Y-51875186D01*
X173601811Y-51953826D01*
X173521856Y-52011917D01*
X173461672Y-52055644D01*
X173461670Y-52055646D01*
X173461669Y-52055646D01*
X173339188Y-52178127D01*
X173339188Y-52178128D01*
X173339186Y-52178130D01*
X173295459Y-52238314D01*
X173237368Y-52318269D01*
X173158728Y-52472610D01*
X173105197Y-52637360D01*
X173078100Y-52808447D01*
X152099332Y-52808447D01*
X152038482Y-52783242D01*
X152038474Y-52783240D01*
X151874171Y-52750558D01*
X151874167Y-52750558D01*
X151706633Y-52750558D01*
X151706628Y-52750558D01*
X151542325Y-52783240D01*
X151542317Y-52783242D01*
X151387539Y-52847353D01*
X151248237Y-52940431D01*
X151129773Y-53058895D01*
X151036695Y-53198197D01*
X150972584Y-53352975D01*
X150972582Y-53352983D01*
X150939900Y-53517286D01*
X119374954Y-53517286D01*
X119346574Y-53374614D01*
X119346573Y-53374607D01*
X119274922Y-53201627D01*
X119274921Y-53201626D01*
X119274918Y-53201620D01*
X119170902Y-53045950D01*
X119170899Y-53045946D01*
X119038511Y-52913558D01*
X119038507Y-52913555D01*
X118882837Y-52809539D01*
X118882828Y-52809534D01*
X118709851Y-52737885D01*
X118709843Y-52737883D01*
X118526220Y-52701358D01*
X118526216Y-52701358D01*
X118338984Y-52701358D01*
X118338979Y-52701358D01*
X118155356Y-52737883D01*
X118155348Y-52737885D01*
X117982371Y-52809534D01*
X117982362Y-52809539D01*
X117826692Y-52913555D01*
X117826688Y-52913558D01*
X117694300Y-53045946D01*
X117694297Y-53045950D01*
X117590281Y-53201620D01*
X117590276Y-53201629D01*
X117518627Y-53374606D01*
X117518625Y-53374614D01*
X117482100Y-53558237D01*
X91686500Y-53558237D01*
X91686500Y-49715358D01*
X91706185Y-49648319D01*
X91758989Y-49602564D01*
X91810500Y-49591358D01*
X117485400Y-49591358D01*
X117552439Y-49611043D01*
G37*
%TD.AperFunction*%
%TD*%
M02*
